<svg version="1.1" id="Layer_1" xmlns="http://www.w3.org/2000/svg" xmlns:xlink="http://www.w3.org/1999/xlink" x="0px" y="0px"
	 width="100%" viewBox="0 0 826 777" enable-background="new 0 0 826 777" xml:space="preserve">
<path fill="#000000" opacity="1.000000" stroke="none" 
	d="
M470.000000,778.000000 
	C313.333344,778.000000 157.166672,778.000000 1.000000,778.000000 
	C1.000000,519.000000 1.000000,260.000000 1.000000,1.000000 
	C276.333344,1.000000 551.666687,1.000000 827.000000,1.000000 
	C827.000000,260.000000 827.000000,519.000000 827.000000,778.000000 
	C708.166687,778.000000 589.333313,778.000000 470.000000,778.000000 
M646.410889,455.076660 
	C649.236694,455.076660 652.062561,455.076660 654.888367,455.076660 
	C654.935242,454.328583 654.982178,453.580505 655.029053,452.832428 
	C653.137878,452.580719 651.246826,452.109680 649.355530,452.108734 
	C546.928406,452.057587 444.501221,452.042511 342.074066,452.032898 
	C318.923615,452.030731 295.773132,452.042542 272.622864,452.118378 
	C270.991608,452.123749 269.362244,452.713928 267.731995,453.032196 
	C267.836456,453.713684 267.940948,454.395172 268.045441,455.076660 
	C393.841492,455.076660 519.637512,455.076660 646.410889,455.076660 
M337.500275,94.077202 
	C322.008759,94.077339 306.517151,94.049217 291.025940,94.118660 
	C289.364288,94.126114 287.705170,94.701645 286.044891,95.013657 
	C286.142181,95.465034 286.239471,95.916420 286.336761,96.367798 
	C403.082581,96.367798 519.828430,96.367798 636.574219,96.367798 
	C636.617859,95.878014 636.661438,95.388222 636.705017,94.898438 
	C635.082214,94.624924 633.459473,94.112656 631.836487,94.112015 
	C534.057800,94.073708 436.279083,94.077469 337.500275,94.077202 
M524.500244,280.043854 
	C501.010803,280.051270 477.521393,280.060150 454.031952,280.065674 
	C430.209442,280.071320 406.386841,280.054718 382.564514,280.119324 
	C380.952789,280.123688 379.342712,280.728607 377.731903,281.054230 
	C377.842712,281.509979 377.953552,281.965759 378.064392,282.421509 
	C464.219727,282.421509 550.375061,282.421509 636.530396,282.421509 
	C636.537476,281.706238 636.544556,280.990967 636.551636,280.275696 
	C599.541016,279.774139 562.514709,280.269501 524.500244,280.043854 
M318.080383,598.075684 
	C316.627045,598.451355 315.173676,598.826965 313.720337,599.202637 
	C319.773315,602.013977 441.611145,601.397766 444.203186,599.477112 
	C443.896729,599.095703 443.593292,598.385559 443.287537,598.384583 
	C401.845612,598.247803 360.403534,598.162842 318.080383,598.075684 
M544.500000,491.078278 
	C559.956116,491.078278 575.412292,491.078278 590.868408,491.078278 
	C587.721069,487.195007 481.472748,487.243317 477.394379,491.078278 
	C500.256622,491.078278 521.878296,491.078278 544.500000,491.078278 
M535.499817,241.038193 
	C529.011108,241.035324 522.522339,241.029144 516.033630,241.030533 
	C509.711304,241.031891 503.378143,240.812851 497.069702,241.111588 
	C490.911285,241.403214 484.558441,239.960007 478.558746,242.042664 
	C478.584015,242.513535 478.609253,242.984390 478.634491,243.455261 
	C516.028076,243.455261 553.421692,243.455261 591.253723,243.455261 
	C590.710449,242.439117 590.499390,241.684830 590.278259,241.681870 
	C572.352478,241.440948 554.425964,241.258621 535.499817,241.038193 
M323.823151,427.341187 
	C321.651947,431.997131 325.849701,429.970825 326.996307,429.975006 
	C361.797272,430.100708 396.598785,430.083923 431.400177,430.052002 
	C432.696960,430.050812 433.993378,429.675629 435.763153,429.401428 
	C434.958649,428.238525 434.687988,427.501556 434.414062,427.500336 
	C397.809143,427.337524 361.203979,427.228516 323.823151,427.341187 
M546.499756,131.075027 
	C542.667969,131.075119 538.836121,131.075272 535.004333,131.075302 
	C526.156494,131.075363 526.156494,131.075333 524.063660,133.375168 
	C555.611450,133.375168 586.883667,133.375168 618.155823,133.375168 
	C618.167725,132.613190 618.179688,131.851227 618.191589,131.089249 
	C594.628418,131.053604 571.063721,131.083786 546.499756,131.075027 
M465.334961,134.078262 
	C467.520264,133.937424 469.705566,133.796585 471.890869,133.655746 
	C471.947052,133.152176 472.003265,132.648605 472.059479,132.145035 
	C470.858826,131.789154 469.658752,131.124969 468.457397,131.122574 
	C439.366974,131.064392 410.276337,131.063324 381.185944,131.126129 
	C380.029877,131.128616 378.875397,131.859726 377.720184,132.251358 
	C377.818542,132.860336 377.916901,133.469315 378.015259,134.078293 
	C406.801239,134.078293 435.587219,134.078293 465.334961,134.078262 
M354.059418,488.077087 
	C352.851990,488.531158 351.644592,488.985229 350.437195,489.439270 
	C350.565765,489.734772 350.694336,490.030243 350.822937,490.325745 
	C381.940765,490.325745 413.058594,490.325745 444.176422,490.325745 
	C444.180359,489.575867 444.184296,488.826019 444.188263,488.076141 
	C414.441223,488.076141 384.694214,488.076141 354.059418,488.077087 
M580.500000,601.080505 
	C590.078796,601.080505 599.657593,601.080505 609.236389,601.080505 
	C605.551453,597.145630 536.400940,597.357300 532.299927,601.080505 
	C548.906677,601.080505 564.203308,601.080505 580.500000,601.080505 
M347.489807,280.075287 
	C328.678436,280.075439 309.866974,280.052307 291.055817,280.115814 
	C289.385620,280.121460 287.717285,280.691467 286.048096,280.999329 
	C291.330505,283.952118 359.191315,283.477783 361.917542,281.443481 
	C361.582275,281.083191 361.265289,280.434906 360.922394,280.420868 
	C356.778442,280.251404 352.630615,280.175537 347.489807,280.075287 
M533.579651,427.075317 
	C530.439392,427.273590 527.299133,427.471893 524.158875,427.670197 
	C529.174805,430.927612 597.137024,430.491577 599.887939,427.075287 
	C578.110840,427.075287 556.333679,427.075287 533.579651,427.075317 
M628.384766,171.080582 
	C631.145691,170.993927 633.906616,170.907288 636.667542,170.820648 
	C636.686157,170.304886 636.704834,169.789108 636.723450,169.273346 
	C635.897278,168.880234 635.072510,168.147400 634.244812,168.144073 
	C616.790833,168.074005 599.336487,168.064590 581.882629,168.140213 
	C580.918762,168.144379 579.958557,168.988007 578.996704,169.440887 
	C579.116455,169.987457 579.236267,170.534012 579.356018,171.080582 
	C595.375793,171.080582 611.395508,171.080582 628.384766,171.080582 
M642.016846,528.078979 
	C643.247620,527.811218 644.478455,527.543457 646.632446,527.074829 
	C641.042908,523.927429 590.908264,524.494324 587.887573,528.079834 
	C606.176025,528.079834 623.644897,528.079834 642.016846,528.078979 
M316.353210,244.074295 
	C334.617554,244.074295 352.881897,244.074295 371.146240,244.074295 
	C371.198395,243.370880 371.250549,242.667450 371.302704,241.964035 
	C369.751160,241.667053 368.201355,241.123413 366.647797,241.112473 
	C355.169708,241.031494 343.690826,241.052673 332.212219,241.050308 
	C327.054840,241.049255 321.895416,240.995255 316.742004,241.143433 
	C315.796906,241.170609 314.876495,242.055664 313.944702,242.544739 
	C314.475494,243.046585 315.006256,243.548431 316.353210,244.074295 
M588.501221,320.077881 
	C601.543152,320.036285 614.585083,319.994690 627.627014,319.953094 
	C627.659424,319.328156 627.691772,318.703186 627.724182,318.078217 
	C626.722900,317.744659 625.722717,317.123840 624.720337,317.120331 
	C607.602966,317.060181 590.485291,317.051819 573.368103,317.132385 
	C572.252686,317.137634 571.141052,317.954926 570.027710,318.394470 
	C570.133179,318.956146 570.238647,319.517792 570.344116,320.079468 
	C576.063416,320.079468 581.782776,320.079468 588.501221,320.077881 
M427.352539,171.080582 
	C429.964905,171.080582 432.577271,171.080582 435.189636,171.080582 
	C431.724884,166.976410 398.488922,167.349533 395.751068,171.080582 
	C406.371613,171.080582 416.381073,171.080582 427.352539,171.080582 
M481.497101,317.069336 
	C477.832581,317.070465 474.168091,317.072357 470.503571,317.072571 
	C462.156372,317.073059 462.156372,317.072723 460.047943,319.379639 
	C473.286255,319.379639 486.228546,319.379639 499.170868,319.379639 
	C499.203766,318.756622 499.236664,318.133606 499.269531,317.510620 
	C493.752380,316.595215 488.079712,317.292633 481.497101,317.069336 
M405.760315,528.047241 
	C406.366882,527.584778 406.973450,527.122253 407.580017,526.659729 
	C406.499817,526.131836 405.424316,525.156494 404.338684,525.145142 
	C393.515228,525.031189 382.689697,525.035522 371.866058,525.140747 
	C370.808258,525.150940 369.759186,526.059448 368.706055,526.550903 
	C368.838226,527.059387 368.970428,527.567810 369.102600,528.076294 
	C381.030914,528.076294 392.959259,528.076294 405.760315,528.047241 
M449.101135,291.604919 
	C448.173462,290.930420 447.245758,290.255951 446.318085,289.581451 
	C445.906860,289.940460 445.495605,290.299500 445.084381,290.658508 
	C448.671143,298.222931 452.217255,305.807495 455.926697,313.311249 
	C456.204742,313.873749 457.649780,313.859375 459.853485,314.479065 
	C455.968079,306.224945 452.673859,299.226685 449.101135,291.604919 
M543.534546,616.790100 
	C541.251770,621.635925 538.968933,626.481750 536.505493,631.710815 
	C540.782471,631.462646 550.343506,612.831726 548.575867,607.214661 
	C546.999695,610.178894 545.423523,613.143127 543.534546,616.790100 
M43.519058,282.083984 
	C52.325508,282.083984 61.131962,282.083984 71.256927,282.083984 
	C67.175507,278.387054 35.002010,278.166962 31.179979,282.084076 
	C34.963158,282.084076 38.746338,282.084076 43.519058,282.083984 
M631.797119,312.918030 
	C635.276367,305.426697 638.755676,297.935364 642.609253,289.638184 
	C640.633057,289.830078 639.618469,289.688019 639.474854,289.977631 
	C635.809570,297.371704 632.235352,304.810883 628.645203,312.242188 
	C629.573242,312.645569 630.501221,313.048950 631.797119,312.918030 
M473.160339,348.884552 
	C475.572296,351.970490 476.234375,349.239258 477.019501,347.632690 
	C479.415619,342.729553 481.740997,337.790710 484.017029,332.830505 
	C484.996429,330.696136 485.786896,328.475067 486.897858,325.709167 
	C485.302338,325.844757 484.286224,325.692841 484.143494,325.977997 
	C480.452454,333.353821 476.852325,340.775085 473.160339,348.884552 
M442.769226,409.000214 
	C440.516876,413.805847 438.264526,418.611481 435.642578,424.205658 
	C439.992157,423.126709 448.278442,407.566315 449.755005,399.444946 
	C444.690613,400.732239 445.214722,405.621246 442.769226,409.000214 
M272.059570,475.227570 
	C265.485535,461.391632 265.485535,461.391632 261.851166,461.244141 
	C265.723480,469.313629 269.373047,476.999939 273.168976,484.613251 
	C273.380676,485.037811 274.802368,484.859131 276.500122,485.061035 
	C274.906616,481.550751 273.628876,478.736084 272.059570,475.227570 
M453.302429,466.616638 
	C450.557892,472.585938 447.813324,478.555237 445.068787,484.524536 
	C445.984131,484.948059 446.899475,485.371582 447.814819,485.795105 
	C451.657898,477.733734 455.746674,469.797180 459.020386,461.446472 
	C458.442780,461.074951 457.865173,460.703461 457.287567,460.331940 
	C456.079987,462.214203 454.872406,464.096436 453.302429,466.616638 
M302.658447,585.913879 
	C301.364685,588.772644 300.070923,591.631409 298.475555,595.156677 
	C302.920776,594.066589 312.060760,576.011169 311.763916,569.931580 
	C306.639679,574.320740 305.903229,580.459106 302.658447,585.913879 
M485.658478,585.913879 
	C484.364716,588.772644 483.070984,591.631409 481.475647,595.156677 
	C485.920776,594.066650 495.060760,576.011169 494.763916,569.931580 
	C489.639679,574.320740 488.903229,580.459106 485.658478,585.913879 
M635.156982,185.112305 
	C633.262024,182.330215 633.376038,177.984344 628.897583,176.377396 
	C629.556641,183.846008 638.474854,200.486328 642.505371,200.734573 
	C640.040771,195.498611 637.757019,190.646683 635.156982,185.112305 
M629.288391,260.047943 
	C630.611938,257.185944 631.935425,254.323975 633.535950,250.863083 
	C629.136841,251.709076 620.067444,269.349884 620.109192,275.945862 
	C625.412354,271.657135 626.006287,265.442993 629.288391,260.047943 
M448.834534,177.971329 
	C448.026764,177.597412 447.219025,177.223495 446.411224,176.849594 
	C446.309631,177.867462 445.806488,179.065735 446.169952,179.874680 
	C449.086456,186.366226 452.106842,192.813766 455.260803,199.193039 
	C455.734467,200.151062 457.066986,200.684479 458.557007,201.847214 
	C458.690704,200.227707 458.912445,199.674438 458.740967,199.302368 
	C455.554596,192.387665 452.321350,185.494553 448.834534,177.971329 
M478.194122,115.483780 
	C476.397827,119.454521 474.601532,123.425270 472.648041,127.743477 
	C476.831512,127.414558 486.381195,108.684616 484.337830,103.091652 
	C482.417694,107.006065 480.497589,110.920471 478.194122,115.483780 
M386.607147,255.749680 
	C385.379242,253.974579 384.151337,252.199478 382.923431,250.424377 
	C382.309387,250.834305 381.695374,251.244232 381.081329,251.654160 
	C384.661957,259.208679 388.201172,266.783630 391.904205,274.277649 
	C392.190735,274.857483 393.628235,274.868591 395.820435,275.537659 
	C392.469818,268.322052 389.703339,262.364410 386.607147,255.749680 
M636.077454,227.789276 
	C638.143311,223.382080 640.209106,218.974884 642.433655,214.229156 
	C638.215271,214.384491 628.685242,232.831543 630.416443,238.714478 
	C632.209656,235.303955 634.002930,231.893433 636.077454,227.789276 
M629.125183,105.729111 
	C625.787354,112.964523 622.449524,120.199936 619.111633,127.435349 
	C619.903198,127.825912 620.694763,128.216476 621.486328,128.607040 
	C626.036682,120.955582 629.445251,112.692406 633.151245,104.588585 
	C632.833313,104.239571 632.515320,103.890556 632.197388,103.541542 
	C631.283752,104.069206 630.370178,104.596870 629.125183,105.729111 
M528.128052,143.226151 
	C531.164307,149.681274 534.136292,156.168152 537.296082,162.562225 
	C537.862732,163.708862 539.205017,164.472198 540.189209,165.412506 
	C540.656494,165.012650 541.123718,164.612793 541.590942,164.212921 
	C538.077087,156.746017 534.688599,149.215759 530.968201,141.853210 
	C529.937317,139.813232 528.375549,140.024887 528.128052,143.226151 
M290.984406,108.027557 
	C293.733673,113.879189 296.412750,119.765724 299.291595,125.552879 
	C299.863861,126.703217 301.201111,127.473015 302.185577,128.418304 
	C302.648041,128.023071 303.110504,127.627831 303.572968,127.232590 
	C300.136505,119.921440 296.746124,112.587715 293.192810,105.333794 
	C292.834686,104.602692 291.491486,104.354134 290.605438,103.881645 
	C290.651001,105.051918 290.696594,106.222198 290.984406,108.027557 
M309.202942,236.921539 
	C310.013397,237.301910 310.823853,237.682281 311.634308,238.062637 
	C311.787476,237.197952 312.332855,236.155106 312.033417,235.496033 
	C308.884583,228.564453 305.645630,221.672089 302.282745,214.842178 
	C301.956696,214.179977 300.632812,214.009094 299.772125,213.610153 
	C299.429932,213.923508 299.087769,214.236847 298.745575,214.550201 
	C302.141541,221.801315 305.537506,229.052414 309.202942,236.921539 
M651.156433,518.645569 
	C654.337036,511.907440 657.517639,505.169281 661.142090,497.490814 
	C656.290710,498.903381 647.113892,517.261292 647.659180,523.263062 
	C649.120422,521.479431 650.015625,520.386658 651.156433,518.645569 
M418.246429,190.983154 
	C411.846313,177.108139 411.846313,177.108139 409.005096,177.470795 
	C411.141235,186.491562 418.815826,200.418564 422.766571,200.835342 
	C421.250763,197.493958 419.923676,194.568588 418.246429,190.983154 
M647.024597,461.371765 
	C648.806885,469.774963 656.787476,484.382019 659.901978,484.773010 
	C659.959106,484.298370 660.212097,483.737274 660.043335,483.369690 
	C656.791870,476.284485 653.540405,469.197876 650.122742,462.192627 
	C649.786438,461.503357 648.368225,461.341919 647.024597,461.371765 
M467.958649,463.630402 
	C466.981384,462.554443 466.004120,461.478455 465.026886,460.402466 
	C464.459106,460.794952 463.891327,461.187408 463.323547,461.579895 
	C467.110596,469.353149 470.876526,477.137024 474.758148,484.862762 
	C474.921967,485.188843 476.160889,484.974701 477.041992,485.019501 
	C477.041992,484.159241 477.200897,483.605347 477.018280,483.208740 
	C474.108246,476.889954 471.154510,470.591309 467.958649,463.630402 
M465.836853,369.626099 
	C466.668274,367.482391 467.499664,365.338715 468.601349,362.498199 
	C464.482391,363.971405 455.739441,381.021301 455.232452,386.764496 
	C458.054901,386.374542 458.054901,386.374542 465.836853,369.626099 
M537.870850,176.933960 
	C537.643982,177.336288 537.120667,177.873169 537.233337,178.121368 
	C540.582581,185.499680 543.951904,192.870071 547.474915,200.166016 
	C547.770996,200.779266 549.165771,200.862045 550.050110,201.191269 
	C547.344116,192.678726 543.775818,185.089111 540.126953,177.538483 
	C539.906616,177.082672 539.043945,176.937332 537.870850,176.933960 
M584.881226,194.313232 
	C582.549988,189.368439 580.297302,184.383911 577.831726,179.507019 
	C577.222473,178.301971 575.921692,177.446518 574.938843,176.430359 
	C574.422791,176.823059 573.906738,177.215759 573.390686,177.608459 
	C577.060364,185.308456 580.699524,193.023529 584.484924,200.666168 
	C584.685364,201.070816 586.123474,200.862411 587.727112,201.005646 
	C586.677368,198.562897 585.910217,196.777710 584.881226,194.313232 
M490.532867,545.710938 
	C485.143768,534.114136 485.143768,534.114136 482.304199,534.464783 
	C484.656830,543.659424 492.206329,557.364197 496.063477,557.836121 
	C494.212494,553.733887 492.552551,550.055054 490.532867,545.710938 
M411.119293,231.324341 
	C410.304077,233.455780 409.488831,235.587219 408.377625,238.492584 
	C412.623016,236.799896 421.369904,219.539291 421.097900,213.710144 
	C416.275482,218.371613 414.567627,224.953140 411.119293,231.324341 
M467.958649,216.630356 
	C466.981384,215.554382 466.004120,214.478409 465.026855,213.402451 
	C464.459076,213.794922 463.891327,214.187393 463.323547,214.579880 
	C467.110626,222.353149 470.876587,230.137024 474.758179,237.862808 
	C474.921997,238.188828 476.160889,237.974686 477.929108,238.064560 
	C474.466370,230.661652 471.338562,223.974838 467.958649,216.630356 
M457.693726,164.643234 
	C461.365387,156.909271 465.037079,149.175308 468.708771,141.441345 
	C466.753784,140.786575 465.782776,140.747940 465.607880,141.102249 
	C462.018921,148.373795 458.492889,155.677338 455.112732,163.047180 
	C454.985931,163.323624 456.451233,164.330261 457.693726,164.643234 
M603.767578,251.026642 
	C600.391174,250.209030 600.940613,252.000702 601.852234,253.953552 
	C604.863647,260.404266 607.839905,266.873047 610.992676,273.254272 
	C611.446777,274.173431 612.796082,274.650269 613.731140,275.331787 
	C614.129456,274.980682 614.527832,274.629578 614.926208,274.278503 
	C611.349426,266.702332 607.772644,259.126129 603.767578,251.026642 
M400.972504,275.150848 
	C402.503784,273.005951 404.337616,271.013000 405.506256,268.686005 
	C408.351898,263.019562 410.888977,257.198151 413.550293,251.439117 
	C413.014526,251.079468 412.478760,250.719818 411.942993,250.360168 
	C410.962341,251.486816 409.691895,252.470078 409.051086,253.764923 
	C406.254700,259.415649 403.577972,265.128693 401.012482,270.888000 
	C400.474823,272.095062 400.591064,273.593414 400.972504,275.150848 
M522.487976,617.290649 
	C529.082153,631.587097 529.082153,631.587097 532.799622,631.612549 
	C529.070068,623.721313 525.532349,616.128479 521.830811,608.616455 
	C521.546387,608.039124 520.106445,608.031189 518.057556,607.412598 
	C519.757507,611.268860 520.940186,613.951782 522.487976,617.290649 
M438.115143,146.215256 
	C439.028503,149.497528 440.682037,152.788467 440.643738,156.059616 
	C440.606598,159.231491 438.831207,162.382996 437.423340,166.779846 
	C445.489929,161.283188 446.570557,149.841095 440.832153,144.449081 
	C439.253296,142.965515 437.872498,142.676361 438.115143,146.215256 
M411.081390,500.540283 
	C410.819336,501.339874 410.079773,502.450104 410.367340,502.892120 
	C414.274017,508.896667 414.042023,514.753235 410.158722,520.647705 
	C409.888000,521.058655 410.204529,521.856445 410.298126,523.188171 
	C414.560974,521.745239 415.482727,518.339600 416.307373,515.184937 
	C417.814941,509.417969 416.316284,504.396545 411.081390,500.540283 
M241.059830,337.460724 
	C239.455322,341.203308 237.850815,344.945862 236.246323,348.688446 
	C236.669693,348.923645 237.093079,349.158875 237.516464,349.394104 
	C238.175201,349.050659 239.178085,348.875397 239.440567,348.338318 
	C242.849716,341.362305 246.191101,334.352020 249.418121,327.290344 
	C249.696289,326.681671 249.041702,325.646759 248.820389,324.809814 
	C248.036102,325.216888 246.865570,325.422974 246.531754,326.064453 
	C244.702774,329.579254 243.079025,333.200836 241.059830,337.460724 
M184.416626,421.478943 
	C187.691284,414.603333 191.012527,407.748993 194.176300,400.822723 
	C194.535736,400.035828 194.010254,398.844696 193.895096,397.840973 
	C193.020660,398.362366 191.714798,398.672424 191.339584,399.438385 
	C188.134903,405.980499 185.054642,412.585175 182.043472,419.219360 
	C181.279251,420.903076 180.929153,422.735321 184.416626,421.478943 
M76.740761,409.125519 
	C74.875992,413.293945 73.011215,417.462341 71.146439,421.630768 
	C71.599342,421.884796 72.052238,422.138824 72.505142,422.392822 
	C73.165550,422.052887 74.172394,421.882294 74.433914,421.347321 
	C77.843925,414.372070 81.185699,407.362244 84.413666,400.301270 
	C84.693550,399.688995 84.047333,398.653351 83.831314,397.814392 
	C83.045494,398.216614 81.877792,398.416260 81.538803,399.055450 
	C79.914993,402.117004 78.515541,405.297546 76.740761,409.125519 
M246.054352,309.090607 
	C246.185669,310.099121 246.317001,311.107605 246.448334,312.116119 
	C247.306488,311.546570 248.564972,311.174774 248.959412,310.376190 
	C252.108917,303.999420 255.157257,297.569733 258.057037,291.076080 
	C258.448853,290.198700 257.842407,288.875519 257.698181,287.758759 
	C256.795197,288.523041 255.529083,289.107971 255.048401,290.080902 
	C252.044998,296.159973 249.217041,302.325714 246.054352,309.090607 
M196.890701,377.487061 
	C198.922180,373.146454 201.033508,368.840179 202.924622,364.439240 
	C203.356339,363.434540 203.027588,362.103088 203.048813,360.921997 
	C202.016815,361.664185 200.531494,362.179382 200.027390,363.185974 
	C197.068436,369.094513 194.303528,375.101776 191.561691,381.116089 
	C191.029831,382.282745 190.889023,383.627716 190.567825,384.890411 
	C191.193314,385.171234 191.818802,385.452057 192.444290,385.732880 
	C193.811844,383.203979 195.179413,380.675110 196.890701,377.487061 
M130.027969,360.895996 
	C129.131027,361.353638 127.763916,361.581482 127.410416,362.304718 
	C124.141121,368.993378 121.017189,375.754120 117.945137,382.536591 
	C117.621284,383.251617 117.901566,384.240295 117.901566,385.597748 
	C119.073166,385.134277 119.972603,385.062714 120.152725,384.665222 
	C123.667473,376.908783 127.098366,369.114349 130.027969,360.895996 
M44.264084,289.647247 
	C47.862785,297.082062 51.445290,304.524933 55.117825,311.923096 
	C55.268944,312.227539 56.264862,312.112579 56.625671,312.160736 
	C57.007416,311.803345 57.252991,311.636444 57.230873,311.585297 
	C53.908463,303.899078 50.592972,296.209259 47.114384,288.593933 
	C46.995003,288.332581 45.232872,288.821625 44.264084,289.647247 
M112.154495,327.432617 
	C111.179665,326.552216 110.204834,325.671844 109.229996,324.791443 
	C109.187424,326.077728 108.705482,327.558685 109.174896,328.618073 
	C111.854034,334.664307 114.700432,340.639587 117.640144,346.564423 
	C118.206512,347.705933 119.440376,348.516235 120.366318,349.479340 
	C120.888496,349.128967 121.410675,348.778564 121.932854,348.428192 
	C118.773865,341.648132 115.614883,334.868073 112.154495,327.432617 
M218.700012,436.324402 
	C215.248718,443.645660 211.797424,450.966949 207.827118,459.389221 
	C210.201172,458.919220 211.183899,458.988403 211.350113,458.652985 
	C214.936478,451.415955 218.694321,444.242798 221.788361,436.795319 
	C222.747589,434.486420 220.821640,434.021362 218.700012,436.324402 
M200.390732,449.998962 
	C194.154541,435.756989 194.154541,435.756989 191.072632,435.053040 
	C191.227020,441.326874 200.343384,458.409729 204.148666,458.423218 
	C202.956589,455.697540 201.855988,453.181000 200.390732,449.998962 
M223.806763,408.191772 
	C221.786118,412.565796 219.765457,416.939850 217.386017,422.090515 
	C222.258102,420.789032 231.419250,402.274414 229.524490,397.150879 
	C227.715591,400.600159 225.906708,404.049408 223.806763,408.191772 
M243.905655,261.498566 
	C242.095734,258.050537 240.285812,254.602509 238.475891,251.154480 
	C237.759491,251.520294 237.043091,251.886124 236.326691,252.251938 
	C239.193237,260.280518 243.160233,267.865387 247.113693,275.439697 
	C247.336777,275.867096 248.702011,275.698334 250.523026,275.935760 
	C248.167389,270.818542 246.181656,266.504883 243.905655,261.498566 
M84.965668,290.581940 
	C84.048119,289.512054 83.130569,288.442139 81.650856,286.716736 
	C81.268555,292.561951 90.072807,310.480255 94.601654,311.354828 
	C91.482368,304.651672 88.363083,297.948486 84.965668,290.581940 
M217.655701,299.240173 
	C218.878189,295.445984 222.184845,292.265686 221.774246,287.291351 
	C217.402252,290.130249 209.036682,308.239014 211.156418,312.638763 
	C213.201920,308.391937 215.247421,304.145111 217.655701,299.240173 
M223.123627,263.535004 
	C221.387543,267.494873 219.651474,271.454712 217.638550,276.046051 
	C222.287842,274.762695 231.434128,256.231110 229.289093,251.064590 
	C227.350998,254.999802 225.412903,258.935028 223.123627,263.535004 
M119.719879,403.417084 
	C120.285149,401.608856 120.850418,399.800629 121.415695,397.992401 
	C120.668983,397.704803 119.922279,397.417206 119.175568,397.129639 
	C115.367729,405.155426 111.559891,413.181213 107.389252,421.971649 
	C111.967537,420.942535 111.967537,420.942535 119.719879,403.417084 
M92.904976,365.440887 
	C93.307083,363.991547 93.709190,362.542175 94.259514,360.558594 
	C90.110367,362.230408 81.372612,379.793579 82.104134,385.116302 
	C87.180229,379.722351 88.993843,372.398560 92.904976,365.440887 
M75.482887,335.132233 
	C81.794769,348.524261 81.794769,348.524261 84.619766,348.335114 
	C82.798462,340.308685 75.132477,325.909027 70.884460,324.535583 
	C72.524216,328.370361 73.828194,331.419891 75.482887,335.132233 
M205.269241,335.661530 
	C203.390121,339.938202 201.510986,344.214844 199.631866,348.491516 
	C204.434647,346.899200 212.956024,328.734589 210.920486,324.100983 
	C209.157364,327.733398 207.394241,331.365814 205.269241,335.661530 
M231.710297,381.296417 
	C234.382187,374.482513 238.966064,368.390411 240.285065,361.065796 
	C239.582718,360.751801 238.880371,360.437836 238.178024,360.123871 
	C234.369629,368.144135 230.561234,376.164398 226.752838,384.184662 
	C227.320786,384.558716 227.888718,384.932739 228.456665,385.306793 
	C229.419662,384.189484 230.382660,383.072174 231.710297,381.296417 
M313.108948,336.654846 
	C313.644440,341.370667 311.881622,346.419891 315.130280,350.789246 
	C316.602570,343.292816 316.844879,335.876678 315.854919,328.491180 
	C315.067230,328.471741 314.279510,328.452332 313.491821,328.432892 
	C313.364197,330.860046 313.236572,333.287201 313.108948,336.654846 
M316.378815,422.633301 
	C316.386017,419.158539 316.472931,415.681549 316.377411,412.209625 
	C316.286713,408.911224 316.005127,405.618134 315.807465,402.322693 
	C315.003265,402.374969 314.199066,402.427246 313.394867,402.479523 
	C313.394867,409.577606 313.394867,416.675720 313.394867,423.773804 
	C314.362854,423.672791 315.330811,423.571777 316.378815,422.633301 
M490.296936,521.479736 
	C490.044067,514.479980 491.343262,507.365875 489.376556,499.625427 
	C488.139954,500.784180 487.305603,501.199097 487.298523,501.627716 
	C487.192047,508.077118 487.141174,514.529541 487.289734,520.976379 
	C487.299774,521.412231 489.005280,521.808960 490.296936,521.479736 
M316.400085,160.119537 
	C315.823456,154.575974 317.667267,148.739746 314.873962,142.600723 
	C312.230164,147.669830 312.612030,163.112457 315.627197,166.529709 
	C315.946838,164.247086 316.173157,162.630951 316.400085,160.119537 
M325.743073,557.606506 
	C326.495056,542.188477 326.181335,538.602417 323.641296,536.344604 
	C323.382782,536.723511 322.883362,537.115784 322.876465,537.516418 
	C322.765991,543.955627 322.661346,550.396912 322.768494,556.834106 
	C322.776733,557.328857 324.378693,557.797058 325.743073,557.606506 
M618.893555,539.257568 
	C618.230896,538.363892 617.568237,537.470215 616.905518,536.576538 
	C616.477295,537.538635 615.698608,538.493652 615.678711,539.464050 
	C615.563904,545.083679 615.573120,550.707947 615.686829,556.327759 
	C615.705139,557.234131 616.458313,558.125610 616.871704,559.023987 
	C617.546570,558.960205 618.221375,558.896423 618.896240,558.832703 
	C618.896240,552.593994 618.896240,546.355286 618.893555,539.257568 
M377.619171,296.217896 
	C377.933197,302.415497 376.946899,308.722748 379.201508,315.258331 
	C380.249756,314.960693 380.654449,314.320465 380.664886,313.673798 
	C380.768829,307.230133 380.857697,300.784851 380.782562,294.341980 
	C380.775574,293.742249 379.613373,293.156036 378.987549,292.563538 
	C378.531982,293.503418 378.076416,294.443298 377.619171,296.217896 
M618.898071,580.706665 
	C618.661865,578.264526 618.425720,575.822449 618.189514,573.380310 
	C614.777466,577.626221 615.091736,593.078796 618.800110,595.878723 
	C618.832703,591.137146 618.865356,586.395508 618.898071,580.706665 
M514.620300,421.762329 
	C515.062561,422.842133 515.504761,423.921936 516.275879,425.804718 
	C518.935059,419.572449 518.309387,404.637421 515.779053,402.521271 
	C515.461060,402.865204 514.867065,403.206635 514.859497,403.560669 
	C514.735291,409.336060 514.685181,415.113068 514.620300,421.762329 
M517.897156,332.986328 
	C517.595398,331.445282 517.293701,329.904205 516.991943,328.363159 
	C516.456055,328.425751 515.920166,328.488373 515.384277,328.550964 
	C515.384277,335.952393 515.384277,343.353851 515.384277,350.755280 
	C515.877991,350.780334 516.371704,350.805359 516.865417,350.830414 
	C519.143494,345.381744 517.326721,339.507233 517.897156,332.986328 
M609.281311,329.753540 
	C607.067261,327.179016 606.224182,328.838409 606.172974,330.983978 
	C606.030762,336.941071 606.091248,342.905304 606.218140,348.863586 
	C606.233521,349.585419 607.146240,350.288147 607.643066,350.999725 
	C608.223206,350.945404 608.803406,350.891083 609.383606,350.836792 
	C609.383606,344.077393 609.383606,337.318024 609.281311,329.753540 
M609.400452,411.606750 
	C609.316040,408.555542 609.231567,405.504303 609.147156,402.453094 
	C605.245300,405.649109 605.362793,421.907410 609.400452,424.835327 
	C609.400452,420.743011 609.400452,416.650726 609.400452,411.606750 
M316.400452,377.458588 
	C316.265839,373.442413 316.131256,369.426239 315.996643,365.410095 
	C312.144073,369.031036 312.435608,385.212921 316.400452,388.980072 
	C316.400452,384.657898 316.400452,381.533386 316.400452,377.458588 
M517.898071,372.706665 
	C517.661865,370.264526 517.425720,367.822418 517.189514,365.380280 
	C516.499268,365.451172 515.808960,365.522064 515.118652,365.592957 
	C514.379944,373.009155 514.228027,380.413391 515.122192,387.796387 
	C516.014832,387.823822 516.907532,387.851288 517.800171,387.878723 
	C517.832825,383.137115 517.865479,378.395477 517.898071,372.706665 
M304.134888,199.741638 
	C304.710449,200.412872 305.286041,201.084106 305.861603,201.755341 
	C306.370941,200.862564 307.300598,199.979401 307.321228,199.075470 
	C307.453339,193.291168 307.444641,187.501022 307.318787,181.716370 
	C307.300446,180.872833 306.409393,180.048309 305.922180,179.214996 
	C305.318878,179.297806 304.715607,179.380615 304.112305,179.463425 
	C304.112305,185.932846 304.112305,192.402252 304.134888,199.741638 
M606.108948,371.793182 
	C606.788025,377.107544 604.687622,382.800354 607.858521,388.703613 
	C610.380859,382.768890 609.826050,367.757324 606.795044,364.881989 
	C606.525269,367.241730 606.317139,369.061707 606.108948,371.793182 
M285.915924,508.612915 
	C285.949310,513.386719 285.982697,518.160583 286.016052,522.934387 
	C286.773773,522.895325 287.531525,522.856262 288.289246,522.817200 
	C288.289246,515.362183 288.289246,507.907196 288.289246,500.452209 
	C287.621552,500.423035 286.953888,500.393860 286.286194,500.364685 
	C286.162781,502.797455 286.039368,505.230225 285.915924,508.612915 
M285.916016,309.258209 
	C286.161957,311.148132 286.407928,313.038025 286.813751,316.156342 
	C289.927124,310.978912 289.697327,295.175415 285.915955,292.416199 
	C285.915955,297.715607 285.915955,303.014984 285.916016,309.258209 
M527.092224,589.315186 
	C526.506470,584.063477 528.321960,578.525940 525.673950,572.723022 
	C522.967407,577.780151 523.391907,593.336121 526.491333,596.337463 
	C526.727173,593.949585 526.909668,592.102295 527.092224,589.315186 
M523.947754,538.239380 
	C524.382935,545.091431 522.890625,552.102478 524.914246,559.193604 
	C525.925354,558.607178 526.447754,558.451599 526.453125,558.279785 
	C526.665710,551.506104 526.853882,544.731018 526.880554,537.955505 
	C526.881287,537.773621 525.067017,537.584473 523.947754,538.239380 
M404.915924,372.663147 
	C405.224091,377.734558 404.260529,382.943176 405.739227,389.014160 
	C408.851959,384.350098 408.769806,368.465820 405.537537,364.328522 
	C405.271790,367.490875 405.093872,369.607758 404.915924,372.663147 
M408.092377,337.568787 
	C408.010193,334.501190 407.928009,331.433594 407.845825,328.365997 
	C407.147064,328.401825 406.448334,328.437683 405.749573,328.473511 
	C405.749573,335.911316 405.749573,343.349121 405.749573,350.786926 
	C406.414612,350.818817 407.079620,350.850708 407.744659,350.882629 
	C407.860565,346.767151 407.976471,342.651703 408.092377,337.568787 
M308.928497,131.064285 
	C307.424774,131.397141 305.921082,131.729996 304.417389,132.062851 
	C304.499817,132.550140 304.582245,133.037430 304.664673,133.524719 
	C311.473206,133.524719 318.281769,133.524719 325.090332,133.524719 
	C325.158630,132.791580 325.226929,132.058441 325.295227,131.325302 
	C320.197601,130.784561 314.981995,131.189926 308.928497,131.064285 
M443.304626,525.323730 
	C436.679138,524.990967 430.063446,524.784485 423.550964,526.496826 
	C430.295044,527.629639 436.996826,527.635193 443.697632,527.556641 
	C443.769867,527.555786 443.829224,526.454651 443.304626,525.323730 
M559.640686,207.088837 
	C563.961853,207.088837 568.283020,207.088837 572.604248,207.088837 
	C569.161499,203.009064 554.144897,203.314651 551.423584,207.088806 
	C554.261719,207.088806 556.486389,207.088806 559.640686,207.088837 
M293.869690,488.064178 
	C279.148499,488.060822 279.148499,488.060822 277.016144,490.355652 
	C284.186615,490.355652 291.061401,490.355652 297.936218,490.355652 
	C297.994019,489.896790 298.051788,489.437958 298.109589,488.979095 
	C296.974152,488.674347 295.838745,488.369629 293.869690,488.064178 
M96.503967,428.083984 
	C99.949455,428.083984 103.394943,428.083984 106.840424,428.083984 
	C106.821075,427.335693 106.801720,426.587433 106.782364,425.839142 
	C99.945221,425.839142 93.108070,425.839142 86.270927,425.839142 
	C86.253014,426.587463 86.235100,427.335754 86.217178,428.084076 
	C89.323158,428.084076 92.429131,428.084076 96.503967,428.083984 
z"/>
<path fill="#F0F0F0" opacity="1.000000" stroke="none" 
	d="
M645.922241,455.076660 
	C519.637512,455.076660 393.841492,455.076660 268.045441,455.076660 
	C267.940948,454.395172 267.836456,453.713684 267.731995,453.032196 
	C269.362244,452.713928 270.991608,452.123749 272.622864,452.118378 
	C295.773132,452.042542 318.923615,452.030731 342.074066,452.032898 
	C444.501221,452.042511 546.928406,452.057587 649.355530,452.108734 
	C651.246826,452.109680 653.137878,452.580719 655.029053,452.832428 
	C654.982178,453.580505 654.935242,454.328583 654.888367,455.076660 
	C652.062561,455.076660 649.236694,455.076660 645.922241,455.076660 
z"/>
<path fill="#F0F0F0" opacity="1.000000" stroke="none" 
	d="
M338.000305,94.077232 
	C436.279083,94.077469 534.057800,94.073708 631.836487,94.112015 
	C633.459473,94.112656 635.082214,94.624924 636.705017,94.898438 
	C636.661438,95.388222 636.617859,95.878014 636.574219,96.367798 
	C519.828430,96.367798 403.082581,96.367798 286.336761,96.367798 
	C286.239471,95.916420 286.142181,95.465034 286.044891,95.013657 
	C287.705170,94.701645 289.364288,94.126114 291.025940,94.118660 
	C306.517151,94.049217 322.008759,94.077339 338.000305,94.077232 
z"/>
<path fill="#F0F0F0" opacity="1.000000" stroke="none" 
	d="
M525.000183,280.032043 
	C562.514709,280.269501 599.541016,279.774139 636.551636,280.275696 
	C636.544556,280.990967 636.537476,281.706238 636.530396,282.421509 
	C550.375061,282.421509 464.219727,282.421509 378.064392,282.421509 
	C377.953552,281.965759 377.842712,281.509979 377.731903,281.054230 
	C379.342712,280.728607 380.952789,280.123688 382.564514,280.119324 
	C406.386841,280.054718 430.209442,280.071320 454.031952,280.065674 
	C477.521393,280.060150 501.010803,280.051270 525.000183,280.032043 
z"/>
<path fill="#EFEFEF" opacity="1.000000" stroke="none" 
	d="
M318.520935,598.075562 
	C360.403534,598.162842 401.845612,598.247803 443.287537,598.384583 
	C443.593292,598.385559 443.896729,599.095703 444.203186,599.477112 
	C441.611145,601.397766 319.773315,602.013977 313.720337,599.202637 
	C315.173676,598.826965 316.627045,598.451355 318.520935,598.075562 
z"/>
<path fill="#EFEFEF" opacity="1.000000" stroke="none" 
	d="
M544.000000,491.078278 
	C521.878296,491.078278 500.256622,491.078278 477.394379,491.078278 
	C481.472748,487.243317 587.721069,487.195007 590.868408,491.078278 
	C575.412292,491.078278 559.956116,491.078278 544.000000,491.078278 
z"/>
<path fill="#EFEFEF" opacity="1.000000" stroke="none" 
	d="
M535.999634,241.055084 
	C554.425964,241.258621 572.352478,241.440948 590.278259,241.681870 
	C590.499390,241.684830 590.710449,242.439117 591.253723,243.455261 
	C553.421692,243.455261 516.028076,243.455261 478.634491,243.455261 
	C478.609253,242.984390 478.584015,242.513535 478.558746,242.042664 
	C484.558441,239.960007 490.911285,241.403214 497.069702,241.111588 
	C503.378143,240.812851 509.711304,241.031891 516.033630,241.030533 
	C522.522339,241.029144 529.011108,241.035324 535.999634,241.055084 
z"/>
<path fill="#EFEFEF" opacity="1.000000" stroke="none" 
	d="
M324.210999,427.229065 
	C361.203979,427.228516 397.809143,427.337524 434.414062,427.500336 
	C434.687988,427.501556 434.958649,428.238525 435.763153,429.401428 
	C433.993378,429.675629 432.696960,430.050812 431.400177,430.052002 
	C396.598785,430.083923 361.797272,430.100708 326.996307,429.975006 
	C325.849701,429.970825 321.651947,431.997131 324.210999,427.229065 
z"/>
<path fill="#EFEFEF" opacity="1.000000" stroke="none" 
	d="
M546.999817,131.075165 
	C571.063721,131.083786 594.628418,131.053604 618.191589,131.089249 
	C618.179688,131.851227 618.167725,132.613190 618.155823,133.375168 
	C586.883667,133.375168 555.611450,133.375168 524.063660,133.375168 
	C526.156494,131.075333 526.156494,131.075363 535.004333,131.075302 
	C538.836121,131.075272 542.667969,131.075119 546.999817,131.075165 
z"/>
<path fill="#EFEFEF" opacity="1.000000" stroke="none" 
	d="
M464.854065,134.078278 
	C435.587219,134.078293 406.801239,134.078293 378.015259,134.078293 
	C377.916901,133.469315 377.818542,132.860336 377.720184,132.251358 
	C378.875397,131.859726 380.029877,131.128616 381.185944,131.126129 
	C410.276337,131.063324 439.366974,131.064392 468.457397,131.122574 
	C469.658752,131.124969 470.858826,131.789154 472.059479,132.145035 
	C472.003265,132.648605 471.947052,133.152176 471.890869,133.655746 
	C469.705566,133.796585 467.520264,133.937424 464.854065,134.078278 
z"/>
<path fill="#EFEFEF" opacity="1.000000" stroke="none" 
	d="
M354.503296,488.076599 
	C384.694214,488.076141 414.441223,488.076141 444.188263,488.076141 
	C444.184296,488.826019 444.180359,489.575867 444.176422,490.325745 
	C413.058594,490.325745 381.940765,490.325745 350.822937,490.325745 
	C350.694336,490.030243 350.565765,489.734772 350.437195,489.439270 
	C351.644592,488.985229 352.851990,488.531158 354.503296,488.076599 
z"/>
<path fill="#EEEEEE" opacity="1.000000" stroke="none" 
	d="
M580.000000,601.080505 
	C564.203308,601.080505 548.906677,601.080505 532.299927,601.080505 
	C536.400940,597.357300 605.551453,597.145630 609.236389,601.080505 
	C599.657593,601.080505 590.078796,601.080505 580.000000,601.080505 
z"/>
<path fill="#EFEFEF" opacity="1.000000" stroke="none" 
	d="
M347.986816,280.075287 
	C352.630615,280.175537 356.778442,280.251404 360.922394,280.420868 
	C361.265289,280.434906 361.582275,281.083191 361.917542,281.443481 
	C359.191315,283.477783 291.330505,283.952118 286.048096,280.999329 
	C287.717285,280.691467 289.385620,280.121460 291.055817,280.115814 
	C309.866974,280.052307 328.678436,280.075439 347.986816,280.075287 
z"/>
<path fill="#EFEFEF" opacity="1.000000" stroke="none" 
	d="
M534.068115,427.075317 
	C556.333679,427.075287 578.110840,427.075287 599.887939,427.075287 
	C597.137024,430.491577 529.174805,430.927612 524.158875,427.670197 
	C527.299133,427.471893 530.439392,427.273590 534.068115,427.075317 
z"/>
<path fill="#EEEEEE" opacity="1.000000" stroke="none" 
	d="
M627.900024,171.080582 
	C611.395508,171.080582 595.375793,171.080582 579.356018,171.080582 
	C579.236267,170.534012 579.116455,169.987457 578.996704,169.440887 
	C579.958557,168.988007 580.918762,168.144379 581.882629,168.140213 
	C599.336487,168.064590 616.790833,168.074005 634.244812,168.144073 
	C635.072510,168.147400 635.897278,168.880234 636.723450,169.273346 
	C636.704834,169.789108 636.686157,170.304886 636.667542,170.820648 
	C633.906616,170.907288 631.145691,170.993927 627.900024,171.080582 
z"/>
<path fill="#EEEEEE" opacity="1.000000" stroke="none" 
	d="
M641.565308,528.079407 
	C623.644897,528.079834 606.176025,528.079834 587.887573,528.079834 
	C590.908264,524.494324 641.042908,523.927429 646.632446,527.074829 
	C644.478455,527.543457 643.247620,527.811218 641.565308,528.079407 
z"/>
<path fill="#EEEEEE" opacity="1.000000" stroke="none" 
	d="
M315.945129,244.062286 
	C315.006256,243.548431 314.475494,243.046585 313.944702,242.544739 
	C314.876495,242.055664 315.796906,241.170609 316.742004,241.143433 
	C321.895416,240.995255 327.054840,241.049255 332.212219,241.050308 
	C343.690826,241.052673 355.169708,241.031494 366.647797,241.112473 
	C368.201355,241.123413 369.751160,241.667053 371.302704,241.964035 
	C371.250549,242.667450 371.198395,243.370880 371.146240,244.074295 
	C352.881897,244.074295 334.617554,244.074295 315.945129,244.062286 
z"/>
<path fill="#EEEEEE" opacity="1.000000" stroke="none" 
	d="
M588.001648,320.078674 
	C581.782776,320.079468 576.063416,320.079468 570.344116,320.079468 
	C570.238647,319.517792 570.133179,318.956146 570.027710,318.394470 
	C571.141052,317.954926 572.252686,317.137634 573.368103,317.132385 
	C590.485291,317.051819 607.602966,317.060181 624.720337,317.120331 
	C625.722717,317.123840 626.722900,317.744659 627.724182,318.078217 
	C627.691772,318.703186 627.659424,319.328156 627.627014,319.953094 
	C614.585083,319.994690 601.543152,320.036285 588.001648,320.078674 
z"/>
<path fill="#EEEEEE" opacity="1.000000" stroke="none" 
	d="
M426.871521,171.080582 
	C416.381073,171.080582 406.371613,171.080582 395.751068,171.080582 
	C398.488922,167.349533 431.724884,166.976410 435.189636,171.080582 
	C432.577271,171.080582 429.964905,171.080582 426.871521,171.080582 
z"/>
<path fill="#EEEEEE" opacity="1.000000" stroke="none" 
	d="
M481.996307,317.070862 
	C488.079712,317.292633 493.752380,316.595215 499.269531,317.510620 
	C499.236664,318.133606 499.203766,318.756622 499.170868,319.379639 
	C486.228546,319.379639 473.286255,319.379639 460.047943,319.379639 
	C462.156372,317.072723 462.156372,317.073059 470.503571,317.072571 
	C474.168091,317.072357 477.832581,317.070465 481.996307,317.070862 
z"/>
<path fill="#EEEEEE" opacity="1.000000" stroke="none" 
	d="
M405.323944,528.061768 
	C392.959259,528.076294 381.030914,528.076294 369.102600,528.076294 
	C368.970428,527.567810 368.838226,527.059387 368.706055,526.550903 
	C369.759186,526.059448 370.808258,525.150940 371.866058,525.140747 
	C382.689697,525.035522 393.515228,525.031189 404.338684,525.145142 
	C405.424316,525.156494 406.499817,526.131836 407.580017,526.659729 
	C406.973450,527.122253 406.366882,527.584778 405.323944,528.061768 
z"/>
<path fill="#DEE6DE" opacity="1.000000" stroke="none" 
	d="
M449.240356,291.916656 
	C452.673859,299.226685 455.968079,306.224945 459.853485,314.479065 
	C457.649780,313.859375 456.204742,313.873749 455.926697,313.311249 
	C452.217255,305.807495 448.671143,298.222931 445.084381,290.658508 
	C445.495605,290.299500 445.906860,289.940460 446.318085,289.581451 
	C447.245758,290.255951 448.173462,290.930420 449.240356,291.916656 
z"/>
<path fill="#DEE6DE" opacity="1.000000" stroke="none" 
	d="
M543.690918,616.448730 
	C545.423523,613.143127 546.999695,610.178894 548.575867,607.214661 
	C550.343506,612.831726 540.782471,631.462646 536.505493,631.710815 
	C538.968933,626.481750 541.251770,621.635925 543.690918,616.448730 
z"/>
<path fill="#00C300" opacity="1.000000" stroke="none" 
	d="
M43.024288,282.084045 
	C38.746338,282.084076 34.963158,282.084076 31.179979,282.084076 
	C35.002010,278.166962 67.175507,278.387054 71.256927,282.083984 
	C61.131962,282.083984 52.325508,282.083984 43.024288,282.084045 
z"/>
<path fill="#DEE6DE" opacity="1.000000" stroke="none" 
	d="
M631.613159,313.185181 
	C630.501221,313.048950 629.573242,312.645569 628.645203,312.242188 
	C632.235352,304.810883 635.809570,297.371704 639.474854,289.977631 
	C639.618469,289.688019 640.633057,289.830078 642.609253,289.638184 
	C638.755676,297.935364 635.276367,305.426697 631.613159,313.185181 
z"/>
<path fill="#DEE6DE" opacity="1.000000" stroke="none" 
	d="
M473.198395,348.536530 
	C476.852325,340.775085 480.452454,333.353821 484.143494,325.977997 
	C484.286224,325.692841 485.302338,325.844757 486.897858,325.709167 
	C485.786896,328.475067 484.996429,330.696136 484.017029,332.830505 
	C481.740997,337.790710 479.415619,342.729553 477.019501,347.632690 
	C476.234375,349.239258 475.572296,351.970490 473.198395,348.536530 
z"/>
<path fill="#DEE6DE" opacity="1.000000" stroke="none" 
	d="
M442.906067,408.651855 
	C445.214722,405.621246 444.690613,400.732239 449.755005,399.444946 
	C448.278442,407.566315 439.992157,423.126709 435.642578,424.205658 
	C438.264526,418.611481 440.516876,413.805847 442.906067,408.651855 
z"/>
<path fill="#DEE6DE" opacity="1.000000" stroke="none" 
	d="
M272.205353,475.574493 
	C273.628876,478.736084 274.906616,481.550751 276.500122,485.061035 
	C274.802368,484.859131 273.380676,485.037811 273.168976,484.613251 
	C269.373047,476.999939 265.723480,469.313629 261.851166,461.244141 
	C265.485535,461.391632 265.485535,461.391632 272.205353,475.574493 
z"/>
<path fill="#DEE6DE" opacity="1.000000" stroke="none" 
	d="
M453.483643,466.297668 
	C454.872406,464.096436 456.079987,462.214203 457.287567,460.331940 
	C457.865173,460.703461 458.442780,461.074951 459.020386,461.446472 
	C455.746674,469.797180 451.657898,477.733734 447.814819,485.795105 
	C446.899475,485.371582 445.984131,484.948059 445.068787,484.524536 
	C447.813324,478.555237 450.557892,472.585938 453.483643,466.297668 
z"/>
<path fill="#DEE6DE" opacity="1.000000" stroke="none" 
	d="
M302.802765,585.566772 
	C305.903229,580.459106 306.639679,574.320740 311.763916,569.931580 
	C312.060760,576.011169 302.920776,594.066589 298.475555,595.156677 
	C300.070923,591.631409 301.364685,588.772644 302.802765,585.566772 
z"/>
<path fill="#DEE6DE" opacity="1.000000" stroke="none" 
	d="
M485.802795,585.566772 
	C488.903229,580.459106 489.639679,574.320740 494.763916,569.931580 
	C495.060760,576.011169 485.920776,594.066650 481.475647,595.156677 
	C483.070984,591.631409 484.364716,588.772644 485.802795,585.566772 
z"/>
<path fill="#DEE6DE" opacity="1.000000" stroke="none" 
	d="
M635.315063,185.453537 
	C637.757019,190.646683 640.040771,195.498611 642.505371,200.734573 
	C638.474854,200.486328 629.556641,183.846008 628.897583,176.377396 
	C633.376038,177.984344 633.262024,182.330215 635.315063,185.453537 
z"/>
<path fill="#DEE6DE" opacity="1.000000" stroke="none" 
	d="
M629.147339,260.394562 
	C626.006287,265.442993 625.412354,271.657135 620.109192,275.945862 
	C620.067444,269.349884 629.136841,251.709076 633.535950,250.863083 
	C631.935425,254.323975 630.611938,257.185944 629.147339,260.394562 
z"/>
<path fill="#DEE6DE" opacity="1.000000" stroke="none" 
	d="
M448.966248,178.284119 
	C452.321350,185.494553 455.554596,192.387665 458.740967,199.302368 
	C458.912445,199.674438 458.690704,200.227707 458.557007,201.847214 
	C457.066986,200.684479 455.734467,200.151062 455.260803,199.193039 
	C452.106842,192.813766 449.086456,186.366226 446.169952,179.874680 
	C445.806488,179.065735 446.309631,177.867462 446.411255,176.849594 
	C447.219025,177.223495 448.026764,177.597412 448.966248,178.284119 
z"/>
<path fill="#DEE6DE" opacity="1.000000" stroke="none" 
	d="
M478.385803,115.159332 
	C480.497589,110.920471 482.417694,107.006065 484.337830,103.091652 
	C486.381195,108.684616 476.831512,127.414558 472.648041,127.743477 
	C474.601532,123.425270 476.397827,119.454521 478.385803,115.159332 
z"/>
<path fill="#DEE6DE" opacity="1.000000" stroke="none" 
	d="
M386.772003,256.078247 
	C389.703339,262.364410 392.469818,268.322052 395.820435,275.537659 
	C393.628235,274.868591 392.190735,274.857483 391.904205,274.277649 
	C388.201172,266.783630 384.661957,259.208679 381.081329,251.654160 
	C381.695374,251.244232 382.309387,250.834305 382.923431,250.424377 
	C384.151337,252.199478 385.379242,253.974579 386.772003,256.078247 
z"/>
<path fill="#DEE6DE" opacity="1.000000" stroke="none" 
	d="
M635.936768,228.136108 
	C634.002930,231.893433 632.209656,235.303955 630.416443,238.714478 
	C628.685242,232.831543 638.215271,214.384491 642.433655,214.229156 
	C640.209106,218.974884 638.143311,223.382080 635.936768,228.136108 
z"/>
<path fill="#DEE6DE" opacity="1.000000" stroke="none" 
	d="
M629.290894,105.426819 
	C630.370178,104.596870 631.283752,104.069206 632.197388,103.541542 
	C632.515320,103.890556 632.833313,104.239571 633.151245,104.588585 
	C629.445251,112.692406 626.036682,120.955582 621.486328,128.607040 
	C620.694763,128.216476 619.903198,127.825912 619.111633,127.435349 
	C622.449524,120.199936 625.787354,112.964523 629.290894,105.426819 
z"/>
<path fill="#DEE6DE" opacity="1.000000" stroke="none" 
	d="
M528.035583,142.922058 
	C528.375549,140.024887 529.937317,139.813232 530.968201,141.853210 
	C534.688599,149.215759 538.077087,156.746017 541.590942,164.212921 
	C541.123718,164.612793 540.656494,165.012650 540.189209,165.412506 
	C539.205017,164.472198 537.862732,163.708862 537.296082,162.562225 
	C534.136292,156.168152 531.164307,149.681274 528.035583,142.922058 
z"/>
<path fill="#DEE6DE" opacity="1.000000" stroke="none" 
	d="
M290.863281,107.710014 
	C290.696594,106.222198 290.651001,105.051918 290.605438,103.881638 
	C291.491486,104.354134 292.834686,104.602692 293.192810,105.333794 
	C296.746124,112.587715 300.136505,119.921440 303.572968,127.232590 
	C303.110504,127.627831 302.648041,128.023071 302.185577,128.418304 
	C301.201111,127.473015 299.863861,126.703217 299.291595,125.552879 
	C296.412750,119.765724 293.733673,113.879189 290.863281,107.710014 
z"/>
<path fill="#DEE6DE" opacity="1.000000" stroke="none" 
	d="
M309.068237,236.612518 
	C305.537506,229.052414 302.141541,221.801315 298.745575,214.550201 
	C299.087769,214.236847 299.429932,213.923508 299.772125,213.610153 
	C300.632812,214.009094 301.956696,214.179977 302.282745,214.842178 
	C305.645630,221.672089 308.884583,228.564453 312.033417,235.496033 
	C312.332855,236.155106 311.787476,237.197952 311.634308,238.062637 
	C310.823853,237.682281 310.013397,237.301910 309.068237,236.612518 
z"/>
<path fill="#DEE6DE" opacity="1.000000" stroke="none" 
	d="
M651.033691,518.969727 
	C650.015625,520.386658 649.120422,521.479431 647.659180,523.263062 
	C647.113892,517.261292 656.290710,498.903381 661.142090,497.490814 
	C657.517639,505.169281 654.337036,511.907440 651.033691,518.969727 
z"/>
<path fill="#DEE6DE" opacity="1.000000" stroke="none" 
	d="
M418.421509,191.313171 
	C419.923676,194.568588 421.250763,197.493958 422.766571,200.835342 
	C418.815826,200.418564 411.141235,186.491562 409.005096,177.470795 
	C411.846313,177.108139 411.846313,177.108139 418.421509,191.313171 
z"/>
<path fill="#DEE6DE" opacity="1.000000" stroke="none" 
	d="
M647.238403,461.153625 
	C648.368225,461.341919 649.786438,461.503357 650.122742,462.192627 
	C653.540405,469.197876 656.791870,476.284485 660.043335,483.369690 
	C660.212097,483.737274 659.959106,484.298370 659.901978,484.773010 
	C656.787476,484.382019 648.806885,469.774963 647.238403,461.153625 
z"/>
<path fill="#DEE6DE" opacity="1.000000" stroke="none" 
	d="
M468.084717,463.959229 
	C471.154510,470.591309 474.108246,476.889954 477.018280,483.208740 
	C477.200897,483.605347 477.041992,484.159241 477.041992,485.019501 
	C476.160889,484.974701 474.921967,485.188843 474.758148,484.862762 
	C470.876526,477.137024 467.110596,469.353149 463.323547,461.579895 
	C463.891327,461.187408 464.459106,460.794952 465.026886,460.402466 
	C466.004120,461.478455 466.981384,462.554443 468.084717,463.959229 
z"/>
<path fill="#DEE6DE" opacity="1.000000" stroke="none" 
	d="
M465.651764,369.945435 
	C458.054901,386.374542 458.054901,386.374542 455.232452,386.764496 
	C455.739441,381.021301 464.482391,363.971405 468.601349,362.498199 
	C467.499664,365.338715 466.668274,367.482391 465.651764,369.945435 
z"/>
<path fill="#DEE6DE" opacity="1.000000" stroke="none" 
	d="
M538.175537,176.790741 
	C539.043945,176.937332 539.906616,177.082672 540.126953,177.538483 
	C543.775818,185.089111 547.344116,192.678726 550.050110,201.191269 
	C549.165771,200.862045 547.770996,200.779266 547.474915,200.166016 
	C543.951904,192.870071 540.582581,185.499680 537.233337,178.121368 
	C537.120667,177.873169 537.643982,177.336288 538.175537,176.790741 
z"/>
<path fill="#DEE6DE" opacity="1.000000" stroke="none" 
	d="
M585.012146,194.652878 
	C585.910217,196.777710 586.677368,198.562897 587.727112,201.005646 
	C586.123474,200.862411 584.685364,201.070816 584.484924,200.666168 
	C580.699524,193.023529 577.060364,185.308456 573.390686,177.608459 
	C573.906738,177.215759 574.422791,176.823059 574.938843,176.430359 
	C575.921692,177.446518 577.222473,178.301971 577.831726,179.507019 
	C580.297302,184.383911 582.549988,189.368439 585.012146,194.652878 
z"/>
<path fill="#DEE6DE" opacity="1.000000" stroke="none" 
	d="
M490.712708,546.043579 
	C492.552551,550.055054 494.212494,553.733887 496.063477,557.836121 
	C492.206329,557.364197 484.656830,543.659424 482.304199,534.464783 
	C485.143768,534.114136 485.143768,534.114136 490.712708,546.043579 
z"/>
<path fill="#DEE6DE" opacity="1.000000" stroke="none" 
	d="
M411.294922,231.001282 
	C414.567627,224.953140 416.275482,218.371613 421.097900,213.710144 
	C421.369904,219.539291 412.623016,236.799896 408.377625,238.492584 
	C409.488831,235.587219 410.304077,233.455780 411.294922,231.001282 
z"/>
<path fill="#DEE6DE" opacity="1.000000" stroke="none" 
	d="
M468.084717,216.959198 
	C471.338562,223.974838 474.466370,230.661652 477.929108,238.064560 
	C476.160889,237.974686 474.921997,238.188828 474.758179,237.862808 
	C470.876587,230.137024 467.110626,222.353149 463.323547,214.579880 
	C463.891327,214.187393 464.459076,213.794922 465.026855,213.402451 
	C466.004120,214.478409 466.981384,215.554382 468.084717,216.959198 
z"/>
<path fill="#DEE6DE" opacity="1.000000" stroke="none" 
	d="
M457.434143,164.819931 
	C456.451233,164.330261 454.985931,163.323624 455.112732,163.047180 
	C458.492889,155.677338 462.018921,148.373795 465.607880,141.102249 
	C465.782776,140.747940 466.753784,140.786575 468.708771,141.441345 
	C465.037079,149.175308 461.365387,156.909271 457.434143,164.819931 
z"/>
<path fill="#DEE6DE" opacity="1.000000" stroke="none" 
	d="
M603.981689,251.288300 
	C607.772644,259.126129 611.349426,266.702332 614.926208,274.278503 
	C614.527832,274.629578 614.129456,274.980682 613.731140,275.331787 
	C612.796082,274.650269 611.446777,274.173431 610.992676,273.254272 
	C607.839905,266.873047 604.863647,260.404266 601.852234,253.953552 
	C600.940613,252.000702 600.391174,250.209030 603.981689,251.288300 
z"/>
<path fill="#DEE6DE" opacity="1.000000" stroke="none" 
	d="
M400.689240,275.054199 
	C400.591064,273.593414 400.474823,272.095062 401.012482,270.888000 
	C403.577972,265.128693 406.254700,259.415649 409.051086,253.764923 
	C409.691895,252.470078 410.962341,251.486816 411.942993,250.360168 
	C412.478760,250.719818 413.014526,251.079468 413.550293,251.439117 
	C410.888977,257.198151 408.351898,263.019562 405.506256,268.686005 
	C404.337616,271.013000 402.503784,273.005951 400.689240,275.054199 
z"/>
<path fill="#DEE6DE" opacity="1.000000" stroke="none" 
	d="
M522.305420,616.962708 
	C520.940186,613.951782 519.757507,611.268860 518.057556,607.412598 
	C520.106445,608.031189 521.546387,608.039124 521.830811,608.616455 
	C525.532349,616.128479 529.070068,623.721313 532.799622,631.612549 
	C529.082153,631.587097 529.082153,631.587097 522.305420,616.962708 
z"/>
<path fill="#DEE6DE" opacity="1.000000" stroke="none" 
	d="
M437.973450,145.900101 
	C437.872498,142.676361 439.253296,142.965515 440.832153,144.449081 
	C446.570557,149.841095 445.489929,161.283188 437.423340,166.779846 
	C438.831207,162.382996 440.606598,159.231491 440.643738,156.059616 
	C440.682037,152.788467 439.028503,149.497528 437.973450,145.900101 
z"/>
<path fill="#DEE6DE" opacity="1.000000" stroke="none" 
	d="
M411.390106,500.493958 
	C416.316284,504.396545 417.814941,509.417969 416.307373,515.184937 
	C415.482727,518.339600 414.560974,521.745239 410.298126,523.188171 
	C410.204529,521.856445 409.888000,521.058655 410.158722,520.647705 
	C414.042023,514.753235 414.274017,508.896667 410.367340,502.892120 
	C410.079773,502.450104 410.819336,501.339874 411.390106,500.493958 
z"/>
<path fill="#00C300" opacity="1.000000" stroke="none" 
	d="
M241.222290,337.123230 
	C243.079025,333.200836 244.702774,329.579254 246.531754,326.064453 
	C246.865570,325.422974 248.036102,325.216888 248.820404,324.809814 
	C249.041702,325.646759 249.696289,326.681671 249.418121,327.290344 
	C246.191101,334.352020 242.849716,341.362305 239.440567,348.338318 
	C239.178085,348.875397 238.175201,349.050659 237.516464,349.394104 
	C237.093079,349.158875 236.669693,348.923645 236.246323,348.688446 
	C237.850815,344.945862 239.455322,341.203308 241.222290,337.123230 
z"/>
<path fill="#00C300" opacity="1.000000" stroke="none" 
	d="
M184.192413,421.706207 
	C180.929153,422.735321 181.279251,420.903076 182.043472,419.219360 
	C185.054642,412.585175 188.134903,405.980499 191.339584,399.438385 
	C191.714798,398.672424 193.020660,398.362366 193.895096,397.841003 
	C194.010254,398.844696 194.535736,400.035828 194.176300,400.822723 
	C191.012527,407.748993 187.691284,414.603333 184.192413,421.706207 
z"/>
<path fill="#00C300" opacity="1.000000" stroke="none" 
	d="
M76.888565,408.780670 
	C78.515541,405.297546 79.914993,402.117004 81.538803,399.055450 
	C81.877792,398.416260 83.045494,398.216614 83.831314,397.814392 
	C84.047333,398.653351 84.693550,399.688995 84.413666,400.301270 
	C81.185699,407.362244 77.843925,414.372070 74.433914,421.347321 
	C74.172394,421.882294 73.165550,422.052887 72.505142,422.392822 
	C72.052238,422.138824 71.599342,421.884796 71.146439,421.630768 
	C73.011215,417.462341 74.875992,413.293945 76.888565,408.780670 
z"/>
<path fill="#00C300" opacity="1.000000" stroke="none" 
	d="
M246.192657,308.776672 
	C249.217041,302.325714 252.044998,296.159973 255.048401,290.080902 
	C255.529083,289.107971 256.795197,288.523041 257.698181,287.758759 
	C257.842407,288.875519 258.448853,290.198700 258.057037,291.076080 
	C255.157257,297.569733 252.108917,303.999420 248.959412,310.376190 
	C248.564972,311.174774 247.306488,311.546570 246.448334,312.116119 
	C246.317001,311.107605 246.185669,310.099121 246.192657,308.776672 
z"/>
<path fill="#00C300" opacity="1.000000" stroke="none" 
	d="
M196.718842,377.816650 
	C195.179413,380.675110 193.811844,383.203979 192.444290,385.732880 
	C191.818802,385.452057 191.193314,385.171234 190.567825,384.890411 
	C190.889023,383.627716 191.029831,382.282745 191.561691,381.116089 
	C194.303528,375.101776 197.068436,369.094513 200.027390,363.185974 
	C200.531494,362.179382 202.016815,361.664185 203.048828,360.921997 
	C203.027588,362.103088 203.356339,363.434540 202.924622,364.439240 
	C201.033508,368.840179 198.922180,373.146454 196.718842,377.816650 
z"/>
<path fill="#00C300" opacity="1.000000" stroke="none" 
	d="
M130.287201,361.111816 
	C127.098366,369.114349 123.667473,376.908783 120.152725,384.665222 
	C119.972603,385.062714 119.073166,385.134277 117.901566,385.597748 
	C117.901566,384.240295 117.621284,383.251617 117.945137,382.536591 
	C121.017189,375.754120 124.141121,368.993378 127.410416,362.304718 
	C127.763916,361.581482 129.131027,361.353638 130.287201,361.111816 
z"/>
<path fill="#00C300" opacity="1.000000" stroke="none" 
	d="
M44.250259,289.304077 
	C45.232872,288.821625 46.995003,288.332581 47.114384,288.593933 
	C50.592972,296.209259 53.908463,303.899078 57.230873,311.585297 
	C57.252991,311.636444 57.007416,311.803345 56.625671,312.160736 
	C56.264862,312.112579 55.268944,312.227539 55.117825,311.923096 
	C51.445290,304.524933 47.862785,297.082062 44.250259,289.304077 
z"/>
<path fill="#00C300" opacity="1.000000" stroke="none" 
	d="
M112.305199,327.760315 
	C115.614883,334.868073 118.773865,341.648132 121.932854,348.428192 
	C121.410675,348.778564 120.888496,349.128967 120.366318,349.479340 
	C119.440376,348.516235 118.206512,347.705933 117.640144,346.564423 
	C114.700432,340.639587 111.854034,334.664307 109.174896,328.618073 
	C108.705482,327.558685 109.187424,326.077728 109.229996,324.791443 
	C110.204834,325.671844 111.179665,326.552216 112.305199,327.760315 
z"/>
<path fill="#00C300" opacity="1.000000" stroke="none" 
	d="
M218.865448,436.015381 
	C220.821640,434.021362 222.747589,434.486420 221.788361,436.795319 
	C218.694321,444.242798 214.936478,451.415955 211.350113,458.652985 
	C211.183899,458.988403 210.201172,458.919220 207.827118,459.389221 
	C211.797424,450.966949 215.248718,443.645660 218.865448,436.015381 
z"/>
<path fill="#00C300" opacity="1.000000" stroke="none" 
	d="
M200.573059,450.331726 
	C201.855988,453.181000 202.956589,455.697540 204.148666,458.423218 
	C200.343384,458.409729 191.227020,441.326874 191.072632,435.053040 
	C194.154541,435.756989 194.154541,435.756989 200.573059,450.331726 
z"/>
<path fill="#00C300" opacity="1.000000" stroke="none" 
	d="
M223.952286,407.845215 
	C225.906708,404.049408 227.715591,400.600159 229.524490,397.150879 
	C231.419250,402.274414 222.258102,420.789032 217.386017,422.090515 
	C219.765457,416.939850 221.786118,412.565796 223.952286,407.845215 
z"/>
<path fill="#00C300" opacity="1.000000" stroke="none" 
	d="
M244.050781,261.844879 
	C246.181656,266.504883 248.167389,270.818542 250.523026,275.935760 
	C248.702011,275.698334 247.336777,275.867096 247.113693,275.439697 
	C243.160233,267.865387 239.193237,260.280518 236.326691,252.251938 
	C237.043091,251.886124 237.759491,251.520294 238.475891,251.154480 
	C240.285812,254.602509 242.095734,258.050537 244.050781,261.844879 
z"/>
<path fill="#00C300" opacity="1.000000" stroke="none" 
	d="
M85.104736,290.913635 
	C88.363083,297.948486 91.482368,304.651672 94.601654,311.354828 
	C90.072807,310.480255 81.268555,292.561951 81.650856,286.716736 
	C83.130569,288.442139 84.048119,289.512054 85.104736,290.913635 
z"/>
<path fill="#00C300" opacity="1.000000" stroke="none" 
	d="
M217.474304,299.569244 
	C215.247421,304.145111 213.201920,308.391937 211.156418,312.638763 
	C209.036682,308.239014 217.402252,290.130249 221.774246,287.291351 
	C222.184845,292.265686 218.878189,295.445984 217.474304,299.569244 
z"/>
<path fill="#00C300" opacity="1.000000" stroke="none" 
	d="
M223.299225,263.202637 
	C225.412903,258.935028 227.350998,254.999802 229.289093,251.064590 
	C231.434128,256.231110 222.287842,274.762695 217.638550,276.046051 
	C219.651474,271.454712 221.387543,267.494873 223.299225,263.202637 
z"/>
<path fill="#00C300" opacity="1.000000" stroke="none" 
	d="
M119.542038,403.737213 
	C111.967537,420.942535 111.967537,420.942535 107.389252,421.971649 
	C111.559891,413.181213 115.367729,405.155426 119.175568,397.129639 
	C119.922279,397.417206 120.668983,397.704803 121.415695,397.992401 
	C120.850418,399.800629 120.285149,401.608856 119.542038,403.737213 
z"/>
<path fill="#00C300" opacity="1.000000" stroke="none" 
	d="
M92.734299,365.777222 
	C88.993843,372.398560 87.180229,379.722351 82.104134,385.116302 
	C81.372612,379.793579 90.110367,362.230408 94.259514,360.558594 
	C93.709190,362.542175 93.307083,363.991547 92.734299,365.777222 
z"/>
<path fill="#00C300" opacity="1.000000" stroke="none" 
	d="
M75.307526,334.800842 
	C73.828194,331.419891 72.524216,328.370361 70.884460,324.535583 
	C75.132477,325.909027 82.798462,340.308685 84.619766,348.335114 
	C81.794769,348.524261 81.794769,348.524261 75.307526,334.800842 
z"/>
<path fill="#00C300" opacity="1.000000" stroke="none" 
	d="
M205.450180,335.329895 
	C207.394241,331.365814 209.157364,327.733398 210.920486,324.100983 
	C212.956024,328.734589 204.434647,346.899200 199.631866,348.491516 
	C201.510986,344.214844 203.390121,339.938202 205.450180,335.329895 
z"/>
<path fill="#00C300" opacity="1.000000" stroke="none" 
	d="
M231.527985,381.625641 
	C230.382660,383.072174 229.419662,384.189484 228.456665,385.306793 
	C227.888718,384.932739 227.320786,384.558716 226.752838,384.184662 
	C230.561234,376.164398 234.369629,368.144135 238.178024,360.123871 
	C238.880371,360.437836 239.582718,360.751801 240.285065,361.065796 
	C238.966064,368.390411 234.382187,374.482513 231.527985,381.625641 
z"/>
<path fill="#C8E3F5" opacity="1.000000" stroke="none" 
	d="
M313.108948,336.184601 
	C313.236572,333.287201 313.364197,330.860046 313.491821,328.432892 
	C314.279510,328.452332 315.067230,328.471741 315.854919,328.491180 
	C316.844879,335.876678 316.602570,343.292816 315.130280,350.789246 
	C311.881622,346.419891 313.644440,341.370667 313.108948,336.184601 
z"/>
<path fill="#C8E3F5" opacity="1.000000" stroke="none" 
	d="
M316.338806,423.052063 
	C315.330811,423.571777 314.362854,423.672791 313.394867,423.773804 
	C313.394867,416.675720 313.394867,409.577606 313.394867,402.479523 
	C314.199066,402.427246 315.003265,402.374969 315.807465,402.322693 
	C316.005127,405.618134 316.286713,408.911224 316.377411,412.209625 
	C316.472931,415.681549 316.386017,419.158539 316.338806,423.052063 
z"/>
<path fill="#C8E3F5" opacity="1.000000" stroke="none" 
	d="
M490.109619,521.851807 
	C489.005280,521.808960 487.299774,521.412231 487.289734,520.976379 
	C487.141174,514.529541 487.192047,508.077118 487.298523,501.627716 
	C487.305603,501.199097 488.139954,500.784180 489.376556,499.625427 
	C491.343262,507.365875 490.044067,514.479980 490.109619,521.851807 
z"/>
<path fill="#C8E3F5" opacity="1.000000" stroke="none" 
	d="
M316.399780,160.567184 
	C316.173157,162.630951 315.946838,164.247086 315.627197,166.529709 
	C312.612030,163.112457 312.230164,147.669830 314.873962,142.600723 
	C317.667267,148.739746 315.823456,154.575974 316.399780,160.567184 
z"/>
<path fill="#F5E4C9" opacity="1.000000" stroke="none" 
	d="
M325.491486,557.942078 
	C324.378693,557.797058 322.776733,557.328857 322.768494,556.834106 
	C322.661346,550.396912 322.765991,543.955627 322.876465,537.516418 
	C322.883362,537.115784 323.382782,536.723511 323.641296,536.344604 
	C326.181335,538.602417 326.495056,542.188477 325.491486,557.942078 
z"/>
<path fill="#F5E4C9" opacity="1.000000" stroke="none" 
	d="
M618.894897,539.687073 
	C618.896240,546.355286 618.896240,552.593994 618.896240,558.832703 
	C618.221375,558.896423 617.546570,558.960205 616.871704,559.023987 
	C616.458313,558.125610 615.705139,557.234131 615.686829,556.327759 
	C615.573120,550.707947 615.563904,545.083679 615.678711,539.464050 
	C615.698608,538.493652 616.477295,537.538635 616.905518,536.576538 
	C617.568237,537.470215 618.230896,538.363892 618.894897,539.687073 
z"/>
<path fill="#F5E4C9" opacity="1.000000" stroke="none" 
	d="
M377.619995,295.800537 
	C378.076416,294.443298 378.531982,293.503418 378.987549,292.563538 
	C379.613373,293.156036 380.775574,293.742249 380.782562,294.341980 
	C380.857697,300.784851 380.768829,307.230133 380.664886,313.673798 
	C380.654449,314.320465 380.249756,314.960693 379.201508,315.258331 
	C376.946899,308.722748 377.933197,302.415497 377.619995,295.800537 
z"/>
<path fill="#F5E4C9" opacity="1.000000" stroke="none" 
	d="
M618.898071,581.180298 
	C618.865356,586.395508 618.832703,591.137146 618.800110,595.878723 
	C615.091736,593.078796 614.777466,577.626221 618.189514,573.380310 
	C618.425720,575.822449 618.661865,578.264526 618.898071,581.180298 
z"/>
<path fill="#F5E4C9" opacity="1.000000" stroke="none" 
	d="
M514.619385,421.326019 
	C514.685181,415.113068 514.735291,409.336060 514.859497,403.560669 
	C514.867065,403.206635 515.461060,402.865204 515.779053,402.521271 
	C518.309387,404.637421 518.935059,419.572449 516.275879,425.804718 
	C515.504761,423.921936 515.062561,422.842133 514.619385,421.326019 
z"/>
<path fill="#F5E4C9" opacity="1.000000" stroke="none" 
	d="
M517.897461,333.433655 
	C517.326721,339.507233 519.143494,345.381744 516.865417,350.830414 
	C516.371704,350.805359 515.877991,350.780334 515.384277,350.755280 
	C515.384277,343.353851 515.384277,335.952393 515.384277,328.550964 
	C515.920166,328.488373 516.456055,328.425751 516.991943,328.363159 
	C517.293701,329.904205 517.595398,331.445282 517.897461,333.433655 
z"/>
<path fill="#C8E3F5" opacity="1.000000" stroke="none" 
	d="
M609.332458,330.156097 
	C609.383606,337.318024 609.383606,344.077393 609.383606,350.836792 
	C608.803406,350.891083 608.223206,350.945404 607.643066,350.999725 
	C607.146240,350.288147 606.233521,349.585419 606.218140,348.863586 
	C606.091248,342.905304 606.030762,336.941071 606.172974,330.983978 
	C606.224182,328.838409 607.067261,327.179016 609.332458,330.156097 
z"/>
<path fill="#C8E3F5" opacity="1.000000" stroke="none" 
	d="
M609.400452,412.082581 
	C609.400452,416.650726 609.400452,420.743011 609.400452,424.835327 
	C605.362793,421.907410 605.245300,405.649109 609.147156,402.453094 
	C609.231567,405.504303 609.316040,408.555542 609.400452,412.082581 
z"/>
<path fill="#C8E3F5" opacity="1.000000" stroke="none" 
	d="
M316.400452,377.933716 
	C316.400452,381.533386 316.400452,384.657898 316.400452,388.980072 
	C312.435608,385.212921 312.144073,369.031036 315.996643,365.410095 
	C316.131256,369.426239 316.265839,373.442413 316.400452,377.933716 
z"/>
<path fill="#F5E4C9" opacity="1.000000" stroke="none" 
	d="
M517.898071,373.180267 
	C517.865479,378.395477 517.832825,383.137115 517.800171,387.878723 
	C516.907532,387.851288 516.014832,387.823822 515.122192,387.796387 
	C514.228027,380.413391 514.379944,373.009155 515.118652,365.592957 
	C515.808960,365.522064 516.499268,365.451172 517.189514,365.380280 
	C517.425720,367.822418 517.661865,370.264526 517.898071,373.180267 
z"/>
<path fill="#C8E3F5" opacity="1.000000" stroke="none" 
	d="
M304.123596,199.306656 
	C304.112305,192.402252 304.112305,185.932846 304.112305,179.463425 
	C304.715607,179.380615 305.318878,179.297806 305.922180,179.214996 
	C306.409393,180.048309 307.300446,180.872833 307.318787,181.716370 
	C307.444641,187.501022 307.453339,193.291168 307.321228,199.075470 
	C307.300598,199.979401 306.370941,200.862564 305.861603,201.755341 
	C305.286041,201.084106 304.710449,200.412872 304.123596,199.306656 
z"/>
<path fill="#C8E3F5" opacity="1.000000" stroke="none" 
	d="
M606.109009,371.337402 
	C606.317139,369.061707 606.525269,367.241730 606.795044,364.881989 
	C609.826050,367.757324 610.380859,382.768890 607.858521,388.703613 
	C604.687622,382.800354 606.788025,377.107544 606.109009,371.337402 
z"/>
<path fill="#E4F7E5" opacity="1.000000" stroke="none" 
	d="
M285.915924,508.137939 
	C286.039368,505.230225 286.162781,502.797455 286.286194,500.364685 
	C286.953888,500.393860 287.621552,500.423035 288.289246,500.452209 
	C288.289246,507.907196 288.289246,515.362183 288.289246,522.817200 
	C287.531525,522.856262 286.773773,522.895325 286.016052,522.934387 
	C285.982697,518.160583 285.949310,513.386719 285.915924,508.137939 
z"/>
<path fill="#E4F7E5" opacity="1.000000" stroke="none" 
	d="
M285.915985,308.786316 
	C285.915955,303.014984 285.915955,297.715607 285.915955,292.416199 
	C289.697327,295.175415 289.927124,310.978912 286.813751,316.156342 
	C286.407928,313.038025 286.161957,311.148132 285.915985,308.786316 
z"/>
<path fill="#E4F7E5" opacity="1.000000" stroke="none" 
	d="
M527.092163,589.785156 
	C526.909668,592.102295 526.727173,593.949585 526.491333,596.337463 
	C523.391907,593.336121 522.967407,577.780151 525.673950,572.723022 
	C528.321960,578.525940 526.506470,584.063477 527.092163,589.785156 
z"/>
<path fill="#E4F7E5" opacity="1.000000" stroke="none" 
	d="
M524.023438,537.819092 
	C525.067017,537.584473 526.881287,537.773621 526.880554,537.955505 
	C526.853882,544.731018 526.665710,551.506104 526.453125,558.279785 
	C526.447754,558.451599 525.925354,558.607178 524.914246,559.193604 
	C522.890625,552.102478 524.382935,545.091431 524.023438,537.819092 
z"/>
<path fill="#E4F7E5" opacity="1.000000" stroke="none" 
	d="
M404.915955,372.193878 
	C405.093872,369.607758 405.271790,367.490875 405.537537,364.328522 
	C408.769806,368.465820 408.851959,384.350098 405.739227,389.014160 
	C404.260529,382.943176 405.224091,377.734558 404.915955,372.193878 
z"/>
<path fill="#E4F7E5" opacity="1.000000" stroke="none" 
	d="
M408.092377,338.052490 
	C407.976471,342.651703 407.860565,346.767151 407.744659,350.882629 
	C407.079620,350.850708 406.414612,350.818817 405.749573,350.786926 
	C405.749573,343.349121 405.749573,335.911316 405.749573,328.473511 
	C406.448334,328.437683 407.147064,328.401825 407.845825,328.365997 
	C407.928009,331.433594 408.010193,334.501190 408.092377,338.052490 
z"/>
<path fill="#E9EBEA" opacity="1.000000" stroke="none" 
	d="
M309.380554,131.064026 
	C314.981995,131.189926 320.197601,130.784561 325.295227,131.325302 
	C325.226929,132.058441 325.158630,132.791580 325.090332,133.524719 
	C318.281769,133.524719 311.473206,133.524719 304.664673,133.524719 
	C304.582245,133.037430 304.499817,132.550140 304.417389,132.062851 
	C305.921082,131.729996 307.424774,131.397141 309.380554,131.064026 
z"/>
<path fill="#E9EBEA" opacity="1.000000" stroke="none" 
	d="
M443.599609,525.595459 
	C443.829224,526.454651 443.769867,527.555786 443.697632,527.556641 
	C436.996826,527.635193 430.295044,527.629639 423.550964,526.496826 
	C430.063446,524.784485 436.679138,524.990967 443.599609,525.595459 
z"/>
<path fill="#E9EBEA" opacity="1.000000" stroke="none" 
	d="
M559.175903,207.088821 
	C556.486389,207.088806 554.261719,207.088806 551.423584,207.088806 
	C554.144897,203.314651 569.161499,203.009064 572.604248,207.088837 
	C568.283020,207.088837 563.961853,207.088837 559.175903,207.088821 
z"/>
<path fill="#E9EBEA" opacity="1.000000" stroke="none" 
	d="
M294.286499,488.064514 
	C295.838745,488.369629 296.974152,488.674347 298.109589,488.979095 
	C298.051788,489.437958 297.994019,489.896790 297.936218,490.355652 
	C291.061401,490.355652 284.186615,490.355652 277.016144,490.355652 
	C279.148499,488.060822 279.148499,488.060822 294.286499,488.064514 
z"/>
<path fill="#00C300" opacity="1.000000" stroke="none" 
	d="
M96.019539,428.084045 
	C92.429131,428.084076 89.323158,428.084076 86.217178,428.084076 
	C86.235100,427.335754 86.253014,426.587463 86.270927,425.839142 
	C93.108070,425.839142 99.945221,425.839142 106.782364,425.839142 
	C106.801720,426.587433 106.821075,427.335693 106.840424,428.083984 
	C103.394943,428.083984 99.949455,428.083984 96.019539,428.084045 
z"/>
</svg>