<?xml version="1.0" encoding="UTF-8"?>
<svg id="Layer_2" data-name="Layer 2" xmlns="http://www.w3.org/2000/svg" viewBox="0 0 332.64 475.95">
  <defs>
    <style>
      .cls-1 {
        fill: #fc9432;
      }

      .cls-2 {
        fill: #fff;
      }

      .cls-2, .cls-3 {
        opacity: 0;
      }

      .cls-4 {
        fill: #fe7070;
      }

      .cls-5 {
        fill: #e81313;
      }

      .cls-6, .cls-7, .cls-3, .cls-8 {
        fill: none;
      }

      .cls-6, .cls-3 {
        stroke: #000;
      }

      .cls-6, .cls-3, .cls-8 {
        stroke-width: .31px;
      }

      .cls-7 {
        stroke-width: .02px;
      }

      .cls-7, .cls-8 {
        stroke: #3a414a;
      }

      .cls-9 {
        fill: #54c45e;
      }

      .cls-10 {
        fill: #3a414a;
      }

      .cls-11 {
        fill: #fff7a1;
      }
    </style>
  </defs>
  <g id="Layer_1-2" data-name="Layer 1">
    <path class="cls-5" d="m148.34,13.69c3.74,0,6.77,3.03,6.77,6.77s-3.03,6.77-6.77,6.77h-42.48c-3.74,0-6.77-3.03-6.77-6.77s3.03-6.77,6.77-6.77h42.48Z"/>
    <path class="cls-8" d="m148.34,13.69c3.74,0,6.77,3.03,6.77,6.77s-3.03,6.77-6.77,6.77h-42.48c-3.74,0-6.77-3.03-6.77-6.77s3.03-6.77,6.77-6.77h42.48Z"/>
    <path d="m123.29,18.36c-.09,1.13.4,2.86-.83,2.86-.5-.01-.76-.28-.84-.75l.36-.06c.05.28.18.48.49.49.31,0,.44-.23.44-.56v-1.67h-.54v-.32h.92Z"/>
    <path d="m124.55,21.21c-1.01.05-.61-1.32-.69-2.2h.36v1.36c0,.35.08.57.44.56.82-.02.51-1.15.57-1.92h.35v2.16s-.33,0-.33,0c-.01-.11.01-.28-.02-.37-.12.25-.32.41-.68.42Z"/>
    <path d="m127.59,19.89c.07-.68-.86-.87-1.1-.32-.03.08-.07.19-.07.32h1.17Zm-.59-.92c.71,0,.98.48.95,1.2h-1.53c0,.45.16.76.6.77.29.01.49-.14.56-.33l.32.09c-.12.32-.42.51-.87.51-.66,0-1-.42-.99-1.13.01-.69.29-1.11.96-1.11Z"/>
    <path d="m129.2,20.92c.41,0,.57-.36.57-.83s-.16-.85-.57-.85c-.44,0-.52.39-.52.85s.07.83.52.83Zm.94-1.91c-.11,1.42.47,3.32-1.25,2.96-.26-.07-.43-.23-.5-.49l.36-.06c.17.53,1.13.36,1.01-.32v-.34c-.12.24-.33.41-.69.41-.61,0-.77-.47-.77-1.09s.18-1.1.81-1.11c.33-.01.54.18.67.4.01-.11,0-.26.02-.36h.34Z"/>
    <path d="m131.53,20.94c.5.01.6-.35.6-.85s-.09-.85-.58-.85-.6.36-.6.85.11.84.58.85Zm.01-1.97c.7-.01.96.42.96,1.12.01.71-.31,1.12-.98,1.12s-.94-.44-.95-1.12c0-.75.32-1.12.96-1.12Z"/>
    <path class="cls-4" d="m197.72,1.99c0-1.84,1.84-1.84,1.84-1.84h52.35c1.81,0,1.81,1.84,1.81,1.84l.03,38.81c-9.37-6.8-15.19-6.8-18.71-6.8-5.61,0-13.05,6.8-18.65,6.8-3.46,0-9.34,0-18.65-6.8V1.99Z"/>
    <path class="cls-8" d="m197.72,1.99c0-1.84,1.84-1.84,1.84-1.84h52.35c1.81,0,1.81,1.84,1.81,1.84l.03,38.81c-9.37-6.8-15.19-6.8-18.71-6.8-5.61,0-13.05,6.8-18.65,6.8-3.46,0-9.34,0-18.65-6.8V1.99Z"/>
    <path class="cls-10" d="m202.88,15.28c.62-.02,1.41.16,1.41-.51s-.79-.48-1.41-.5v1.01Zm0-1.3c.57-.01,1.25.1,1.25-.48,0-.53-.71-.41-1.25-.42v.9Zm1.1.12c.4.06.69.26.69.69,0,.99-1.2.77-2.17.79v-2.81c.86.03,2.01-.19,2.01.68,0,.37-.22.57-.53.65Z"/>
    <polygon class="cls-10" points="205.16 15.58 205.16 14.1 205.16 12.62 205.53 12.62 205.53 14.1 205.53 15.58 205.16 15.58"/>
    <path class="cls-10" d="m206.91,15.36c.5.01.6-.35.6-.85s-.09-.85-.58-.85-.6.36-.6.85.11.84.58.85Zm.01-1.97c.7-.01.96.42.96,1.12.01.71-.31,1.12-.98,1.12s-.94-.44-.95-1.12c0-.75.32-1.12.96-1.12Z"/>
    <path class="cls-10" d="m209.11,15.35c.47,0,.58-.37.58-.86s-.09-.83-.57-.83-.52.4-.52.85.06.84.51.84Zm.59-.11c-.12.25-.33.4-.68.4-.6,0-.78-.44-.79-1.11,0-.67.19-1.12.79-1.13.36-.01.54.16.68.37,0-.12-.01-.27.02-.36h.34v3.04h-.37v-1.2Z"/>
    <path class="cls-10" d="m211.28,15.63c-1.01.05-.61-1.32-.69-2.2h.36v1.36c0,.35.08.57.44.56.82-.02.51-1.15.57-1.92h.35v2.16s-.33,0-.33,0c-.01-.11.01-.28-.02-.37-.12.25-.32.41-.68.42Z"/>
    <path class="cls-10" d="m214.32,14.3c.07-.68-.86-.87-1.1-.32-.03.08-.07.19-.07.32h1.17Zm-.59-.92c.71,0,.98.48.95,1.2h-1.53c0,.45.16.76.6.77.29.01.49-.14.56-.33l.32.09c-.12.32-.42.51-.87.51-.66,0-1-.42-.99-1.13.01-.69.29-1.11.96-1.11Z"/>
    <path class="cls-10" d="m217.06,13.66c-.45,0-.52.39-.52.85s.07.84.51.84c.48,0,.58-.36.58-.86s-.1-.84-.57-.83Zm-.1-.27c.35,0,.54.15.68.37v-1.13s.35,0,.35,0v2.96s-.33,0-.33,0c-.02-.11,0-.26-.03-.35-.11.26-.32.4-.67.4-.6,0-.78-.44-.79-1.11,0-.75.26-1.13.79-1.13Z"/>
    <path class="cls-10" d="m219.99,14.3c.07-.68-.86-.87-1.1-.32-.03.08-.07.19-.07.32h1.17Zm-.59-.92c.71,0,.98.48.95,1.2h-1.53c0,.45.16.76.6.77.29.01.49-.14.56-.33l.32.09c-.12.32-.42.51-.87.51-.66,0-1-.42-.99-1.13.01-.69.29-1.11.96-1.11Z"/>
    <path class="cls-10" d="m222.81,12.93c-.35-.1-.48.11-.43.5h.43v.26h-.43v1.89h-.35v-1.89h-.31v-.26h.31c-.08-.59.19-.93.78-.77v.27Z"/>
    <path class="cls-10" d="m223.76,15.63c-1.01.05-.61-1.32-.69-2.2h.36v1.36c0,.35.08.57.44.56.82-.02.51-1.15.57-1.92h.35v2.16s-.33,0-.33,0c-.01-.11.01-.28-.02-.37-.12.25-.32.41-.68.42Z"/>
    <path class="cls-10" d="m226.4,13.38c1.01-.05.6,1.32.68,2.2h-.36v-1.37c0-.35-.09-.56-.44-.54-.82.02-.5,1.16-.56,1.92h-.36v-2.16s.33,0,.33,0c.01.11-.01.27.02.36.12-.25.33-.4.69-.41Z"/>
    <path class="cls-10" d="m228.43,13.67c-.45,0-.54.37-.54.83s.1.85.54.85c.27,0,.47-.16.49-.43l.36.02c-.07.42-.35.69-.84.69-.67,0-.86-.47-.93-1.12-.11-1.05,1.15-1.49,1.67-.73.05.08.06.16.08.25l-.36.03c-.05-.24-.18-.4-.47-.4Z"/>
    <path class="cls-10" d="m229.65,15.58v-2.16h.36v2.16h-.36Zm0-2.62v-.34h.36v.34h-.36Z"/>
    <path class="cls-10" d="m231.4,15.36c.5.01.6-.35.6-.85s-.09-.85-.58-.85-.6.36-.6.85.11.84.58.85Zm.01-1.97c.7-.01.96.42.96,1.12.01.71-.31,1.12-.98,1.12s-.94-.44-.95-1.12c0-.75.32-1.12.96-1.12Z"/>
    <path class="cls-10" d="m233.87,13.38c1.01-.05.6,1.32.68,2.2h-.36v-1.37c0-.35-.09-.56-.44-.54-.82.02-.5,1.16-.56,1.92h-.36v-2.16s.33,0,.33,0c.01.11-.01.27.02.36.12-.25.33-.4.69-.41Z"/>
    <path class="cls-10" d="m235.36,14.98c0,.23.14.37.36.37.47-.03.71-.33.68-.84-.49.02-1.04-.06-1.04.47Zm1.05.19c-.17.24-.35.47-.77.45-.41-.01-.66-.24-.66-.65-.01-.73.71-.71,1.42-.71.03-.4-.1-.61-.47-.61-.27.01-.47.08-.48.35l-.37-.03c.06-.42.37-.59.86-.59s.82.23.82.73v.93c-.01.23.08.36.32.31v.23c-.35.1-.69-.02-.67-.4Z"/>
    <path class="cls-10" d="m239.47,13.67c-.76.03-.43,1.19-.5,1.92h-.35v-1.37c0-.33-.06-.57-.4-.54-.75.05-.43,1.18-.5,1.92h-.35v-2.16s.33,0,.33,0c.01.11-.01.27.02.36.11-.5,1.12-.57,1.21,0,.12-.24.31-.4.66-.41.96-.02.53,1.35.62,2.2h-.35v-1.37c0-.33-.06-.56-.4-.54Z"/>
    <path class="cls-10" d="m240.75,15.58v-2.16h.36v2.16h-.36Zm0-2.62v-.34h.36v.34h-.36Z"/>
    <path class="cls-10" d="m243.09,14.3c.07-.68-.86-.87-1.1-.32-.03.08-.07.19-.07.32h1.17Zm-.59-.92c.71,0,.98.48.95,1.2h-1.53c0,.45.16.76.6.77.29.01.49-.14.56-.33l.32.09c-.12.32-.42.51-.87.51-.66,0-1-.42-.99-1.13.01-.69.29-1.11.96-1.11Z"/>
    <path class="cls-10" d="m244.97,13.38c1.01-.05.6,1.32.68,2.2h-.36v-1.37c0-.35-.09-.56-.44-.54-.82.02-.5,1.16-.56,1.92h-.36v-2.16s.33,0,.33,0c.01.11-.01.27.02.36.12-.25.33-.4.69-.41Z"/>
    <path class="cls-10" d="m246.58,15.05c-.02.27.2.33.43.25v.27c-.37.11-.79.06-.79-.44v-1.44h-.25v-.26h.27l.1-.49h.24v.49h.4v.26h-.4v1.36Z"/>
    <path class="cls-10" d="m248.16,15.36c.5.01.6-.35.6-.85s-.09-.85-.58-.85-.6.36-.6.85.11.84.58.85Zm.01-1.97c.7-.01.96.42.96,1.12.01.71-.31,1.12-.98,1.12s-.94-.44-.95-1.12c0-.75.32-1.12.96-1.12Z"/>
    <path class="cls-10" d="m218.84,21.04c.27.05.37-.07.37-.34v-2.37h.36v2.43c.02.45-.26.66-.74.56v-.27Zm.37-3.18v-.34h.36v.34h-.36Z"/>
    <path class="cls-10" d="m220.8,20.53c-1.01.05-.61-1.32-.69-2.2h.36v1.36c0,.35.08.57.44.56.82-.02.51-1.15.57-1.92h.35v2.16s-.33,0-.33,0c-.01-.11.01-.28-.02-.37-.12.25-.32.41-.68.42Z"/>
    <path class="cls-10" d="m223.18,20.24c.41,0,.57-.36.57-.83s-.16-.85-.57-.85c-.44,0-.52.39-.52.85s.07.83.52.83Zm.94-1.91c-.11,1.42.47,3.32-1.25,2.96-.26-.07-.43-.23-.5-.49l.36-.06c.17.53,1.13.36,1.01-.32v-.34c-.12.24-.33.41-.69.41-.61,0-.77-.47-.77-1.09s.18-1.1.81-1.11c.33-.01.54.18.67.4.01-.11,0-.26.02-.36h.34Z"/>
    <path class="cls-10" d="m224.92,19.88c0,.23.14.37.36.37.47-.03.71-.33.68-.84-.49.02-1.04-.06-1.04.47Zm1.05.19c-.17.24-.35.47-.77.45-.41-.01-.66-.24-.66-.65-.01-.73.71-.71,1.42-.71.03-.4-.1-.61-.47-.61-.27.01-.47.08-.48.35l-.37-.03c.06-.42.37-.59.86-.59s.82.23.82.73v.93c-.01.23.08.36.32.31v.23c-.35.1-.69-.02-.67-.4Z"/>
    <path class="cls-10" d="m227.71,18.56c-.45,0-.52.39-.52.85s.07.84.51.84c.48,0,.58-.36.58-.86s-.1-.84-.57-.83Zm-.1-.27c.35,0,.54.15.68.37v-1.13s.35,0,.35,0v2.96s-.33,0-.33,0c-.02-.11,0-.26-.03-.35-.11.26-.32.4-.67.4-.6,0-.78-.44-.79-1.11,0-.75.26-1.13.79-1.13Z"/>
    <path class="cls-10" d="m230.04,20.26c.5.01.6-.35.6-.85s-.09-.85-.58-.85-.6.36-.6.85.11.84.58.85Zm.01-1.97c.7-.01.96.42.96,1.12.01.71-.31,1.12-.98,1.12s-.94-.44-.95-1.12c0-.75.32-1.12.96-1.12Z"/>
    <path class="cls-10" d="m232.48,18.64c-.88-.18-.6,1.03-.65,1.85h-.36v-2.16s.33,0,.33,0c.01.14-.01.33.02.44.07-.31.26-.56.66-.47v.33Z"/>
    <path class="cls-8" d="m126.96,27.57v27.02c0,.06.31.06.31.06v.03s0,.09,0,.09v22.15"/>
    <rect class="cls-10" x="126.96" y="27.41" width=".31" height=".15"/>
    <rect class="cls-7" x="126.96" y="27.41" width=".31" height=".15"/>
    <polygon class="cls-10" points="127.27 81.45 125.74 77.07 128.8 77.07 127.27 81.45"/>
    <polygon class="cls-8" points="127.27 81.45 125.74 77.07 128.8 77.07 127.27 81.45"/>
    <path class="cls-1" d="m125.71,82.58c1.44-1.13,2.88-.01,2.88-.01l32.22,24.85c1.44,1.12,0,2.24,0,2.24l-32.19,24.87c-1.47,1.1-2.94-.03-2.94-.03l-32.16-24.84c-1.47-1.11-.02-2.24-.02-2.24l32.21-24.84Z"/>
    <path class="cls-6" d="m125.71,82.58c1.44-1.13,2.88-.01,2.88-.01l32.22,24.85c1.44,1.12,0,2.24,0,2.24l-32.19,24.87c-1.47,1.1-2.94-.03-2.94-.03l-32.16-24.84c-1.47-1.11-.02-2.24-.02-2.24l32.21-24.84Z"/>
    <path class="cls-10" d="m101.53,106.47v.4h-.39v-.4h.39Zm-.29,2.85c-.57,0-.93-.25-.95-.79-.02-.74.81-.66.88-1.3h.34c.01.73-.86.61-.86,1.29,0,.34.24.48.59.49.36,0,.6-.19.64-.52l.36.02c-.07.52-.41.82-1,.82Z"/>
    <polygon class="cls-10" points="102.85 108.62 102.85 107.21 102.85 105.81 104.97 105.81 104.97 105.97 104.97 106.12 103.22 106.12 103.22 106.57 103.22 107.02 104.86 107.02 104.86 107.17 104.86 107.33 103.22 107.33 103.22 107.82 103.22 108.31 105.06 108.31 105.06 108.47 105.06 108.62 102.85 108.62"/>
    <polygon class="cls-10" points="105.5 108.62 105.5 107.14 105.5 105.66 105.87 105.66 105.87 107.14 105.87 108.62 105.5 108.62"/>
    <path class="cls-10" d="m107.16,109.18c.27.05.37-.07.37-.34v-2.37h.36v2.43c.02.45-.26.66-.74.56v-.27Zm.37-3.18v-.34h.36v.34h-.36Z"/>
    <path class="cls-10" d="m109.11,108.67c-1.01.05-.61-1.32-.69-2.2h.36v1.36c0,.35.08.57.44.56.82-.02.51-1.15.57-1.92h.35v2.16s-.33,0-.33,0c-.01-.11.01-.28-.02-.37-.12.25-.32.41-.68.42Z"/>
    <path class="cls-10" d="m112.15,107.34c.07-.68-.86-.87-1.1-.32-.03.08-.07.19-.07.32h1.17Zm-.59-.92c.71,0,.98.48.95,1.2h-1.53c0,.45.16.76.6.77.29.01.49-.14.56-.33l.32.09c-.12.32-.42.51-.87.51-.66,0-1-.42-.99-1.13.01-.69.29-1.11.96-1.11Z"/>
    <path class="cls-10" d="m113.76,108.37c.41,0,.57-.36.57-.83s-.16-.85-.57-.85c-.44,0-.52.39-.52.85s.07.83.52.83Zm.94-1.91c-.11,1.42.47,3.32-1.25,2.96-.26-.07-.43-.23-.5-.49l.36-.06c.17.53,1.13.36,1.01-.32v-.34c-.12.24-.33.41-.69.41-.61,0-.77-.47-.77-1.09s.18-1.1.81-1.11c.33-.01.54.18.67.4.01-.11,0-.26.02-.36h.34Z"/>
    <path class="cls-10" d="m116.09,108.39c.5.01.6-.35.6-.85s-.09-.85-.58-.85-.6.36-.6.85.11.84.58.85Zm.01-1.97c.7-.01.96.42.96,1.12.01.71-.31,1.12-.98,1.12s-.94-.44-.95-1.12c0-.75.32-1.12.96-1.12Z"/>
    <path class="cls-10" d="m120.09,107.34c.07-.68-.86-.87-1.1-.32-.03.08-.07.19-.07.32h1.17Zm-.59-.92c.71,0,.98.48.95,1.2h-1.53c0,.45.16.76.6.77.29.01.49-.14.56-.33l.32.09c-.12.32-.42.51-.87.51-.66,0-1-.42-.99-1.13.01-.69.29-1.11.96-1.11Z"/>
    <path class="cls-10" d="m123.02,106.7c-.76.03-.43,1.19-.5,1.92h-.35v-1.37c0-.33-.06-.57-.4-.54-.75.05-.43,1.18-.5,1.92h-.35v-2.16s.33,0,.33,0c.01.11-.01.27.02.36.11-.5,1.12-.57,1.21,0,.12-.24.31-.4.66-.41.96-.02.53,1.35.62,2.2h-.35v-1.37c0-.33-.06-.56-.4-.54Z"/>
    <path class="cls-10" d="m125.24,108.39c.45,0,.51-.39.51-.85s-.07-.83-.51-.84c-.48,0-.58.36-.58.86s.11.83.58.83Zm.09-1.97c.62.01.79.47.79,1.11s-.18,1.11-.79,1.13c-.35,0-.56-.15-.68-.39v1.19s-.35,0-.35,0v-3.01s.34,0,.34,0l.02.34c.11-.24.32-.39.67-.39Z"/>
    <path class="cls-10" d="m128.02,107.34c.07-.68-.86-.87-1.1-.32-.03.08-.07.19-.07.32h1.17Zm-.59-.92c.71,0,.98.48.95,1.2h-1.53c0,.45.16.76.6.77.29.01.49-.14.56-.33l.32.09c-.12.32-.42.51-.87.51-.66,0-1-.42-.99-1.13.01-.69.29-1.11.96-1.11Z"/>
    <polygon class="cls-10" points="128.67 108.62 128.67 108.48 128.67 108.35 129.98 106.74 128.74 106.74 128.74 106.6 128.74 106.47 130.38 106.47 130.38 106.6 130.38 106.74 129.06 108.35 130.46 108.35 130.46 108.48 130.46 108.62 128.67 108.62"/>
    <path class="cls-10" d="m131.73,108.39c.5.01.6-.35.6-.85s-.09-.85-.58-.85-.6.36-.6.85.11.84.58.85Zm.01-1.97c.7-.01.96.42.96,1.12.01.71-.31,1.12-.98,1.12s-.94-.44-.95-1.12c0-.75.32-1.12.96-1.12Z"/>
    <path class="cls-10" d="m133.75,108.62v-.4h.39v.4h-.39Zm.29-2.85c.95,0,1.26,1.1.51,1.51-.22.11-.42.27-.44.59h-.35c0-.71.87-.62.87-1.29,0-.34-.24-.48-.59-.49-.36,0-.6.19-.64.52l-.36-.02c.08-.51.39-.82,1-.82Z"/>
    <path class="cls-10" d="m137.26,109.47c-.43-.48-.74-1.04-.74-1.92s.32-1.43.74-1.89h.35c-.43.47-.73,1.04-.73,1.91s.29,1.44.73,1.91h-.35Z"/>
    <path class="cls-10" d="m139.72,106.48c-.06-.54-1.4-.61-1.41.02.16.85,1.79.16,1.85,1.35.03.88-1.37.99-1.98.62-.19-.11-.32-.29-.37-.52l.37-.08c.06.64,1.6.71,1.6-.01,0-.88-1.76-.16-1.84-1.34-.06-.93,1.64-.95,2.03-.39.06.08.09.18.12.28l-.37.06Z"/>
    <path class="cls-10" d="m141.01,108.09c-.02.27.2.33.43.25v.27c-.37.11-.79.06-.79-.44v-1.44h-.25v-.26h.27l.1-.49h.24v.49h.4v.26h-.4v1.36Z"/>
    <path class="cls-10" d="m142.02,108.02c0,.23.14.37.36.37.47-.03.71-.33.68-.84-.49.02-1.04-.06-1.04.47Zm1.05.19c-.17.24-.35.47-.77.45-.41-.01-.66-.24-.66-.65-.01-.73.71-.71,1.42-.71.03-.4-.1-.61-.47-.61-.27.01-.47.08-.48.35l-.37-.03c.06-.42.37-.59.86-.59s.82.23.82.73v.93c-.01.23.08.36.32.31v.23c-.35.1-.69-.02-.67-.4Z"/>
    <path class="cls-10" d="m145.04,106.77c-.88-.18-.6,1.03-.65,1.85h-.36v-2.16s.33,0,.33,0c.01.14-.01.33.02.44.07-.31.26-.56.66-.47v.33Z"/>
    <path class="cls-10" d="m145.77,108.09c-.02.27.2.33.43.25v.27c-.37.11-.79.06-.79-.44v-1.44h-.25v-.26h.27l.1-.49h.24v.49h.4v.26h-.4v1.36Z"/>
    <path class="cls-10" d="m147.57,107.94v-.29h1.97v.29h-1.97Zm0-1.02v-.29h1.97v.29h-1.97Z"/>
    <polygon class="cls-10" points="151.19 108.62 151.19 108.47 151.19 108.31 151.92 108.31 151.92 107.24 151.92 106.16 151.28 106.6 151.28 106.44 151.28 106.27 151.94 105.81 152.27 105.81 152.27 107.06 152.27 108.31 152.96 108.31 152.96 108.47 152.96 108.62 151.19 108.62"/>
    <path class="cls-10" d="m153.53,105.66c.43.47.74,1.04.74,1.91s-.31,1.44-.74,1.91h-.35c.42-.47.73-1.04.73-1.91s-.31-1.44-.73-1.91h.35Z"/>
    <path class="cls-2" d="m190.06,96.82c0-1.84,1.84-1.84,1.84-1.84h10.32c1.84,0,1.84,1.84,1.84,1.84v9.86c0,1.85-1.84,1.85-1.84,1.85h-10.33c-1.84,0-1.84-1.84-1.84-1.84v-9.87Z"/>
    <path class="cls-3" d="m190.06,96.82c0-1.84,1.84-1.84,1.84-1.84h10.32c1.84,0,1.84,1.84,1.84,1.84v9.86c0,1.85-1.84,1.85-1.84,1.85h-10.33c-1.84,0-1.84-1.84-1.84-1.84v-9.87Z"/>
    <polygon class="cls-10" points="196.51 102.88 194.51 99.69 194.52 102.88 194.09 102.88 194.09 101 194.09 99.13 194.68 99.13 196.69 102.35 196.66 99.13 197.13 99.13 197.13 101 197.13 102.88 196.51 102.88"/>
    <path class="cls-10" d="m199.05,102.58c.67.02.8-.47.8-1.13s-.12-1.13-.77-1.13-.8.48-.8,1.13.15,1.12.77,1.13Zm.02-2.63c.94-.02,1.29.56,1.29,1.5.02.95-.41,1.5-1.3,1.5s-1.26-.59-1.27-1.5c0-1,.42-1.5,1.29-1.5Z"/>
    <path class="cls-8" d="m127.27,135.32v27.2s0,.03,0,.03v27.81"/>
    <polygon class="cls-10" points="127.27 135.17 127.27 135.17 127.27 135.32 126.96 135.32 126.96 135.17 127.27 135.17"/>
    <polygon class="cls-7" points="127.27 135.17 127.27 135.17 127.27 135.32 126.96 135.32 126.96 135.17 127.27 135.17"/>
    <polygon class="cls-10" points="127.27 194.65 126.04 190.37 128.8 190.37 127.27 194.65"/>
    <polygon class="cls-8" points="127.27 194.65 126.04 190.37 128.8 190.37 127.27 194.65"/>
    <path class="cls-2" d="m126.96,157.81c0-1.84,1.84-1.84,1.84-1.84h10.32c1.84,0,1.84,1.84,1.84,1.84v9.86c0,1.85-1.84,1.85-1.84,1.85h-10.33c-1.84,0-1.84-1.84-1.84-1.84v-9.87Z"/>
    <path class="cls-3" d="m126.96,157.81c0-1.84,1.84-1.84,1.84-1.84h10.32c1.84,0,1.84,1.84,1.84,1.84v9.86c0,1.85-1.84,1.85-1.84,1.85h-10.33c-1.84,0-1.84-1.84-1.84-1.84v-9.87Z"/>
    <path class="cls-10" d="m134.39,161.01c-.08-.73-1.86-.82-1.88.03.21,1.13,2.39.21,2.47,1.8.05,1.18-1.83,1.32-2.65.83-.26-.15-.42-.39-.5-.7l.5-.11c.08.85,2.13.95,2.13-.02,0-1.18-2.34-.21-2.45-1.78-.08-1.24,2.19-1.27,2.71-.51.08.11.12.24.17.38l-.5.08Z"/>
    <path class="cls-10" d="m135.59,163.86v-2.87h.48v2.87h-.48Zm0-3.49v-.45h.48v.45h-.48Z"/>
    <path class="cls-9" d="m240.6,103.59c0-1.84,1.84-1.84,1.84-1.84h66.34c1.81,0,1.81,1.84,1.81,1.84l.03,9.86c-.03,1.85-1.87,1.85-1.87,1.85h-66.31c-1.84,0-1.84-1.84-1.84-1.84v-9.87Z"/>
    <path class="cls-8" d="m240.6,103.59c0-1.84,1.84-1.84,1.84-1.84h66.34c1.81,0,1.81,1.84,1.81,1.84l.03,9.86c-.03,1.85-1.87,1.85-1.87,1.85h-66.31c-1.84,0-1.84-1.84-1.84-1.84v-9.87Z"/>
    <path class="cls-10" d="m263.09,109.5l.02-2.47c-.26.86-.61,1.64-.91,2.47h-.26l-.92-2.47v2.47s-.32,0-.32,0v-2.81h.5l.87,2.39c.24-.85.58-1.59.86-2.39h.49v2.81h-.34Z"/>
    <path class="cls-10" d="m264.3,108.9c0,.23.14.37.36.37.47-.03.71-.33.68-.84-.49.02-1.04-.06-1.04.47Zm1.05.19c-.17.24-.35.47-.77.45-.41-.01-.66-.24-.66-.65-.01-.73.71-.71,1.42-.71.03-.4-.1-.61-.47-.61-.27.01-.47.08-.48.35l-.37-.03c.06-.42.37-.59.86-.59s.82.23.82.73v.93c-.01.23.08.36.32.31v.23c-.35.1-.69-.02-.67-.4Z"/>
    <path class="cls-10" d="m267.35,107.3c1.01-.05.6,1.32.68,2.2h-.36v-1.37c0-.35-.09-.56-.44-.54-.82.02-.5,1.16-.56,1.92h-.36v-2.16s.33,0,.33,0c.01.11-.01.27.02.36.12-.25.33-.4.69-.41Z"/>
    <path class="cls-10" d="m268.96,108.97c-.02.27.2.33.43.25v.27c-.37.11-.79.06-.79-.44v-1.44h-.25v-.26h.27l.1-.49h.24v.49h.4v.26h-.4v1.36Z"/>
    <path class="cls-10" d="m271.15,108.22c.07-.68-.86-.87-1.1-.32-.03.08-.07.19-.07.32h1.17Zm-.59-.92c.71,0,.98.48.95,1.2h-1.53c0,.45.16.76.6.77.29.01.49-.14.56-.33l.32.09c-.12.32-.42.51-.87.51-.66,0-1-.42-.99-1.13.01-.69.29-1.11.96-1.11Z"/>
    <path class="cls-10" d="m273.02,107.3c1.01-.05.6,1.32.68,2.2h-.36v-1.37c0-.35-.09-.56-.44-.54-.82.02-.5,1.16-.56,1.92h-.36v-2.16s.33,0,.33,0c.01.11-.01.27.02.36.12-.25.33-.4.69-.41Z"/>
    <path class="cls-10" d="m275.69,108.22c.07-.68-.86-.87-1.1-.32-.03.08-.07.19-.07.32h1.17Zm-.59-.92c.71,0,.98.48.95,1.2h-1.53c0,.45.16.76.6.77.29.01.49-.14.56-.33l.32.09c-.12.32-.42.51-.87.51-.66,0-1-.42-.99-1.13.01-.69.29-1.11.96-1.11Z"/>
    <path class="cls-10" d="m277.53,107.65c-.88-.18-.6,1.03-.65,1.85h-.36v-2.16s.33,0,.33,0c.01.14-.01.33.02.44.07-.31.26-.56.66-.47v.33Z"/>
    <path class="cls-10" d="m280.43,108.22c.07-.68-.86-.87-1.1-.32-.03.08-.07.19-.07.32h1.17Zm-.59-.92c.71,0,.98.48.95,1.2h-1.53c0,.45.16.76.6.77.29.01.49-.14.56-.33l.32.09c-.12.32-.42.51-.87.51-.66,0-1-.42-.99-1.13.01-.69.29-1.11.96-1.11Z"/>
    <path class="cls-10" d="m282.5,107.88c-.03-.39-.98-.43-.99,0,.17.6,1.3.14,1.35,1.02.05.88-1.7.84-1.78.09l.32-.06c.05.41,1.1.51,1.11,0-.11-.64-1.28-.17-1.34-1.02-.05-.65.93-.71,1.38-.48.14.08.24.22.27.4l-.33.05Z"/>
    <path class="cls-10" d="m283.68,108.97c-.02.27.2.33.43.25v.27c-.37.11-.79.06-.79-.44v-1.44h-.25v-.26h.27l.1-.49h.24v.49h.4v.26h-.4v1.36Z"/>
    <path class="cls-10" d="m284.69,108.9c0,.23.14.37.36.37.47-.03.71-.33.68-.84-.49.02-1.04-.06-1.04.47Zm1.05.19c-.17.24-.35.47-.77.45-.41-.01-.66-.24-.66-.65-.01-.73.71-.71,1.42-.71.03-.4-.1-.61-.47-.61-.27.01-.47.08-.48.35l-.37-.03c.06-.42.37-.59.86-.59s.82.23.82.73v.93c-.01.23.08.36.32.31v.23c-.35.1-.69-.02-.67-.4Z"/>
    <path class="cls-10" d="m287.48,107.57c-.45,0-.52.39-.52.85s.07.84.51.84c.48,0,.58-.36.58-.86s-.1-.84-.57-.83Zm-.1-.27c.35,0,.54.15.68.37v-1.13s.35,0,.35,0v2.96s-.33,0-.33,0c-.02-.11,0-.26-.03-.35-.11.26-.32.4-.67.4-.6,0-.78-.44-.79-1.11,0-.75.26-1.13.79-1.13Z"/>
    <path class="cls-10" d="m289.81,109.27c.5.01.6-.35.6-.85s-.09-.85-.58-.85-.6.36-.6.85.11.84.58.85Zm.01-1.97c.7-.01.96.42.96,1.12.01.71-.31,1.12-.98,1.12s-.94-.44-.95-1.12c0-.75.32-1.12.96-1.12Z"/>
    <line class="cls-8" x1="197.41" y1="20.49" x2="160.35" y2="20.49"/>
    <rect class="cls-10" x="197.41" y="20.34" width=".31" height=".31"/>
    <rect class="cls-7" x="197.41" y="20.34" width=".31" height=".31"/>
    <polygon class="cls-10" points="155.75 20.49 160.04 19.08 160.04 21.9 155.75 20.49"/>
    <polygon class="cls-8" points="155.75 20.49 160.04 19.08 160.04 21.9 155.75 20.49"/>
    <line class="cls-8" x1="161.88" y1="108.55" x2="235.42" y2="108.55"/>
    <polygon class="cls-10" points="161.88 108.71 161.57 108.71 161.57 108.55 161.57 108.4 161.88 108.4 161.88 108.71"/>
    <polygon class="cls-7" points="161.88 108.71 161.57 108.71 161.57 108.55 161.57 108.4 161.88 108.4 161.88 108.71"/>
    <polygon class="cls-10" points="239.96 108.55 235.58 109.96 235.58 107.14 239.96 108.55"/>
    <polygon class="cls-8" points="239.96 108.55 235.58 109.96 235.58 107.14 239.96 108.55"/>
    <path class="cls-11" d="m126.01,251.84c1.44-1.13,2.88-.01,2.88-.01l32.22,24.85c1.44,1.12,0,2.24,0,2.24l-32.19,24.87c-1.47,1.1-2.94-.03-2.94-.03l-32.16-24.84c-1.47-1.11-.02-2.24-.02-2.24l32.21-24.84Z"/>
    <path class="cls-6" d="m126.01,251.84c1.44-1.13,2.88-.01,2.88-.01l32.22,24.85c1.44,1.12,0,2.24,0,2.24l-32.19,24.87c-1.47,1.1-2.94-.03-2.94-.03l-32.16-24.84c-1.47-1.11-.02-2.24-.02-2.24l32.21-24.84Z"/>
    <path class="cls-10" d="m110.59,274.13v.4h-.39v-.4h.39Zm-.29,2.85c-.57,0-.93-.25-.95-.79-.02-.74.81-.66.88-1.3h.34c.01.73-.86.61-.86,1.29,0,.34.24.48.59.49.36,0,.6-.19.64-.52l.36.02c-.07.52-.41.82-1,.82Z"/>
    <polygon class="cls-10" points="113.01 273.79 113.01 275.04 113.01 276.29 112.62 276.29 112.62 275.04 112.62 273.79 111.66 273.79 111.66 273.63 111.66 273.47 113.97 273.47 113.97 273.63 113.97 273.79 113.01 273.79"/>
    <path class="cls-10" d="m115.32,275c.07-.68-.86-.87-1.1-.32-.03.08-.07.19-.07.32h1.17Zm-.59-.92c.71,0,.98.48.95,1.2h-1.53c0,.45.16.76.6.77.29.01.49-.14.56-.33l.32.09c-.12.32-.42.51-.87.51-.66,0-1-.42-.99-1.13.01-.69.29-1.11.96-1.11Z"/>
    <path class="cls-10" d="m117.16,274.44c-.88-.18-.6,1.03-.65,1.85h-.36v-2.16s.33,0,.33,0c.01.14-.01.33.02.44.07-.31.26-.56.66-.47v.33Z"/>
    <path class="cls-10" d="m119.6,274.37c-.76.03-.43,1.19-.5,1.92h-.35v-1.37c0-.33-.06-.57-.4-.54-.75.05-.43,1.18-.5,1.92h-.35v-2.16s.33,0,.33,0c.01.11-.01.27.02.36.11-.5,1.12-.57,1.21,0,.12-.24.31-.4.66-.41.96-.02.53,1.35.62,2.2h-.35v-1.37c0-.33-.06-.56-.4-.54Z"/>
    <path class="cls-10" d="m120.88,276.29v-2.16h.36v2.16h-.36Zm0-2.62v-.34h.36v.34h-.36Z"/>
    <path class="cls-10" d="m122.83,274.09c1.01-.05.6,1.32.68,2.2h-.36v-1.37c0-.35-.09-.56-.44-.54-.82.02-.5,1.16-.56,1.92h-.36v-2.16s.33,0,.33,0c.01.11-.01.27.02.36.12-.25.33-.4.69-.41Z"/>
    <path class="cls-10" d="m124.89,276.06c.5.01.6-.35.6-.85s-.09-.85-.58-.85-.6.36-.6.85.11.84.58.85Zm.01-1.97c.7-.01.96.42.96,1.12.01.71-.31,1.12-.98,1.12s-.94-.44-.95-1.12c0-.75.32-1.12.96-1.12Z"/>
    <path class="cls-10" d="m128.5,274.09c1.01-.05.6,1.32.68,2.2h-.36v-1.37c0-.35-.09-.56-.44-.54-.82.02-.5,1.16-.56,1.92h-.36v-2.16s.33,0,.33,0c.01.11-.01.27.02.36.12-.25.33-.4.69-.41Z"/>
    <path class="cls-10" d="m129.72,276.29v-2.16h.36v2.16h-.36Zm0-2.62v-.34h.36v.34h-.36Z"/>
    <polygon class="cls-10" points="131.57 276.29 131.13 276.29 130.35 274.13 130.74 274.13 131.35 276 131.98 274.13 132.37 274.13 131.57 276.29"/>
    <path class="cls-10" d="m134.11,275c.07-.68-.86-.87-1.1-.32-.03.08-.07.19-.07.32h1.17Zm-.59-.92c.71,0,.98.48.95,1.2h-1.53c0,.45.16.76.6.77.29.01.49-.14.56-.33l.32.09c-.12.32-.42.51-.87.51-.66,0-1-.42-.99-1.13.01-.69.29-1.11.96-1.11Z"/>
    <polygon class="cls-10" points="134.92 276.29 134.92 274.81 134.92 273.33 135.29 273.33 135.29 274.81 135.29 276.29 134.92 276.29"/>
    <path class="cls-10" d="m137.62,276.33c-1.01.05-.61-1.32-.69-2.2h.36v1.36c0,.35.08.57.44.56.82-.02.51-1.15.57-1.92h.35v2.16s-.33,0-.33,0c-.01-.11.01-.28-.02-.37-.12.25-.32.41-.68.42Z"/>
    <path class="cls-10" d="m140.27,274.09c1.01-.05.6,1.32.68,2.2h-.36v-1.37c0-.35-.09-.56-.44-.54-.82.02-.5,1.16-.56,1.92h-.36v-2.16s.33,0,.33,0c.01.11-.01.27.02.36.12-.25.33-.4.69-.41Z"/>
    <path class="cls-10" d="m142.33,276.06c.5.01.6-.35.6-.85s-.09-.85-.58-.85-.6.36-.6.85.11.84.58.85Zm.01-1.97c.7-.01.96.42.96,1.12.01.71-.31,1.12-.98,1.12s-.94-.44-.95-1.12c0-.75.32-1.12.96-1.12Z"/>
    <path class="cls-10" d="m144.35,276.29v-.4h.39v.4h-.39Zm.29-2.85c.95,0,1.26,1.1.51,1.51-.22.11-.42.27-.44.59h-.35c0-.71.87-.62.87-1.29,0-.34-.24-.48-.59-.49-.36,0-.6.19-.64.52l-.36-.02c.08-.51.39-.82,1-.82Z"/>
    <path class="cls-10" d="m100.77,282.04c-.43-.48-.74-1.04-.74-1.92s.32-1.43.74-1.89h.35c-.43.47-.73,1.04-.73,1.91s.29,1.44.73,1.91h-.35Z"/>
    <path class="cls-10" d="m101.84,279.72c.68-.02,1.55.15,1.55-.53s-.91-.48-1.55-.51v1.04Zm1.93-.54c-.01.47-.26.73-.68.79l.79,1.21h-.43l-.74-1.17h-.87v1.17h-.37v-2.81c1,.03,2.33-.24,2.3.81Z"/>
    <path class="cls-10" d="m105.79,279.9c.07-.68-.86-.87-1.1-.32-.03.08-.07.19-.07.32h1.17Zm-.59-.92c.71,0,.98.48.95,1.2h-1.53c0,.45.16.76.6.77.29.01.49-.14.56-.33l.32.09c-.12.32-.42.51-.87.51-.66,0-1-.42-.99-1.13.01-.69.29-1.11.96-1.11Z"/>
    <path class="cls-10" d="m107.4,280.94c.41,0,.57-.36.57-.83s-.16-.85-.57-.85c-.44,0-.52.39-.52.85s.07.83.52.83Zm.94-1.91c-.11,1.42.47,3.32-1.25,2.96-.26-.07-.43-.23-.5-.49l.36-.06c.17.53,1.13.36,1.01-.32v-.34c-.12.24-.33.41-.69.41-.61,0-.77-.47-.77-1.09s.18-1.1.81-1.11c.33-.01.54.18.67.4.01-.11,0-.26.02-.36h.34Z"/>
    <path class="cls-10" d="m108.88,281.19v-2.16h.36v2.16h-.36Zm0-2.62v-.34h.36v.34h-.36Z"/>
    <path class="cls-10" d="m111.03,279.56c-.03-.39-.98-.43-.99,0,.17.6,1.3.14,1.35,1.02.05.88-1.7.84-1.78.09l.32-.06c.05.41,1.1.51,1.11,0-.11-.64-1.28-.17-1.34-1.02-.05-.65.93-.71,1.38-.48.14.08.24.22.27.4l-.33.05Z"/>
    <path class="cls-10" d="m112.21,280.65c-.02.27.2.33.43.25v.27c-.37.11-.79.06-.79-.44v-1.44h-.25v-.26h.27l.1-.49h.24v.49h.4v.26h-.4v1.36Z"/>
    <path class="cls-10" d="m113.97,279.34c-.88-.18-.6,1.03-.65,1.85h-.36v-2.16s.33,0,.33,0c.01.14-.01.33.02.44.07-.31.26-.56.66-.47v.33Z"/>
    <path class="cls-10" d="m115.15,280.96c.5.01.6-.35.6-.85s-.09-.85-.58-.85-.6.36-.6.85.11.84.58.85Zm.01-1.97c.7-.01.96.42.96,1.12.01.71-.31,1.12-.98,1.12s-.94-.44-.95-1.12c0-.75.32-1.12.96-1.12Z"/>
    <polygon class="cls-10" points="116.24 282 116.24 281.87 116.24 281.74 118.61 281.74 118.61 281.87 118.61 282 116.24 282"/>
    <path class="cls-10" d="m119.29,281.19c.03-1.11.54-1.8,1-2.51h-1.52v-.31h1.86v.29c-.44.74-.95,1.37-.96,2.52h-.37Z"/>
    <path class="cls-10" d="m123.06,279.27c-.45,0-.54.37-.54.83s.1.85.54.85c.27,0,.47-.16.49-.43l.36.02c-.07.42-.35.69-.84.69-.67,0-.86-.47-.93-1.12-.11-1.05,1.15-1.49,1.67-.73.05.08.06.16.08.25l-.36.03c-.05-.24-.18-.4-.47-.4Z"/>
    <path class="cls-10" d="m124.55,280.59c0,.23.14.37.36.37.47-.03.71-.33.68-.84-.49.02-1.04-.06-1.04.47Zm1.05.19c-.17.24-.35.47-.77.45-.41-.01-.66-.24-.66-.65-.01-.73.71-.71,1.42-.71.03-.4-.1-.61-.47-.61-.27.01-.47.08-.48.35l-.37-.03c.06-.42.37-.59.86-.59s.82.23.82.73v.93c-.01.23.08.36.32.31v.23c-.35.1-.69-.02-.67-.4Z"/>
    <path class="cls-10" d="m128.66,279.27c-.76.03-.43,1.19-.5,1.92h-.35v-1.37c0-.33-.06-.57-.4-.54-.75.05-.43,1.18-.5,1.92h-.35v-2.16s.33,0,.33,0c.01.11-.01.27.02.36.11-.5,1.12-.57,1.21,0,.12-.24.31-.4.66-.41.96-.02.53,1.35.62,2.2h-.35v-1.37c0-.33-.06-.56-.4-.54Z"/>
    <path class="cls-10" d="m130.88,280.96c.45,0,.51-.39.51-.85s-.06-.85-.51-.84c-.48,0-.58.36-.58.86s.11.83.58.83Zm.09-1.97c.6,0,.78.44.79,1.11,0,.75-.26,1.13-.79,1.13-.35-.01-.56-.12-.67-.39l-.02.34h-.35v-2.96h.37v1.15c.11-.26.32-.39.67-.39Z"/>
    <path class="cls-10" d="m132.21,281.19v-2.16h.36v2.16h-.36Zm0-2.62v-.34h.36v.34h-.36Z"/>
    <path class="cls-10" d="m133.38,280.59c0,.23.14.37.36.37.47-.03.71-.33.68-.84-.49.02-1.04-.06-1.04.47Zm1.05.19c-.17.24-.35.47-.77.45-.41-.01-.66-.24-.66-.65-.01-.73.71-.71,1.42-.71.03-.4-.1-.61-.47-.61-.27.01-.47.08-.48.35l-.37-.03c.06-.42.37-.59.86-.59s.82.23.82.73v.93c-.01.23.08.36.32.31v.23c-.35.1-.69-.02-.67-.4Z"/>
    <polygon class="cls-10" points="136.55 281.19 136.55 281.03 136.55 280.88 137.27 280.88 137.27 279.8 137.27 278.73 136.64 279.17 136.64 279 136.64 278.84 137.3 278.37 137.63 278.37 137.63 279.63 137.63 280.88 138.32 280.88 138.32 281.03 138.32 281.19 136.55 281.19"/>
    <path class="cls-10" d="m139.64,280.94c.53,0,.61-.56.61-1.16s-.05-1.16-.6-1.16-.62.54-.62,1.16.06,1.16.61,1.16Zm.01-2.6c.77,0,.96.62.96,1.44s-.23,1.45-.98,1.45-.98-.64-.98-1.45.19-1.44.99-1.44Z"/>
    <polygon class="cls-10" points="143.13 281.19 142.7 281.19 141.92 279.03 142.31 279.03 142.92 280.9 143.55 279.03 143.94 279.03 143.13 281.19"/>
    <path class="cls-10" d="m145.67,279.9c.07-.68-.86-.87-1.1-.32-.03.08-.07.19-.07.32h1.17Zm-.59-.92c.71,0,.98.48.95,1.2h-1.53c0,.45.16.76.6.77.29.01.49-.14.56-.33l.32.09c-.12.32-.42.51-.87.51-.66,0-1-.42-.99-1.13.01-.69.29-1.11.96-1.11Z"/>
    <path class="cls-10" d="m147.31,279.27c-.45,0-.54.37-.54.83s.1.85.54.85c.27,0,.47-.16.49-.43l.36.02c-.07.42-.35.69-.84.69-.67,0-.86-.47-.93-1.12-.11-1.05,1.15-1.49,1.67-.73.05.08.06.16.08.25l-.36.03c-.05-.24-.18-.4-.47-.4Z"/>
    <path class="cls-10" d="m149.98,279.9c.07-.68-.86-.87-1.1-.32-.03.08-.07.19-.07.32h1.17Zm-.59-.92c.71,0,.98.48.95,1.2h-1.53c0,.45.16.76.6.77.29.01.49-.14.56-.33l.32.09c-.12.32-.42.51-.87.51-.66,0-1-.42-.99-1.13.01-.69.29-1.11.96-1.11Z"/>
    <path class="cls-10" d="m152.06,279.56c-.03-.39-.98-.43-.99,0,.17.6,1.3.14,1.35,1.02.05.88-1.7.84-1.78.09l.32-.06c.05.41,1.1.51,1.11,0-.11-.64-1.28-.17-1.34-1.02-.05-.65.93-.71,1.38-.48.14.08.24.22.27.4l-.33.05Z"/>
    <path class="cls-10" d="m154.08,278.23c.43.47.74,1.04.74,1.91s-.31,1.44-.74,1.91h-.35c.42-.47.73-1.04.73-1.91s-.31-1.44-.73-1.91h.35Z"/>
    <path class="cls-9" d="m92.35,197.41c0-1.84,1.84-1.84,1.84-1.84h66.34c1.81,0,1.81,1.84,1.81,1.84l.03,20.71c-.03,1.84-1.87,1.84-1.87,1.84h-66.31c-1.84,0-1.84-1.84-1.84-1.84v-20.71Z"/>
    <path class="cls-8" d="m92.35,197.41c0-1.84,1.84-1.84,1.84-1.84h66.34c1.81,0,1.81,1.84,1.81,1.84l.03,20.71c-.03,1.84-1.87,1.84-1.87,1.84h-66.31c-1.84,0-1.84-1.84-1.84-1.84v-20.71Z"/>
    <polygon class="cls-10" points="113.15 208.95 113.15 207.54 113.15 206.13 115.27 206.13 115.27 206.29 115.27 206.45 113.52 206.45 113.52 206.9 113.52 207.35 115.16 207.35 115.16 207.5 115.16 207.65 113.52 207.65 113.52 208.15 113.52 208.64 115.36 208.64 115.36 208.79 115.36 208.95 113.15 208.95"/>
    <path class="cls-10" d="m117.91,207.03c-.76.03-.43,1.19-.5,1.92h-.35v-1.37c0-.33-.06-.57-.4-.54-.75.05-.43,1.18-.5,1.92h-.35v-2.16s.33,0,.33,0c.01.11-.01.27.02.36.11-.5,1.12-.57,1.21,0,.12-.24.31-.4.66-.41.96-.02.53,1.35.62,2.2h-.35v-1.37c0-.33-.06-.56-.4-.54Z"/>
    <path class="cls-10" d="m120.13,208.72c.45,0,.51-.39.51-.85s-.07-.83-.51-.84c-.48,0-.58.36-.58.86s.11.83.58.83Zm.09-1.97c.62.01.79.47.79,1.11s-.18,1.11-.79,1.13c-.35,0-.56-.15-.68-.39v1.19s-.35,0-.35,0v-3.01s.34,0,.34,0l.02.34c.11-.24.32-.39.67-.39Z"/>
    <path class="cls-10" d="m122.91,207.66c.07-.68-.86-.87-1.1-.32-.03.08-.07.19-.07.32h1.17Zm-.59-.92c.71,0,.98.48.95,1.2h-1.53c0,.45.16.76.6.77.29.01.49-.14.56-.33l.32.09c-.12.32-.42.51-.87.51-.66,0-1-.42-.99-1.13.01-.69.29-1.11.96-1.11Z"/>
    <polygon class="cls-10" points="123.56 208.95 123.56 208.81 123.56 208.67 124.88 207.06 123.64 207.06 123.64 206.93 123.64 206.79 125.27 206.79 125.27 206.93 125.27 207.06 123.96 208.67 125.35 208.67 125.35 208.81 125.35 208.95 123.56 208.95"/>
    <path class="cls-10" d="m126.04,208.34c0,.23.14.37.36.37.47-.03.71-.33.68-.84-.49.02-1.04-.06-1.04.47Zm1.05.19c-.17.24-.35.47-.77.45-.41-.01-.66-.24-.66-.65-.01-.73.71-.71,1.42-.71.03-.4-.1-.61-.47-.61-.27.01-.47.08-.48.35l-.37-.03c.06-.42.37-.59.86-.59s.82.23.82.73v.93c-.01.23.08.36.32.31v.23c-.35.1-.69-.02-.67-.4Z"/>
    <path class="cls-10" d="m129.06,207.1c-.88-.18-.6,1.03-.65,1.85h-.36v-2.16s.33,0,.33,0c.01.14-.01.33.02.44.07-.31.26-.56.66-.47v.33Z"/>
    <path class="cls-10" d="m131.57,206.75c1.01-.05.6,1.32.68,2.2h-.36v-1.37c0-.35-.09-.56-.44-.54-.82.02-.5,1.16-.56,1.92h-.36v-2.16s.33,0,.33,0c.01.11-.01.27.02.36.12-.25.33-.4.69-.41Z"/>
    <path class="cls-10" d="m132.78,208.95v-2.16h.36v2.16h-.36Zm0-2.62v-.34h.36v.34h-.36Z"/>
    <polygon class="cls-10" points="134.63 208.95 134.2 208.95 133.41 206.79 133.8 206.79 134.41 208.66 135.05 206.79 135.43 206.79 134.63 208.95"/>
    <path class="cls-10" d="m137.17,207.66c.07-.68-.86-.87-1.1-.32-.03.08-.07.19-.07.32h1.17Zm-.59-.92c.71,0,.98.48.95,1.2h-1.53c0,.45.16.76.6.77.29.01.49-.14.56-.33l.32.09c-.12.32-.42.51-.87.51-.66,0-1-.42-.99-1.13.01-.69.29-1.11.96-1.11Z"/>
    <polygon class="cls-10" points="137.99 208.95 137.99 207.47 137.99 205.99 138.35 205.99 138.35 207.47 138.35 208.95 137.99 208.95"/>
    <polygon class="cls-10" points="140.04 208.95 140.04 208.79 140.04 208.64 140.77 208.64 140.77 207.56 140.77 206.48 140.13 206.93 140.13 206.76 140.13 206.6 140.79 206.13 141.12 206.13 141.12 207.39 141.12 208.64 141.81 208.64 141.81 208.79 141.81 208.95 140.04 208.95"/>
    <path class="cls-4" d="m.15,1.99C.15.15,1.99.15,1.99.15h52.35c1.81,0,1.81,1.84,1.81,1.84l.03,38.81c-9.37-6.8-15.19-6.8-18.71-6.8-5.61,0-13.05,6.8-18.65,6.8-3.46,0-9.34,0-18.65-6.8V1.99Z"/>
    <path class="cls-8" d="m.15,1.99C.15.15,1.99.15,1.99.15h52.35c1.81,0,1.81,1.84,1.81,1.84l.03,38.81c-9.37-6.8-15.19-6.8-18.71-6.8-5.61,0-13.05,6.8-18.65,6.8-3.46,0-9.34,0-18.65-6.8V1.99Z"/>
    <path class="cls-10" d="m2.48,15.28c.62-.02,1.41.16,1.41-.51s-.79-.48-1.41-.5v1.01Zm0-1.3c.57-.01,1.25.1,1.25-.48,0-.53-.71-.41-1.25-.42v.9Zm1.1.12c.4.06.69.26.69.69,0,.99-1.2.77-2.17.79v-2.81c.86.03,2.01-.19,2.01.68,0,.37-.22.57-.53.65Z"/>
    <polygon class="cls-10" points="4.76 15.58 4.76 14.1 4.76 12.62 5.13 12.62 5.13 14.1 5.13 15.58 4.76 15.58"/>
    <path class="cls-10" d="m6.51,15.36c.5.01.6-.35.6-.85s-.09-.85-.58-.85-.6.36-.6.85.11.84.58.85Zm.01-1.97c.7-.01.96.42.96,1.12.01.71-.31,1.12-.98,1.12s-.94-.44-.95-1.12c0-.75.32-1.12.96-1.12Z"/>
    <path class="cls-10" d="m8.71,15.35c.47,0,.58-.37.58-.86s-.09-.83-.57-.83-.52.4-.52.85.06.84.51.84Zm.59-.11c-.12.25-.33.4-.68.4-.6,0-.78-.44-.79-1.11,0-.67.19-1.12.79-1.13.36-.01.54.16.68.37,0-.12-.01-.27.02-.36h.34v3.04h-.37v-1.2Z"/>
    <path class="cls-10" d="m10.88,15.63c-1.01.05-.61-1.32-.69-2.2h.36v1.36c0,.35.08.57.44.56.82-.02.51-1.15.57-1.92h.35v2.16s-.33,0-.33,0c-.01-.11.01-.28-.02-.37-.12.25-.32.41-.68.42Z"/>
    <path class="cls-10" d="m13.92,14.3c.07-.68-.86-.87-1.1-.32-.03.08-.07.19-.07.32h1.17Zm-.59-.92c.71,0,.98.48.95,1.2h-1.53c0,.45.16.76.6.77.29.01.49-.14.56-.33l.32.09c-.12.32-.42.51-.87.51-.66,0-1-.42-.99-1.13.01-.69.29-1.11.96-1.11Z"/>
    <path class="cls-10" d="m16.66,13.66c-.45,0-.52.39-.52.85s.07.84.51.84c.48,0,.58-.36.58-.86s-.1-.84-.57-.83Zm-.1-.27c.35,0,.54.15.68.37v-1.13s.35,0,.35,0v2.96s-.33,0-.33,0c-.02-.11,0-.26-.03-.35-.11.26-.32.4-.67.4-.6,0-.78-.44-.79-1.11,0-.75.26-1.13.79-1.13Z"/>
    <path class="cls-10" d="m19.59,14.3c.07-.68-.86-.87-1.1-.32-.03.08-.07.19-.07.32h1.17Zm-.59-.92c.71,0,.98.48.95,1.2h-1.53c0,.45.16.76.6.77.29.01.49-.14.56-.33l.32.09c-.12.32-.42.51-.87.51-.66,0-1-.42-.99-1.13.01-.69.29-1.11.96-1.11Z"/>
    <path class="cls-10" d="m22.42,12.93c-.35-.1-.48.11-.43.5h.43v.26h-.43v1.89h-.35v-1.89h-.31v-.26h.31c-.08-.59.19-.93.78-.77v.27Z"/>
    <path class="cls-10" d="m23.36,15.63c-1.01.05-.61-1.32-.69-2.2h.36v1.36c0,.35.08.57.44.56.82-.02.51-1.15.57-1.92h.35v2.16s-.33,0-.33,0c-.01-.11.01-.28-.02-.37-.12.25-.32.41-.68.42Z"/>
    <path class="cls-10" d="m26,13.38c1.01-.05.6,1.32.68,2.2h-.36v-1.37c0-.35-.09-.56-.44-.54-.82.02-.5,1.16-.56,1.92h-.36v-2.16s.33,0,.33,0c.01.11-.01.27.02.36.12-.25.33-.4.69-.41Z"/>
    <path class="cls-10" d="m28.03,13.67c-.45,0-.54.37-.54.83s.1.85.54.85c.27,0,.47-.16.49-.43l.36.02c-.07.42-.35.69-.84.69-.67,0-.86-.47-.93-1.12-.11-1.05,1.15-1.49,1.67-.73.05.08.06.16.08.25l-.36.03c-.05-.24-.18-.4-.47-.4Z"/>
    <path class="cls-10" d="m29.25,15.58v-2.16h.36v2.16h-.36Zm0-2.62v-.34h.36v.34h-.36Z"/>
    <path class="cls-10" d="m31,15.36c.5.01.6-.35.6-.85s-.09-.85-.58-.85-.6.36-.6.85.11.84.58.85Zm.01-1.97c.7-.01.96.42.96,1.12.01.71-.31,1.12-.98,1.12s-.94-.44-.95-1.12c0-.75.32-1.12.96-1.12Z"/>
    <path class="cls-10" d="m33.47,13.38c1.01-.05.6,1.32.68,2.2h-.36v-1.37c0-.35-.09-.56-.44-.54-.82.02-.5,1.16-.56,1.92h-.36v-2.16s.33,0,.33,0c.01.11-.01.27.02.36.12-.25.33-.4.69-.41Z"/>
    <path class="cls-10" d="m34.96,14.98c0,.23.14.37.36.37.47-.03.71-.33.68-.84-.49.02-1.04-.06-1.04.47Zm1.05.19c-.17.24-.35.47-.77.45-.41-.01-.66-.24-.66-.65-.01-.73.71-.71,1.42-.71.03-.4-.1-.61-.47-.61-.27.01-.47.08-.48.35l-.37-.03c.06-.42.37-.59.86-.59s.82.23.82.73v.93c-.01.23.08.36.32.31v.23c-.35.1-.69-.02-.67-.4Z"/>
    <path class="cls-10" d="m39.07,13.67c-.76.03-.43,1.19-.5,1.92h-.35v-1.37c0-.33-.06-.57-.4-.54-.75.05-.43,1.18-.5,1.92h-.35v-2.16s.33,0,.33,0c.01.11-.01.27.02.36.11-.5,1.12-.57,1.21,0,.12-.24.31-.4.66-.41.96-.02.53,1.35.62,2.2h-.35v-1.37c0-.33-.06-.56-.4-.54Z"/>
    <path class="cls-10" d="m40.35,15.58v-2.16h.36v2.16h-.36Zm0-2.62v-.34h.36v.34h-.36Z"/>
    <path class="cls-10" d="m42.7,14.3c.07-.68-.86-.87-1.1-.32-.03.08-.07.19-.07.32h1.17Zm-.59-.92c.71,0,.98.48.95,1.2h-1.53c0,.45.16.76.6.77.29.01.49-.14.56-.33l.32.09c-.12.32-.42.51-.87.51-.66,0-1-.42-.99-1.13.01-.69.29-1.11.96-1.11Z"/>
    <path class="cls-10" d="m44.57,13.38c1.01-.05.6,1.32.68,2.2h-.36v-1.37c0-.35-.09-.56-.44-.54-.82.02-.5,1.16-.56,1.92h-.36v-2.16s.33,0,.33,0c.01.11-.01.27.02.36.12-.25.33-.4.69-.41Z"/>
    <path class="cls-10" d="m46.18,15.05c-.02.27.2.33.43.25v.27c-.37.11-.79.06-.79-.44v-1.44h-.25v-.26h.27l.1-.49h.24v.49h.4v.26h-.4v1.36Z"/>
    <path class="cls-10" d="m47.77,15.36c.5.01.6-.35.6-.85s-.09-.85-.58-.85-.6.36-.6.85.11.84.58.85Zm.01-1.97c.7-.01.96.42.96,1.12.01.71-.31,1.12-.98,1.12s-.94-.44-.95-1.12c0-.75.32-1.12.96-1.12Z"/>
    <path class="cls-10" d="m51.12,13.66c-.45,0-.52.39-.52.85s.07.84.51.84c.48,0,.58-.36.58-.86s-.1-.84-.57-.83Zm-.1-.27c.35,0,.54.15.68.37v-1.13s.35,0,.35,0v2.96s-.33,0-.33,0c-.02-.11,0-.26-.03-.35-.11.26-.32.4-.67.4-.6,0-.78-.44-.79-1.11,0-.75.26-1.13.79-1.13Z"/>
    <path class="cls-10" d="m54.04,14.3c.07-.68-.86-.87-1.1-.32-.03.08-.07.19-.07.32h1.17Zm-.59-.92c.71,0,.98.48.95,1.2h-1.53c0,.45.16.76.6.77.29.01.49-.14.56-.33l.32.09c-.12.32-.42.51-.87.51-.66,0-1-.42-.99-1.13.01-.69.29-1.11.96-1.11Z"/>
    <path class="cls-10" d="m19.55,20.26c.5.01.6-.35.6-.85s-.09-.85-.58-.85-.6.36-.6.85.11.84.58.85Zm.01-1.97c.7-.01.96.42.96,1.12.01.71-.31,1.12-.98,1.12s-.94-.44-.95-1.12c0-.75.32-1.12.96-1.12Z"/>
    <path class="cls-10" d="m21.91,20.26c.45,0,.51-.39.51-.85s-.06-.85-.51-.84c-.48,0-.58.36-.58.86s.11.83.58.83Zm.09-1.97c.6,0,.78.44.79,1.11,0,.75-.26,1.13-.79,1.13-.35-.01-.56-.12-.67-.39l-.02.34h-.35v-2.96h.37v1.15c.11-.26.32-.39.67-.39Z"/>
    <path class="cls-10" d="m24.5,18.86c-.03-.39-.98-.43-.99,0,.17.6,1.3.14,1.35,1.02.05.88-1.7.84-1.78.09l.32-.06c.05.41,1.1.51,1.11,0-.11-.64-1.28-.17-1.34-1.02-.05-.65.93-.71,1.38-.48.14.08.24.22.27.4l-.33.05Z"/>
    <path class="cls-10" d="m25.67,19.95c-.02.27.2.33.43.25v.27c-.37.11-.79.06-.79-.44v-1.44h-.25v-.26h.27l.1-.49h.24v.49h.4v.26h-.4v1.36Z"/>
    <path class="cls-10" d="m26.68,19.88c0,.23.14.37.36.37.47-.03.71-.33.68-.84-.49.02-1.04-.06-1.04.47Zm1.05.19c-.17.24-.35.47-.77.45-.41-.01-.66-.24-.66-.65-.01-.73.71-.71,1.42-.71.03-.4-.1-.61-.47-.61-.27.01-.47.08-.48.35l-.37-.03c.06-.42.37-.59.86-.59s.82.23.82.73v.93c-.01.23.08.36.32.31v.23c-.35.1-.69-.02-.67-.4Z"/>
    <path class="cls-10" d="m29.5,18.57c-.45,0-.54.37-.54.83s.1.85.54.85c.27,0,.47-.16.49-.43l.36.02c-.07.42-.35.69-.84.69-.67,0-.86-.47-.93-1.12-.11-1.05,1.15-1.49,1.67-.73.05.08.06.16.08.25l-.36.03c-.05-.24-.18-.4-.47-.4Z"/>
    <path class="cls-10" d="m31.4,20.53c-1.01.05-.61-1.32-.69-2.2h.36v1.36c0,.35.08.57.44.56.82-.02.51-1.15.57-1.92h.35v2.16s-.33,0-.33,0c-.01-.11.01-.28-.02-.37-.12.25-.32.41-.68.42Z"/>
    <polygon class="cls-10" points="32.99 20.49 32.99 19.01 32.99 17.53 33.35 17.53 33.35 19.01 33.35 20.49 32.99 20.49"/>
    <path class="cls-10" d="m34.74,20.26c.5.01.6-.35.6-.85s-.09-.85-.58-.85-.6.36-.6.85.11.84.58.85Zm.01-1.97c.7-.01.96.42.96,1.12.01.71-.31,1.12-.98,1.12s-.94-.44-.95-1.12c0-.75.32-1.12.96-1.12Z"/>
    <path class="cls-10" d="m37.41,18.86c-.03-.39-.98-.43-.99,0,.17.6,1.3.14,1.35,1.02.05.88-1.7.84-1.78.09l.32-.06c.05.41,1.1.51,1.11,0-.11-.64-1.28-.17-1.34-1.02-.05-.65.93-.71,1.38-.48.14.08.24.22.27.4l-.33.05Z"/>
    <line class="cls-8" x1="56.51" y1="20.52" x2="93.88" y2="20.52"/>
    <polygon class="cls-7" points="56.51 20.68 56.51 20.68 56.51 20.37 56.51 20.68"/>
    <polygon class="cls-10" points="98.48 20.52 94.19 21.93 94.19 19.11 98.48 20.52"/>
    <polygon class="cls-8" points="98.48 20.52 94.19 21.93 94.19 19.11 98.48 20.52"/>
    <line class="cls-8" x1="127.27" y1="220.08" x2="127.27" y2="246.11"/>
    <path class="cls-7" d="m127.57,220.08h-.31.31Z"/>
    <polygon class="cls-10" points="127.27 250.4 126.04 246.11 128.8 246.11 127.27 250.4"/>
    <polygon class="cls-8" points="127.27 250.4 126.04 246.11 128.8 246.11 127.27 250.4"/>
    <path class="cls-2" d="m183.93,238.76c0-1.84,1.84-1.84,1.84-1.84h10.32c1.84,0,1.84,1.84,1.84,1.84v9.86c0,1.85-1.84,1.85-1.84,1.85h-10.33c-1.84,0-1.84-1.84-1.84-1.84v-9.87Z"/>
    <path class="cls-3" d="m183.93,238.76c0-1.84,1.84-1.84,1.84-1.84h10.32c1.84,0,1.84,1.84,1.84,1.84v9.86c0,1.85-1.84,1.85-1.84,1.85h-10.33c-1.84,0-1.84-1.84-1.84-1.84v-9.87Z"/>
    <polygon class="cls-10" points="190.38 244.82 188.38 241.63 188.4 244.82 187.96 244.82 187.96 242.94 187.96 241.07 188.55 241.07 190.56 244.29 190.53 241.07 191 241.07 191 242.94 191 244.82 190.38 244.82"/>
    <path class="cls-10" d="m192.92,244.52c.67.02.8-.47.8-1.13s-.12-1.13-.77-1.13-.8.48-.8,1.13.15,1.12.77,1.13Zm.02-2.63c.94-.02,1.29.56,1.29,1.5.02.95-.41,1.5-1.3,1.5s-1.26-.59-1.27-1.5c0-1,.42-1.5,1.29-1.5Z"/>
    <path class="cls-8" d="m161.88,277.66h38.29c1.84,0,1.84-1.84,1.84-1.84v-66.47c0-1.84-1.84-1.84-1.84-1.84h-32.47"/>
    <polygon class="cls-7" points="161.88 277.97 161.88 277.97 161.88 277.66 161.88 277.97"/>
    <polygon class="cls-10" points="163.1 207.52 167.39 206.29 167.39 209.05 163.1 207.52"/>
    <polygon class="cls-8" points="163.1 207.52 167.39 206.29 167.39 209.05 163.1 207.52"/>
    <polyline class="cls-8" points="127.27 304.92 127.27 332.18 127.27 361.89"/>
    <line class="cls-8" x1="127.27" y1="304.92" x2="127.27" y2="304.62"/>
    <polygon class="cls-10" points="127.27 366.18 126.04 361.89 128.8 361.89 127.27 366.18"/>
    <polygon class="cls-8" points="127.27 366.18 126.04 361.89 128.8 361.89 127.27 366.18"/>
    <path class="cls-2" d="m126.96,327.28c0-1.84,1.84-1.84,1.84-1.84h10.32c1.84,0,1.84,1.84,1.84,1.84v9.86c0,1.85-1.84,1.85-1.84,1.85h-10.33c-1.84,0-1.84-1.84-1.84-1.84v-9.87Z"/>
    <path class="cls-3" d="m126.96,327.28c0-1.84,1.84-1.84,1.84-1.84h10.32c1.84,0,1.84,1.84,1.84,1.84v9.86c0,1.85-1.84,1.85-1.84,1.85h-10.33c-1.84,0-1.84-1.84-1.84-1.84v-9.87Z"/>
    <path class="cls-10" d="m134.39,330.48c-.08-.73-1.86-.82-1.88.03.21,1.13,2.39.21,2.47,1.8.05,1.18-1.83,1.32-2.65.83-.26-.15-.42-.39-.5-.7l.5-.11c.08.85,2.13.95,2.13-.02,0-1.18-2.34-.21-2.45-1.78-.08-1.24,2.19-1.27,2.71-.51.08.11.12.24.17.38l-.5.08Z"/>
    <path class="cls-10" d="m135.59,333.34v-2.87h.48v2.87h-.48Zm0-3.49v-.45h.48v.45h-.48Z"/>
    <path class="cls-11" d="m126.01,423.37c1.44-1.13,2.88-.01,2.88-.01l32.22,24.85c1.44,1.12,0,2.24,0,2.24l-32.19,24.87c-1.47,1.1-2.94-.03-2.94-.03l-32.16-24.84c-1.47-1.11-.02-2.24-.02-2.24l32.21-24.84Z"/>
    <path class="cls-6" d="m126.01,423.37c1.44-1.13,2.88-.01,2.88-.01l32.22,24.85c1.44,1.12,0,2.24,0,2.24l-32.19,24.87c-1.47,1.1-2.94-.03-2.94-.03l-32.16-24.84c-1.47-1.11-.02-2.24-.02-2.24l32.21-24.84Z"/>
    <path class="cls-10" d="m110.7,445.66v.4h-.39v-.4h.39Zm-.29,2.85c-.57,0-.93-.25-.95-.79-.02-.74.81-.66.88-1.3h.34c.01.73-.86.61-.86,1.29,0,.34.24.48.59.49.36,0,.6-.19.64-.52l.36.02c-.07.52-.41.82-1,.82Z"/>
    <polygon class="cls-10" points="113.12 445.32 113.12 446.57 113.12 447.81 112.73 447.81 112.73 446.57 112.73 445.32 111.77 445.32 111.77 445.16 111.77 445 114.08 445 114.08 445.16 114.08 445.32 113.12 445.32"/>
    <path class="cls-10" d="m115.43,446.53c.07-.68-.86-.87-1.1-.32-.03.08-.07.19-.07.32h1.17Zm-.59-.92c.71,0,.98.48.95,1.2h-1.53c0,.45.16.76.6.77.29.01.49-.14.56-.33l.32.09c-.12.32-.42.51-.87.51-.66,0-1-.42-.99-1.13.01-.69.29-1.11.96-1.11Z"/>
    <path class="cls-10" d="m117.27,445.96c-.88-.18-.6,1.03-.65,1.85h-.36v-2.16s.33,0,.33,0c.01.14-.01.33.02.44.07-.31.26-.56.66-.47v.33Z"/>
    <path class="cls-10" d="m119.71,445.9c-.76.03-.43,1.19-.5,1.92h-.35v-1.37c0-.33-.06-.57-.4-.54-.75.05-.43,1.18-.5,1.92h-.35v-2.16s.33,0,.33,0c.01.11-.01.27.02.36.11-.5,1.12-.57,1.21,0,.12-.24.31-.4.66-.41.96-.02.53,1.35.62,2.2h-.35v-1.37c0-.33-.06-.56-.4-.54Z"/>
    <path class="cls-10" d="m120.99,447.81v-2.16h.36v2.16h-.36Zm0-2.62v-.34h.36v.34h-.36Z"/>
    <path class="cls-10" d="m122.94,445.61c1.01-.05.6,1.32.68,2.2h-.36v-1.37c0-.35-.09-.56-.44-.54-.82.02-.5,1.16-.56,1.92h-.36v-2.16s.33,0,.33,0c.01.11-.01.27.02.36.12-.25.33-.4.69-.41Z"/>
    <path class="cls-10" d="m125.01,447.59c.5.01.6-.35.6-.85s-.09-.85-.58-.85-.6.36-.6.85.11.84.58.85Zm.01-1.97c.7-.01.96.42.96,1.12.01.71-.31,1.12-.98,1.12s-.94-.44-.95-1.12c0-.75.32-1.12.96-1.12Z"/>
    <path class="cls-10" d="m128.59,445.61c1.01-.05.6,1.32.68,2.2h-.36v-1.37c0-.35-.09-.56-.44-.54-.82.02-.5,1.16-.56,1.92h-.36v-2.16s.33,0,.33,0c.01.11-.01.27.02.36.12-.25.33-.4.69-.41Z"/>
    <path class="cls-10" d="m129.81,447.81v-2.16h.36v2.16h-.36Zm0-2.62v-.34h.36v.34h-.36Z"/>
    <polygon class="cls-10" points="131.66 447.81 131.23 447.81 130.44 445.66 130.83 445.66 131.44 447.53 132.08 445.66 132.46 445.66 131.66 447.81"/>
    <path class="cls-10" d="m134.2,446.53c.07-.68-.86-.87-1.1-.32-.03.08-.07.19-.07.32h1.17Zm-.59-.92c.71,0,.98.48.95,1.2h-1.53c0,.45.16.76.6.77.29.01.49-.14.56-.33l.32.09c-.12.32-.42.51-.87.51-.66,0-1-.42-.99-1.13.01-.69.29-1.11.96-1.11Z"/>
    <polygon class="cls-10" points="135.01 447.81 135.01 446.33 135.01 444.85 135.38 444.85 135.38 446.33 135.38 447.81 135.01 447.81"/>
    <path class="cls-10" d="m137.86,445.89c-.45,0-.52.39-.52.85s.07.84.51.84c.48,0,.58-.36.58-.86s-.1-.84-.57-.83Zm-.1-.27c.35,0,.54.15.68.37v-1.13s.35,0,.35,0v2.96s-.33,0-.33,0c-.02-.11,0-.26-.03-.35-.11.26-.32.4-.67.4-.6,0-.78-.44-.79-1.11,0-.75.26-1.13.79-1.13Z"/>
    <path class="cls-10" d="m140.18,447.59c.5.01.6-.35.6-.85s-.09-.85-.58-.85-.6.36-.6.85.11.84.58.85Zm.01-1.97c.7-.01.96.42.96,1.12.01.71-.31,1.12-.98,1.12s-.94-.44-.95-1.12c0-.75.32-1.12.96-1.12Z"/>
    <path class="cls-10" d="m142.86,446.19c-.03-.39-.98-.43-.99,0,.17.6,1.3.14,1.35,1.02.05.88-1.7.84-1.78.09l.32-.06c.05.41,1.1.51,1.11,0-.11-.64-1.28-.17-1.34-1.02-.05-.65.93-.71,1.38-.48.14.08.24.22.27.4l-.33.05Z"/>
    <path class="cls-10" d="m144.25,447.81v-.4h.39v.4h-.39Zm.29-2.85c.95,0,1.26,1.1.51,1.51-.22.11-.42.27-.44.59h-.35c0-.71.87-.62.87-1.29,0-.34-.24-.48-.59-.49-.36,0-.6.19-.64.52l-.36-.02c.08-.51.39-.82,1-.82Z"/>
    <path class="cls-10" d="m100.77,453.57c-.43-.48-.74-1.04-.74-1.92s.32-1.43.74-1.89h.35c-.43.47-.73,1.04-.73,1.91s.29,1.44.73,1.91h-.35Z"/>
    <path class="cls-10" d="m101.84,451.25c.68-.02,1.55.15,1.55-.53s-.91-.48-1.55-.51v1.04Zm1.93-.54c-.01.47-.26.73-.68.79l.79,1.21h-.43l-.74-1.17h-.87v1.17h-.37v-2.81c1,.03,2.33-.24,2.3.81Z"/>
    <path class="cls-10" d="m105.79,451.43c.07-.68-.86-.87-1.1-.32-.03.08-.07.19-.07.32h1.17Zm-.59-.92c.71,0,.98.48.95,1.2h-1.53c0,.45.16.76.6.77.29.01.49-.14.56-.33l.32.09c-.12.32-.42.51-.87.51-.66,0-1-.42-.99-1.13.01-.69.29-1.11.96-1.11Z"/>
    <path class="cls-10" d="m107.4,452.46c.41,0,.57-.36.57-.83s-.16-.85-.57-.85c-.44,0-.52.39-.52.85s.07.83.52.83Zm.94-1.91c-.11,1.42.47,3.32-1.25,2.96-.26-.07-.43-.23-.5-.49l.36-.06c.17.53,1.13.36,1.01-.32v-.34c-.12.24-.33.41-.69.41-.61,0-.77-.47-.77-1.09s.18-1.1.81-1.11c.33-.01.54.18.67.4.01-.11,0-.26.02-.36h.34Z"/>
    <path class="cls-10" d="m108.88,452.71v-2.16h.36v2.16h-.36Zm0-2.62v-.34h.36v.34h-.36Z"/>
    <path class="cls-10" d="m111.03,451.09c-.03-.39-.98-.43-.99,0,.17.6,1.3.14,1.35,1.02.05.88-1.7.84-1.78.09l.32-.06c.05.41,1.1.51,1.11,0-.11-.64-1.28-.17-1.34-1.02-.05-.65.93-.71,1.38-.48.14.08.24.22.27.4l-.33.05Z"/>
    <path class="cls-10" d="m112.21,452.18c-.02.27.2.33.43.25v.27c-.37.11-.79.06-.79-.44v-1.44h-.25v-.26h.27l.1-.49h.24v.49h.4v.26h-.4v1.36Z"/>
    <path class="cls-10" d="m113.97,450.87c-.88-.18-.6,1.03-.65,1.85h-.36v-2.16s.33,0,.33,0c.01.14-.01.33.02.44.07-.31.26-.56.66-.47v.33Z"/>
    <path class="cls-10" d="m115.15,452.49c.5.01.6-.35.6-.85s-.09-.85-.58-.85-.6.36-.6.85.11.84.58.85Zm.01-1.97c.7-.01.96.42.96,1.12.01.71-.31,1.12-.98,1.12s-.94-.44-.95-1.12c0-.75.32-1.12.96-1.12Z"/>
    <polygon class="cls-10" points="116.24 453.53 116.24 453.4 116.24 453.27 118.61 453.27 118.61 453.4 118.61 453.53 116.24 453.53"/>
    <path class="cls-10" d="m119.29,452.71c.03-1.11.54-1.8,1-2.51h-1.52v-.31h1.86v.29c-.44.74-.95,1.37-.96,2.52h-.37Z"/>
    <path class="cls-10" d="m123.06,450.8c-.45,0-.54.37-.54.83s.1.85.54.85c.27,0,.47-.16.49-.43l.36.02c-.07.42-.35.69-.84.69-.67,0-.86-.47-.93-1.12-.11-1.05,1.15-1.49,1.67-.73.05.08.06.16.08.25l-.36.03c-.05-.24-.18-.4-.47-.4Z"/>
    <path class="cls-10" d="m124.55,452.11c0,.23.14.37.36.37.47-.03.71-.33.68-.84-.49.02-1.04-.06-1.04.47Zm1.05.19c-.17.24-.35.47-.77.45-.41-.01-.66-.24-.66-.65-.01-.73.71-.71,1.42-.71.03-.4-.1-.61-.47-.61-.27.01-.47.08-.48.35l-.37-.03c.06-.42.37-.59.86-.59s.82.23.82.73v.93c-.01.23.08.36.32.31v.23c-.35.1-.69-.02-.67-.4Z"/>
    <path class="cls-10" d="m128.66,450.8c-.76.03-.43,1.19-.5,1.92h-.35v-1.37c0-.33-.06-.57-.4-.54-.75.05-.43,1.18-.5,1.92h-.35v-2.16s.33,0,.33,0c.01.11-.01.27.02.36.11-.5,1.12-.57,1.21,0,.12-.24.31-.4.66-.41.96-.02.53,1.35.62,2.2h-.35v-1.37c0-.33-.06-.56-.4-.54Z"/>
    <path class="cls-10" d="m130.88,452.49c.45,0,.51-.39.51-.85s-.06-.85-.51-.84c-.48,0-.58.36-.58.86s.11.83.58.83Zm.09-1.97c.6,0,.78.44.79,1.11,0,.75-.26,1.13-.79,1.13-.35-.01-.56-.12-.67-.39l-.02.34h-.35v-2.96h.37v1.15c.11-.26.32-.39.67-.39Z"/>
    <path class="cls-10" d="m132.21,452.71v-2.16h.36v2.16h-.36Zm0-2.62v-.34h.36v.34h-.36Z"/>
    <path class="cls-10" d="m133.38,452.11c0,.23.14.37.36.37.47-.03.71-.33.68-.84-.49.02-1.04-.06-1.04.47Zm1.05.19c-.17.24-.35.47-.77.45-.41-.01-.66-.24-.66-.65-.01-.73.71-.71,1.42-.71.03-.4-.1-.61-.47-.61-.27.01-.47.08-.48.35l-.37-.03c.06-.42.37-.59.86-.59s.82.23.82.73v.93c-.01.23.08.36.32.31v.23c-.35.1-.69-.02-.67-.4Z"/>
    <polygon class="cls-10" points="136.55 452.71 136.55 452.56 136.55 452.41 137.27 452.41 137.27 451.33 137.27 450.25 136.64 450.7 136.64 450.53 136.64 450.37 137.3 449.9 137.63 449.9 137.63 451.15 137.63 452.41 138.32 452.41 138.32 452.56 138.32 452.71 136.55 452.71"/>
    <path class="cls-10" d="m139.12,451.1c.54-.4,1.55-.09,1.49.69.12,1.12-1.75,1.29-1.94.29l.36-.05c.08.26.25.42.59.42.4-.01.58-.25.61-.66.05-.62-.83-.74-1.12-.39h-.35l.09-1.52h1.6v.31h-1.27l-.06.9Z"/>
    <polygon class="cls-10" points="143.13 452.71 142.7 452.71 141.92 450.56 142.31 450.56 142.92 452.43 143.55 450.56 143.94 450.56 143.13 452.71"/>
    <path class="cls-10" d="m145.67,451.43c.07-.68-.86-.87-1.1-.32-.03.08-.07.19-.07.32h1.17Zm-.59-.92c.71,0,.98.48.95,1.2h-1.53c0,.45.16.76.6.77.29.01.49-.14.56-.33l.32.09c-.12.32-.42.51-.87.51-.66,0-1-.42-.99-1.13.01-.69.29-1.11.96-1.11Z"/>
    <path class="cls-10" d="m147.31,450.8c-.45,0-.54.37-.54.83s.1.85.54.85c.27,0,.47-.16.49-.43l.36.02c-.07.42-.35.69-.84.69-.67,0-.86-.47-.93-1.12-.11-1.05,1.15-1.49,1.67-.73.05.08.06.16.08.25l-.36.03c-.05-.24-.18-.4-.47-.4Z"/>
    <path class="cls-10" d="m149.98,451.43c.07-.68-.86-.87-1.1-.32-.03.08-.07.19-.07.32h1.17Zm-.59-.92c.71,0,.98.48.95,1.2h-1.53c0,.45.16.76.6.77.29.01.49-.14.56-.33l.32.09c-.12.32-.42.51-.87.51-.66,0-1-.42-.99-1.13.01-.69.29-1.11.96-1.11Z"/>
    <path class="cls-10" d="m152.06,451.09c-.03-.39-.98-.43-.99,0,.17.6,1.3.14,1.35,1.02.05.88-1.7.84-1.78.09l.32-.06c.05.41,1.1.51,1.11,0-.11-.64-1.28-.17-1.34-1.02-.05-.65.93-.71,1.38-.48.14.08.24.22.27.4l-.33.05Z"/>
    <path class="cls-10" d="m154.08,449.75c.43.47.74,1.04.74,1.91s-.31,1.44-.74,1.91h-.35c.42-.47.73-1.04.73-1.91s-.31-1.44-.73-1.91h.35Z"/>
    <path class="cls-9" d="m92.35,368.94c0-1.84,1.84-1.84,1.84-1.84h66.34c1.81,0,1.81,1.84,1.81,1.84l.03,20.71c-.03,1.84-1.87,1.84-1.87,1.84h-66.31c-1.84,0-1.84-1.84-1.84-1.84v-20.71Z"/>
    <path class="cls-8" d="m92.35,368.94c0-1.84,1.84-1.84,1.84-1.84h66.34c1.81,0,1.81,1.84,1.81,1.84l.03,20.71c-.03,1.84-1.87,1.84-1.87,1.84h-66.31c-1.84,0-1.84-1.84-1.84-1.84v-20.71Z"/>
    <polygon class="cls-10" points="113.15 380.47 113.15 379.07 113.15 377.66 115.27 377.66 115.27 377.82 115.27 377.98 113.52 377.98 113.52 378.43 113.52 378.87 115.16 378.87 115.16 379.03 115.16 379.18 113.52 379.18 113.52 379.67 113.52 380.17 115.36 380.17 115.36 380.32 115.36 380.47 113.15 380.47"/>
    <path class="cls-10" d="m117.91,378.56c-.76.03-.43,1.19-.5,1.92h-.35v-1.37c0-.33-.06-.57-.4-.54-.75.05-.43,1.18-.5,1.92h-.35v-2.16s.33,0,.33,0c.01.11-.01.27.02.36.11-.5,1.12-.57,1.21,0,.12-.24.31-.4.66-.41.96-.02.53,1.35.62,2.2h-.35v-1.37c0-.33-.06-.56-.4-.54Z"/>
    <path class="cls-10" d="m120.13,380.25c.45,0,.51-.39.51-.85s-.07-.83-.51-.84c-.48,0-.58.36-.58.86s.11.83.58.83Zm.09-1.97c.62.01.79.47.79,1.11s-.18,1.11-.79,1.13c-.35,0-.56-.15-.68-.39v1.19s-.35,0-.35,0v-3.01s.34,0,.34,0l.02.34c.11-.24.32-.39.67-.39Z"/>
    <path class="cls-10" d="m122.91,379.19c.07-.68-.86-.87-1.1-.32-.03.08-.07.19-.07.32h1.17Zm-.59-.92c.71,0,.98.48.95,1.2h-1.53c0,.45.16.76.6.77.29.01.49-.14.56-.33l.32.09c-.12.32-.42.51-.87.51-.66,0-1-.42-.99-1.13.01-.69.29-1.11.96-1.11Z"/>
    <polygon class="cls-10" points="123.56 380.47 123.56 380.34 123.56 380.2 124.88 378.59 123.64 378.59 123.64 378.45 123.64 378.32 125.27 378.32 125.27 378.45 125.27 378.59 123.96 380.2 125.35 380.2 125.35 380.34 125.35 380.47 123.56 380.47"/>
    <path class="cls-10" d="m126.04,379.87c0,.23.14.37.36.37.47-.03.71-.33.68-.84-.49.02-1.04-.06-1.04.47Zm1.05.19c-.17.24-.35.47-.77.45-.41-.01-.66-.24-.66-.65-.01-.73.71-.71,1.42-.71.03-.4-.1-.61-.47-.61-.27.01-.47.08-.48.35l-.37-.03c.06-.42.37-.59.86-.59s.82.23.82.73v.93c-.01.23.08.36.32.31v.23c-.35.1-.69-.02-.67-.4Z"/>
    <path class="cls-10" d="m129.06,378.62c-.88-.18-.6,1.03-.65,1.85h-.36v-2.16s.33,0,.33,0c.01.14-.01.33.02.44.07-.31.26-.56.66-.47v.33Z"/>
    <path class="cls-10" d="m131.57,378.27c1.01-.05.6,1.32.68,2.2h-.36v-1.37c0-.35-.09-.56-.44-.54-.82.02-.5,1.16-.56,1.92h-.36v-2.16s.33,0,.33,0c.01.11-.01.27.02.36.12-.25.33-.4.69-.41Z"/>
    <path class="cls-10" d="m132.78,380.47v-2.16h.36v2.16h-.36Zm0-2.62v-.34h.36v.34h-.36Z"/>
    <polygon class="cls-10" points="134.63 380.47 134.2 380.47 133.41 378.32 133.8 378.32 134.41 380.19 135.05 378.32 135.43 378.32 134.63 380.47"/>
    <path class="cls-10" d="m137.17,379.19c.07-.68-.86-.87-1.1-.32-.03.08-.07.19-.07.32h1.17Zm-.59-.92c.71,0,.98.48.95,1.2h-1.53c0,.45.16.76.6.77.29.01.49-.14.56-.33l.32.09c-.12.32-.42.51-.87.51-.66,0-1-.42-.99-1.13.01-.69.29-1.11.96-1.11Z"/>
    <polygon class="cls-10" points="137.99 380.47 137.99 378.99 137.99 377.51 138.35 377.51 138.35 378.99 138.35 380.47 137.99 380.47"/>
    <path class="cls-10" d="m140.88,377.63c.93-.08,1.05.99.49,1.5l-.7.62c-.12.12-.26.25-.33.42h1.46v.31h-1.86c.02-1.12,1.45-1.07,1.45-2.06,0-.32-.18-.49-.51-.49s-.52.17-.56.47l-.36-.03c.07-.47.39-.68.92-.73Z"/>
    <line class="cls-8" x1="127.27" y1="391.6" x2="127.27" y2="417.64"/>
    <path class="cls-7" d="m127.57,391.6h-.31.31Z"/>
    <polygon class="cls-10" points="127.27 421.93 126.04 417.64 128.8 417.64 127.27 421.93"/>
    <polygon class="cls-8" points="127.27 421.93 126.04 417.64 128.8 417.64 127.27 421.93"/>
    <path class="cls-2" d="m69.07,410.29c0-1.84,1.84-1.84,1.84-1.84h10.32c1.84,0,1.84,1.84,1.84,1.84v9.86c0,1.85-1.84,1.85-1.84,1.85h-10.33c-1.84,0-1.84-1.84-1.84-1.84v-9.87Z"/>
    <path class="cls-3" d="m69.07,410.29c0-1.84,1.84-1.84,1.84-1.84h10.32c1.84,0,1.84,1.84,1.84,1.84v9.86c0,1.85-1.84,1.85-1.84,1.85h-10.33c-1.84,0-1.84-1.84-1.84-1.84v-9.87Z"/>
    <polygon class="cls-10" points="75.52 416.35 73.52 413.16 73.54 416.35 73.1 416.35 73.1 414.47 73.1 412.6 73.69 412.6 75.7 415.82 75.67 412.6 76.14 412.6 76.14 414.47 76.14 416.35 75.52 416.35"/>
    <path class="cls-10" d="m78.06,416.04c.67.02.8-.47.8-1.13s-.12-1.13-.77-1.13-.8.48-.8,1.13.15,1.12.77,1.13Zm.02-2.63c.94-.02,1.29.56,1.29,1.5.02.95-.41,1.5-1.3,1.5s-1.26-.59-1.27-1.5c0-1,.42-1.5,1.29-1.5Z"/>
    <line class="cls-8" x1="161.88" y1="449.19" x2="223.32" y2="449.19"/>
    <polygon class="cls-7" points="161.88 449.5 161.88 449.5 161.88 449.19 161.88 449.5"/>
    <polygon class="cls-10" points="227.86 449.19 223.48 450.72 223.48 447.66 227.86 449.19"/>
    <polygon class="cls-8" points="227.86 449.19 223.48 450.72 223.48 447.66 227.86 449.19"/>
    <path class="cls-8" d="m92.96,449.19h-22.05c-1.84,0-1.84-1.84-1.84-1.84v-66.47c0-1.84,1.84-1.84,1.84-1.84h16.23"/>
    <polygon class="cls-10" points="92.96 449.19 93.27 449.5 92.96 449.5 92.96 449.19 93.27 449.19 92.96 449.19"/>
    <polygon class="cls-7" points="92.96 449.19 93.27 449.5 92.96 449.5 92.96 449.19 93.27 449.19 92.96 449.19"/>
    <polygon class="cls-10" points="91.74 379.05 87.45 380.58 87.45 377.82 91.74 379.05"/>
    <polygon class="cls-8" points="91.74 379.05 87.45 380.58 87.45 377.82 91.74 379.05"/>
    <path class="cls-2" d="m179.34,436.32c0-1.84,1.84-1.84,1.84-1.84h10.32c1.84,0,1.84,1.84,1.84,1.84v9.86c0,1.85-1.84,1.85-1.84,1.85h-10.33c-1.84,0-1.84-1.84-1.84-1.84v-9.87Z"/>
    <path class="cls-3" d="m179.34,436.32c0-1.84,1.84-1.84,1.84-1.84h10.32c1.84,0,1.84,1.84,1.84,1.84v9.86c0,1.85-1.84,1.85-1.84,1.85h-10.33c-1.84,0-1.84-1.84-1.84-1.84v-9.87Z"/>
    <path class="cls-10" d="m186.77,439.52c-.08-.73-1.86-.82-1.88.03.21,1.13,2.39.21,2.47,1.8.05,1.18-1.83,1.32-2.65.83-.26-.15-.42-.39-.5-.7l.5-.11c.08.85,2.13.95,2.13-.02,0-1.18-2.34-.21-2.45-1.78-.08-1.24,2.19-1.27,2.71-.51.08.11.12.24.17.38l-.5.08Z"/>
    <path class="cls-10" d="m187.96,442.38v-2.87h.48v2.87h-.48Zm0-3.49v-.45h.48v.45h-.48Z"/>
    <path class="cls-9" d="m228.35,438.77c0-1.84,1.84-1.84,1.84-1.84h66.34c1.81,0,1.81,1.84,1.81,1.84l.03,20.71c-.03,1.84-1.87,1.84-1.87,1.84h-66.31c-1.84,0-1.84-1.84-1.84-1.84v-20.71Z"/>
    <path class="cls-8" d="m228.35,438.77c0-1.84,1.84-1.84,1.84-1.84h66.34c1.81,0,1.81,1.84,1.81,1.84l.03,20.71c-.03,1.84-1.87,1.84-1.87,1.84h-66.31c-1.84,0-1.84-1.84-1.84-1.84v-20.71Z"/>
    <polygon class="cls-10" points="249.14 450.31 249.14 448.9 249.14 447.5 251.27 447.5 251.27 447.66 251.27 447.81 249.52 447.81 249.52 448.26 249.52 448.71 251.15 448.71 251.15 448.86 251.15 449.02 249.52 449.02 249.52 449.51 249.52 450 251.36 450 251.36 450.16 251.36 450.31 249.14 450.31"/>
    <path class="cls-10" d="m253.91,448.39c-.76.03-.43,1.19-.5,1.92h-.35v-1.37c0-.33-.06-.57-.4-.54-.75.05-.43,1.18-.5,1.92h-.35v-2.16s.33,0,.33,0c.01.11-.01.27.02.36.11-.5,1.12-.57,1.21,0,.12-.24.31-.4.66-.41.96-.02.53,1.35.62,2.2h-.35v-1.37c0-.33-.06-.56-.4-.54Z"/>
    <path class="cls-10" d="m256.13,450.08c.45,0,.51-.39.51-.85s-.07-.83-.51-.84c-.48,0-.58.36-.58.86s.11.83.58.83Zm.09-1.97c.62.01.79.47.79,1.11s-.18,1.11-.79,1.13c-.35,0-.56-.15-.68-.39v1.19s-.35,0-.35,0v-3.01s.34,0,.34,0l.02.34c.11-.24.32-.39.67-.39Z"/>
    <path class="cls-10" d="m258.91,449.03c.07-.68-.86-.87-1.1-.32-.03.08-.07.19-.07.32h1.17Zm-.59-.92c.71,0,.98.48.95,1.2h-1.53c0,.45.16.76.6.77.29.01.49-.14.56-.33l.32.09c-.12.32-.42.51-.87.51-.66,0-1-.42-.99-1.13.01-.69.29-1.11.96-1.11Z"/>
    <polygon class="cls-10" points="259.56 450.31 259.56 450.17 259.56 450.04 260.87 448.43 259.64 448.43 259.64 448.29 259.64 448.15 261.27 448.15 261.27 448.29 261.27 448.43 259.95 450.04 261.35 450.04 261.35 450.17 261.35 450.31 259.56 450.31"/>
    <path class="cls-10" d="m262.04,449.71c0,.23.14.37.36.37.47-.03.71-.33.68-.84-.49.02-1.04-.06-1.04.47Zm1.05.19c-.17.24-.35.47-.77.45-.41-.01-.66-.24-.66-.65-.01-.73.71-.71,1.42-.71.03-.4-.1-.61-.47-.61-.27.01-.47.08-.48.35l-.37-.03c.06-.42.37-.59.86-.59s.82.23.82.73v.93c-.01.23.08.36.32.31v.23c-.35.1-.69-.02-.67-.4Z"/>
    <path class="cls-10" d="m265.06,448.46c-.88-.18-.6,1.03-.65,1.85h-.36v-2.16s.33,0,.33,0c.01.14-.01.33.02.44.07-.31.26-.56.66-.47v.33Z"/>
    <path class="cls-10" d="m267.56,448.11c1.01-.05.6,1.32.68,2.2h-.36v-1.37c0-.35-.09-.56-.44-.54-.82.02-.5,1.16-.56,1.92h-.36v-2.16s.33,0,.33,0c.01.11-.01.27.02.36.12-.25.33-.4.69-.41Z"/>
    <path class="cls-10" d="m268.78,450.31v-2.16h.36v2.16h-.36Zm0-2.62v-.34h.36v.34h-.36Z"/>
    <polygon class="cls-10" points="270.63 450.31 270.19 450.31 269.41 448.15 269.8 448.15 270.41 450.03 271.05 448.15 271.43 448.15 270.63 450.31"/>
    <path class="cls-10" d="m273.17,449.03c.07-.68-.86-.87-1.1-.32-.03.08-.07.19-.07.32h1.17Zm-.59-.92c.71,0,.98.48.95,1.2h-1.53c0,.45.16.76.6.77.29.01.49-.14.56-.33l.32.09c-.12.32-.42.51-.87.51-.66,0-1-.42-.99-1.13.01-.69.29-1.11.96-1.11Z"/>
    <polygon class="cls-10" points="273.98 450.31 273.98 448.83 273.98 447.35 274.35 447.35 274.35 448.83 274.35 450.31 273.98 450.31"/>
    <path class="cls-10" d="m277.16,448.87c.37.07.66.23.66.67,0,1-1.58,1.04-1.86.33-.03-.09-.06-.18-.07-.28l.36-.03c.07.31.24.5.61.5s.59-.17.59-.52c0-.43-.41-.52-.9-.49v-.32c.44.01.82-.05.82-.48,0-.31-.19-.49-.52-.49s-.53.17-.56.47l-.36-.03c.07-.48.4-.71.92-.73.54-.01.9.24.9.74,0,.41-.24.59-.59.67Z"/>
    <line class="cls-8" x1="263.36" y1="436.63" x2="263.36" y2="396.51"/>
    <rect class="cls-10" x="263.2" y="436.63" width=".31" height=".31"/>
    <rect class="cls-7" x="263.2" y="436.63" width=".31" height=".31"/>
    <polygon class="cls-10" points="263.36 391.91 264.77 396.2 261.95 396.2 263.36 391.91"/>
    <polygon class="cls-8" points="263.36 391.91 264.77 396.2 261.95 396.2 263.36 391.91"/>
    <path class="cls-11" d="m262.01,337.6c1.44-1.13,2.88-.01,2.88-.01l32.22,24.85c1.44,1.12,0,2.24,0,2.24l-32.19,24.87c-1.47,1.1-2.94-.03-2.94-.03l-32.16-24.84c-1.47-1.11-.02-2.24-.02-2.24l32.21-24.84Z"/>
    <path class="cls-6" d="m262.01,337.6c1.44-1.13,2.88-.01,2.88-.01l32.22,24.85c1.44,1.12,0,2.24,0,2.24l-32.19,24.87c-1.47,1.1-2.94-.03-2.94-.03l-32.16-24.84c-1.47-1.11-.02-2.24-.02-2.24l32.21-24.84Z"/>
    <path class="cls-10" d="m246.59,359.89v.4h-.39v-.4h.39Zm-.29,2.85c-.57,0-.93-.25-.95-.79-.02-.74.81-.66.88-1.3h.34c.01.73-.86.61-.86,1.29,0,.34.24.48.59.49.36,0,.6-.19.64-.52l.36.02c-.07.52-.41.82-1,.82Z"/>
    <polygon class="cls-10" points="249.01 359.55 249.01 360.8 249.01 362.05 248.62 362.05 248.62 360.8 248.62 359.55 247.66 359.55 247.66 359.4 247.66 359.24 249.97 359.24 249.97 359.4 249.97 359.55 249.01 359.55"/>
    <path class="cls-10" d="m251.32,360.77c.07-.68-.86-.87-1.1-.32-.03.08-.07.19-.07.32h1.17Zm-.59-.92c.71,0,.98.48.95,1.2h-1.53c0,.45.16.76.6.77.29.01.49-.14.56-.33l.32.09c-.12.32-.42.51-.87.51-.66,0-1-.42-.99-1.13.01-.69.29-1.11.96-1.11Z"/>
    <path class="cls-10" d="m253.16,360.2c-.88-.18-.6,1.03-.65,1.85h-.36v-2.16s.33,0,.33,0c.01.14-.01.33.02.44.07-.31.26-.56.66-.47v.33Z"/>
    <path class="cls-10" d="m255.6,360.13c-.76.03-.43,1.19-.5,1.92h-.35v-1.37c0-.33-.06-.57-.4-.54-.75.05-.43,1.18-.5,1.92h-.35v-2.16s.33,0,.33,0c.01.11-.01.27.02.36.11-.5,1.12-.57,1.21,0,.12-.24.31-.4.66-.41.96-.02.53,1.35.62,2.2h-.35v-1.37c0-.33-.06-.56-.4-.54Z"/>
    <path class="cls-10" d="m256.88,362.05v-2.16h.36v2.16h-.36Zm0-2.62v-.34h.36v.34h-.36Z"/>
    <path class="cls-10" d="m258.83,359.85c1.01-.05.6,1.32.68,2.2h-.36v-1.37c0-.35-.09-.56-.44-.54-.82.02-.5,1.16-.56,1.92h-.36v-2.16s.33,0,.33,0c.01.11-.01.27.02.36.12-.25.33-.4.69-.41Z"/>
    <path class="cls-10" d="m260.9,361.82c.5.01.6-.35.6-.85s-.09-.85-.58-.85-.6.36-.6.85.11.84.58.85Zm.01-1.97c.7-.01.96.42.96,1.12.01.71-.31,1.12-.98,1.12s-.94-.44-.95-1.12c0-.75.32-1.12.96-1.12Z"/>
    <path class="cls-10" d="m264.5,359.85c1.01-.05.6,1.32.68,2.2h-.36v-1.37c0-.35-.09-.56-.44-.54-.82.02-.5,1.16-.56,1.92h-.36v-2.16s.33,0,.33,0c.01.11-.01.27.02.36.12-.25.33-.4.69-.41Z"/>
    <path class="cls-10" d="m265.71,362.05v-2.16h.36v2.16h-.36Zm0-2.62v-.34h.36v.34h-.36Z"/>
    <polygon class="cls-10" points="267.56 362.05 267.13 362.05 266.35 359.89 266.73 359.89 267.35 361.77 267.98 359.89 268.37 359.89 267.56 362.05"/>
    <path class="cls-10" d="m270.1,360.77c.07-.68-.86-.87-1.1-.32-.03.08-.07.19-.07.32h1.17Zm-.59-.92c.71,0,.98.48.95,1.2h-1.53c0,.45.16.76.6.77.29.01.49-.14.56-.33l.32.09c-.12.32-.42.51-.87.51-.66,0-1-.42-.99-1.13.01-.69.29-1.11.96-1.11Z"/>
    <polygon class="cls-10" points="270.92 362.05 270.92 360.57 270.92 359.09 271.28 359.09 271.28 360.57 271.28 362.05 270.92 362.05"/>
    <path class="cls-10" d="m273.34,361.52c-.02.27.2.33.43.25v.27c-.37.11-.79.06-.79-.44v-1.44h-.25v-.26h.27l.1-.49h.24v.49h.4v.26h-.4v1.36Z"/>
    <path class="cls-10" d="m275.1,360.2c-.88-.18-.6,1.03-.65,1.85h-.36v-2.16s.33,0,.33,0c.01.14-.01.33.02.44.07-.31.26-.56.66-.47v.33Z"/>
    <path class="cls-10" d="m276.88,360.77c.07-.68-.86-.87-1.1-.32-.03.08-.07.19-.07.32h1.17Zm-.59-.92c.71,0,.98.48.95,1.2h-1.53c0,.45.16.76.6.77.29.01.49-.14.56-.33l.32.09c-.12.32-.42.51-.87.51-.66,0-1-.42-.99-1.13.01-.69.29-1.11.96-1.11Z"/>
    <path class="cls-10" d="m278.95,360.43c-.03-.39-.98-.43-.99,0,.17.6,1.3.14,1.35,1.02.05.88-1.7.84-1.78.09l.32-.06c.05.41,1.1.51,1.11,0-.11-.64-1.28-.17-1.34-1.02-.05-.65.93-.71,1.38-.48.14.08.24.22.27.4l-.33.05Z"/>
    <path class="cls-10" d="m280.34,362.05v-.4h.39v.4h-.39Zm.29-2.85c.95,0,1.26,1.1.51,1.51-.22.11-.42.27-.44.59h-.35c0-.71.87-.62.87-1.29,0-.34-.24-.48-.59-.49-.36,0-.6.19-.64.52l-.36-.02c.08-.51.39-.82,1-.82Z"/>
    <path class="cls-10" d="m236.76,367.8c-.43-.48-.74-1.04-.74-1.92s.32-1.43.74-1.89h.35c-.43.47-.73,1.04-.73,1.91s.29,1.44.73,1.91h-.35Z"/>
    <path class="cls-10" d="m237.84,365.49c.68-.02,1.55.15,1.55-.53s-.91-.48-1.55-.51v1.04Zm1.93-.54c-.01.47-.26.73-.68.79l.79,1.21h-.43l-.74-1.17h-.87v1.17h-.37v-2.81c1,.03,2.33-.24,2.3.81Z"/>
    <path class="cls-10" d="m241.79,365.67c.07-.68-.86-.87-1.1-.32-.03.08-.07.19-.07.32h1.17Zm-.59-.92c.71,0,.98.48.95,1.2h-1.53c0,.45.16.76.6.77.29.01.49-.14.56-.33l.32.09c-.12.32-.42.51-.87.51-.66,0-1-.42-.99-1.13.01-.69.29-1.11.96-1.11Z"/>
    <path class="cls-10" d="m243.4,366.7c.41,0,.57-.36.57-.83s-.16-.85-.57-.85c-.44,0-.52.39-.52.85s.07.83.52.83Zm.94-1.91c-.11,1.42.47,3.32-1.25,2.96-.26-.07-.43-.23-.5-.49l.36-.06c.17.53,1.13.36,1.01-.32v-.34c-.12.24-.33.41-.69.41-.61,0-.77-.47-.77-1.09s.18-1.1.81-1.11c.33-.01.54.18.67.4.01-.11,0-.26.02-.36h.34Z"/>
    <path class="cls-10" d="m244.87,366.95v-2.16h.36v2.16h-.36Zm0-2.62v-.34h.36v.34h-.36Z"/>
    <path class="cls-10" d="m247.03,365.33c-.03-.39-.98-.43-.99,0,.17.6,1.3.14,1.35,1.02.05.88-1.7.84-1.78.09l.32-.06c.05.41,1.1.51,1.11,0-.11-.64-1.28-.17-1.34-1.02-.05-.65.93-.71,1.38-.48.14.08.24.22.27.4l-.33.05Z"/>
    <path class="cls-10" d="m248.21,366.42c-.02.27.2.33.43.25v.27c-.37.11-.79.06-.79-.44v-1.44h-.25v-.26h.27l.1-.49h.24v.49h.4v.26h-.4v1.36Z"/>
    <path class="cls-10" d="m249.97,365.1c-.88-.18-.6,1.03-.65,1.85h-.36v-2.16s.33,0,.33,0c.01.14-.01.33.02.44.07-.31.26-.56.66-.47v.33Z"/>
    <path class="cls-10" d="m251.15,366.72c.5.01.6-.35.6-.85s-.09-.85-.58-.85-.6.36-.6.85.11.84.58.85Zm.01-1.97c.7-.01.96.42.96,1.12.01.71-.31,1.12-.98,1.12s-.94-.44-.95-1.12c0-.75.32-1.12.96-1.12Z"/>
    <polygon class="cls-10" points="252.24 367.77 252.24 367.64 252.24 367.51 254.61 367.51 254.61 367.64 254.61 367.77 252.24 367.77"/>
    <path class="cls-10" d="m255.29,366.95c.03-1.11.54-1.8,1-2.51h-1.52v-.31h1.86v.29c-.44.74-.95,1.37-.96,2.52h-.37Z"/>
    <path class="cls-10" d="m259.05,365.03c-.45,0-.54.37-.54.83s.1.85.54.85c.27,0,.47-.16.49-.43l.36.02c-.07.42-.35.69-.84.69-.67,0-.86-.47-.93-1.12-.11-1.05,1.15-1.49,1.67-.73.05.08.06.16.08.25l-.36.03c-.05-.24-.18-.4-.47-.4Z"/>
    <path class="cls-10" d="m260.55,366.35c0,.23.14.37.36.37.47-.03.71-.33.68-.84-.49.02-1.04-.06-1.04.47Zm1.05.19c-.17.24-.35.47-.77.45-.41-.01-.66-.24-.66-.65-.01-.73.71-.71,1.42-.71.03-.4-.1-.61-.47-.61-.27.01-.47.08-.48.35l-.37-.03c.06-.42.37-.59.86-.59s.82.23.82.73v.93c-.01.23.08.36.32.31v.23c-.35.1-.69-.02-.67-.4Z"/>
    <path class="cls-10" d="m264.66,365.03c-.76.03-.43,1.19-.5,1.92h-.35v-1.37c0-.33-.06-.57-.4-.54-.75.05-.43,1.18-.5,1.92h-.35v-2.16s.33,0,.33,0c.01.11-.01.27.02.36.11-.5,1.12-.57,1.21,0,.12-.24.31-.4.66-.41.96-.02.53,1.35.62,2.2h-.35v-1.37c0-.33-.06-.56-.4-.54Z"/>
    <path class="cls-10" d="m266.88,366.72c.45,0,.51-.39.51-.85s-.06-.85-.51-.84c-.48,0-.58.36-.58.86s.11.83.58.83Zm.09-1.97c.6,0,.78.44.79,1.11,0,.75-.26,1.13-.79,1.13-.35-.01-.56-.12-.67-.39l-.02.34h-.35v-2.96h.37v1.15c.11-.26.32-.39.67-.39Z"/>
    <path class="cls-10" d="m268.21,366.95v-2.16h.36v2.16h-.36Zm0-2.62v-.34h.36v.34h-.36Z"/>
    <path class="cls-10" d="m269.38,366.35c0,.23.14.37.36.37.47-.03.71-.33.68-.84-.49.02-1.04-.06-1.04.47Zm1.05.19c-.17.24-.35.47-.77.45-.41-.01-.66-.24-.66-.65-.01-.73.71-.71,1.42-.71.03-.4-.1-.61-.47-.61-.27.01-.47.08-.48.35l-.37-.03c.06-.42.37-.59.86-.59s.82.23.82.73v.93c-.01.23.08.36.32.31v.23c-.35.1-.69-.02-.67-.4Z"/>
    <path class="cls-10" d="m273.39,364.1c.93-.08,1.05.99.49,1.5l-.7.62c-.12.12-.26.25-.33.42h1.46v.31h-1.86c.02-1.12,1.45-1.07,1.45-2.06,0-.32-.18-.49-.51-.49s-.52.17-.56.47l-.36-.03c.07-.47.39-.68.92-.73Z"/>
    <path class="cls-10" d="m275.64,366.7c.53,0,.61-.56.61-1.16s-.05-1.16-.6-1.16-.62.54-.62,1.16.06,1.16.61,1.16Zm.01-2.6c.77,0,.96.62.96,1.44s-.23,1.45-.98,1.45-.98-.64-.98-1.45.19-1.44.99-1.44Z"/>
    <polygon class="cls-10" points="279.13 366.95 278.7 366.95 277.92 364.8 278.3 364.8 278.92 366.67 279.55 364.8 279.94 364.8 279.13 366.95"/>
    <path class="cls-10" d="m281.67,365.67c.07-.68-.86-.87-1.1-.32-.03.08-.07.19-.07.32h1.17Zm-.59-.92c.71,0,.98.48.95,1.2h-1.53c0,.45.16.76.6.77.29.01.49-.14.56-.33l.32.09c-.12.32-.42.51-.87.51-.66,0-1-.42-.99-1.13.01-.69.29-1.11.96-1.11Z"/>
    <path class="cls-10" d="m283.3,365.03c-.45,0-.54.37-.54.83s.1.85.54.85c.27,0,.47-.16.49-.43l.36.02c-.07.42-.35.69-.84.69-.67,0-.86-.47-.93-1.12-.11-1.05,1.15-1.49,1.67-.73.05.08.06.16.08.25l-.36.03c-.05-.24-.18-.4-.47-.4Z"/>
    <path class="cls-10" d="m285.98,365.67c.07-.68-.86-.87-1.1-.32-.03.08-.07.19-.07.32h1.17Zm-.59-.92c.71,0,.98.48.95,1.2h-1.53c0,.45.16.76.6.77.29.01.49-.14.56-.33l.32.09c-.12.32-.42.51-.87.51-.66,0-1-.42-.99-1.13.01-.69.29-1.11.96-1.11Z"/>
    <path class="cls-10" d="m288.06,365.33c-.03-.39-.98-.43-.99,0,.17.6,1.3.14,1.35,1.02.05.88-1.7.84-1.78.09l.32-.06c.05.41,1.1.51,1.11,0-.11-.64-1.28-.17-1.34-1.02-.05-.65.93-.71,1.38-.48.14.08.24.22.27.4l-.33.05Z"/>
    <path class="cls-10" d="m290.07,363.99c.43.47.74,1.04.74,1.91s-.31,1.44-.74,1.91h-.35c.42-.47.73-1.04.73-1.91s-.31-1.44-.73-1.91h.35Z"/>
    <line class="cls-8" x1="263.45" y1="336.78" x2="263.45" y2="300.02"/>
    <polygon class="cls-7" points="263.6 336.78 263.45 336.78 263.3 336.78 263.6 336.78"/>
    <polygon class="cls-10" points="263.45 295.43 264.89 299.71 262.04 299.71 263.45 295.43"/>
    <polygon class="cls-8" points="263.45 295.43 264.89 299.71 262.04 299.71 263.45 295.43"/>
    <path class="cls-5" d="m284.71,281.34c3.74,0,6.77,3.03,6.77,6.77s-3.03,6.77-6.77,6.77h-42.48c-3.74,0-6.77-3.03-6.77-6.77s3.03-6.77,6.77-6.77h42.48Z"/>
    <path class="cls-8" d="m284.71,281.34c3.74,0,6.77,3.03,6.77,6.77s-3.03,6.77-6.77,6.77h-42.48c-3.74,0-6.77-3.03-6.77-6.77s3.03-6.77,6.77-6.77h42.48Z"/>
    <path d="m248.02,286.67c-.06-.54-1.4-.61-1.41.02.16.85,1.79.16,1.85,1.35.03.88-1.37.99-1.98.62-.19-.11-.32-.29-.37-.52l.37-.08c.06.64,1.6.71,1.6-.01,0-.88-1.76-.16-1.84-1.34-.06-.93,1.64-.95,2.03-.39.06.08.09.18.12.28l-.37.06Z"/>
    <path d="m250.37,287.53c.07-.68-.86-.87-1.1-.32-.03.08-.07.19-.07.32h1.17Zm-.59-.92c.71,0,.98.48.95,1.2h-1.53c0,.45.16.76.6.77.29.01.49-.14.56-.33l.32.09c-.12.32-.42.51-.87.51-.66,0-1-.42-.99-1.13.01-.69.29-1.11.96-1.11Z"/>
    <path d="m252.72,288.28c-.02.27.2.33.43.25v.27c-.37.11-.79.06-.79-.44v-1.44h-.25v-.26h.27l.1-.49h.24v.49h.4v.26h-.4v1.36Z"/>
    <path d="m254.91,287.53c.07-.68-.86-.87-1.1-.32-.03.08-.07.19-.07.32h1.17Zm-.59-.92c.71,0,.98.48.95,1.2h-1.53c0,.45.16.76.6.77.29.01.49-.14.56-.33l.32.09c-.12.32-.42.51-.87.51-.66,0-1-.42-.99-1.13.01-.69.29-1.11.96-1.11Z"/>
    <path d="m256.74,286.96c-.88-.18-.6,1.03-.65,1.85h-.36v-2.16s.33,0,.33,0c.01.14-.01.33.02.44.07-.31.26-.56.66-.47v.33Z"/>
    <path d="m259.18,286.9c-.76.03-.43,1.19-.5,1.92h-.35v-1.37c0-.33-.06-.57-.4-.54-.75.05-.43,1.18-.5,1.92h-.35v-2.16s.33,0,.33,0c.01.11-.01.27.02.36.11-.5,1.12-.57,1.21,0,.12-.24.31-.4.66-.41.96-.02.53,1.35.62,2.2h-.35v-1.37c0-.33-.06-.56-.4-.54Z"/>
    <path d="m260.46,288.81v-2.16h.36v2.16h-.36Zm0-2.62v-.34h.36v.34h-.36Z"/>
    <path d="m262.41,286.61c1.01-.05.6,1.32.68,2.2h-.36v-1.37c0-.35-.09-.56-.44-.54-.82.02-.5,1.16-.56,1.92h-.36v-2.16s.33,0,.33,0c.01.11-.01.27.02.36.12-.25.33-.4.69-.41Z"/>
    <path d="m263.9,288.21c0,.23.14.37.36.37.47-.03.71-.33.68-.84-.49.02-1.04-.06-1.04.47Zm1.05.19c-.17.24-.35.47-.77.45-.41-.01-.66-.24-.66-.65-.01-.73.71-.71,1.42-.71.03-.4-.1-.61-.47-.61-.27.01-.47.08-.48.35l-.37-.03c.06-.42.37-.59.86-.59s.82.23.82.73v.93c-.01.23.08.36.32.31v.23c-.35.1-.69-.02-.67-.4Z"/>
    <path d="m268.49,287.53c.07-.68-.86-.87-1.1-.32-.03.08-.07.19-.07.32h1.17Zm-.59-.92c.71,0,.98.48.95,1.2h-1.53c0,.45.16.76.6.77.29.01.49-.14.56-.33l.32.09c-.12.32-.42.51-.87.51-.66,0-1-.42-.99-1.13.01-.69.29-1.11.96-1.11Z"/>
    <polygon points="269.3 288.81 269.3 287.33 269.3 285.85 269.67 285.85 269.67 287.33 269.67 288.81 269.3 288.81"/>
    <path d="m270.94,289.37c.27.05.37-.07.37-.34v-2.37h.36v2.43c.02.45-.26.66-.74.56v-.27Zm.37-3.18v-.34h.36v.34h-.36Z"/>
    <path d="m272.89,288.86c-1.01.05-.61-1.32-.69-2.2h.36v1.36c0,.35.08.57.44.56.82-.02.51-1.15.57-1.92h.35v2.16s-.33,0-.33,0c-.01-.11.01-.28-.02-.37-.12.25-.32.41-.68.42Z"/>
    <path d="m275.93,287.53c.07-.68-.86-.87-1.1-.32-.03.08-.07.19-.07.32h1.17Zm-.59-.92c.71,0,.98.48.95,1.2h-1.53c0,.45.16.76.6.77.29.01.49-.14.56-.33l.32.09c-.12.32-.42.51-.87.51-.66,0-1-.42-.99-1.13.01-.69.29-1.11.96-1.11Z"/>
    <path d="m277.54,288.56c.41,0,.57-.36.57-.83s-.16-.85-.57-.85c-.44,0-.52.39-.52.85s.07.83.52.83Zm.94-1.91c-.11,1.42.47,3.32-1.25,2.96-.26-.07-.43-.23-.5-.49l.36-.06c.17.53,1.13.36,1.01-.32v-.34c-.12.24-.33.41-.69.41-.61,0-.77-.47-.77-1.09s.18-1.1.81-1.11c.33-.01.54.18.67.4.01-.11,0-.26.02-.36h.34Z"/>
    <path d="m279.87,288.59c.5.01.6-.35.6-.85s-.09-.85-.58-.85-.6.36-.6.85.11.84.58.85Zm.01-1.97c.7-.01.96.42.96,1.12.01.71-.31,1.12-.98,1.12s-.94-.44-.95-1.12c0-.75.32-1.12.96-1.12Z"/>
    <path class="cls-2" d="m265.1,313.8c0-1.84,1.84-1.84,1.84-1.84h10.32c1.84,0,1.84,1.84,1.84,1.84v9.86c0,1.85-1.84,1.85-1.84,1.85h-10.33c-1.84,0-1.84-1.84-1.84-1.84v-9.87Z"/>
    <path class="cls-3" d="m265.1,313.8c0-1.84,1.84-1.84,1.84-1.84h10.32c1.84,0,1.84,1.84,1.84,1.84v9.86c0,1.85-1.84,1.85-1.84,1.85h-10.33c-1.84,0-1.84-1.84-1.84-1.84v-9.87Z"/>
    <path class="cls-10" d="m272.53,317c-.08-.73-1.86-.82-1.88.03.21,1.13,2.39.21,2.47,1.8.05,1.18-1.83,1.32-2.65.83-.26-.15-.42-.39-.5-.7l.5-.11c.08.85,2.13.95,2.13-.02,0-1.18-2.34-.21-2.45-1.78-.08-1.24,2.19-1.27,2.71-.51.08.11.12.24.17.38l-.5.08Z"/>
    <path class="cls-10" d="m273.73,319.86v-2.87h.48v2.87h-.48Zm0-3.49v-.45h.48v.45h-.48Z"/>
    <path class="cls-2" d="m311.75,405.69c0-1.84,1.84-1.84,1.84-1.84h10.32c1.84,0,1.84,1.84,1.84,1.84v9.86c0,1.85-1.84,1.85-1.84,1.85h-10.33c-1.84,0-1.84-1.84-1.84-1.84v-9.87Z"/>
    <path class="cls-3" d="m311.75,405.69c0-1.84,1.84-1.84,1.84-1.84h10.32c1.84,0,1.84,1.84,1.84,1.84v9.86c0,1.85-1.84,1.85-1.84,1.85h-10.33c-1.84,0-1.84-1.84-1.84-1.84v-9.87Z"/>
    <polygon class="cls-10" points="318.2 411.75 316.2 408.56 316.22 411.75 315.78 411.75 315.78 409.88 315.78 408 316.37 408 318.38 411.22 318.35 408 318.82 408 318.82 409.88 318.82 411.75 318.2 411.75"/>
    <path class="cls-10" d="m320.74,411.45c.67.02.8-.47.8-1.13s-.12-1.13-.77-1.13-.8.48-.8,1.13.15,1.12.77,1.13Zm.02-2.63c.94-.02,1.29.56,1.29,1.5.02.95-.41,1.5-1.3,1.5s-1.26-.59-1.27-1.5c0-1,.42-1.5,1.29-1.5Z"/>
    <path class="cls-8" d="m298.67,449.19h31.98c1.84,0,1.84-1.84,1.84-1.84v-82.09c0-1.84-1.84-1.84-1.84-1.84h-27.81"/>
    <rect class="cls-10" x="298.52" y="449.19" width=".15" height=".31"/>
    <rect class="cls-7" x="298.52" y="449.19" width=".15" height=".31"/>
    <polygon class="cls-10" points="298.31 363.43 302.69 361.89 302.69 364.96 298.31 363.43"/>
    <polygon class="cls-8" points="298.31 363.43 302.69 361.89 302.69 364.96 298.31 363.43"/>
  </g>
</svg>