<?xml version="1.0" encoding="UTF-8"?>
<svg id="Layer_2" data-name="Layer 2" xmlns="http://www.w3.org/2000/svg" viewBox="0 0 254.38 248.42">
  <defs>
    <style>
      .cls-1, .cls-2 {
        stroke: #3a414a;
      }

      .cls-1, .cls-2, .cls-3 {
        fill: none;
      }

      .cls-1, .cls-3 {
        stroke-width: .26px;
      }

      .cls-4 {
        fill: #fc9432;
      }

      .cls-5 {
        fill: #fff;
      }

      .cls-5, .cls-3 {
        opacity: 0;
      }

      .cls-2 {
        stroke-width: .01px;
      }

      .cls-6 {
        fill: #e81313;
      }

      .cls-3 {
        stroke: #000;
      }

      .cls-7 {
        fill: #54c45e;
      }

      .cls-8 {
        fill: #3a414a;
      }

      .cls-9 {
        fill: #c3f7c8;
      }

      .cls-10 {
        fill: #fff7a1;
      }
    </style>
  </defs>
  <g id="Layer_1-2" data-name="Layer 1">
    <path class="cls-6" d="m53.1.13c3.79,0,6.83,3.04,6.83,6.8s-3.04,6.83-6.83,6.83H6.94C3.18,13.76.13,10.72.13,6.94S3.18.13,6.94.13h46.16Z"/>
    <path class="cls-1" d="m53.1.13c3.79,0,6.83,3.04,6.83,6.8s-3.04,6.83-6.83,6.83H6.94C3.18,13.76.13,10.72.13,6.94S3.18.13,6.94.13h46.16Z"/>
    <path d="m14.2,7.75l.02-2.14c-.23.74-.53,1.42-.78,2.14h-.23l-.79-2.14v2.14s-.27,0-.27,0v-2.43h.43l.75,2.07c.21-.74.5-1.37.74-2.07h.42v2.43h-.29Z"/>
    <path d="m15.74,7.56c.43,0,.52-.3.52-.74s-.08-.74-.5-.74-.52.31-.52.74.1.73.5.74Zm0-1.71c.61,0,.83.36.83.97,0,.62-.26.97-.84.97s-.81-.38-.82-.97c0-.65.27-.97.83-.97Z"/>
    <polygon points="17.79 7.75 17.42 7.75 16.74 5.89 17.08 5.89 17.61 7.51 18.16 5.89 18.49 5.89 17.79 7.75"/>
    <path d="m18.73,7.75v-1.86h.31v1.86h-.31Zm0-2.26v-.29h.31v.29h-.31Z"/>
    <path d="m21.33,6.1c-.66.03-.37,1.03-.43,1.66h-.3v-1.19c0-.28-.05-.49-.34-.47-.65.04-.37,1.02-.43,1.66h-.3v-1.86s.28,0,.28,0c0,.1,0,.24.02.31.1-.43.97-.49,1.05,0,.11-.21.26-.34.57-.35.83-.02.46,1.17.54,1.9h-.3v-1.19c0-.28-.05-.48-.34-.47Z"/>
    <path d="m22.44,7.75v-1.86h.31v1.86h-.31Zm0-2.26v-.29h.31v.29h-.31Z"/>
    <path d="m24.47,6.65c.06-.59-.74-.75-.95-.27-.03.07-.06.17-.06.27h1.01Zm-.51-.79c.62,0,.84.41.82,1.04h-1.32c0,.39.14.66.52.67.25,0,.42-.12.48-.28l.27.08c-.11.27-.36.44-.75.44-.57,0-.86-.36-.85-.98,0-.6.25-.96.83-.96Z"/>
    <path d="m26.08,5.85c.87-.04.52,1.14.59,1.9h-.31v-1.19c0-.3-.08-.48-.38-.47-.71.02-.43,1-.48,1.66h-.31v-1.86s.28,0,.28,0c0,.1,0,.24.02.31.11-.22.28-.34.6-.35Z"/>
    <path d="m27.48,7.29c-.02.24.18.28.37.22v.24c-.32.1-.69.05-.69-.38v-1.24h-.22v-.23h.24l.09-.42h.21v.42h.34v.23h-.34v1.18Z"/>
    <path d="m28.85,7.56c.43,0,.52-.3.52-.74s-.08-.74-.5-.74-.52.31-.52.74.1.73.5.74Zm0-1.71c.61,0,.83.36.83.97,0,.62-.26.97-.84.97s-.81-.38-.82-.97c0-.65.27-.97.83-.97Z"/>
    <path d="m31.73,6.09c-.39,0-.45.33-.45.74s.06.73.44.73c.41,0,.5-.31.5-.74s-.09-.73-.49-.72Zm-.09-.24c.3,0,.47.13.59.32v-.98s.3,0,.3,0v2.56s-.28,0-.28,0c-.02-.1,0-.23-.03-.3-.1.23-.27.34-.58.34-.52,0-.68-.38-.69-.96,0-.65.23-.98.69-.98Z"/>
    <path d="m34.26,6.65c.06-.59-.74-.75-.95-.27-.03.07-.06.17-.06.27h1.01Zm-.51-.79c.62,0,.84.41.82,1.04h-1.32c0,.39.14.66.52.67.25,0,.42-.12.48-.28l.27.08c-.11.27-.36.44-.75.44-.57,0-.86-.36-.85-.98,0-.6.25-.96.83-.96Z"/>
    <polygon points="34.97 7.75 34.97 6.47 34.97 5.19 35.28 5.19 35.28 6.47 35.28 7.75 34.97 7.75"/>
    <path d="m36.39,8.23c.24.04.32-.06.32-.29v-2.05h.31v2.1c.02.39-.23.57-.64.48v-.24Zm.32-2.74v-.29h.31v.29h-.31Z"/>
    <path d="m38.07,7.79c-.87.04-.53-1.14-.6-1.9h.31v1.18c0,.3.07.49.38.48.71-.02.44-.99.49-1.66h.3v1.86s-.28,0-.28,0c0-.1,0-.25-.02-.32-.11.22-.27.35-.59.36Z"/>
    <path d="m40.13,7.54c.35,0,.49-.31.49-.72s-.14-.74-.49-.74c-.38,0-.45.33-.45.74s.06.72.45.72Zm.81-1.65c-.1,1.23.4,2.87-1.08,2.56-.23-.06-.37-.2-.43-.42l.31-.05c.15.46.98.31.87-.27v-.29c-.11.21-.28.35-.6.35-.53,0-.67-.4-.67-.94s.16-.95.7-.96c.28,0,.47.16.58.34,0-.1,0-.23.02-.31h.29Z"/>
    <path d="m41.64,7.23c0,.2.12.32.31.32.4-.03.62-.28.59-.73-.42.02-.9-.05-.9.4Zm.91.17c-.15.21-.3.4-.67.39-.35,0-.57-.21-.57-.56,0-.63.62-.62,1.23-.62.03-.34-.09-.53-.4-.53-.24,0-.4.07-.41.3l-.32-.03c.05-.36.32-.51.74-.51s.71.2.71.63v.8c0,.2.07.31.27.26v.2c-.3.09-.6-.02-.58-.34Z"/>
    <path d="m44.05,6.09c-.39,0-.45.33-.45.74s.06.73.44.73c.41,0,.5-.31.5-.74s-.09-.73-.49-.72Zm-.09-.24c.3,0,.47.13.59.32v-.98s.3,0,.3,0v2.56s-.28,0-.28,0c-.02-.1,0-.23-.03-.3-.1.23-.27.34-.58.34-.52,0-.68-.38-.69-.96,0-.65.23-.98.69-.98Z"/>
    <path d="m46.06,7.56c.43,0,.52-.3.52-.74s-.08-.74-.5-.74-.52.31-.52.74.1.73.5.74Zm0-1.71c.61,0,.83.36.83.97,0,.62-.26.97-.84.97s-.81-.38-.82-.97c0-.65.27-.97.83-.97Z"/>
    <path d="m48.17,6.16c-.76-.16-.52.89-.56,1.6h-.31v-1.86s.28,0,.28,0c0,.12,0,.28.02.38.06-.26.23-.48.57-.4v.28Z"/>
    <path class="cls-4" d="m28.72,43.38c1.3-.9,2.59,0,2.59,0l27.29,18.64c1.3.9,0,1.8,0,1.8l-27.26,18.63c-1.32.9-2.65,0-2.65,0L1.46,63.82c-1.32-.9-.01-1.79-.01-1.79l27.28-18.64Z"/>
    <path class="cls-1" d="m28.72,43.38c1.3-.9,2.59,0,2.59,0l27.29,18.64c1.3.9,0,1.8,0,1.8l-27.26,18.63c-1.32.9-2.65,0-2.65,0L1.46,63.82c-1.32-.9-.01-1.79-.01-1.79l27.28-18.64Z"/>
    <path class="cls-8" d="m13.63,56.76v.34h-.33v-.34h.33Zm-.25,2.46c-.49,0-.8-.22-.82-.69-.02-.64.7-.57.76-1.13h.29c0,.63-.74.53-.74,1.12,0,.29.21.41.51.42.31,0,.52-.17.55-.45l.31.02c-.06.45-.35.71-.86.71Z"/>
    <path class="cls-8" d="m16.29,56.77c-.05-.47-1.21-.53-1.22.02.14.74,1.55.14,1.6,1.17.03.76-1.19.85-1.72.54-.17-.1-.27-.25-.32-.45l.32-.07c.05.55,1.38.62,1.38,0,0-.76-1.52-.14-1.59-1.16-.05-.8,1.42-.82,1.75-.33.05.07.08.16.11.25l-.32.05Z"/>
    <path class="cls-8" d="m18.32,57.52c.06-.59-.74-.75-.95-.27-.03.07-.06.17-.06.27h1.01Zm-.51-.79c.62,0,.84.41.82,1.04h-1.32c0,.39.14.66.52.67.25,0,.42-.12.48-.28l.27.08c-.11.27-.36.44-.75.44-.57,0-.86-.36-.85-.98,0-.6.25-.96.83-.96Z"/>
    <path class="cls-8" d="m20.81,56.97c-.71,0-.43,1-.48,1.66h-.31v-2.56h.31v1.01c.11-.21.26-.35.59-.35.87,0,.52,1.14.59,1.9h-.31v-1.19c.02-.31-.08-.48-.38-.47Z"/>
    <path class="cls-8" d="m22.2,58.1c0,.2.12.32.31.32.4-.03.62-.28.59-.73-.42.02-.9-.05-.9.4Zm.91.17c-.15.21-.3.4-.67.39-.35,0-.57-.21-.57-.56,0-.63.62-.62,1.23-.62.03-.34-.09-.53-.4-.53-.24,0-.4.07-.41.3l-.32-.03c.05-.36.32-.51.74-.51s.71.2.71.63v.8c0,.2.07.31.27.26v.2c-.3.09-.6-.02-.58-.34Z"/>
    <path class="cls-8" d="m25.64,58.43c.43,0,.52-.3.52-.74s-.08-.74-.5-.74-.52.31-.52.74.1.73.5.74Zm0-1.71c.61,0,.83.36.83.97,0,.62-.26.97-.84.97s-.81-.38-.82-.97c0-.65.27-.97.83-.97Z"/>
    <path class="cls-8" d="m27.68,58.43c.39,0,.44-.33.44-.74s-.06-.72-.44-.73c-.41,0-.5.31-.5.74s.1.72.5.72Zm.08-1.71c.54,0,.69.4.69.96s-.16.96-.69.98c-.3,0-.48-.13-.59-.33v1.03s-.3,0-.3,0v-2.6s.29,0,.29,0l.02.29c.1-.21.27-.33.58-.33Z"/>
    <path class="cls-8" d="m29.71,57.03c-.76-.16-.52.89-.56,1.6h-.31v-1.86s.28,0,.28,0c0,.12,0,.28.02.38.06-.26.23-.48.57-.4v.28Z"/>
    <path class="cls-8" d="m29.99,58.62v-1.86h.31v1.86h-.31Zm0-2.26v-.29h.31v.29h-.31Z"/>
    <path class="cls-8" d="m32.59,56.97c-.66.03-.37,1.03-.43,1.66h-.3v-1.19c0-.28-.05-.49-.34-.47-.65.04-.37,1.02-.43,1.66h-.3v-1.86s.28,0,.28,0c0,.1,0,.24.02.31.1-.43.97-.49,1.05,0,.11-.21.26-.34.57-.35.83-.02.46,1.17.54,1.9h-.3v-1.19c0-.28-.05-.48-.34-.47Z"/>
    <path class="cls-8" d="m33.7,58.62v-1.86h.31v1.86h-.31Zm0-2.26v-.29h.31v.29h-.31Z"/>
    <path class="cls-8" d="m35.16,56.96c-.39,0-.45.33-.45.74s.06.73.44.73c.41,0,.5-.31.5-.74s-.09-.73-.49-.72Zm-.09-.24c.3,0,.47.13.59.32v-.98s.3,0,.3,0v2.56s-.28,0-.28,0c-.02-.1,0-.23-.03-.3-.1.23-.27.34-.58.34-.52,0-.68-.38-.69-.96,0-.65.23-.98.69-.98Z"/>
    <path class="cls-8" d="m37.17,58.43c.43,0,.52-.3.52-.74s-.08-.74-.5-.74-.52.31-.52.74.1.73.5.74Zm0-1.71c.61,0,.83.36.83.97,0,.62-.26.97-.84.97s-.81-.38-.82-.97c0-.65.27-.97.83-.97Z"/>
    <path class="cls-8" d="m39.59,58.1c0,.2.12.32.31.32.4-.03.62-.28.59-.73-.42.02-.9-.05-.9.4Zm.91.17c-.15.21-.3.4-.67.39-.35,0-.57-.21-.57-.56,0-.63.62-.62,1.23-.62.03-.34-.09-.53-.4-.53-.24,0-.4.07-.41.3l-.32-.03c.05-.36.32-.51.74-.51s.71.2.71.63v.8c0,.2.07.31.27.26v.2c-.3.09-.6-.02-.58-.34Z"/>
    <polygon class="cls-8" points="41.32 58.62 41.32 57.34 41.32 56.06 41.63 56.06 41.63 57.34 41.63 58.62 41.32 58.62"/>
    <path class="cls-8" d="m42.78,58.41c.35,0,.49-.31.49-.72s-.14-.74-.49-.74c-.38,0-.45.33-.45.74s.06.72.45.72Zm.81-1.65c-.1,1.23.4,2.87-1.08,2.56-.23-.06-.37-.2-.43-.42l.31-.05c.15.46.98.31.87-.27v-.29c-.11.21-.28.35-.6.35-.53,0-.67-.4-.67-.94s.16-.95.7-.96c.28,0,.47.16.58.34,0-.1,0-.23.02-.31h.29Z"/>
    <path class="cls-8" d="m44.64,58.66c-.87.04-.53-1.14-.6-1.9h.31v1.18c0,.3.07.49.38.48.71-.02.44-.99.49-1.66h.3v1.86s-.28,0-.28,0c0-.1,0-.25-.02-.32-.11.22-.27.35-.59.36Z"/>
    <path class="cls-8" d="m46.92,56.72c.87-.04.52,1.14.59,1.9h-.31v-1.19c0-.3-.08-.48-.38-.47-.71.02-.43,1-.48,1.66h-.31v-1.86s.28,0,.28,0c0,.1,0,.24.02.31.11-.22.28-.34.6-.35Z"/>
    <path class="cls-8" d="m25.57,62.66c.39,0,.44-.33.44-.74s-.05-.74-.44-.73c-.41,0-.5.31-.5.74s.1.72.5.72Zm.08-1.71c.52,0,.68.38.69.96,0,.65-.23.98-.69.98-.3,0-.48-.11-.58-.33l-.02.29h-.3v-2.56h.32v.99c.1-.23.27-.33.58-.33Z"/>
    <path class="cls-8" d="m27.45,62.66c.43,0,.52-.3.52-.74s-.08-.74-.5-.74-.52.31-.52.74.1.73.5.74Zm0-1.71c.61,0,.83.36.83.97,0,.62-.26.97-.84.97s-.81-.38-.82-.97c0-.65.27-.97.83-.97Z"/>
    <path class="cls-8" d="m29.02,62.4c-.02.24.18.28.37.22v.24c-.32.1-.69.05-.69-.38v-1.24h-.22v-.23h.24l.09-.42h.21v.42h.34v.23h-.34v1.18Z"/>
    <path class="cls-8" d="m30.39,62.66c.43,0,.52-.3.52-.74s-.08-.74-.5-.74-.52.31-.52.74.1.73.5.74Zm0-1.71c.61,0,.83.36.83.97,0,.62-.26.97-.84.97s-.81-.38-.82-.97c0-.65.27-.97.83-.97Z"/>
    <path class="cls-8" d="m32.53,60.96c.87-.04.52,1.14.59,1.9h-.31v-1.19c0-.3-.08-.48-.38-.47-.71.02-.43,1-.48,1.66h-.31v-1.86s.28,0,.28,0c0,.1,0,.24.02.31.11-.22.28-.34.6-.35Z"/>
    <path class="cls-8" d="m34.1,62.86v-.34h.33v.34h-.33Zm.25-2.46c.82,0,1.09.95.44,1.3-.19.1-.36.24-.38.51h-.3c0-.62.75-.54.75-1.12,0-.29-.21-.41-.51-.42-.31,0-.52.17-.55.45l-.31-.02c.07-.44.33-.71.86-.71Z"/>
    <path class="cls-8" d="m9.17,67.83c-.37-.41-.64-.9-.64-1.66s.27-1.24.64-1.64h.3c-.37.4-.63.9-.63,1.65s.25,1.24.63,1.65h-.3Z"/>
    <path class="cls-8" d="m12.27,65.24c-.05-.47-1.21-.53-1.22.02.14.74,1.55.14,1.6,1.17.03.76-1.19.85-1.72.54-.17-.1-.27-.25-.32-.45l.32-.07c.05.55,1.38.62,1.38,0,0-.76-1.52-.14-1.59-1.16-.05-.8,1.42-.82,1.75-.33.05.07.08.16.11.25l-.32.05Z"/>
    <path class="cls-8" d="m14.3,65.99c.06-.59-.74-.75-.95-.27-.03.07-.06.17-.06.27h1.01Zm-.51-.79c.62,0,.84.41.82,1.04h-1.32c0,.39.14.66.52.67.25,0,.42-.12.48-.28l.27.08c-.11.27-.36.44-.75.44-.57,0-.86-.36-.85-.98,0-.6.25-.96.83-.96Z"/>
    <path class="cls-8" d="m16.39,64.56c-.03.23-.09.47-.35.46-.25,0-.64-.43-.73,0h-.16c.04-.23.08-.47.35-.46.27,0,.63.43.73,0h.16Zm-.46.63c.87-.04.52,1.14.59,1.9h-.31v-1.19c0-.3-.08-.48-.38-.47-.71.02-.43,1-.48,1.66h-.31v-1.86s.28,0,.28,0c0,.1,0,.24.02.31.11-.22.28-.34.6-.35Z"/>
    <path class="cls-8" d="m17.2,66.57c0,.2.12.32.31.32.4-.03.62-.28.59-.73-.42.02-.9-.05-.9.4Zm.91.17c-.15.21-.3.4-.67.39-.35,0-.57-.21-.57-.56,0-.63.62-.62,1.23-.62.03-.34-.09-.53-.4-.53-.24,0-.4.07-.41.3l-.32-.03c.05-.36.32-.51.74-.51s.71.2.71.63v.8c0,.2.07.31.27.26v.2c-.3.09-.6-.02-.58-.34Z"/>
    <polygon class="cls-8" points="18.93 67.09 18.93 65.81 18.93 64.54 19.24 64.54 19.24 65.81 19.24 67.09 18.93 67.09"/>
    <path class="cls-8" d="m21.37,65.43c-.39,0-.45.33-.45.74s.06.73.44.73c.41,0,.5-.31.5-.74s-.09-.73-.49-.72Zm-.09-.24c.3,0,.47.13.59.32v-.98s.3,0,.3,0v2.56s-.28,0-.28,0c-.02-.1,0-.23-.03-.3-.1.23-.27.34-.58.34-.52,0-.68-.38-.69-.96,0-.65.23-.98.69-.98Z"/>
    <path class="cls-8" d="m23.9,65.99c.06-.59-.74-.75-.95-.27-.03.07-.06.17-.06.27h1.01Zm-.51-.79c.62,0,.84.41.82,1.04h-1.32c0,.39.14.66.52.67.25,0,.42-.12.48-.28l.27.08c-.11.27-.36.44-.75.44-.57,0-.86-.36-.85-.98,0-.6.25-.96.83-.96Z"/>
    <polygon class="cls-8" points="25.59 67.09 25.59 65.81 25.59 64.54 25.9 64.54 25.9 65.81 25.9 67.09 25.59 67.09"/>
    <path class="cls-8" d="m27.1,66.9c.43,0,.52-.3.52-.74s-.08-.74-.5-.74-.52.31-.52.74.1.73.5.74Zm0-1.71c.61,0,.83.36.83.97,0,.62-.26.97-.84.97s-.81-.38-.82-.97c0-.65.27-.97.83-.97Z"/>
    <path class="cls-8" d="m29.41,65.69c-.03-.33-.84-.37-.85,0,.15.52,1.13.12,1.17.88.04.76-1.47.73-1.54.08l.27-.05c.04.35.95.44.96,0-.1-.55-1.11-.15-1.16-.88-.04-.56.8-.62,1.2-.41.12.07.21.19.24.34l-.28.04Z"/>
    <path class="cls-8" d="m31.86,66.9c.39,0,.44-.33.44-.74s-.05-.74-.44-.73c-.41,0-.5.31-.5.74s.1.72.5.72Zm.08-1.71c.52,0,.68.38.69.96,0,.65-.23.98-.69.98-.3,0-.48-.11-.58-.33l-.02.29h-.3v-2.56h.32v.99c.1-.23.27-.33.58-.33Z"/>
    <path class="cls-8" d="m33.74,66.9c.43,0,.52-.3.52-.74s-.08-.74-.5-.74-.52.31-.52.74.1.73.5.74Zm0-1.71c.61,0,.83.36.83.97,0,.62-.26.97-.84.97s-.81-.38-.82-.97c0-.65.27-.97.83-.97Z"/>
    <path class="cls-8" d="m35.31,66.63c-.02.24.18.28.37.22v.24c-.32.1-.69.05-.69-.38v-1.24h-.22v-.23h.24l.09-.42h.21v.42h.34v.23h-.34v1.18Z"/>
    <path class="cls-8" d="m36.68,66.9c.43,0,.52-.3.52-.74s-.08-.74-.5-.74-.52.31-.52.74.1.73.5.74Zm0-1.71c.61,0,.83.36.83.97,0,.62-.26.97-.84.97s-.81-.38-.82-.97c0-.65.27-.97.83-.97Z"/>
    <path class="cls-8" d="m38.82,65.19c.87-.04.52,1.14.59,1.9h-.31v-1.19c0-.3-.08-.48-.38-.47-.71.02-.43,1-.48,1.66h-.31v-1.86s.28,0,.28,0c0,.1,0,.24.02.31.11-.22.28-.34.6-.35Z"/>
    <path class="cls-8" d="m41.12,65.99c.06-.59-.74-.75-.95-.27-.03.07-.06.17-.06.27h1.01Zm-.51-.79c.62,0,.84.41.82,1.04h-1.32c0,.39.14.66.52.67.25,0,.42-.12.48-.28l.27.08c-.11.27-.36.44-.75.44-.57,0-.86-.36-.85-.98,0-.6.25-.96.83-.96Z"/>
    <path class="cls-8" d="m42.92,65.69c-.03-.33-.84-.37-.85,0,.15.52,1.13.12,1.17.88.04.76-1.47.73-1.54.08l.27-.05c.04.35.95.44.96,0-.1-.55-1.11-.15-1.16-.88-.04-.56.8-.62,1.2-.41.12.07.21.19.24.34l-.28.04Z"/>
    <path class="cls-8" d="m44.51,66.51v-.25h1.71v.25h-1.71Zm0-.88v-.25h1.71v.25h-1.71Z"/>
    <polygon class="cls-8" points="47.65 67.09 47.65 66.96 47.65 66.83 48.27 66.83 48.27 65.9 48.27 64.97 47.72 65.35 47.72 65.21 47.72 65.06 48.29 64.66 48.58 64.66 48.58 65.75 48.58 66.83 49.18 66.83 49.18 66.96 49.18 67.09 47.65 67.09"/>
    <path class="cls-8" d="m50.64,64.54c.37.4.64.9.64,1.65s-.26,1.24-.64,1.65h-.3c.36-.4.63-.9.63-1.65s-.26-1.24-.63-1.65h.3Z"/>
    <line class="cls-1" x1="30.02" y1="14.03" x2="30.02" y2="38.51"/>
    <rect class="cls-8" x="29.88" y="13.9" width=".26" height=".13"/>
    <rect class="cls-2" x="29.88" y="13.9" width=".26" height=".13"/>
    <polygon class="cls-8" points="30.02 42.4 28.8 38.65 31.26 38.65 30.02 42.4"/>
    <polygon class="cls-1" points="30.02 42.4 28.8 38.65 31.26 38.65 30.02 42.4"/>
    <path class="cls-4" d="m28.72,113.05c1.3-.9,2.59,0,2.59,0l27.29,18.64c1.3.9,0,1.8,0,1.8l-27.26,18.63c-1.32.9-2.65,0-2.65,0L1.46,133.49c-1.32-.9-.01-1.79-.01-1.79l27.28-18.64Z"/>
    <path class="cls-1" d="m28.72,113.05c1.3-.9,2.59,0,2.59,0l27.29,18.64c1.3.9,0,1.8,0,1.8l-27.26,18.63c-1.32.9-2.65,0-2.65,0L1.46,133.49c-1.32-.9-.01-1.79-.01-1.79l27.28-18.64Z"/>
    <path class="cls-8" d="m12.84,128.83v.34h-.33v-.34h.33Zm-.25,2.46c-.49,0-.8-.22-.82-.69-.02-.64.7-.57.76-1.13h.29c0,.63-.74.53-.74,1.12,0,.29.21.41.51.42.31,0,.52-.17.55-.45l.31.02c-.06.45-.35.71-.86.71Z"/>
    <polygon class="cls-8" points="13.98 130.69 13.98 129.48 13.98 128.26 15.81 128.26 15.81 128.4 15.81 128.54 14.3 128.54 14.3 128.92 14.3 129.31 15.71 129.31 15.71 129.44 15.71 129.58 14.3 129.58 14.3 130 14.3 130.43 15.89 130.43 15.89 130.56 15.89 130.69 13.98 130.69"/>
    <path class="cls-8" d="m17.36,129.29c-.03-.33-.84-.37-.85,0,.15.52,1.13.12,1.17.88.04.76-1.47.73-1.54.08l.27-.05c.04.35.95.44.96,0-.1-.55-1.11-.15-1.16-.88-.04-.56.8-.62,1.2-.41.12.07.21.19.24.34l-.28.04Z"/>
    <path class="cls-8" d="m20.27,129.59c.06-.59-.74-.75-.95-.27-.03.07-.06.17-.06.27h1.01Zm-.51-.79c.62,0,.84.41.82,1.04h-1.32c0,.39.14.66.52.67.25,0,.42-.12.48-.28l.27.08c-.11.27-.36.44-.75.44-.57,0-.86-.36-.85-.98,0-.6.25-.96.83-.96Z"/>
    <polygon class="cls-8" points="20.98 130.69 20.98 129.41 20.98 128.13 21.29 128.13 21.29 129.41 21.29 130.69 20.98 130.69"/>
    <path class="cls-8" d="m23.55,130.5c.39,0,.44-.33.44-.74s-.05-.74-.44-.73c-.41,0-.5.31-.5.74s.1.72.5.72Zm.08-1.71c.52,0,.68.38.69.96,0,.65-.23.98-.69.98-.3,0-.48-.11-.58-.33l-.02.29h-.3v-2.56h.32v.99c.1-.23.27-.33.58-.33Z"/>
    <path class="cls-8" d="m25.43,130.5c.43,0,.52-.3.52-.74s-.08-.74-.5-.74-.52.31-.52.74.1.73.5.74Zm0-1.71c.61,0,.83.36.83.97,0,.62-.26.97-.84.97s-.81-.38-.82-.97c0-.65.27-.97.83-.97Z"/>
    <path class="cls-8" d="m27,130.23c-.02.24.18.28.37.22v.24c-.32.1-.69.05-.69-.38v-1.24h-.22v-.23h.24l.09-.42h.21v.42h.34v.23h-.34v1.18Z"/>
    <path class="cls-8" d="m28.37,130.5c.43,0,.52-.3.52-.74s-.08-.74-.5-.74-.52.31-.52.74.1.73.5.74Zm0-1.71c.61,0,.83.36.83.97,0,.62-.26.97-.84.97s-.81-.38-.82-.97c0-.65.27-.97.83-.97Z"/>
    <path class="cls-8" d="m30.51,128.79c.87-.04.52,1.14.59,1.9h-.31v-1.19c0-.3-.08-.48-.38-.47-.71.02-.43,1-.48,1.66h-.31v-1.86s.28,0,.28,0c0,.1,0,.24.02.31.11-.22.28-.34.6-.35Z"/>
    <path class="cls-8" d="m32.53,130.69v-1.86h.31v1.86h-.31Zm0-2.26v-.29h.31v.29h-.31Z"/>
    <polygon class="cls-8" points="33.16 130.69 33.16 130.58 33.16 130.46 34.29 129.07 33.22 129.07 33.22 128.95 33.22 128.83 34.64 128.83 34.64 128.95 34.64 129.07 33.5 130.46 34.7 130.46 34.7 130.58 34.7 130.69 33.16 130.69"/>
    <path class="cls-8" d="m35.74,130.49c.4,0,.5-.32.5-.74s-.08-.72-.49-.72-.45.34-.45.74.05.73.44.73Zm.51-.1c-.11.22-.28.34-.59.34-.52,0-.68-.38-.69-.96,0-.58.17-.97.69-.98.31,0,.47.14.59.32,0-.11,0-.24.02-.31h.29v2.63h-.32v-1.04Z"/>
    <path class="cls-8" d="m37.62,130.73c-.87.04-.53-1.14-.6-1.9h.31v1.18c0,.3.07.49.38.48.71-.02.44-.99.49-1.66h.3v1.86s-.28,0-.28,0c0-.1,0-.25-.02-.32-.11.22-.27.35-.59.36Z"/>
    <path class="cls-8" d="m38.99,130.69v-1.86h.31v1.86h-.31Zm0-2.26v-.29h.31v.29h-.31Z"/>
    <path class="cls-8" d="m41.02,129.59c.06-.59-.74-.75-.95-.27-.03.07-.06.17-.06.27h1.01Zm-.51-.79c.62,0,.84.41.82,1.04h-1.32c0,.39.14.66.52.67.25,0,.42-.12.48-.28l.27.08c-.11.27-.36.44-.75.44-.57,0-.86-.36-.85-.98,0-.6.25-.96.83-.96Z"/>
    <path class="cls-8" d="m42.6,129.1c-.76-.16-.52.89-.56,1.6h-.31v-1.86s.28,0,.28,0c0,.12,0,.28.02.38.06-.26.23-.48.57-.4v.28Z"/>
    <path class="cls-8" d="m43.58,129.03c-.39,0-.45.33-.45.74s.06.73.44.73c.41,0,.5-.31.5-.74s-.09-.73-.49-.72Zm-.09-.24c.3,0,.47.13.59.32v-.98s.3,0,.3,0v2.56s-.28,0-.28,0c-.02-.1,0-.23-.03-.3-.1.23-.27.34-.58.34-.52,0-.68-.38-.69-.96,0-.65.23-.98.69-.98Z"/>
    <path class="cls-8" d="m45.58,130.5c.43,0,.52-.3.52-.74s-.08-.74-.5-.74-.52.31-.52.74.1.73.5.74Zm0-1.71c.61,0,.83.36.83.97,0,.62-.26.97-.84.97s-.81-.38-.82-.97c0-.65.27-.97.83-.97Z"/>
    <path class="cls-8" d="m47.33,130.69v-.34h.33v.34h-.33Zm.25-2.46c.82,0,1.09.95.44,1.3-.19.1-.36.24-.38.51h-.3c0-.62.75-.54.75-1.12,0-.29-.21-.41-.51-.42-.31,0-.52.17-.55.45l-.31-.02c.07-.44.33-.71.86-.71Z"/>
    <path class="cls-8" d="m15.23,135.66c-.37-.41-.64-.9-.64-1.66s.27-1.24.64-1.64h.3c-.37.4-.63.9-.63,1.65s.25,1.24.63,1.65h-.3Z"/>
    <path class="cls-8" d="m16.86,133.53c-.03-.33-.84-.37-.85,0,.15.52,1.13.12,1.17.88.04.76-1.47.73-1.54.08l.27-.05c.04.35.95.44.96,0-.1-.55-1.11-.15-1.16-.88-.04-.56.8-.62,1.2-.41.12.07.21.19.24.34l-.28.04Z"/>
    <path class="cls-8" d="m18.79,133.82c.06-.59-.74-.75-.95-.27-.03.07-.06.17-.06.27h1.01Zm-.51-.79c.62,0,.84.41.82,1.04h-1.32c0,.39.14.66.52.67.25,0,.42-.12.48-.28l.27.08c-.11.27-.36.44-.75.44-.57,0-.86-.36-.85-.98,0-.6.25-.96.83-.96Z"/>
    <path class="cls-8" d="m20.88,132.4c-.03.23-.09.47-.35.46-.25,0-.64-.43-.73,0h-.16c.04-.23.08-.47.35-.46.27,0,.63.43.73,0h.16Zm-.46.63c.87-.04.52,1.14.59,1.9h-.31v-1.19c0-.3-.08-.48-.38-.47-.71.02-.43,1-.48,1.66h-.31v-1.86s.28,0,.28,0c0,.1,0,.24.02.31.11-.22.28-.34.6-.35Z"/>
    <path class="cls-8" d="m21.7,134.41c0,.2.12.32.31.32.4-.03.62-.28.59-.73-.42.02-.9-.05-.9.4Zm.91.17c-.15.21-.3.4-.67.39-.35,0-.57-.21-.57-.56,0-.63.62-.62,1.23-.62.03-.34-.09-.53-.4-.53-.24,0-.4.07-.41.3l-.32-.03c.05-.36.32-.51.74-.51s.71.2.71.63v.8c0,.2.07.31.27.26v.2c-.3.09-.6-.02-.58-.34Z"/>
    <polygon class="cls-8" points="23.42 134.93 23.42 133.65 23.42 132.37 23.73 132.37 23.73 133.65 23.73 134.93 23.42 134.93"/>
    <polygon class="cls-8" points="25.23 134.93 25.23 133.71 25.23 132.5 25.56 132.5 25.56 133.58 25.56 134.66 26.78 134.66 26.78 134.8 26.78 134.93 25.23 134.93"/>
    <path class="cls-8" d="m28.39,133.82c.06-.59-.74-.75-.95-.27-.03.07-.06.17-.06.27h1.01Zm-.51-.79c.62,0,.84.41.82,1.04h-1.32c0,.39.14.66.52.67.25,0,.42-.12.48-.28l.27.08c-.11.27-.36.44-.75.44-.57,0-.86-.36-.85-.98,0-.6.25-.96.83-.96Z"/>
    <path class="cls-8" d="m29.85,132.63c-.3-.09-.41.1-.37.43h.37v.23h-.37v1.64h-.3v-1.64h-.26v-.23h.26c-.07-.51.17-.8.68-.67v.24Z"/>
    <path class="cls-8" d="m30.42,134.47c-.02.24.18.28.37.22v.24c-.32.1-.69.05-.69-.38v-1.24h-.22v-.23h.24l.09-.42h.21v.42h.34v.23h-.34v1.18Z"/>
    <path class="cls-8" d="m31.8,134.71c.46,0,.53-.48.53-1s-.04-1-.52-1-.54.47-.54,1,.05,1,.53,1Zm0-2.24c.67,0,.83.54.83,1.24s-.2,1.25-.84,1.25-.84-.55-.84-1.25.17-1.24.85-1.24Z"/>
    <path class="cls-8" d="m34.72,134.73c.43,0,.52-.3.52-.74s-.08-.74-.5-.74-.52.31-.52.74.1.73.5.74Zm0-1.71c.61,0,.83.36.83.97,0,.62-.26.97-.84.97s-.81-.38-.82-.97c0-.65.27-.97.83-.97Z"/>
    <polygon class="cls-8" points="36.98 134.93 36.98 133.71 36.98 132.5 37.3 132.5 37.3 133.58 37.3 134.66 38.53 134.66 38.53 134.8 38.53 134.93 36.98 134.93"/>
    <path class="cls-8" d="m40.14,133.82c.06-.59-.74-.75-.95-.27-.03.07-.06.17-.06.27h1.01Zm-.51-.79c.62,0,.84.41.82,1.04h-1.32c0,.39.14.66.52.67.25,0,.42-.12.48-.28l.27.08c-.11.27-.36.44-.75.44-.57,0-.86-.36-.85-.98,0-.6.25-.96.83-.96Z"/>
    <path class="cls-8" d="m41.6,132.63c-.3-.09-.41.1-.37.43h.37v.23h-.37v1.64h-.3v-1.64h-.26v-.23h.26c-.07-.51.17-.8.68-.67v.24Z"/>
    <path class="cls-8" d="m42.17,134.47c-.02.24.18.28.37.22v.24c-.32.1-.69.05-.69-.38v-1.24h-.22v-.23h.24l.09-.42h.21v.42h.34v.23h-.34v1.18Z"/>
    <polygon class="cls-8" points="42.83 134.93 42.83 134.8 42.83 134.66 43.46 134.66 43.46 133.73 43.46 132.8 42.91 133.18 42.91 133.04 42.91 132.9 43.48 132.5 43.76 132.5 43.76 133.58 43.76 134.66 44.36 134.66 44.36 134.8 44.36 134.93 42.83 134.93"/>
    <path class="cls-8" d="m44.85,132.37c.37.4.64.9.64,1.65s-.26,1.24-.64,1.65h-.3c.36-.4.63-.9.63-1.65s-.26-1.24-.63-1.65h.3Z"/>
    <line class="cls-1" x1="59.35" y1="62.92" x2="85.34" y2="62.92"/>
    <polygon class="cls-8" points="59.35 63.05 59.21 63.05 59.21 62.92 59.21 62.79 59.35 62.79 59.35 63.05"/>
    <polygon class="cls-2" points="59.35 63.05 59.21 63.05 59.21 62.92 59.21 62.79 59.35 62.79 59.35 63.05"/>
    <polygon class="cls-8" points="89.26 62.92 85.47 64.16 85.47 61.7 89.26 62.92"/>
    <polygon class="cls-1" points="89.26 62.92 85.47 64.16 85.47 61.7 89.26 62.92"/>
    <path class="cls-7" d="m89.81,57.68c0-1.59,1.59-1.59,1.59-1.59h56.62c1.56,0,1.56,1.59,1.56,1.59l.03,10.46c-.03,1.58-1.61,1.58-1.61,1.58h-56.59c-1.59,0-1.59-1.59-1.59-1.59v-10.45Z"/>
    <path class="cls-1" d="m89.81,57.68c0-1.59,1.59-1.59,1.59-1.59h56.62c1.56,0,1.56,1.59,1.56,1.59l.03,10.46c-.03,1.58-1.61,1.58-1.61,1.58h-56.59c-1.59,0-1.59-1.59-1.59-1.59v-10.45Z"/>
    <path class="cls-8" d="m104.07,63.48l.02-2.14c-.23.74-.53,1.42-.78,2.14h-.23l-.79-2.14v2.14s-.27,0-.27,0v-2.43h.43l.75,2.07c.21-.74.5-1.37.74-2.07h.42v2.43h-.29Z"/>
    <path class="cls-8" d="m105.11,62.96c0,.2.12.32.31.32.4-.03.62-.28.59-.73-.42.02-.9-.05-.9.4Zm.91.17c-.15.21-.3.4-.67.39-.35,0-.57-.21-.57-.56,0-.63.62-.62,1.23-.62.03-.34-.09-.53-.4-.53-.24,0-.4.07-.41.3l-.32-.03c.05-.36.32-.51.74-.51s.71.2.71.63v.8c0,.2.07.31.27.26v.2c-.3.09-.6-.02-.58-.34Z"/>
    <path class="cls-8" d="m107.75,61.58c.87-.04.52,1.14.59,1.9h-.31v-1.19c0-.3-.08-.48-.38-.47-.71.02-.43,1-.48,1.66h-.31v-1.86s.28,0,.28,0c0,.1,0,.24.02.31.11-.22.28-.34.6-.35Z"/>
    <path class="cls-8" d="m109.14,63.02c-.02.24.18.28.37.22v.24c-.32.1-.69.05-.69-.38v-1.24h-.22v-.23h.24l.09-.42h.21v.42h.34v.23h-.34v1.18Z"/>
    <path class="cls-8" d="m111.04,62.37c.06-.59-.74-.75-.95-.27-.03.07-.06.17-.06.27h1.01Zm-.51-.79c.62,0,.84.41.82,1.04h-1.32c0,.39.14.66.52.67.25,0,.42-.12.48-.28l.27.08c-.11.27-.36.44-.75.44-.57,0-.86-.36-.85-.98,0-.6.25-.96.83-.96Z"/>
    <path class="cls-8" d="m112.65,61.58c.87-.04.52,1.14.59,1.9h-.31v-1.19c0-.3-.08-.48-.38-.47-.71.02-.43,1-.48,1.66h-.31v-1.86s.28,0,.28,0c0,.1,0,.24.02.31.11-.22.28-.34.6-.35Z"/>
    <path class="cls-8" d="m114.96,62.37c.06-.59-.74-.75-.95-.27-.03.07-.06.17-.06.27h1.01Zm-.51-.79c.62,0,.84.41.82,1.04h-1.32c0,.39.14.66.52.67.25,0,.42-.12.48-.28l.27.08c-.11.27-.36.44-.75.44-.57,0-.86-.36-.85-.98,0-.6.25-.96.83-.96Z"/>
    <path class="cls-8" d="m116.54,61.88c-.76-.16-.52.89-.56,1.6h-.31v-1.86s.28,0,.28,0c0,.12,0,.28.02.38.06-.26.23-.48.57-.4v.28Z"/>
    <path class="cls-8" d="m118.62,63.28c.39,0,.44-.33.44-.74s-.06-.72-.44-.73c-.41,0-.5.31-.5.74s.1.72.5.72Zm.08-1.71c.54,0,.69.4.69.96s-.16.96-.69.98c-.3,0-.48-.13-.59-.33v1.03s-.3,0-.3,0v-2.6s.29,0,.29,0l.02.29c.1-.21.27-.33.58-.33Z"/>
    <path class="cls-8" d="m120.51,63.28c.43,0,.52-.3.52-.74s-.08-.74-.5-.74-.52.31-.52.74.1.73.5.74Zm0-1.71c.61,0,.83.36.83.97,0,.62-.26.97-.84.97s-.81-.38-.82-.97c0-.65.27-.97.83-.97Z"/>
    <path class="cls-8" d="m122.82,62.08c-.03-.33-.84-.37-.85,0,.15.52,1.13.12,1.17.88.04.76-1.47.73-1.54.08l.27-.05c.04.35.95.44.96,0-.1-.55-1.11-.15-1.16-.88-.04-.56.8-.62,1.2-.41.12.07.21.19.24.34l-.28.04Z"/>
    <path class="cls-8" d="m123.49,63.48v-1.86h.31v1.86h-.31Zm0-2.26v-.29h.31v.29h-.31Z"/>
    <path class="cls-8" d="m124.97,61.82c-.39,0-.47.32-.47.72s.09.74.47.74c.24,0,.4-.14.42-.37l.31.02c-.06.36-.3.6-.73.6-.58,0-.74-.4-.8-.97-.1-.91.99-1.28,1.44-.63.04.07.05.14.07.22l-.31.03c-.04-.21-.16-.34-.4-.34Z"/>
    <path class="cls-8" d="m126.03,63.48v-1.86h.31v1.86h-.31Zm0-2.26v-.29h.31v.29h-.31Z"/>
    <path class="cls-8" d="m127.32,61.41c.08-.23.26-.34.37-.53h.35v.05l-.57.48h-.16Zm.23,1.87c.43,0,.52-.3.52-.74s-.08-.74-.5-.74-.52.31-.52.74.1.73.5.74Zm0-1.71c.61,0,.83.36.83.97,0,.62-.26.97-.84.97s-.81-.38-.82-.97c0-.65.27-.97.83-.97Z"/>
    <path class="cls-8" d="m129.68,61.58c.87-.04.52,1.14.59,1.9h-.31v-1.19c0-.3-.08-.48-.38-.47-.71.02-.43,1-.48,1.66h-.31v-1.86s.28,0,.28,0c0,.1,0,.24.02.31.11-.22.28-.34.6-.35Z"/>
    <path class="cls-8" d="m132.33,64.21c-.37-.41-.64-.9-.64-1.66s.27-1.24.64-1.64h.3c-.37.4-.63.9-.63,1.65s.25,1.24.63,1.65h-.3Z"/>
    <path class="cls-8" d="m133.62,63.26c.46,0,.53-.48.53-1s-.04-1-.52-1-.54.47-.54,1,.05,1,.53,1Zm0-2.24c.67,0,.83.54.83,1.24s-.2,1.25-.84,1.25-.84-.55-.84-1.25.17-1.24.85-1.24Z"/>
    <path class="cls-8" d="m135.58,63.26c.46,0,.53-.48.53-1s-.04-1-.52-1-.54.47-.54,1,.05,1,.53,1Zm0-2.24c.67,0,.83.54.83,1.24s-.2,1.25-.84,1.25-.84-.55-.84-1.25.17-1.24.85-1.24Z"/>
    <path class="cls-8" d="m136.89,60.92c.37.4.64.9.64,1.65s-.26,1.24-.64,1.65h-.3c.36-.4.63-.9.63-1.65s-.26-1.24-.63-1.65h.3Z"/>
    <path class="cls-5" d="m67.39,50.88c0-1.59,1.59-1.59,1.59-1.59h11.78c1.58,0,1.58,1.59,1.58,1.59v10.46c0,1.58-1.59,1.58-1.59,1.58h-11.77c-1.59,0-1.59-1.59-1.59-1.59v-10.45Z"/>
    <path class="cls-3" d="m67.39,50.88c0-1.59,1.59-1.59,1.59-1.59h11.78c1.58,0,1.58,1.59,1.58,1.59v10.46c0,1.58-1.59,1.58-1.59,1.58h-11.77c-1.59,0-1.59-1.59-1.59-1.59v-10.45Z"/>
    <polygon class="cls-8" points="74.42 57.15 72.69 54.4 72.71 57.15 72.33 57.15 72.33 55.53 72.33 53.91 72.84 53.91 74.58 56.7 74.55 53.91 74.95 53.91 74.95 55.53 74.95 57.15 74.42 57.15"/>
    <path class="cls-8" d="m76.61,56.89c.58.01.69-.41.69-.98s-.1-.98-.67-.98-.69.42-.69.98.13.97.67.98Zm.01-2.27c.81-.01,1.11.48,1.11,1.29.01.82-.35,1.29-1.12,1.29s-1.08-.51-1.1-1.29c0-.86.37-1.29,1.11-1.29Z"/>
    <path class="cls-10" d="m118.4,113.05c1.3-.9,2.59,0,2.59,0l27.29,18.64c1.3.9,0,1.8,0,1.8l-27.26,18.63c-1.32.9-2.65,0-2.65,0l-27.24-18.63c-1.32-.9-.01-1.79-.01-1.79l27.28-18.64Z"/>
    <path class="cls-1" d="m118.4,113.05c1.3-.9,2.59,0,2.59,0l27.29,18.64c1.3.9,0,1.8,0,1.8l-27.26,18.63c-1.32.9-2.65,0-2.65,0l-27.24-18.63c-1.32-.9-.01-1.79-.01-1.79l27.28-18.64Z"/>
    <path class="cls-8" d="m99.52,128.83v.34h-.33v-.34h.33Zm-.25,2.46c-.49,0-.8-.22-.82-.69-.02-.64.7-.57.76-1.13h.29c0,.63-.74.53-.74,1.12,0,.29.21.41.51.42.31,0,.52-.17.55-.45l.31.02c-.06.45-.35.71-.86.71Z"/>
    <polygon class="cls-8" points="100.66 130.69 100.66 129.48 100.66 128.26 102.49 128.26 102.49 128.4 102.49 128.54 100.98 128.54 100.98 128.92 100.98 129.31 102.4 129.31 102.4 129.44 102.4 129.58 100.98 129.58 100.98 130 100.98 130.43 102.57 130.43 102.57 130.56 102.57 130.69 100.66 130.69"/>
    <polygon class="cls-8" points="102.95 130.69 102.95 129.41 102.95 128.13 103.27 128.13 103.27 129.41 103.27 130.69 102.95 130.69"/>
    <path class="cls-8" d="m105.42,129.04c-.39,0-.47.32-.47.72s.09.74.47.74c.24,0,.4-.14.42-.37l.31.02c-.06.36-.3.6-.73.6-.58,0-.74-.4-.8-.97-.1-.91.99-1.28,1.44-.63.04.07.05.14.07.22l-.31.03c-.04-.21-.16-.34-.4-.34Z"/>
    <path class="cls-8" d="m106.71,130.17c0,.2.12.32.31.32.4-.03.62-.28.59-.73-.42.02-.9-.05-.9.4Zm.91.17c-.15.21-.3.4-.67.39-.35,0-.57-.21-.57-.56,0-.63.62-.62,1.23-.62.03-.34-.09-.53-.4-.53-.24,0-.4.07-.41.3l-.32-.03c.05-.36.32-.51.74-.51s.71.2.71.63v.8c0,.2.07.31.27.26v.2c-.3.09-.6-.02-.58-.34Z"/>
    <path class="cls-8" d="m109.32,129.1c-.76-.16-.52.89-.56,1.6h-.31v-1.86s.28,0,.28,0c0,.12,0,.28.02.38.06-.26.23-.48.57-.4v.28Z"/>
    <path class="cls-8" d="m110.48,129.1c-.76-.16-.52.89-.56,1.6h-.31v-1.86s.28,0,.28,0c0,.12,0,.28.02.38.06-.26.23-.48.57-.4v.28Z"/>
    <path class="cls-8" d="m110.77,130.69v-1.86h.31v1.86h-.31Zm0-2.26v-.29h.31v.29h-.31Z"/>
    <path class="cls-8" d="m111.88,130.23c-.02.24.18.28.37.22v.24c-.32.1-.69.05-.69-.38v-1.24h-.22v-.23h.24l.09-.42h.21v.42h.34v.23h-.34v1.18Z"/>
    <path class="cls-8" d="m113.26,130.5c.43,0,.52-.3.52-.74s-.08-.74-.5-.74-.52.31-.52.74.1.73.5.74Zm0-1.71c.61,0,.83.36.83.97,0,.62-.26.97-.84.97s-.81-.38-.82-.97c0-.65.27-.97.83-.97Z"/>
    <polygon class="cls-8" points="115.46 130.69 115.46 129.41 115.46 128.13 115.78 128.13 115.78 129.41 115.78 130.69 115.46 130.69"/>
    <polygon class="cls-8" points="116.24 130.69 116.24 129.41 116.24 128.13 116.55 128.13 116.55 129.41 116.55 130.69 116.24 130.69"/>
    <path class="cls-8" d="m118.27,129.59c.06-.59-.74-.75-.95-.27-.03.07-.06.17-.06.27h1.01Zm-.51-.79c.62,0,.84.41.82,1.04h-1.32c0,.39.14.66.52.67.25,0,.42-.12.48-.28l.27.08c-.11.27-.36.44-.75.44-.57,0-.86-.36-.85-.98,0-.6.25-.96.83-.96Z"/>
    <path class="cls-8" d="m119.66,130.48c.35,0,.49-.31.49-.72s-.14-.74-.49-.74c-.38,0-.45.33-.45.74s.06.72.45.72Zm.81-1.65c-.1,1.23.4,2.87-1.08,2.56-.23-.06-.37-.2-.43-.42l.31-.05c.15.46.98.31.87-.27v-.29c-.11.21-.28.35-.6.35-.53,0-.67-.4-.67-.94s.16-.95.7-.96c.28,0,.47.16.58.34,0-.1,0-.23.02-.31h.29Z"/>
    <path class="cls-8" d="m121.67,130.5c.43,0,.52-.3.52-.74s-.08-.74-.5-.74-.52.31-.52.74.1.73.5.74Zm0-1.71c.61,0,.83.36.83.97,0,.62-.26.97-.84.97s-.81-.38-.82-.97c0-.65.27-.97.83-.97Z"/>
    <path class="cls-8" d="m124.11,130.17c0,.2.12.32.31.32.4-.03.62-.28.59-.73-.42.02-.9-.05-.9.4Zm.91.17c-.15.21-.3.4-.67.39-.35,0-.57-.21-.57-.56,0-.63.62-.62,1.23-.62.03-.34-.09-.53-.4-.53-.24,0-.4.07-.41.3l-.32-.03c.05-.36.32-.51.74-.51s.71.2.71.63v.8c0,.2.07.31.27.26v.2c-.3.09-.6-.02-.58-.34Z"/>
    <polygon class="cls-8" points="125.84 130.69 125.84 129.41 125.84 128.13 126.15 128.13 126.15 129.41 126.15 130.69 125.84 130.69"/>
    <polygon class="cls-8" points="127.58 130.69 127.58 129.41 127.58 128.13 127.9 128.13 127.9 129.41 127.9 130.69 127.58 130.69"/>
    <path class="cls-8" d="m128.36,130.69v-1.86h.31v1.86h-.31Zm0-2.26v-.29h.31v.29h-.31Z"/>
    <path class="cls-8" d="m130.95,129.04c-.66.03-.37,1.03-.43,1.66h-.3v-1.19c0-.28-.05-.49-.34-.47-.65.04-.37,1.02-.43,1.66h-.3v-1.86s.28,0,.28,0c0,.1,0,.24.02.31.1-.43.97-.49,1.05,0,.11-.21.26-.34.57-.35.83-.02.46,1.17.54,1.9h-.3v-1.19c0-.28-.05-.48-.34-.47Z"/>
    <path class="cls-8" d="m132.06,130.69v-1.86h.31v1.86h-.31Zm0-2.26v-.29h.31v.29h-.31Z"/>
    <path class="cls-8" d="m133.18,130.23c-.02.24.18.28.37.22v.24c-.32.1-.69.05-.69-.38v-1.24h-.22v-.23h.24l.09-.42h.21v.42h.34v.23h-.34v1.18Z"/>
    <path class="cls-8" d="m135.07,129.59c.06-.59-.74-.75-.95-.27-.03.07-.06.17-.06.27h1.01Zm-.51-.79c.62,0,.84.41.82,1.04h-1.32c0,.39.14.66.52.67.25,0,.42-.12.48-.28l.27.08c-.11.27-.36.44-.75.44-.57,0-.86-.36-.85-.98,0-.6.25-.96.83-.96Z"/>
    <path class="cls-8" d="m137.45,129.03c-.39,0-.45.33-.45.74s.06.73.44.73c.41,0,.5-.31.5-.74s-.09-.73-.49-.72Zm-.09-.24c.3,0,.47.13.59.32v-.98s.3,0,.3,0v2.56s-.28,0-.28,0c-.02-.1,0-.23-.03-.3-.1.23-.27.34-.58.34-.52,0-.68-.38-.69-.96,0-.65.23-.98.69-.98Z"/>
    <path class="cls-8" d="m139.98,129.59c.06-.59-.74-.75-.95-.27-.03.07-.06.17-.06.27h1.01Zm-.51-.79c.62,0,.84.41.82,1.04h-1.32c0,.39.14.66.52.67.25,0,.42-.12.48-.28l.27.08c-.11.27-.36.44-.75.44-.57,0-.86-.36-.85-.98,0-.6.25-.96.83-.96Z"/>
    <polygon class="cls-8" points="140.69 130.69 140.69 129.41 140.69 128.13 141 128.13 141 129.41 141 130.69 140.69 130.69"/>
    <path class="cls-8" d="m99.85,133.27c-.66.03-.37,1.03-.43,1.66h-.3v-1.19c0-.28-.05-.49-.34-.47-.65.04-.37,1.02-.43,1.66h-.3v-1.86s.28,0,.28,0c0,.1,0,.24.02.31.1-.43.97-.49,1.05,0,.11-.21.26-.34.57-.35.83-.02.46,1.17.54,1.9h-.3v-1.19c0-.28-.05-.48-.34-.47Z"/>
    <path class="cls-8" d="m101.19,134.41c0,.2.12.32.31.32.4-.03.62-.28.59-.73-.42.02-.9-.05-.9.4Zm.91.17c-.15.21-.3.4-.67.39-.35,0-.57-.21-.57-.56,0-.63.62-.62,1.23-.62.03-.34-.09-.53-.4-.53-.24,0-.4.07-.41.3l-.32-.03c.05-.36.32-.51.74-.51s.71.2.71.63v.8c0,.2.07.31.27.26v.2c-.3.09-.6-.02-.58-.34Z"/>
    <path class="cls-8" d="m103.73,134.73c.39,0,.44-.33.44-.74s-.06-.72-.44-.73c-.41,0-.5.31-.5.74s.1.72.5.72Zm.08-1.71c.54,0,.69.4.69.96s-.16.96-.69.98c-.3,0-.48-.13-.59-.33v1.03s-.3,0-.3,0v-2.6s.29,0,.29,0l.02.29c.1-.21.27-.33.58-.33Z"/>
    <path class="cls-8" d="m105.11,134.41c0,.2.12.32.31.32.4-.03.62-.28.59-.73-.42.02-.9-.05-.9.4Zm.91.17c-.15.21-.3.4-.67.39-.35,0-.57-.21-.57-.56,0-.63.62-.62,1.23-.62.03-.34-.09-.53-.4-.53-.24,0-.4.07-.41.3l-.32-.03c.05-.36.32-.51.74-.51s.71.2.71.63v.8c0,.2.07.31.27.26v.2c-.3.09-.6-.02-.58-.34Z"/>
    <path class="cls-8" d="m107.35,134.93v-.34h.33v.34h-.33Zm.25-2.46c.82,0,1.09.95.44,1.3-.19.1-.36.24-.38.51h-.3c0-.62.75-.54.75-1.12,0-.29-.21-.41-.51-.42-.31,0-.52.17-.55.45l-.31-.02c.07-.44.33-.71.86-.71Z"/>
    <path class="cls-8" d="m111.38,135.66c-.37-.41-.64-.9-.64-1.66s.27-1.24.64-1.64h.3c-.37.4-.63.9-.63,1.65s.25,1.24.63,1.65h-.3Z"/>
    <path class="cls-8" d="m112.81,133.33c-.76-.16-.52.89-.56,1.6h-.31v-1.86s.28,0,.28,0c0,.12,0,.28.02.38.06-.26.23-.48.57-.4v.28Z"/>
    <path class="cls-8" d="m113.33,134.41c0,.2.12.32.31.32.4-.03.62-.28.59-.73-.42.02-.9-.05-.9.4Zm.91.17c-.15.21-.3.4-.67.39-.35,0-.57-.21-.57-.56,0-.63.62-.62,1.23-.62.03-.34-.09-.53-.4-.53-.24,0-.4.07-.41.3l-.32-.03c.05-.36.32-.51.74-.51s.71.2.71.63v.8c0,.2.07.31.27.26v.2c-.3.09-.6-.02-.58-.34Z"/>
    <path class="cls-8" d="m115.96,133.03c.87-.04.52,1.14.59,1.9h-.31v-1.19c0-.3-.08-.48-.38-.47-.71.02-.43,1-.48,1.66h-.31v-1.86s.28,0,.28,0c0,.1,0,.24.02.31.11-.22.28-.34.6-.35Z"/>
    <path class="cls-8" d="m117.7,134.71c.35,0,.49-.31.49-.72s-.14-.74-.49-.74c-.38,0-.45.33-.45.74s.06.72.45.72Zm.81-1.65c-.1,1.23.4,2.87-1.08,2.56-.23-.06-.37-.2-.43-.42l.31-.05c.15.46.98.31.87-.27v-.29c-.11.21-.28.35-.6.35-.53,0-.67-.4-.67-.94s.16-.95.7-.96c.28,0,.47.16.58.34,0-.1,0-.23.02-.31h.29Z"/>
    <path class="cls-8" d="m119.71,134.73c.43,0,.52-.3.52-.74s-.08-.74-.5-.74-.52.31-.52.74.1.73.5.74Zm0-1.71c.61,0,.83.36.83.97,0,.62-.26.97-.84.97s-.81-.38-.82-.97c0-.65.27-.97.83-.97Z"/>
    <path class="cls-8" d="m122.64,134.71c.46,0,.53-.48.53-1s-.04-1-.52-1-.54.47-.54,1,.05,1,.53,1Zm0-2.24c.67,0,.83.54.83,1.24s-.2,1.25-.84,1.25-.84-.55-.84-1.25.17-1.24.85-1.24Z"/>
    <path class="cls-8" d="m124.6,134.71c.46,0,.53-.48.53-1s-.04-1-.52-1-.54.47-.54,1,.05,1,.53,1Zm0-2.24c.67,0,.83.54.83,1.24s-.2,1.25-.84,1.25-.84-.55-.84-1.25.17-1.24.85-1.24Z"/>
    <path class="cls-8" d="m126.56,134.71c.46,0,.53-.48.53-1s-.04-1-.52-1-.54.47-.54,1,.05,1,.53,1Zm0-2.24c.67,0,.83.54.83,1.24s-.2,1.25-.84,1.25-.84-.55-.84-1.25.17-1.24.85-1.24Z"/>
    <polygon class="cls-8" points="127.8 134.93 127.8 134.8 127.8 134.66 128.43 134.66 128.43 133.73 128.43 132.8 127.88 133.18 127.88 133.04 127.88 132.9 128.45 132.5 128.73 132.5 128.73 133.58 128.73 134.66 129.33 134.66 129.33 134.8 129.33 134.93 127.8 134.93"/>
    <polygon class="cls-8" points="130.65 134.12 130.65 133.99 130.65 133.85 131.52 133.85 131.52 133.99 131.52 134.12 130.65 134.12"/>
    <polygon class="cls-8" points="132.91 134.93 132.91 134.8 132.91 134.66 133.53 134.66 133.53 133.73 133.53 132.8 132.98 133.18 132.98 133.04 132.98 132.9 133.55 132.5 133.84 132.5 133.84 133.58 133.84 134.66 134.43 134.66 134.43 134.8 134.43 134.93 132.91 134.93"/>
    <path class="cls-8" d="m135.58,134.71c.46,0,.53-.48.53-1s-.04-1-.52-1-.54.47-.54,1,.05,1,.53,1Zm0-2.24c.67,0,.83.54.83,1.24s-.2,1.25-.84,1.25-.84-.55-.84-1.25.17-1.24.85-1.24Z"/>
    <path class="cls-8" d="m137.54,134.71c.46,0,.53-.48.53-1s-.04-1-.52-1-.54.47-.54,1,.05,1,.53,1Zm0-2.24c.67,0,.83.54.83,1.24s-.2,1.25-.84,1.25-.84-.55-.84-1.25.17-1.24.85-1.24Z"/>
    <path class="cls-8" d="m139.5,134.71c.46,0,.53-.48.53-1s-.04-1-.52-1-.54.47-.54,1,.05,1,.53,1Zm0-2.24c.67,0,.83.54.83,1.24s-.2,1.25-.84,1.25-.84-.55-.84-1.25.17-1.24.85-1.24Z"/>
    <path class="cls-8" d="m140.81,132.37c.37.4.64.9.64,1.65s-.26,1.24-.64,1.65h-.3c.36-.4.63-.9.63-1.65s-.26-1.24-.63-1.65h.3Z"/>
    <path class="cls-1" d="m30.02,83.14v14.64-.03.03-.03,10.46"/>
    <polygon class="cls-8" points="30.02 83.01 30.15 82.98 30.15 83.14 29.88 83.14 29.88 82.98 30.02 83.01"/>
    <polygon class="cls-2" points="30.02 83.01 30.15 82.98 30.15 83.14 29.88 83.14 29.88 82.98 30.02 83.01"/>
    <polygon class="cls-8" points="30.02 112.1 28.8 108.34 31.26 108.34 30.02 112.1"/>
    <polygon class="cls-1" points="30.02 112.1 28.8 108.34 31.26 108.34 30.02 112.1"/>
    <line class="cls-1" x1="59.13" y1="132.48" x2="86.19" y2="132.48"/>
    <line class="cls-1" x1="59.13" y1="132.48" x2="59" y2="132.48"/>
    <polygon class="cls-8" points="90.1 132.48 86.32 133.81 86.32 131.4 90.1 132.48"/>
    <polygon class="cls-1" points="90.1 132.48 86.32 133.81 86.32 131.4 90.1 132.48"/>
    <path class="cls-5" d="m67.39,120.57c0-1.59,1.59-1.59,1.59-1.59h11.78c1.58,0,1.58,1.59,1.58,1.59v10.46c0,1.58-1.59,1.58-1.59,1.58h-11.77c-1.59,0-1.59-1.59-1.59-1.59v-10.45Z"/>
    <path class="cls-3" d="m67.39,120.57c0-1.59,1.59-1.59,1.59-1.59h11.78c1.58,0,1.58,1.59,1.58,1.59v10.46c0,1.58-1.59,1.58-1.59,1.58h-11.77c-1.59,0-1.59-1.59-1.59-1.59v-10.45Z"/>
    <path class="cls-8" d="m75.27,124.38c-.07-.63-1.61-.71-1.62.03.18.98,2.07.18,2.13,1.56.04,1.02-1.58,1.14-2.29.72-.22-.13-.37-.34-.43-.6l.43-.09c.07.73,1.84.82,1.84-.01,0-1.02-2.03-.18-2.12-1.54-.07-1.07,1.9-1.1,2.34-.44.07.09.1.21.14.33l-.43.07Z"/>
    <path class="cls-8" d="m76.3,126.85v-2.48h.42v2.48h-.42Zm0-3.02v-.39h.42v.39h-.42Z"/>
    <path class="cls-1" d="m119.51,112.42v-21.23.03-17.02"/>
    <rect class="cls-8" x="119.51" y="112.39" width=".26" height=".16"/>
    <rect class="cls-2" x="119.51" y="112.39" width=".26" height=".16"/>
    <polygon class="cls-8" points="119.51 70.3 120.84 74.06 118.45 74.06 119.51 70.3"/>
    <polygon class="cls-1" points="119.51 70.3 120.84 74.06 118.45 74.06 119.51 70.3"/>
    <path class="cls-5" d="m119.51,91.06c0-1.59,1.59-1.59,1.59-1.59h11.78c1.58,0,1.58,1.59,1.58,1.59v10.46c0,1.58-1.59,1.58-1.59,1.58h-11.77c-1.59,0-1.59-1.59-1.59-1.59v-10.45Z"/>
    <path class="cls-3" d="m119.51,91.06c0-1.59,1.59-1.59,1.59-1.59h11.78c1.58,0,1.58,1.59,1.58,1.59v10.46c0,1.58-1.59,1.58-1.59,1.58h-11.77c-1.59,0-1.59-1.59-1.59-1.59v-10.45Z"/>
    <path class="cls-8" d="m127.39,94.87c-.07-.63-1.61-.71-1.62.03.18.98,2.07.18,2.13,1.56.04,1.02-1.58,1.14-2.29.72-.22-.13-.37-.34-.43-.6l.43-.09c.07.73,1.84.82,1.84-.01,0-1.02-2.03-.18-2.12-1.54-.07-1.07,1.9-1.1,2.34-.44.07.09.1.21.14.33l-.43.07Z"/>
    <path class="cls-8" d="m128.42,97.34v-2.48h.42v2.48h-.42Zm0-3.02v-.39h.42v.39h-.42Z"/>
    <line class="cls-1" x1="148.89" y1="132.48" x2="176.69" y2="132.48"/>
    <polygon class="cls-2" points="148.89 132.75 148.89 132.75 148.89 132.48 148.89 132.75"/>
    <polygon class="cls-8" points="180.66 132.48 176.95 133.81 176.95 131.4 180.66 132.48"/>
    <polygon class="cls-1" points="180.66 132.48 176.95 133.81 176.95 131.4 180.66 132.48"/>
    <path class="cls-5" d="m157.89,120.57c0-1.59,1.59-1.59,1.59-1.59h11.78c1.58,0,1.58,1.59,1.58,1.59v10.46c0,1.58-1.59,1.58-1.59,1.58h-11.77c-1.59,0-1.59-1.59-1.59-1.59v-10.45Z"/>
    <path class="cls-3" d="m157.89,120.57c0-1.59,1.59-1.59,1.59-1.59h11.78c1.58,0,1.58,1.59,1.58,1.59v10.46c0,1.58-1.59,1.58-1.59,1.58h-11.77c-1.59,0-1.59-1.59-1.59-1.59v-10.45Z"/>
    <polygon class="cls-8" points="164.92 126.85 163.19 124.09 163.21 126.85 162.83 126.85 162.83 125.23 162.83 123.61 163.34 123.61 165.08 126.39 165.05 123.61 165.46 123.61 165.46 125.23 165.46 126.85 164.92 126.85"/>
    <path class="cls-8" d="m167.12,126.59c.58.01.69-.41.69-.98s-.1-.98-.67-.98-.69.42-.69.98.13.97.67.98Zm.01-2.27c.81-.01,1.11.48,1.11,1.29.01.82-.35,1.29-1.12,1.29s-1.08-.51-1.1-1.29c0-.86.37-1.29,1.11-1.29Z"/>
    <path class="cls-4" d="m28.72,208.82c1.3-.9,2.59,0,2.59,0l27.29,18.64c1.3.9,0,1.8,0,1.8l-27.26,18.63c-1.32.9-2.65,0-2.65,0L1.46,229.26c-1.32-.9-.01-1.79-.01-1.79l27.28-18.64Z"/>
    <path class="cls-1" d="m28.72,208.82c1.3-.9,2.59,0,2.59,0l27.29,18.64c1.3.9,0,1.8,0,1.8l-27.26,18.63c-1.32.9-2.65,0-2.65,0L1.46,229.26c-1.32-.9-.01-1.79-.01-1.79l27.28-18.64Z"/>
    <path class="cls-8" d="m13.62,224.6v.34h-.33v-.34h.33Zm-.25,2.46c-.49,0-.8-.22-.82-.69-.02-.64.7-.57.76-1.13h.29c0,.63-.74.53-.74,1.12,0,.29.21.41.51.42.31,0,.52-.17.55-.45l.31.02c-.06.45-.35.71-.86.71Z"/>
    <polygon class="cls-8" points="14.75 226.46 14.75 225.25 14.75 224.03 16.59 224.03 16.59 224.17 16.59 224.31 15.08 224.31 15.08 224.69 15.08 225.08 16.49 225.08 16.49 225.21 16.49 225.34 15.08 225.34 15.08 225.77 15.08 226.2 16.67 226.2 16.67 226.33 16.67 226.46 14.75 226.46"/>
    <path class="cls-8" d="m18.14,225.06c-.03-.33-.84-.37-.85,0,.15.52,1.13.12,1.17.88s-1.47.73-1.54.08l.27-.05c.04.35.95.44.96,0-.1-.55-1.11-.15-1.16-.88-.04-.56.8-.62,1.2-.41.12.07.21.19.24.34l-.28.04Z"/>
    <path class="cls-8" d="m21.05,225.35c.06-.59-.74-.75-.95-.27-.03.07-.06.17-.06.27h1.01Zm-.51-.79c.62,0,.84.41.82,1.04h-1.32c0,.39.14.66.52.67.25,0,.42-.12.48-.28l.27.08c-.11.27-.36.44-.75.44-.57,0-.86-.36-.85-.98,0-.6.25-.96.83-.96Z"/>
    <polygon class="cls-8" points="21.75 226.46 21.75 225.18 21.75 223.9 22.07 223.9 22.07 225.18 22.07 226.46 21.75 226.46"/>
    <path class="cls-8" d="m24.32,226.27c.39,0,.44-.33.44-.74s-.05-.74-.44-.73c-.41,0-.5.31-.5.74s.1.72.5.72Zm.08-1.71c.52,0,.68.38.69.96,0,.65-.23.98-.69.98-.3,0-.48-.11-.58-.33l-.02.29h-.3v-2.56h.32v.99c.1-.23.27-.33.58-.33Z"/>
    <path class="cls-8" d="m26.21,226.27c.43,0,.52-.3.52-.74s-.08-.74-.5-.74-.52.31-.52.74.1.73.5.74Zm0-1.71c.61,0,.83.36.83.97,0,.62-.26.97-.84.97s-.81-.38-.82-.97c0-.65.27-.97.83-.97Z"/>
    <path class="cls-8" d="m27.77,226c-.02.24.18.28.37.22v.24c-.32.1-.69.05-.69-.38v-1.24h-.22v-.23h.24l.09-.42h.21v.42h.34v.23h-.34v1.18Z"/>
    <path class="cls-8" d="m29.15,226.27c.43,0,.52-.3.52-.74s-.08-.74-.5-.74-.52.31-.52.74.1.73.5.74Zm0-1.71c.61,0,.83.36.83.97,0,.62-.26.97-.84.97s-.81-.38-.82-.97c0-.65.27-.97.83-.97Z"/>
    <path class="cls-8" d="m31.28,224.56c.87-.04.52,1.14.59,1.9h-.31v-1.19c0-.3-.08-.48-.38-.47-.71.02-.43,1-.48,1.66h-.31v-1.86s.28,0,.28,0c0,.1,0,.24.02.31.11-.22.28-.34.6-.35Z"/>
    <path class="cls-8" d="m33.98,224.8c-.39,0-.45.33-.45.74s.06.73.44.73c.41,0,.5-.31.5-.74s-.09-.73-.49-.72Zm-.09-.24c.3,0,.47.13.59.32v-.98s.3,0,.3,0v2.56s-.28,0-.28,0c-.02-.1,0-.23-.03-.3-.1.23-.27.34-.58.34-.52,0-.68-.38-.69-.96,0-.65.23-.98.69-.98Z"/>
    <path class="cls-8" d="m36.51,225.35c.06-.59-.74-.75-.95-.27-.03.07-.06.17-.06.27h1.01Zm-.51-.79c.62,0,.84.41.82,1.04h-1.32c0,.39.14.66.52.67.25,0,.42-.12.48-.28l.27.08c-.11.27-.36.44-.75.44-.57,0-.86-.36-.85-.98,0-.6.25-.96.83-.96Z"/>
    <path class="cls-8" d="m38.1,224.86c-.76-.16-.52.89-.56,1.6h-.31v-1.86s.28,0,.28,0c0,.12,0,.28.02.38.06-.26.23-.48.57-.4v.28Z"/>
    <path class="cls-8" d="m39.64,225.35c.06-.59-.74-.75-.95-.27-.03.07-.06.17-.06.27h1.01Zm-.51-.79c.62,0,.84.41.82,1.04h-1.32c0,.39.14.66.52.67.25,0,.42-.12.48-.28l.27.08c-.11.27-.36.44-.75.44-.57,0-.86-.36-.85-.98,0-.6.25-.96.83-.96Z"/>
    <path class="cls-8" d="m41.05,224.8c-.39,0-.47.32-.47.72s.09.74.47.74c.24,0,.4-.14.42-.37l.31.02c-.06.36-.3.6-.73.6-.58,0-.74-.4-.8-.97-.1-.91.99-1.28,1.44-.63.04.07.05.14.07.22l-.31.03c-.04-.21-.16-.34-.4-.34Z"/>
    <path class="cls-8" d="m42.91,224.8c-.71,0-.43,1-.48,1.66h-.31v-2.56h.31v1.01c.11-.21.26-.35.59-.35.87,0,.52,1.14.59,1.9h-.31v-1.19c.02-.31-.08-.48-.38-.47Z"/>
    <path class="cls-8" d="m44.8,226.27c.43,0,.52-.3.52-.74s-.08-.74-.5-.74-.52.31-.52.74.1.73.5.74Zm0-1.71c.61,0,.83.36.83.97,0,.62-.26.97-.84.97s-.81-.38-.82-.97c0-.65.27-.97.83-.97Z"/>
    <path class="cls-8" d="m46.55,226.46v-.34h.33v.34h-.33Zm.25-2.46c.82,0,1.09.95.44,1.3-.19.1-.36.24-.38.51h-.3c0-.62.75-.54.75-1.12,0-.29-.21-.41-.51-.42-.31,0-.52.17-.55.45l-.31-.02c.07-.44.33-.71.86-.71Z"/>
    <path class="cls-8" d="m12.89,231.43c-.37-.41-.64-.9-.64-1.66s.27-1.24.64-1.64h.3c-.37.4-.63.9-.63,1.65s.25,1.24.63,1.65h-.3Z"/>
    <path class="cls-8" d="m14.53,229.29c-.03-.33-.84-.37-.85,0,.15.52,1.13.12,1.17.88s-1.47.73-1.54.08l.27-.05c.04.35.95.44.96,0-.1-.55-1.11-.15-1.16-.88-.04-.56.8-.62,1.2-.41.12.07.21.19.24.34l-.28.04Z"/>
    <path class="cls-8" d="m16.46,229.59c.06-.59-.74-.75-.95-.27-.03.07-.06.17-.06.27h1.01Zm-.51-.79c.62,0,.84.41.82,1.04h-1.32c0,.39.14.66.52.67.25,0,.42-.12.48-.28l.27.08c-.11.27-.36.44-.75.44-.57,0-.86-.36-.85-.98,0-.6.25-.96.83-.96Z"/>
    <path class="cls-8" d="m18.55,228.17c-.03.23-.09.47-.35.46-.25,0-.64-.43-.73,0h-.16c.04-.23.08-.47.35-.46.27,0,.63.43.73,0h.16Zm-.46.63c.87-.04.52,1.14.59,1.9h-.31v-1.19c0-.3-.08-.48-.38-.47-.71.02-.43,1-.48,1.66h-.31v-1.86s.28,0,.28,0c0,.1,0,.24.02.31.11-.22.28-.34.6-.35Z"/>
    <path class="cls-8" d="m19.36,230.18c0,.2.12.32.31.32.4-.03.62-.28.59-.73-.42.02-.9-.05-.9.4Zm.91.17c-.15.21-.3.4-.67.39-.35,0-.57-.21-.57-.56,0-.63.62-.62,1.23-.62.03-.34-.09-.53-.4-.53-.24,0-.4.07-.41.3l-.32-.03c.05-.36.32-.51.74-.51s.71.2.71.63v.8c0,.2.07.31.27.26v.2c-.3.09-.6-.02-.58-.34Z"/>
    <polygon class="cls-8" points="21.09 230.7 21.09 229.42 21.09 228.14 21.4 228.14 21.4 229.42 21.4 230.7 21.09 230.7"/>
    <path class="cls-8" d="m23.23,229.43c.59-.02,1.34.13,1.34-.46s-.78-.41-1.34-.44v.9Zm1.67-.47c0,.4-.23.63-.59.69l.69,1.05h-.37l-.64-1.01h-.75v1.01h-.32v-2.43c.86.03,2.01-.21,1.99.7Z"/>
    <path class="cls-8" d="m25.38,230.7v-1.86h.31v1.86h-.31Zm0-2.26v-.29h.31v.29h-.31Z"/>
    <path class="cls-8" d="m26.84,230.48c.35,0,.49-.31.49-.72s-.14-.74-.49-.74c-.38,0-.45.33-.45.74s.06.72.45.72Zm.81-1.65c-.1,1.23.4,2.87-1.08,2.56-.23-.06-.37-.2-.43-.42l.31-.05c.15.46.98.31.87-.27v-.29c-.11.21-.28.35-.6.35-.53,0-.67-.4-.67-.94s.16-.95.7-.96c.28,0,.47.16.58.34,0-.1,0-.23.02-.31h.29Z"/>
    <path class="cls-8" d="m28.92,229.04c-.71,0-.43,1-.48,1.66h-.31v-2.56h.31v1.01c.11-.21.26-.35.59-.35.87,0,.52,1.14.59,1.9h-.31v-1.19c.02-.31-.08-.48-.38-.47Z"/>
    <path class="cls-8" d="m30.42,230.24c-.02.24.18.28.37.22v.24c-.32.1-.69.05-.69-.38v-1.24h-.22v-.23h.24l.09-.42h.21v.42h.34v.23h-.34v1.18Z"/>
    <path class="cls-8" d="m31.8,230.48c.46,0,.53-.48.53-1s-.04-1-.52-1-.54.47-.54,1,.05,1,.53,1Zm0-2.24c.67,0,.83.54.83,1.24s-.2,1.25-.84,1.25-.84-.55-.84-1.25.17-1.24.85-1.24Z"/>
    <path class="cls-8" d="m34.72,230.5c.43,0,.52-.3.52-.74s-.08-.74-.5-.74-.52.31-.52.74.1.73.5.74Zm0-1.71c.61,0,.83.36.83.97,0,.62-.26.97-.84.97s-.81-.38-.82-.97c0-.65.27-.97.83-.97Z"/>
    <path class="cls-8" d="m37.3,229.43c.59-.02,1.34.13,1.34-.46s-.78-.41-1.34-.44v.9Zm1.67-.47c0,.4-.23.63-.59.69l.69,1.05h-.37l-.64-1.01h-.75v1.01h-.32v-2.43c.86.03,2.01-.21,1.99.7Z"/>
    <path class="cls-8" d="m39.46,230.7v-1.86h.31v1.86h-.31Zm0-2.26v-.29h.31v.29h-.31Z"/>
    <path class="cls-8" d="m40.92,230.48c.35,0,.49-.31.49-.72s-.14-.74-.49-.74c-.38,0-.45.33-.45.74s.06.72.45.72Zm.81-1.65c-.1,1.23.4,2.87-1.08,2.56-.23-.06-.37-.2-.43-.42l.31-.05c.15.46.98.31.87-.27v-.29c-.11.21-.28.35-.6.35-.53,0-.67-.4-.67-.94s.16-.95.7-.96c.28,0,.47.16.58.34,0-.1,0-.23.02-.31h.29Z"/>
    <path class="cls-8" d="m43,229.04c-.71,0-.43,1-.48,1.66h-.31v-2.56h.31v1.01c.11-.21.26-.35.59-.35.87,0,.52,1.14.59,1.9h-.31v-1.19c.02-.31-.08-.48-.38-.47Z"/>
    <path class="cls-8" d="m44.5,230.24c-.02.24.18.28.37.22v.24c-.32.1-.69.05-.69-.38v-1.24h-.22v-.23h.24l.09-.42h.21v.42h.34v.23h-.34v1.18Z"/>
    <polygon class="cls-8" points="45.17 230.7 45.17 230.56 45.17 230.43 45.79 230.43 45.79 229.5 45.79 228.57 45.24 228.95 45.24 228.81 45.24 228.67 45.81 228.27 46.1 228.27 46.1 229.35 46.1 230.43 46.7 230.43 46.7 230.56 46.7 230.7 45.17 230.7"/>
    <path class="cls-8" d="m47.19,228.14c.37.4.64.9.64,1.65s-.26,1.24-.64,1.65h-.3c.36-.4.63-.9.63-1.65s-.26-1.24-.63-1.65h.3Z"/>
    <path class="cls-10" d="m118.4,208.82c1.3-.9,2.59,0,2.59,0l27.29,18.64c1.3.9,0,1.8,0,1.8l-27.26,18.63c-1.32.9-2.65,0-2.65,0l-27.24-18.63c-1.32-.9-.01-1.79-.01-1.79l27.28-18.64Z"/>
    <path class="cls-1" d="m118.4,208.82c1.3-.9,2.59,0,2.59,0l27.29,18.64c1.3.9,0,1.8,0,1.8l-27.26,18.63c-1.32.9-2.65,0-2.65,0l-27.24-18.63c-1.32-.9-.01-1.79-.01-1.79l27.28-18.64Z"/>
    <path class="cls-8" d="m99.52,224.6v.34h-.33v-.34h.33Zm-.25,2.46c-.49,0-.8-.22-.82-.69-.02-.64.7-.57.76-1.13h.29c0,.63-.74.53-.74,1.12,0,.29.21.41.51.42.31,0,.52-.17.55-.45l.31.02c-.06.45-.35.71-.86.71Z"/>
    <polygon class="cls-8" points="100.66 226.46 100.66 225.25 100.66 224.03 102.49 224.03 102.49 224.17 102.49 224.31 100.98 224.31 100.98 224.69 100.98 225.08 102.4 225.08 102.4 225.21 102.4 225.34 100.98 225.34 100.98 225.77 100.98 226.2 102.57 226.2 102.57 226.33 102.57 226.46 100.66 226.46"/>
    <polygon class="cls-8" points="102.95 226.46 102.95 225.18 102.95 223.9 103.27 223.9 103.27 225.18 103.27 226.46 102.95 226.46"/>
    <path class="cls-8" d="m105.42,224.8c-.39,0-.47.32-.47.72s.09.74.47.74c.24,0,.4-.14.42-.37l.31.02c-.06.36-.3.6-.73.6-.58,0-.74-.4-.8-.97-.1-.91.99-1.28,1.44-.63.04.07.05.14.07.22l-.31.03c-.04-.21-.16-.34-.4-.34Z"/>
    <path class="cls-8" d="m106.71,225.94c0,.2.12.32.31.32.4-.03.62-.28.59-.73-.42.02-.9-.05-.9.4Zm.91.17c-.15.21-.3.4-.67.39-.35,0-.57-.21-.57-.56,0-.63.62-.62,1.23-.62.03-.34-.09-.53-.4-.53-.24,0-.4.07-.41.3l-.32-.03c.05-.36.32-.51.74-.51s.71.2.71.63v.8c0,.2.07.31.27.26v.2c-.3.09-.6-.02-.58-.34Z"/>
    <path class="cls-8" d="m109.32,224.86c-.76-.16-.52.89-.56,1.6h-.31v-1.86s.28,0,.28,0c0,.12,0,.28.02.38.06-.26.23-.48.57-.4v.28Z"/>
    <path class="cls-8" d="m110.48,224.86c-.76-.16-.52.89-.56,1.6h-.31v-1.86s.28,0,.28,0c0,.12,0,.28.02.38.06-.26.23-.48.57-.4v.28Z"/>
    <path class="cls-8" d="m110.77,226.46v-1.86h.31v1.86h-.31Zm0-2.26v-.29h.31v.29h-.31Z"/>
    <path class="cls-8" d="m111.88,226c-.02.24.18.28.37.22v.24c-.32.1-.69.05-.69-.38v-1.24h-.22v-.23h.24l.09-.42h.21v.42h.34v.23h-.34v1.18Z"/>
    <path class="cls-8" d="m113.26,226.27c.43,0,.52-.3.52-.74s-.08-.74-.5-.74-.52.31-.52.74.1.73.5.74Zm0-1.71c.61,0,.83.36.83.97,0,.62-.26.97-.84.97s-.81-.38-.82-.97c0-.65.27-.97.83-.97Z"/>
    <polygon class="cls-8" points="115.46 226.46 115.46 225.18 115.46 223.9 115.78 223.9 115.78 225.18 115.78 226.46 115.46 226.46"/>
    <polygon class="cls-8" points="116.24 226.46 116.24 225.18 116.24 223.9 116.55 223.9 116.55 225.18 116.55 226.46 116.24 226.46"/>
    <path class="cls-8" d="m118.27,225.35c.06-.59-.74-.75-.95-.27-.03.07-.06.17-.06.27h1.01Zm-.51-.79c.62,0,.84.41.82,1.04h-1.32c0,.39.14.66.52.67.25,0,.42-.12.48-.28l.27.08c-.11.27-.36.44-.75.44-.57,0-.86-.36-.85-.98,0-.6.25-.96.83-.96Z"/>
    <path class="cls-8" d="m119.66,226.25c.35,0,.49-.31.49-.72s-.14-.74-.49-.74c-.38,0-.45.33-.45.74s.06.72.45.72Zm.81-1.65c-.1,1.23.4,2.87-1.08,2.56-.23-.06-.37-.2-.43-.42l.31-.05c.15.46.98.31.87-.27v-.29c-.11.21-.28.35-.6.35-.53,0-.67-.4-.67-.94s.16-.95.7-.96c.28,0,.47.16.58.34,0-.1,0-.23.02-.31h.29Z"/>
    <path class="cls-8" d="m121.67,226.27c.43,0,.52-.3.52-.74s-.08-.74-.5-.74-.52.31-.52.74.1.73.5.74Zm0-1.71c.61,0,.83.36.83.97,0,.62-.26.97-.84.97s-.81-.38-.82-.97c0-.65.27-.97.83-.97Z"/>
    <path class="cls-8" d="m124.11,225.94c0,.2.12.32.31.32.4-.03.62-.28.59-.73-.42.02-.9-.05-.9.4Zm.91.17c-.15.21-.3.4-.67.39-.35,0-.57-.21-.57-.56,0-.63.62-.62,1.23-.62.03-.34-.09-.53-.4-.53-.24,0-.4.07-.41.3l-.32-.03c.05-.36.32-.51.74-.51s.71.2.71.63v.8c0,.2.07.31.27.26v.2c-.3.09-.6-.02-.58-.34Z"/>
    <polygon class="cls-8" points="125.84 226.46 125.84 225.18 125.84 223.9 126.15 223.9 126.15 225.18 126.15 226.46 125.84 226.46"/>
    <polygon class="cls-8" points="127.58 226.46 127.58 225.18 127.58 223.9 127.9 223.9 127.9 225.18 127.9 226.46 127.58 226.46"/>
    <path class="cls-8" d="m128.36,226.46v-1.86h.31v1.86h-.31Zm0-2.26v-.29h.31v.29h-.31Z"/>
    <path class="cls-8" d="m130.95,224.8c-.66.03-.37,1.03-.43,1.66h-.3v-1.19c0-.28-.05-.49-.34-.47-.65.04-.37,1.02-.43,1.66h-.3v-1.86s.28,0,.28,0c0,.1,0,.24.02.31.1-.43.97-.49,1.05,0,.11-.21.26-.34.57-.35.83-.02.46,1.17.54,1.9h-.3v-1.19c0-.28-.05-.48-.34-.47Z"/>
    <path class="cls-8" d="m132.06,226.46v-1.86h.31v1.86h-.31Zm0-2.26v-.29h.31v.29h-.31Z"/>
    <path class="cls-8" d="m133.18,226c-.02.24.18.28.37.22v.24c-.32.1-.69.05-.69-.38v-1.24h-.22v-.23h.24l.09-.42h.21v.42h.34v.23h-.34v1.18Z"/>
    <path class="cls-8" d="m135.07,225.35c.06-.59-.74-.75-.95-.27-.03.07-.06.17-.06.27h1.01Zm-.51-.79c.62,0,.84.41.82,1.04h-1.32c0,.39.14.66.52.67.25,0,.42-.12.48-.28l.27.08c-.11.27-.36.44-.75.44-.57,0-.86-.36-.85-.98,0-.6.25-.96.83-.96Z"/>
    <path class="cls-8" d="m137.45,224.8c-.39,0-.45.33-.45.74s.06.73.44.73c.41,0,.5-.31.5-.74s-.09-.73-.49-.72Zm-.09-.24c.3,0,.47.13.59.32v-.98s.3,0,.3,0v2.56s-.28,0-.28,0c-.02-.1,0-.23-.03-.3-.1.23-.27.34-.58.34-.52,0-.68-.38-.69-.96,0-.65.23-.98.69-.98Z"/>
    <path class="cls-8" d="m139.98,225.35c.06-.59-.74-.75-.95-.27-.03.07-.06.17-.06.27h1.01Zm-.51-.79c.62,0,.84.41.82,1.04h-1.32c0,.39.14.66.52.67.25,0,.42-.12.48-.28l.27.08c-.11.27-.36.44-.75.44-.57,0-.86-.36-.85-.98,0-.6.25-.96.83-.96Z"/>
    <polygon class="cls-8" points="140.69 226.46 140.69 225.18 140.69 223.9 141 223.9 141 225.18 141 226.46 140.69 226.46"/>
    <path class="cls-8" d="m100.34,229.04c-.66.03-.37,1.03-.43,1.66h-.3v-1.19c0-.28-.05-.49-.34-.47-.65.04-.37,1.02-.43,1.66h-.3v-1.86s.28,0,.28,0c0,.1,0,.24.02.31.1-.43.97-.49,1.05,0,.11-.21.26-.34.57-.35.83-.02.46,1.17.54,1.9h-.3v-1.19c0-.28-.05-.48-.34-.47Z"/>
    <path class="cls-8" d="m101.68,230.18c0,.2.12.32.31.32.4-.03.62-.28.59-.73-.42.02-.9-.05-.9.4Zm.91.17c-.15.21-.3.4-.67.39-.35,0-.57-.21-.57-.56,0-.63.62-.62,1.23-.62.03-.34-.09-.53-.4-.53-.24,0-.4.07-.41.3l-.32-.03c.05-.36.32-.51.74-.51s.71.2.71.63v.8c0,.2.07.31.27.26v.2c-.3.09-.6-.02-.58-.34Z"/>
    <path class="cls-8" d="m104.22,230.5c.39,0,.44-.33.44-.74s-.06-.72-.44-.73c-.41,0-.5.31-.5.74s.1.72.5.72Zm.08-1.71c.54,0,.69.4.69.96s-.16.96-.69.98c-.3,0-.48-.13-.59-.33v1.03s-.3,0-.3,0v-2.6s.29,0,.29,0l.02.29c.1-.21.27-.33.58-.33Z"/>
    <path class="cls-8" d="m105.6,230.18c0,.2.12.32.31.32.4-.03.62-.28.59-.73-.42.02-.9-.05-.9.4Zm.91.17c-.15.21-.3.4-.67.39-.35,0-.57-.21-.57-.56,0-.63.62-.62,1.23-.62.03-.34-.09-.53-.4-.53-.24,0-.4.07-.41.3l-.32-.03c.05-.36.32-.51.74-.51s.71.2.71.63v.8c0,.2.07.31.27.26v.2c-.3.09-.6-.02-.58-.34Z"/>
    <path class="cls-8" d="m107.84,230.7v-.34h.33v.34h-.33Zm.25-2.46c.82,0,1.09.95.44,1.3-.19.1-.36.24-.38.51h-.3c0-.62.75-.54.75-1.12,0-.29-.21-.41-.51-.42-.31,0-.52.17-.55.45l-.31-.02c.07-.44.33-.71.86-.71Z"/>
    <path class="cls-8" d="m110.89,231.43c-.37-.41-.64-.9-.64-1.66s.27-1.24.64-1.64h.3c-.37.4-.63.9-.63,1.65s.25,1.24.63,1.65h-.3Z"/>
    <path class="cls-8" d="m112.32,229.1c-.76-.16-.52.89-.56,1.6h-.31v-1.86s.28,0,.28,0c0,.12,0,.28.02.38.06-.26.23-.48.57-.4v.28Z"/>
    <path class="cls-8" d="m112.84,230.18c0,.2.12.32.31.32.4-.03.62-.28.59-.73-.42.02-.9-.05-.9.4Zm.91.17c-.15.21-.3.4-.67.39-.35,0-.57-.21-.57-.56,0-.63.62-.62,1.23-.62.03-.34-.09-.53-.4-.53-.24,0-.4.07-.41.3l-.32-.03c.05-.36.32-.51.74-.51s.71.2.71.63v.8c0,.2.07.31.27.26v.2c-.3.09-.6-.02-.58-.34Z"/>
    <path class="cls-8" d="m115.47,228.8c.87-.04.52,1.14.59,1.9h-.31v-1.19c0-.3-.08-.48-.38-.47-.71.02-.43,1-.48,1.66h-.31v-1.86s.28,0,.28,0c0,.1,0,.24.02.31.11-.22.28-.34.6-.35Z"/>
    <path class="cls-8" d="m117.21,230.48c.35,0,.49-.31.49-.72s-.14-.74-.49-.74c-.38,0-.45.33-.45.74s.06.72.45.72Zm.81-1.65c-.1,1.23.4,2.87-1.08,2.56-.23-.06-.37-.2-.43-.42l.31-.05c.15.46.98.31.87-.27v-.29c-.11.21-.28.35-.6.35-.53,0-.67-.4-.67-.94s.16-.95.7-.96c.28,0,.47.16.58.34,0-.1,0-.23.02-.31h.29Z"/>
    <path class="cls-8" d="m119.22,230.5c.43,0,.52-.3.52-.74s-.08-.74-.5-.74-.52.31-.52.74.1.73.5.74Zm0-1.71c.61,0,.83.36.83.97,0,.62-.26.97-.84.97s-.81-.38-.82-.97c0-.65.27-.97.83-.97Z"/>
    <path class="cls-8" d="m122.16,230.48c.46,0,.53-.48.53-1s-.04-1-.52-1-.54.47-.54,1,.05,1,.53,1Zm0-2.24c.67,0,.83.54.83,1.24s-.2,1.25-.84,1.25-.84-.55-.84-1.25.17-1.24.85-1.24Z"/>
    <path class="cls-8" d="m124.12,230.48c.46,0,.53-.48.53-1s-.04-1-.52-1-.54.47-.54,1,.05,1,.53,1Zm0-2.24c.67,0,.83.54.83,1.24s-.2,1.25-.84,1.25-.84-.55-.84-1.25.17-1.24.85-1.24Z"/>
    <path class="cls-8" d="m126.08,230.48c.46,0,.53-.48.53-1s-.04-1-.52-1-.54.47-.54,1,.05,1,.53,1Zm0-2.24c.67,0,.83.54.83,1.24s-.2,1.25-.84,1.25-.84-.55-.84-1.25.17-1.24.85-1.24Z"/>
    <polygon class="cls-8" points="127.33 230.7 127.33 230.56 127.33 230.43 127.95 230.43 127.95 229.5 127.95 228.57 127.4 228.95 127.4 228.81 127.4 228.67 127.97 228.27 128.26 228.27 128.26 229.35 128.26 230.43 128.85 230.43 128.85 230.56 128.85 230.7 127.33 230.7"/>
    <polygon class="cls-8" points="130.15 229.89 130.15 229.76 130.15 229.62 131.01 229.62 131.01 229.76 131.01 229.89 130.15 229.89"/>
    <polygon class="cls-8" points="132.4 230.7 132.4 230.56 132.4 230.43 133.03 230.43 133.03 229.5 133.03 228.57 132.48 228.95 132.48 228.81 132.48 228.67 133.05 228.27 133.33 228.27 133.33 229.35 133.33 230.43 133.93 230.43 133.93 230.56 133.93 230.7 132.4 230.7"/>
    <path class="cls-8" d="m135.08,230.48c.46,0,.53-.48.53-1s-.04-1-.52-1-.54.47-.54,1,.05,1,.53,1Zm0-2.24c.67,0,.83.54.83,1.24s-.2,1.25-.84,1.25-.84-.55-.84-1.25.17-1.24.85-1.24Z"/>
    <path class="cls-8" d="m137.04,230.48c.46,0,.53-.48.53-1s-.04-1-.52-1-.54.47-.54,1,.05,1,.53,1Zm0-2.24c.67,0,.83.54.83,1.24s-.2,1.25-.84,1.25-.84-.55-.84-1.25.17-1.24.85-1.24Z"/>
    <path class="cls-8" d="m139,230.48c.46,0,.53-.48.53-1s-.04-1-.52-1-.54.47-.54,1,.05,1,.53,1Zm0-2.24c.67,0,.83.54.83,1.24s-.2,1.25-.84,1.25-.84-.55-.84-1.25.17-1.24.85-1.24Z"/>
    <path class="cls-8" d="m140.3,228.14c.37.4.64.9.64,1.65s-.26,1.24-.64,1.65h-.3c.36-.4.63-.9.63-1.65s-.26-1.24-.63-1.65h.3Z"/>
    <line class="cls-1" x1="30.02" y1="152.6" x2="30.02" y2="203.95"/>
    <polygon class="cls-2" points="30.02 152.6 30.15 152.6 29.88 152.6 30.02 152.6"/>
    <polygon class="cls-8" points="30.02 207.92 28.8 204.22 31.26 204.22 30.02 207.92"/>
    <polygon class="cls-1" points="30.02 207.92 28.8 204.22 31.26 204.22 30.02 207.92"/>
    <line class="cls-1" x1="59.13" y1="228.3" x2="86.19" y2="228.3"/>
    <line class="cls-1" x1="59.13" y1="228.3" x2="59" y2="228.3"/>
    <polygon class="cls-8" points="90.1 228.3 86.32 229.63 86.32 227.24 90.1 228.3"/>
    <polygon class="cls-1" points="90.1 228.3 86.32 229.63 86.32 227.24 90.1 228.3"/>
    <path class="cls-5" d="m67.39,216.39c0-1.59,1.59-1.59,1.59-1.59h11.78c1.58,0,1.58,1.59,1.58,1.59v10.46c0,1.58-1.59,1.58-1.59,1.58h-11.77c-1.59,0-1.59-1.59-1.59-1.59v-10.45Z"/>
    <path class="cls-3" d="m67.39,216.39c0-1.59,1.59-1.59,1.59-1.59h11.78c1.58,0,1.58,1.59,1.58,1.59v10.46c0,1.58-1.59,1.58-1.59,1.58h-11.77c-1.59,0-1.59-1.59-1.59-1.59v-10.45Z"/>
    <path class="cls-8" d="m75.27,220.2c-.07-.63-1.61-.71-1.62.03.18.98,2.07.18,2.13,1.56.04,1.02-1.58,1.14-2.29.72-.22-.13-.37-.34-.43-.6l.43-.09c.07.73,1.84.82,1.84-.01,0-1.02-2.03-.18-2.12-1.54-.07-1.07,1.9-1.1,2.34-.44.07.09.1.21.14.33l-.43.07Z"/>
    <path class="cls-8" d="m76.3,222.67v-2.48h.42v2.48h-.42Zm0-3.02v-.39h.42v.39h-.42Z"/>
    <path class="cls-5" d="m30.02,173.25c0-1.59,1.59-1.59,1.59-1.59h11.78c1.58,0,1.58,1.59,1.58,1.59v10.46c0,1.58-1.59,1.58-1.59,1.58h-11.77c-1.59,0-1.59-1.59-1.59-1.59v-10.45Z"/>
    <path class="cls-3" d="m30.02,173.25c0-1.59,1.59-1.59,1.59-1.59h11.78c1.58,0,1.58,1.59,1.58,1.59v10.46c0,1.58-1.59,1.58-1.59,1.58h-11.77c-1.59,0-1.59-1.59-1.59-1.59v-10.45Z"/>
    <polygon class="cls-8" points="37.04 179.52 35.32 176.77 35.33 179.52 34.95 179.52 34.95 177.9 34.95 176.28 35.46 176.28 37.2 179.07 37.17 176.28 37.58 176.28 37.58 177.9 37.58 179.52 37.04 179.52"/>
    <path class="cls-8" d="m39.24,179.26c.58.01.69-.41.69-.98s-.1-.98-.67-.98-.69.42-.69.98.13.97.67.98Zm.01-2.27c.81-.01,1.11.48,1.11,1.29.01.82-.35,1.29-1.12,1.29s-1.08-.51-1.1-1.29c0-.86.37-1.29,1.11-1.29Z"/>
    <path class="cls-5" d="m30.02,91.06c0-1.59,1.59-1.59,1.59-1.59h11.78c1.58,0,1.58,1.59,1.58,1.59v10.46c0,1.58-1.59,1.58-1.59,1.58h-11.77c-1.59,0-1.59-1.59-1.59-1.59v-10.45Z"/>
    <path class="cls-3" d="m30.02,91.06c0-1.59,1.59-1.59,1.59-1.59h11.78c1.58,0,1.58,1.59,1.58,1.59v10.46c0,1.58-1.59,1.58-1.59,1.58h-11.77c-1.59,0-1.59-1.59-1.59-1.59v-10.45Z"/>
    <path class="cls-8" d="m37.89,94.87c-.07-.63-1.61-.71-1.62.03.18.98,2.07.18,2.13,1.56.04,1.02-1.58,1.14-2.29.72-.22-.13-.37-.34-.43-.6l.43-.09c.07.73,1.84.82,1.84-.01,0-1.02-2.03-.18-2.12-1.54-.07-1.07,1.9-1.1,2.34-.44.07.09.1.21.14.33l-.43.07Z"/>
    <path class="cls-8" d="m38.93,97.34v-2.48h.42v2.48h-.42Zm0-3.02v-.39h.42v.39h-.42Z"/>
    <path class="cls-1" d="m148.89,228.3h103.76c1.59,0,1.59-1.59,1.59-1.59V64.51c0-1.59-1.59-1.59-1.59-1.59h-98.73"/>
    <polygon class="cls-2" points="148.89 228.57 148.89 228.57 148.89 228.3 148.89 228.57"/>
    <polygon class="cls-8" points="149.95 62.92 153.92 61.7 153.92 64.16 149.95 62.92"/>
    <polygon class="cls-1" points="149.95 62.92 153.92 61.7 153.92 64.16 149.95 62.92"/>
    <path class="cls-5" d="m203.69,215.86c0-1.59,1.59-1.59,1.59-1.59h11.78c1.58,0,1.58,1.59,1.58,1.59v10.46c0,1.58-1.59,1.58-1.59,1.58h-11.77c-1.59,0-1.59-1.59-1.59-1.59v-10.45Z"/>
    <path class="cls-3" d="m203.69,215.86c0-1.59,1.59-1.59,1.59-1.59h11.78c1.58,0,1.58,1.59,1.58,1.59v10.46c0,1.58-1.59,1.58-1.59,1.58h-11.77c-1.59,0-1.59-1.59-1.59-1.59v-10.45Z"/>
    <path class="cls-8" d="m211.56,219.67c-.07-.63-1.61-.71-1.62.03.18.98,2.07.18,2.13,1.56.04,1.02-1.58,1.14-2.29.72-.22-.13-.37-.34-.43-.6l.43-.09c.07.73,1.84.82,1.84-.01,0-1.02-2.03-.18-2.12-1.54-.07-1.07,1.9-1.1,2.34-.44.07.09.1.21.14.33l-.43.07Z"/>
    <path class="cls-8" d="m212.6,222.14v-2.48h.42v2.48h-.42Zm0-3.02v-.39h.42v.39h-.42Z"/>
    <line class="cls-1" x1="119.51" y1="208.19" x2="119.51" y2="189.66"/>
    <polygon class="cls-8" points="119.78 208.45 119.51 208.19 119.51 208.45 119.51 208.19 119.78 208.19 119.78 208.45"/>
    <polygon class="cls-2" points="119.78 208.45 119.51 208.19 119.51 208.45 119.51 208.19 119.78 208.19 119.78 208.45"/>
    <polygon class="cls-8" points="119.51 185.95 120.84 189.66 118.45 189.66 119.51 185.95"/>
    <polygon class="cls-1" points="119.51 185.95 120.84 189.66 118.45 189.66 119.51 185.95"/>
    <path class="cls-5" d="m119.51,196.01c0-1.59,1.59-1.59,1.59-1.59h11.78c1.58,0,1.58,1.59,1.58,1.59v10.46c0,1.58-1.59,1.58-1.59,1.58h-11.77c-1.59,0-1.59-1.59-1.59-1.59v-10.45Z"/>
    <path class="cls-3" d="m119.51,196.01c0-1.59,1.59-1.59,1.59-1.59h11.78c1.58,0,1.58,1.59,1.58,1.59v10.46c0,1.58-1.59,1.58-1.59,1.58h-11.77c-1.59,0-1.59-1.59-1.59-1.59v-10.45Z"/>
    <polygon class="cls-8" points="126.54 202.29 124.81 199.53 124.83 202.29 124.45 202.29 124.45 200.67 124.45 199.05 124.96 199.05 126.69 201.83 126.67 199.05 127.07 199.05 127.07 200.67 127.07 202.29 126.54 202.29"/>
    <path class="cls-8" d="m128.73,202.03c.58.01.69-.41.69-.98s-.1-.98-.67-.98-.69.42-.69.98.13.97.67.98Zm.01-2.27c.81-.01,1.11.48,1.11,1.29.01.82-.35,1.29-1.12,1.29s-1.08-.51-1.1-1.29c0-.86.37-1.29,1.11-1.29Z"/>
    <path class="cls-7" d="m181.19,126.79c0-1.59,1.59-1.59,1.59-1.59h56.62c1.56,0,1.56,1.59,1.56,1.59l.03,11.65c-.03,1.59-1.61,1.59-1.61,1.59h-56.59c-1.59,0-1.59-1.59-1.59-1.59v-11.65Z"/>
    <path class="cls-1" d="m181.19,126.79c0-1.59,1.59-1.59,1.59-1.59h56.62c1.56,0,1.56,1.59,1.56,1.59l.03,11.65c-.03,1.59-1.61,1.59-1.61,1.59h-56.59c-1.59,0-1.59-1.59-1.59-1.59v-11.65Z"/>
    <path class="cls-8" d="m189.27,131.73l.02-2.14c-.23.74-.53,1.42-.78,2.14h-.23l-.79-2.14v2.14s-.27,0-.27,0v-2.43h.43l.75,2.07c.21-.74.5-1.37.74-2.07h.42v2.43h-.29Z"/>
    <path class="cls-8" d="m190.82,131.53c.43,0,.52-.3.52-.74s-.08-.74-.5-.74-.52.31-.52.74.1.73.5.74Zm0-1.71c.61,0,.83.36.83.97,0,.62-.26.97-.84.97s-.81-.38-.82-.97c0-.65.27-.97.83-.97Z"/>
    <polygon class="cls-8" points="192.87 131.73 192.5 131.73 191.82 129.87 192.16 129.87 192.69 131.49 193.23 129.87 193.57 129.87 192.87 131.73"/>
    <path class="cls-8" d="m195.07,130.62c.06-.59-.74-.75-.95-.27-.03.07-.06.17-.06.27h1.01Zm-.51-.79c.62,0,.84.41.82,1.04h-1.32c0,.39.14.66.52.67.25,0,.42-.12.48-.28l.27.08c-.11.27-.36.44-.75.44-.57,0-.86-.36-.85-.98,0-.6.25-.96.83-.96Z"/>
    <path class="cls-8" d="m196.66,130.13c-.76-.16-.52.89-.56,1.6h-.31v-1.86s.28,0,.28,0c0,.12,0,.28.02.38.06-.26.23-.48.57-.4v.28Z"/>
    <path class="cls-8" d="m198.16,131.21c0,.2.12.32.31.32.4-.03.62-.28.59-.73-.42.02-.9-.05-.9.4Zm.91.17c-.15.21-.3.4-.67.39-.35,0-.57-.21-.57-.56,0-.63.62-.62,1.23-.62.03-.34-.09-.53-.4-.53-.24,0-.4.07-.41.3l-.32-.03c.05-.36.32-.51.74-.51s.71.2.71.63v.8c0,.2.07.31.27.26v.2c-.3.09-.6-.02-.58-.34Z"/>
    <polygon class="cls-8" points="200.86 131.73 200.86 130.45 200.86 129.17 201.18 129.17 201.18 130.45 201.18 131.73 200.86 131.73"/>
    <path class="cls-8" d="m201.87,131.21c0,.2.12.32.31.32.4-.03.62-.28.59-.73-.42.02-.9-.05-.9.4Zm.91.17c-.15.21-.3.4-.67.39-.35,0-.57-.21-.57-.56,0-.63.62-.62,1.23-.62.03-.34-.09-.53-.4-.53-.24,0-.4.07-.41.3l-.32-.03c.05-.36.32-.51.74-.51s.71.2.71.63v.8c0,.2.07.31.27.26v.2c-.3.09-.6-.02-.58-.34Z"/>
    <path class="cls-8" d="m204.58,131.73v-1.86h.31v1.86h-.31Zm0-2.26v-.29h.31v.29h-.31Z"/>
    <polygon class="cls-8" points="205.21 131.73 205.21 131.61 205.21 131.5 206.34 130.1 205.27 130.1 205.27 129.99 205.27 129.87 206.69 129.87 206.69 129.99 206.69 130.1 205.55 131.5 206.75 131.5 206.75 131.61 206.75 131.73 205.21 131.73"/>
    <path class="cls-8" d="m207.79,131.52c.4,0,.5-.32.5-.74s-.08-.72-.49-.72-.45.34-.45.74.05.73.44.73Zm.51-.1c-.11.22-.28.34-.59.34-.52,0-.68-.38-.69-.96,0-.58.17-.97.69-.98.31,0,.47.14.59.32,0-.11,0-.24.02-.31h.29v2.63h-.32v-1.04Z"/>
    <path class="cls-8" d="m209.67,131.77c-.87.04-.53-1.14-.6-1.9h.31v1.18c0,.3.07.49.38.48.71-.02.44-.99.49-1.66h.3v1.86s-.28,0-.28,0c0-.1,0-.25-.02-.32-.11.22-.27.35-.59.36Z"/>
    <path class="cls-8" d="m211.04,131.73v-1.86h.31v1.86h-.31Zm0-2.26v-.29h.31v.29h-.31Z"/>
    <path class="cls-8" d="m213.07,130.62c.06-.59-.74-.75-.95-.27-.03.07-.06.17-.06.27h1.01Zm-.51-.79c.62,0,.84.41.82,1.04h-1.32c0,.39.14.66.52.67.25,0,.42-.12.48-.28l.27.08c-.11.27-.36.44-.75.44-.57,0-.86-.36-.85-.98,0-.6.25-.96.83-.96Z"/>
    <path class="cls-8" d="m214.65,130.13c-.76-.16-.52.89-.56,1.6h-.31v-1.86s.28,0,.28,0c0,.12,0,.28.02.38.06-.26.23-.48.57-.4v.28Z"/>
    <path class="cls-8" d="m215.63,130.06c-.39,0-.45.33-.45.74s.06.73.44.73c.41,0,.5-.31.5-.74s-.09-.73-.49-.72Zm-.09-.24c.3,0,.47.13.59.32v-.98s.3,0,.3,0v2.56s-.28,0-.28,0c-.02-.1,0-.23-.03-.3-.1.23-.27.34-.58.34-.52,0-.68-.38-.69-.96,0-.65.23-.98.69-.98Z"/>
    <path class="cls-8" d="m217.13,131.21c0,.2.12.32.31.32.4-.03.62-.28.59-.73-.42.02-.9-.05-.9.4Zm.91.17c-.15.21-.3.4-.67.39-.35,0-.57-.21-.57-.56,0-.63.62-.62,1.23-.62.03-.34-.09-.53-.4-.53-.24,0-.4.07-.41.3l-.32-.03c.05-.36.32-.51.74-.51s.71.2.71.63v.8c0,.2.07.31.27.26v.2c-.3.09-.6-.02-.58-.34Z"/>
    <path class="cls-8" d="m220.45,132.47c-.37-.41-.64-.9-.64-1.66s.27-1.24.64-1.64h.3c-.37.4-.63.9-.63,1.65s.25,1.24.63,1.65h-.3Z"/>
    <path class="cls-8" d="m221.7,130.07c-.39,0-.47.32-.47.72s.09.74.47.74c.24,0,.4-.14.42-.37l.31.02c-.06.36-.3.6-.73.6-.58,0-.74-.4-.8-.97-.1-.91.99-1.28,1.44-.63.04.07.05.14.07.22l-.31.03c-.04-.21-.16-.34-.4-.34Z"/>
    <path class="cls-8" d="m223.5,131.53c.43,0,.52-.3.52-.74s-.08-.74-.5-.74-.52.31-.52.74.1.73.5.74Zm0-1.71c.61,0,.83.36.83.97,0,.62-.26.97-.84.97s-.81-.38-.82-.97c0-.65.27-.97.83-.97Z"/>
    <path class="cls-8" d="m226.54,130.07c-.66.03-.37,1.03-.43,1.66h-.3v-1.19c0-.28-.05-.49-.34-.47-.65.04-.37,1.02-.43,1.66h-.3v-1.86s.28,0,.28,0c0,.1,0,.24.02.31.1-.43.97-.49,1.05,0,.11-.21.26-.34.57-.35.83-.02.46,1.17.54,1.9h-.3v-1.19c0-.28-.05-.48-.34-.47Z"/>
    <path class="cls-8" d="m227.89,131.21c0,.2.12.32.31.32.4-.03.62-.28.59-.73-.42.02-.9-.05-.9.4Zm.91.17c-.15.21-.3.4-.67.39-.35,0-.57-.21-.57-.56,0-.63.62-.62,1.23-.62.03-.34-.09-.53-.4-.53-.24,0-.4.07-.41.3l-.32-.03c.05-.36.32-.51.74-.51s.71.2.71.63v.8c0,.2.07.31.27.26v.2c-.3.09-.6-.02-.58-.34Z"/>
    <path class="cls-8" d="m230.52,129.83c.87-.04.52,1.14.59,1.9h-.31v-1.19c0-.3-.08-.48-.38-.47-.71.02-.43,1-.48,1.66h-.31v-1.86s.28,0,.28,0c0,.1,0,.24.02.31.11-.22.28-.34.6-.35Z"/>
    <path class="cls-8" d="m232.26,130.06c-.39,0-.45.33-.45.74s.06.73.44.73c.41,0,.5-.31.5-.74s-.09-.73-.49-.72Zm-.09-.24c.3,0,.47.13.59.32v-.98s.3,0,.3,0v2.56s-.28,0-.28,0c-.02-.1,0-.23-.03-.3-.1.23-.27.34-.58.34-.52,0-.68-.38-.69-.96,0-.65.23-.98.69-.98Z"/>
    <path class="cls-8" d="m234.27,131.53c.43,0,.52-.3.52-.74s-.08-.74-.5-.74-.52.31-.52.74.1.73.5.74Zm0-1.71c.61,0,.83.36.83.97,0,.62-.26.97-.84.97s-.81-.38-.82-.97c0-.65.27-.97.83-.97Z"/>
    <polygon class="cls-8" points="208.82 135.97 208.82 135.83 208.82 135.7 209.44 135.7 209.44 134.77 209.44 133.84 208.89 134.22 208.89 134.08 208.89 133.94 209.46 133.53 209.75 133.53 209.75 134.62 209.75 135.7 210.35 135.7 210.35 135.83 210.35 135.97 208.82 135.97"/>
    <path class="cls-8" d="m211.49,135.75c.46,0,.53-.48.53-1s-.04-1-.52-1-.54.47-.54,1,.05,1,.53,1Zm0-2.24c.67,0,.83.54.83,1.24s-.2,1.25-.84,1.25-.84-.55-.84-1.25.17-1.24.85-1.24Z"/>
    <path class="cls-8" d="m212.8,133.41c.37.4.64.9.64,1.65s-.26,1.24-.64,1.65h-.3c.36-.4.63-.9.63-1.65s-.26-1.24-.63-1.65h.3Z"/>
    <path class="cls-7" d="m89.81,173.25c0-1.59,1.59-1.59,1.59-1.59h56.62c1.56,0,1.56,1.59,1.56,1.59l.03,10.46c-.03,1.58-1.61,1.58-1.61,1.58h-56.59c-1.59,0-1.59-1.59-1.59-1.59v-10.45Z"/>
    <path class="cls-1" d="m89.81,173.25c0-1.59,1.59-1.59,1.59-1.59h56.62c1.56,0,1.56,1.59,1.56,1.59l.03,10.46c-.03,1.58-1.61,1.58-1.61,1.58h-56.59c-1.59,0-1.59-1.59-1.59-1.59v-10.45Z"/>
    <path class="cls-8" d="m96.13,179.05l.02-2.14c-.23.74-.53,1.42-.78,2.14h-.23l-.79-2.14v2.14s-.27,0-.27,0v-2.43h.43l.75,2.07c.21-.74.5-1.37.74-2.07h.42v2.43h-.29Z"/>
    <path class="cls-8" d="m97.68,178.85c.43,0,.52-.3.52-.74s-.08-.74-.5-.74-.52.31-.52.74.1.73.5.74Zm0-1.71c.61,0,.83.36.83.97,0,.62-.26.97-.84.97s-.81-.38-.82-.97c0-.65.27-.97.83-.97Z"/>
    <polygon class="cls-8" points="99.73 179.05 99.36 179.05 98.68 177.18 99.01 177.18 99.54 178.8 100.09 177.18 100.42 177.18 99.73 179.05"/>
    <path class="cls-8" d="m101.92,177.94c.06-.59-.74-.75-.95-.27-.03.07-.06.17-.06.27h1.01Zm-.51-.79c.62,0,.84.41.82,1.04h-1.32c0,.39.14.66.52.67.25,0,.42-.12.48-.28l.27.08c-.11.27-.36.44-.75.44-.57,0-.86-.36-.85-.98,0-.6.25-.96.83-.96Z"/>
    <path class="cls-8" d="m103.51,177.45c-.76-.16-.52.89-.56,1.6h-.31v-1.86s.28,0,.28,0c0,.12,0,.28.02.38.06-.26.23-.48.57-.4v.28Z"/>
    <path class="cls-8" d="m105.01,178.53c0,.2.12.32.31.32.4-.03.62-.28.59-.73-.42.02-.9-.05-.9.4Zm.91.17c-.15.21-.3.4-.67.39-.35,0-.57-.21-.57-.56,0-.63.62-.62,1.23-.62.03-.34-.09-.53-.4-.53-.24,0-.4.07-.41.3l-.32-.03c.05-.36.32-.51.74-.51s.71.2.71.63v.8c0,.2.07.31.27.26v.2c-.3.09-.6-.02-.58-.34Z"/>
    <polygon class="cls-8" points="107.72 179.05 107.72 177.77 107.72 176.49 108.03 176.49 108.03 177.77 108.03 179.05 107.72 179.05"/>
    <path class="cls-8" d="m108.73,178.53c0,.2.12.32.31.32.4-.03.62-.28.59-.73-.42.02-.9-.05-.9.4Zm.91.17c-.15.21-.3.4-.67.39-.35,0-.57-.21-.57-.56,0-.63.62-.62,1.23-.62.03-.34-.09-.53-.4-.53-.24,0-.4.07-.41.3l-.32-.03c.05-.36.32-.51.74-.51s.71.2.71.63v.8c0,.2.07.31.27.26v.2c-.3.09-.6-.02-.58-.34Z"/>
    <path class="cls-8" d="m111.14,177.38c-.39,0-.45.33-.45.74s.06.73.44.73c.41,0,.5-.31.5-.74s-.09-.73-.49-.72Zm-.09-.24c.3,0,.47.13.59.32v-.98s.3,0,.3,0v2.56s-.28,0-.28,0c-.02-.1,0-.23-.03-.3-.1.23-.27.34-.58.34-.52,0-.68-.38-.69-.96,0-.65.23-.98.69-.98Z"/>
    <path class="cls-8" d="m113.67,177.94c.06-.59-.74-.75-.95-.27-.03.07-.06.17-.06.27h1.01Zm-.51-.79c.62,0,.84.41.82,1.04h-1.32c0,.39.14.66.52.67.25,0,.42-.12.48-.28l.27.08c-.11.27-.36.44-.75.44-.57,0-.86-.36-.85-.98,0-.6.25-.96.83-.96Z"/>
    <path class="cls-8" d="m115.25,177.45c-.76-.16-.52.89-.56,1.6h-.31v-1.86s.28,0,.28,0c0,.12,0,.28.02.38.06-.26.23-.48.57-.4v.28Z"/>
    <path class="cls-8" d="m116.79,177.94c.06-.59-.74-.75-.95-.27-.03.07-.06.17-.06.27h1.01Zm-.51-.79c.62,0,.84.41.82,1.04h-1.32c0,.39.14.66.52.67.25,0,.42-.12.48-.28l.27.08c-.11.27-.36.44-.75.44-.57,0-.86-.36-.85-.98,0-.6.25-.96.83-.96Z"/>
    <path class="cls-8" d="m118.2,177.39c-.39,0-.47.32-.47.72s.09.74.47.74c.24,0,.4-.14.42-.37l.31.02c-.06.36-.3.6-.73.6-.58,0-.74-.4-.8-.97-.1-.91.99-1.28,1.44-.63.04.07.05.14.07.22l-.31.03c-.04-.21-.16-.34-.4-.34Z"/>
    <path class="cls-8" d="m120.07,177.39c-.71,0-.43,1-.48,1.66h-.31v-2.56h.31v1.01c.11-.21.26-.35.59-.35.87,0,.52,1.14.59,1.9h-.31v-1.19c.02-.31-.08-.48-.38-.47Z"/>
    <path class="cls-8" d="m121.46,178.53c0,.2.12.32.31.32.4-.03.62-.28.59-.73-.42.02-.9-.05-.9.4Zm.91.17c-.15.21-.3.4-.67.39-.35,0-.57-.21-.57-.56,0-.63.62-.62,1.23-.62.03-.34-.09-.53-.4-.53-.24,0-.4.07-.41.3l-.32-.03c.05-.36.32-.51.74-.51s.71.2.71.63v.8c0,.2.07.31.27.26v.2c-.3.09-.6-.02-.58-.34Z"/>
    <path class="cls-8" d="m124.79,179.78c-.37-.41-.64-.9-.64-1.66s.27-1.24.64-1.64h.3c-.37.4-.63.9-.63,1.65s.25,1.24.63,1.65h-.3Z"/>
    <path class="cls-8" d="m126.04,177.39c-.39,0-.47.32-.47.72s.09.74.47.74c.24,0,.4-.14.42-.37l.31.02c-.06.36-.3.6-.73.6-.58,0-.74-.4-.8-.97-.1-.91.99-1.28,1.44-.63.04.07.05.14.07.22l-.31.03c-.04-.21-.16-.34-.4-.34Z"/>
    <path class="cls-8" d="m127.83,178.85c.43,0,.52-.3.52-.74s-.08-.74-.5-.74-.52.31-.52.74.1.73.5.74Zm0-1.71c.61,0,.83.36.83.97,0,.62-.26.97-.84.97s-.81-.38-.82-.97c0-.65.27-.97.83-.97Z"/>
    <path class="cls-8" d="m130.88,177.39c-.66.03-.37,1.03-.43,1.66h-.3v-1.19c0-.28-.05-.49-.34-.47-.65.04-.37,1.02-.43,1.66h-.3v-1.86s.28,0,.28,0c0,.1,0,.24.02.31.1-.43.97-.49,1.05,0,.11-.21.26-.34.57-.35.83-.02.46,1.17.54,1.9h-.3v-1.19c0-.28-.05-.48-.34-.47Z"/>
    <path class="cls-8" d="m132.22,178.53c0,.2.12.32.31.32.4-.03.62-.28.59-.73-.42.02-.9-.05-.9.4Zm.91.17c-.15.21-.3.4-.67.39-.35,0-.57-.21-.57-.56,0-.63.62-.62,1.23-.62.03-.34-.09-.53-.4-.53-.24,0-.4.07-.41.3l-.32-.03c.05-.36.32-.51.74-.51s.71.2.71.63v.8c0,.2.07.31.27.26v.2c-.3.09-.6-.02-.58-.34Z"/>
    <path class="cls-8" d="m134.86,177.14c.87-.04.52,1.14.59,1.9h-.31v-1.19c0-.3-.08-.48-.38-.47-.71.02-.43,1-.48,1.66h-.31v-1.86s.28,0,.28,0c0,.1,0,.24.02.31.11-.22.28-.34.6-.35Z"/>
    <path class="cls-8" d="m136.6,177.38c-.39,0-.45.33-.45.74s.06.73.44.73c.41,0,.5-.31.5-.74s-.09-.73-.49-.72Zm-.09-.24c.3,0,.47.13.59.32v-.98s.3,0,.3,0v2.56s-.28,0-.28,0c-.02-.1,0-.23-.03-.3-.1.23-.27.34-.58.34-.52,0-.68-.38-.69-.96,0-.65.23-.98.69-.98Z"/>
    <path class="cls-8" d="m138.61,178.85c.43,0,.52-.3.52-.74s-.08-.74-.5-.74-.52.31-.52.74.1.73.5.74Zm0-1.71c.61,0,.83.36.83.97,0,.62-.26.97-.84.97s-.81-.38-.82-.97c0-.65.27-.97.83-.97Z"/>
    <path class="cls-8" d="m141.54,178.83c.46,0,.53-.48.53-1s-.04-1-.52-1-.54.47-.54,1,.05,1,.53,1Zm0-2.24c.67,0,.83.54.83,1.24s-.2,1.25-.84,1.25-.84-.55-.84-1.25.17-1.24.85-1.24Z"/>
    <polygon class="cls-8" points="142.78 179.05 142.78 178.91 142.78 178.78 143.41 178.78 143.41 177.85 143.41 176.92 142.86 177.3 142.86 177.16 142.86 177.02 143.43 176.61 143.71 176.61 143.71 177.7 143.71 178.78 144.31 178.78 144.31 178.91 144.31 179.05 142.78 179.05"/>
    <path class="cls-8" d="m144.8,176.49c.37.4.64.9.64,1.65s-.26,1.24-.64,1.65h-.3c.36-.4.63-.9.63-1.65s-.26-1.24-.63-1.65h.3Z"/>
    <polyline class="cls-1" points="175.89 178.54 162.92 178.54 153.92 178.54"/>
    <line class="cls-1" x1="175.89" y1="178.54" x2="176.16" y2="178.54"/>
    <polygon class="cls-8" points="149.95 178.54 153.92 177.22 153.92 179.6 149.95 178.54"/>
    <polygon class="cls-1" points="149.95 178.54 153.92 177.22 153.92 179.6 149.95 178.54"/>
    <polyline class="cls-1" points="211.1 109.74 211.1 117.34 211.1 120.73"/>
    <polygon class="cls-8" points="211.36 109.74 211.1 109.74 211.1 109.69 211.36 109.56 211.36 109.74"/>
    <polygon class="cls-2" points="211.36 109.74 211.1 109.74 211.1 109.69 211.36 109.56 211.36 109.74"/>
    <polygon class="cls-8" points="211.1 124.65 210.04 120.86 212.42 120.86 211.1 124.65"/>
    <polygon class="cls-1" points="211.1 124.65 210.04 120.86 212.42 120.86 211.1 124.65"/>
    <path class="cls-9" d="m189.92,81.98c0-1.59,1.59-1.59,1.59-1.59h39.18c1.59,0,1.59,1.59,1.59,1.59v30.18c-7.07-5.29-11.49-5.29-14.13-5.29-4.24,0-9.87,5.29-14.11,5.29-2.62,0-7.07,0-14.11-5.29v-24.88Z"/>
    <path class="cls-1" d="m189.92,81.98c0-1.59,1.59-1.59,1.59-1.59h39.18c1.59,0,1.59,1.59,1.59,1.59v30.18c-7.07-5.29-11.49-5.29-14.13-5.29-4.24,0-9.87,5.29-14.11,5.29-2.62,0-7.07,0-14.11-5.29v-24.88Z"/>
    <path class="cls-8" d="m202.51,89.48c.54-.02,1.22.14,1.22-.44s-.69-.41-1.22-.43v.87Zm0-1.13c.49,0,1.08.09,1.08-.41,0-.46-.62-.35-1.08-.36v.77Zm.95.11c.34.05.6.23.6.6,0,.85-1.04.67-1.87.69v-2.43c.74.03,1.73-.17,1.73.59,0,.32-.19.49-.46.56Z"/>
    <polygon class="cls-8" points="204.48 89.75 204.48 88.47 204.48 87.19 204.79 87.19 204.79 88.47 204.79 89.75 204.48 89.75"/>
    <path class="cls-8" d="m205.99,89.55c.43,0,.52-.3.52-.74s-.08-.74-.5-.74-.52.31-.52.74.1.73.5.74Zm0-1.71c.61,0,.83.36.83.97,0,.62-.26.97-.84.97s-.81-.38-.82-.97c0-.65.27-.97.83-.97Z"/>
    <path class="cls-8" d="m207.89,89.54c.4,0,.5-.32.5-.74s-.08-.72-.49-.72-.45.34-.45.74.05.73.44.73Zm.51-.1c-.11.22-.28.34-.59.34-.52,0-.68-.38-.69-.96,0-.58.17-.97.69-.98.31,0,.47.14.59.32,0-.11,0-.24.02-.31h.29v2.63h-.32v-1.04Z"/>
    <path class="cls-8" d="m209.76,89.79c-.87.04-.53-1.14-.6-1.9h.31v1.18c0,.3.07.49.38.48.71-.02.44-.99.49-1.66h.3v1.86s-.28,0-.28,0c0-.1,0-.25-.02-.32-.11.22-.27.35-.59.36Z"/>
    <path class="cls-8" d="m212.39,88.64c.06-.59-.74-.75-.95-.27-.03.07-.06.17-.06.27h1.01Zm-.51-.79c.62,0,.84.41.82,1.04h-1.32c0,.39.14.66.52.67.25,0,.42-.12.48-.28l.27.08c-.11.27-.36.44-.75.44-.57,0-.86-.36-.85-.98,0-.6.25-.96.83-.96Z"/>
    <path class="cls-8" d="m215.17,88.34c-.03-.33-.84-.37-.85,0,.15.52,1.13.12,1.17.88.04.76-1.47.73-1.54.08l.27-.05c.04.35.95.44.96,0-.1-.55-1.11-.15-1.16-.88-.04-.56.8-.62,1.2-.41.12.07.21.19.24.34l-.28.04Z"/>
    <path class="cls-8" d="m216.65,88.09c-.71,0-.43,1-.48,1.66h-.31v-2.56h.31v1.01c.11-.21.26-.35.59-.35.87,0,.52,1.14.59,1.9h-.31v-1.19c.02-.31-.08-.48-.38-.47Z"/>
    <path class="cls-8" d="m217.8,89.75v-1.86h.31v1.86h-.31Zm0-2.26v-.29h.31v.29h-.31Z"/>
    <path class="cls-8" d="m219.33,87.45c-.3-.09-.41.1-.37.43h.37v.23h-.37v1.64h-.3v-1.64h-.26v-.23h.26c-.07-.51.17-.8.68-.67v.24Z"/>
    <path class="cls-8" d="m219.9,89.29c-.02.24.18.28.37.22v.24c-.32.1-.69.05-.69-.38v-1.24h-.22v-.23h.24l.09-.42h.21v.42h.34v.23h-.34v1.18Z"/>
    <path class="cls-8" d="m195.12,94.72c-.37-.41-.64-.9-.64-1.66s.27-1.24.64-1.64h.3c-.37.4-.63.9-.63,1.65s.25,1.24.63,1.65h-.3Z"/>
    <path class="cls-8" d="m196.35,92.32c-.39,0-.45.33-.45.74s.06.73.44.73c.41,0,.5-.31.5-.74s-.09-.73-.49-.72Zm-.09-.24c.3,0,.47.13.59.32v-.98s.3,0,.3,0v2.56s-.28,0-.28,0c-.02-.1,0-.23-.03-.3-.1.23-.27.34-.58.34-.52,0-.68-.38-.69-.96,0-.65.23-.98.69-.98Z"/>
    <path class="cls-8" d="m198.88,92.87c.06-.59-.74-.75-.95-.27-.03.07-.06.17-.06.27h1.01Zm-.51-.79c.62,0,.84.41.82,1.04h-1.32c0,.39.14.66.52.67.25,0,.42-.12.48-.28l.27.08c-.11.27-.36.44-.75.44-.57,0-.86-.36-.85-.98,0-.6.25-.96.83-.96Z"/>
    <path class="cls-8" d="m200.67,92.58c-.03-.33-.84-.37-.85,0,.15.52,1.13.12,1.17.88.04.76-1.47.73-1.54.08l.27-.05c.04.35.95.44.96,0-.1-.55-1.11-.15-1.16-.88-.04-.56.8-.62,1.2-.41.12.07.21.19.24.34l-.28.04Z"/>
    <path class="cls-8" d="m202.16,93.79c.39,0,.44-.33.44-.74s-.06-.72-.44-.73c-.41,0-.5.31-.5.74s.1.72.5.72Zm.08-1.71c.54,0,.69.4.69.96s-.16.96-.69.98c-.3,0-.48-.13-.59-.33v1.03s-.3,0-.3,0v-2.6s.29,0,.29,0l.02.29c.1-.21.27-.33.58-.33Z"/>
    <polygon class="cls-8" points="203.31 93.98 203.31 92.7 203.31 91.42 203.62 91.42 203.62 92.7 203.62 93.98 203.31 93.98"/>
    <path class="cls-8" d="m204.32,93.46c0,.2.12.32.31.32.4-.03.62-.28.59-.73-.42.02-.9-.05-.9.4Zm.91.17c-.15.21-.3.4-.67.39-.35,0-.57-.21-.57-.56,0-.63.62-.62,1.23-.62.03-.34-.09-.53-.4-.53-.24,0-.4.07-.41.3l-.32-.03c.05-.36.32-.51.74-.51s.71.2.71.63v.8c0,.2.07.31.27.26v.2c-.3.09-.6-.02-.58-.34Z"/>
    <polygon class="cls-8" points="205.9 93.98 205.9 93.86 205.9 93.75 207.04 92.35 205.97 92.35 205.97 92.24 205.97 92.12 207.38 92.12 207.38 92.24 207.38 92.35 206.24 93.75 207.45 93.75 207.45 93.86 207.45 93.98 205.9 93.98"/>
    <path class="cls-8" d="m208.04,93.46c0,.2.12.32.31.32.4-.03.62-.28.59-.73-.42.02-.9-.05-.9.4Zm.91.17c-.15.21-.3.4-.67.39-.35,0-.57-.21-.57-.56,0-.63.62-.62,1.23-.62.03-.34-.09-.53-.4-.53-.24,0-.4.07-.41.3l-.32-.03c.05-.36.32-.51.74-.51s.71.2.71.63v.8c0,.2.07.31.27.26v.2c-.3.09-.6-.02-.58-.34Z"/>
    <path class="cls-8" d="m211.59,92.33c-.66.03-.37,1.03-.43,1.66h-.3v-1.19c0-.28-.05-.49-.34-.47-.65.04-.37,1.02-.43,1.66h-.3v-1.86s.28,0,.28,0c0,.1,0,.24.02.31.1-.43.97-.49,1.05,0,.11-.21.26-.34.57-.35.83-.02.46,1.17.54,1.9h-.3v-1.19c0-.28-.05-.48-.34-.47Z"/>
    <path class="cls-8" d="m212.7,93.98v-1.86h.31v1.86h-.31Zm0-2.26v-.29h.31v.29h-.31Z"/>
    <path class="cls-8" d="m214.73,92.87c.06-.59-.74-.75-.95-.27-.03.07-.06.17-.06.27h1.01Zm-.51-.79c.62,0,.84.41.82,1.04h-1.32c0,.39.14.66.52.67.25,0,.42-.12.48-.28l.27.08c-.11.27-.36.44-.75.44-.57,0-.86-.36-.85-.98,0-.6.25-.96.83-.96Z"/>
    <path class="cls-8" d="m216.35,92.08c.87-.04.52,1.14.59,1.9h-.31v-1.19c0-.3-.08-.48-.38-.47-.71.02-.43,1-.48,1.66h-.31v-1.86s.28,0,.28,0c0,.1,0,.24.02.31.11-.22.28-.34.6-.35Z"/>
    <path class="cls-8" d="m217.74,93.52c-.02.24.18.28.37.22v.24c-.32.1-.69.05-.69-.38v-1.24h-.22v-.23h.24l.09-.42h.21v.42h.34v.23h-.34v1.18Z"/>
    <path class="cls-8" d="m219.11,93.79c.43,0,.52-.3.52-.74s-.08-.74-.5-.74-.52.31-.52.74.1.73.5.74Zm0-1.71c.61,0,.83.36.83.97,0,.62-.26.97-.84.97s-.81-.38-.82-.97c0-.65.27-.97.83-.97Z"/>
    <path class="cls-8" d="m220.42,91.42c.37.4.64.9.64,1.65s-.26,1.24-.64,1.65h-.3c.36-.4.63-.9.63-1.65s-.26-1.24-.63-1.65h.3Z"/>
    <path class="cls-8" d="m222.71,93.46c0,.2.12.32.31.32.4-.03.62-.28.59-.73-.42.02-.9-.05-.9.4Zm.91.17c-.15.21-.3.4-.67.39-.35,0-.57-.21-.57-.56,0-.63.62-.62,1.23-.62.03-.34-.09-.53-.4-.53-.24,0-.4.07-.41.3l-.32-.03c.05-.36.32-.51.74-.51s.71.2.71.63v.8c0,.2.07.31.27.26v.2c-.3.09-.6-.02-.58-.34Z"/>
    <polygon class="cls-8" points="225.42 93.98 225.42 92.7 225.42 91.42 225.73 91.42 225.73 92.7 225.73 93.98 225.42 93.98"/>
    <path class="cls-8" d="m226.43,93.46c0,.2.12.32.31.32.4-.03.62-.28.59-.73-.42.02-.9-.05-.9.4Zm.91.17c-.15.21-.3.4-.67.39-.35,0-.57-.21-.57-.56,0-.63.62-.62,1.23-.62.03-.34-.09-.53-.4-.53-.24,0-.4.07-.41.3l-.32-.03c.05-.36.32-.51.74-.51s.71.2.71.63v.8c0,.2.07.31.27.26v.2c-.3.09-.6-.02-.58-.34Z"/>
    <path class="cls-8" d="m204.19,98.22v-1.86h.31v1.86h-.31Zm0-2.26v-.29h.31v.29h-.31Z"/>
    <polygon class="cls-8" points="204.82 98.22 204.82 98.1 204.82 97.98 205.95 96.59 204.89 96.59 204.89 96.47 204.89 96.35 206.3 96.35 206.3 96.47 206.3 96.59 205.16 97.98 206.37 97.98 206.37 98.1 206.37 98.22 204.82 98.22"/>
    <path class="cls-8" d="m207.4,98.01c.4,0,.5-.32.5-.74s-.08-.72-.49-.72-.45.34-.45.74.05.73.44.73Zm.51-.1c-.11.22-.28.34-.59.34-.52,0-.68-.38-.69-.96,0-.58.17-.97.69-.98.31,0,.47.14.59.32,0-.11,0-.24.02-.31h.29v2.63h-.32v-1.04Z"/>
    <path class="cls-8" d="m209.28,98.26c-.87.04-.53-1.14-.6-1.9h.31v1.18c0,.3.07.49.38.48.71-.02.44-.99.49-1.66h.3v1.86s-.28,0-.28,0c0-.1,0-.25-.02-.32-.11.22-.27.35-.59.36Z"/>
    <path class="cls-8" d="m210.65,98.22v-1.86h.31v1.86h-.31Zm0-2.26v-.29h.31v.29h-.31Z"/>
    <path class="cls-8" d="m212.68,97.11c.06-.59-.74-.75-.95-.27-.03.07-.06.17-.06.27h1.01Zm-.51-.79c.62,0,.84.41.82,1.04h-1.32c0,.39.14.66.52.67.25,0,.42-.12.48-.28l.27.08c-.11.27-.36.44-.75.44-.57,0-.86-.36-.85-.98,0-.6.25-.96.83-.96Z"/>
    <path class="cls-8" d="m214.27,96.62c-.76-.16-.52.89-.56,1.6h-.31v-1.86s.28,0,.28,0c0,.12,0,.28.02.38.06-.26.23-.48.57-.4v.28Z"/>
    <path class="cls-8" d="m215.24,96.55c-.39,0-.45.33-.45.74s.06.73.44.73c.41,0,.5-.31.5-.74s-.09-.73-.49-.72Zm-.09-.24c.3,0,.47.13.59.32v-.98s.3,0,.3,0v2.56s-.28,0-.28,0c-.02-.1,0-.23-.03-.3-.1.23-.27.34-.58.34-.52,0-.68-.38-.69-.96,0-.65.23-.98.69-.98Z"/>
    <path class="cls-8" d="m216.75,97.7c0,.2.12.32.31.32.4-.03.62-.28.59-.73-.42.02-.9-.05-.9.4Zm.91.17c-.15.21-.3.4-.67.39-.35,0-.57-.21-.57-.56,0-.63.62-.62,1.23-.62.03-.34-.09-.53-.4-.53-.24,0-.4.07-.41.3l-.32-.03c.05-.36.32-.51.74-.51s.71.2.71.63v.8c0,.2.07.31.27.26v.2c-.3.09-.6-.02-.58-.34Z"/>
    <path class="cls-9" d="m176.16,164.25c0-1.59,1.59-1.59,1.59-1.59h39.18c1.59,0,1.59,1.59,1.59,1.59v30.18c-7.07-5.29-11.49-5.29-14.13-5.29-4.24,0-9.87,5.29-14.11,5.29-2.62,0-7.07,0-14.11-5.29v-24.88Z"/>
    <path class="cls-1" d="m176.16,164.25c0-1.59,1.59-1.59,1.59-1.59h39.18c1.59,0,1.59,1.59,1.59,1.59v30.18c-7.07-5.29-11.49-5.29-14.13-5.29-4.24,0-9.87,5.29-14.11,5.29-2.62,0-7.07,0-14.11-5.29v-24.88Z"/>
    <path class="cls-8" d="m188.75,171.75c.54-.02,1.22.14,1.22-.44s-.69-.41-1.22-.43v.87Zm0-1.13c.49,0,1.08.09,1.08-.41,0-.46-.62-.35-1.08-.36v.77Zm.95.11c.34.05.6.23.6.6,0,.85-1.04.67-1.87.69v-2.43c.74.03,1.73-.17,1.73.59,0,.32-.19.49-.46.56Z"/>
    <polygon class="cls-8" points="190.72 172.02 190.72 170.74 190.72 169.46 191.03 169.46 191.03 170.74 191.03 172.02 190.72 172.02"/>
    <path class="cls-8" d="m192.22,171.82c.43,0,.52-.3.52-.74s-.08-.74-.5-.74-.52.31-.52.74.1.73.5.74Zm0-1.71c.61,0,.83.36.83.97,0,.62-.26.97-.84.97s-.81-.38-.82-.97c0-.65.27-.97.83-.97Z"/>
    <path class="cls-8" d="m194.13,171.81c.4,0,.5-.32.5-.74s-.08-.72-.49-.72-.45.34-.45.74.05.73.44.73Zm.51-.1c-.11.22-.28.34-.59.34-.52,0-.68-.38-.69-.96,0-.58.17-.97.69-.98.31,0,.47.14.59.32,0-.11,0-.24.02-.31h.29v2.63h-.32v-1.04Z"/>
    <path class="cls-8" d="m196,172.05c-.87.04-.53-1.14-.6-1.9h.31v1.18c0,.3.07.49.38.48.71-.02.44-.99.49-1.66h.3v1.86s-.28,0-.28,0c0-.1,0-.25-.02-.32-.11.22-.27.35-.59.36Z"/>
    <path class="cls-8" d="m198.63,170.91c.06-.59-.74-.75-.95-.27-.03.07-.06.17-.06.27h1.01Zm-.51-.79c.62,0,.84.41.82,1.04h-1.32c0,.39.14.66.52.67.25,0,.42-.12.48-.28l.27.08c-.11.27-.36.44-.75.44-.57,0-.86-.36-.85-.98,0-.6.25-.96.83-.96Z"/>
    <path class="cls-8" d="m201.4,170.61c-.03-.33-.84-.37-.85,0,.15.52,1.13.12,1.17.88.04.76-1.47.73-1.54.08l.27-.05c.04.35.95.44.96,0-.1-.55-1.11-.15-1.16-.88-.04-.56.8-.62,1.2-.41.12.07.21.19.24.34l-.28.04Z"/>
    <path class="cls-8" d="m202.88,170.36c-.71,0-.43,1-.48,1.66h-.31v-2.56h.31v1.01c.11-.21.26-.35.59-.35.87,0,.52,1.14.59,1.9h-.31v-1.19c.02-.31-.08-.48-.38-.47Z"/>
    <path class="cls-8" d="m204.04,172.02v-1.86h.31v1.86h-.31Zm0-2.26v-.29h.31v.29h-.31Z"/>
    <path class="cls-8" d="m205.57,169.72c-.3-.09-.41.1-.37.43h.37v.23h-.37v1.64h-.3v-1.64h-.26v-.23h.26c-.07-.51.17-.8.68-.67v.24Z"/>
    <path class="cls-8" d="m206.14,171.55c-.02.24.18.28.37.22v.24c-.32.1-.69.05-.69-.38v-1.24h-.22v-.23h.24l.09-.42h.21v.42h.34v.23h-.34v1.18Z"/>
    <path class="cls-8" d="m181.35,176.99c-.37-.41-.64-.9-.64-1.66s.27-1.24.64-1.64h.3c-.37.4-.63.9-.63,1.65s.25,1.24.63,1.65h-.3Z"/>
    <path class="cls-8" d="m182.59,174.58c-.39,0-.45.33-.45.74s.06.73.44.73c.41,0,.5-.31.5-.74s-.09-.73-.49-.72Zm-.09-.24c.3,0,.47.13.59.32v-.98s.3,0,.3,0v2.56s-.28,0-.28,0c-.02-.1,0-.23-.03-.3-.1.23-.27.34-.58.34-.52,0-.68-.38-.69-.96,0-.65.23-.98.69-.98Z"/>
    <path class="cls-8" d="m185.12,175.14c.06-.59-.74-.75-.95-.27-.03.07-.06.17-.06.27h1.01Zm-.51-.79c.62,0,.84.41.82,1.04h-1.32c0,.39.14.66.52.67.25,0,.42-.12.48-.28l.27.08c-.11.27-.36.44-.75.44-.57,0-.86-.36-.85-.98,0-.6.25-.96.83-.96Z"/>
    <path class="cls-8" d="m186.91,174.85c-.03-.33-.84-.37-.85,0,.15.52,1.13.12,1.17.88.04.76-1.47.73-1.54.08l.27-.05c.04.35.95.44.96,0-.1-.55-1.11-.15-1.16-.88-.04-.56.8-.62,1.2-.41.12.07.21.19.24.34l-.28.04Z"/>
    <path class="cls-8" d="m188.4,176.05c.39,0,.44-.33.44-.74s-.06-.72-.44-.73c-.41,0-.5.31-.5.74s.1.72.5.72Zm.08-1.71c.54,0,.69.4.69.96s-.16.96-.69.98c-.3,0-.48-.13-.59-.33v1.03s-.3,0-.3,0v-2.6s.29,0,.29,0l.02.29c.1-.21.27-.33.58-.33Z"/>
    <polygon class="cls-8" points="189.55 176.25 189.55 174.97 189.55 173.69 189.86 173.69 189.86 174.97 189.86 176.25 189.55 176.25"/>
    <path class="cls-8" d="m190.56,175.73c0,.2.12.32.31.32.4-.03.62-.28.59-.73-.42.02-.9-.05-.9.4Zm.91.17c-.15.21-.3.4-.67.39-.35,0-.57-.21-.57-.56,0-.63.62-.62,1.23-.62.03-.34-.09-.53-.4-.53-.24,0-.4.07-.41.3l-.32-.03c.05-.36.32-.51.74-.51s.71.2.71.63v.8c0,.2.07.31.27.26v.2c-.3.09-.6-.02-.58-.34Z"/>
    <polygon class="cls-8" points="192.13 176.25 192.13 176.13 192.13 176.02 193.27 174.62 192.2 174.62 192.2 174.51 192.2 174.39 193.61 174.39 193.61 174.51 193.61 174.62 192.48 176.02 193.68 176.02 193.68 176.13 193.68 176.25 192.13 176.25"/>
    <path class="cls-8" d="m194.28,175.73c0,.2.12.32.31.32.4-.03.62-.28.59-.73-.42.02-.9-.05-.9.4Zm.91.17c-.15.21-.3.4-.67.39-.35,0-.57-.21-.57-.56,0-.63.62-.62,1.23-.62.03-.34-.09-.53-.4-.53-.24,0-.4.07-.41.3l-.32-.03c.05-.36.32-.51.74-.51s.71.2.71.63v.8c0,.2.07.31.27.26v.2c-.3.09-.6-.02-.58-.34Z"/>
    <path class="cls-8" d="m197.83,174.59c-.66.03-.37,1.03-.43,1.66h-.3v-1.19c0-.28-.05-.49-.34-.47-.65.04-.37,1.02-.43,1.66h-.3v-1.86s.28,0,.28,0c0,.1,0,.24.02.31.1-.43.97-.49,1.05,0,.11-.21.26-.34.57-.35.83-.02.46,1.17.54,1.9h-.3v-1.19c0-.28-.05-.48-.34-.47Z"/>
    <path class="cls-8" d="m198.94,176.25v-1.86h.31v1.86h-.31Zm0-2.26v-.29h.31v.29h-.31Z"/>
    <path class="cls-8" d="m200.97,175.14c.06-.59-.74-.75-.95-.27-.03.07-.06.17-.06.27h1.01Zm-.51-.79c.62,0,.84.41.82,1.04h-1.32c0,.39.14.66.52.67.25,0,.42-.12.48-.28l.27.08c-.11.27-.36.44-.75.44-.57,0-.86-.36-.85-.98,0-.6.25-.96.83-.96Z"/>
    <path class="cls-8" d="m202.58,174.35c.87-.04.52,1.14.59,1.9h-.31v-1.19c0-.3-.08-.48-.38-.47-.71.02-.43,1-.48,1.66h-.31v-1.86s.28,0,.28,0c0,.1,0,.24.02.31.11-.22.28-.34.6-.35Z"/>
    <path class="cls-8" d="m203.97,175.79c-.02.24.18.28.37.22v.24c-.32.1-.69.05-.69-.38v-1.24h-.22v-.23h.24l.09-.42h.21v.42h.34v.23h-.34v1.18Z"/>
    <path class="cls-8" d="m205.35,176.05c.43,0,.52-.3.52-.74s-.08-.74-.5-.74-.52.31-.52.74.1.73.5.74Zm0-1.71c.61,0,.83.36.83.97,0,.62-.26.97-.84.97s-.81-.38-.82-.97c0-.65.27-.97.83-.97Z"/>
    <path class="cls-8" d="m206.66,173.69c.37.4.64.9.64,1.65s-.26,1.24-.64,1.65h-.3c.36-.4.63-.9.63-1.65s-.26-1.24-.63-1.65h.3Z"/>
    <path class="cls-8" d="m208.95,175.73c0,.2.12.32.31.32.4-.03.62-.28.59-.73-.42.02-.9-.05-.9.4Zm.91.17c-.15.21-.3.4-.67.39-.35,0-.57-.21-.57-.56,0-.63.62-.62,1.23-.62.03-.34-.09-.53-.4-.53-.24,0-.4.07-.41.3l-.32-.03c.05-.36.32-.51.74-.51s.71.2.71.63v.8c0,.2.07.31.27.26v.2c-.3.09-.6-.02-.58-.34Z"/>
    <polygon class="cls-8" points="211.65 176.25 211.65 174.97 211.65 173.69 211.96 173.69 211.96 174.97 211.96 176.25 211.65 176.25"/>
    <path class="cls-8" d="m212.66,175.73c0,.2.12.32.31.32.4-.03.62-.28.59-.73-.42.02-.9-.05-.9.4Zm.91.17c-.15.21-.3.4-.67.39-.35,0-.57-.21-.57-.56,0-.63.62-.62,1.23-.62.03-.34-.09-.53-.4-.53-.24,0-.4.07-.41.3l-.32-.03c.05-.36.32-.51.74-.51s.71.2.71.63v.8c0,.2.07.31.27.26v.2c-.3.09-.6-.02-.58-.34Z"/>
    <path class="cls-8" d="m191.89,178.82c-.39,0-.45.33-.45.74s.06.73.44.73c.41,0,.5-.31.5-.74s-.09-.73-.49-.72Zm-.09-.24c.3,0,.47.13.59.32v-.98s.3,0,.3,0v2.56s-.28,0-.28,0c-.02-.1,0-.23-.03-.3-.1.23-.27.34-.58.34-.52,0-.68-.38-.69-.96,0-.65.23-.98.69-.98Z"/>
    <path class="cls-8" d="m194.42,179.38c.06-.59-.74-.75-.95-.27-.03.07-.06.17-.06.27h1.01Zm-.51-.79c.62,0,.84.41.82,1.04h-1.32c0,.39.14.66.52.67.25,0,.42-.12.48-.28l.27.08c-.11.27-.36.44-.75.44-.57,0-.86-.36-.85-.98,0-.6.25-.96.83-.96Z"/>
    <path class="cls-8" d="m196,178.89c-.76-.16-.52.89-.56,1.6h-.31v-1.86s.28,0,.28,0c0,.12,0,.28.02.38.06-.26.23-.48.57-.4v.28Z"/>
    <path class="cls-8" d="m197.54,179.38c.06-.59-.74-.75-.95-.27-.03.07-.06.17-.06.27h1.01Zm-.51-.79c.62,0,.84.41.82,1.04h-1.32c0,.39.14.66.52.67.25,0,.42-.12.48-.28l.27.08c-.11.27-.36.44-.75.44-.57,0-.86-.36-.85-.98,0-.6.25-.96.83-.96Z"/>
    <path class="cls-8" d="m198.95,178.83c-.39,0-.47.32-.47.72s.09.74.47.74c.24,0,.4-.14.42-.37l.31.02c-.06.36-.3.6-.73.6-.58,0-.74-.4-.8-.97-.1-.91.99-1.28,1.44-.63.04.07.05.14.07.22l-.31.03c-.04-.21-.16-.34-.4-.34Z"/>
    <path class="cls-8" d="m200.82,178.83c-.71,0-.43,1-.48,1.66h-.31v-2.56h.31v1.01c.11-.21.26-.35.59-.35.87,0,.52,1.14.59,1.9h-.31v-1.19c.02-.31-.08-.48-.38-.47Z"/>
    <path class="cls-8" d="m202.21,179.97c0,.2.12.32.31.32.4-.03.62-.28.59-.73-.42.02-.9-.05-.9.4Zm.91.17c-.15.21-.3.4-.67.39-.35,0-.57-.21-.57-.56,0-.63.62-.62,1.23-.62.03-.34-.09-.53-.4-.53-.24,0-.4.07-.41.3l-.32-.03c.05-.36.32-.51.74-.51s.71.2.71.63v.8c0,.2.07.31.27.26v.2c-.3.09-.6-.02-.58-.34Z"/>
  </g>
</svg>