<?xml version="1.0" encoding="UTF-8"?>
<svg id="Layer_2" data-name="Layer 2" xmlns="http://www.w3.org/2000/svg" viewBox="0 0 150.23 142.41">
  <defs>
    <style>
      .cls-1 {
        fill: #e3fae3;
      }

      .cls-2 {
        fill: #333;
      }

      .cls-3 {
        stroke-width: .23px;
      }

      .cls-3, .cls-4, .cls-5 {
        fill: none;
        stroke: #5e5e5e;
      }

      .cls-6 {
        fill: #fff3d9;
      }

      .cls-7 {
        fill: #ced4db;
      }

      .cls-4 {
        stroke-width: .34px;
      }

      .cls-8 {
        fill: #dfe3e8;
      }

      .cls-9 {
        fill: #5e5e5e;
      }

      .cls-5 {
        stroke-width: 0px;
      }
    </style>
  </defs>
  <g id="Layer_1-2" data-name="Layer 1">
    <path class="cls-8" d="m81.17.17c3.12,0,5.66,2.54,5.66,5.66s-2.54,5.66-5.66,5.66h-13.58c-3.12,0-5.66-2.54-5.66-5.66S64.46.17,67.58.17h13.58Z"/>
    <path class="cls-4" d="m81.17.17c3.12,0,5.66,2.54,5.66,5.66s-2.54,5.66-5.66,5.66h-13.58c-3.12,0-5.66-2.54-5.66-5.66S64.46.17,67.58.17h13.58Z"/>
    <path class="cls-2" d="m67.27,5c-.07-.2-.24-.31-.51-.31-.41,0-.61.28-.61.69s.2.71.62.71c.3,0,.43-.17.54-.36l.19.1c-.13.27-.36.46-.75.46-.56,0-.82-.35-.85-.9-.04-.73.69-1.07,1.31-.78.13.06.22.18.27.32l-.22.08Z"/>
    <path class="cls-2" d="m67.94,5.88c0,.14.08.23.22.23.29-.02.44-.2.42-.52-.3.01-.64-.03-.64.29Zm.65.12c-.1.15-.22.29-.48.28-.25,0-.41-.15-.41-.4,0-.45.44-.44.87-.44.02-.24-.06-.38-.29-.38-.17,0-.29.05-.29.22l-.23-.02c.03-.26.23-.36.53-.36s.5.14.5.45v.57c0,.14.05.22.2.19v.14c-.22.06-.43-.01-.41-.24Z"/>
    <path class="cls-2" d="m69.8,5.11c-.54-.11-.37.64-.4,1.14h-.22v-1.33s.2,0,.2,0c0,.08,0,.2.01.27.04-.19.16-.34.41-.29v.2Z"/>
    <path class="cls-2" d="m70.63,5.11c-.54-.11-.37.64-.4,1.14h-.22v-1.33s.2,0,.2,0c0,.08,0,.2.01.27.04-.19.16-.34.41-.29v.2Z"/>
    <path class="cls-2" d="m71.36,6.11c.31,0,.37-.22.37-.52s-.06-.52-.36-.52-.37.22-.37.52.07.52.36.52Zm0-1.22c.43,0,.59.26.59.69,0,.44-.19.69-.6.69s-.58-.27-.59-.69c0-.46.2-.69.59-.69Z"/>
    <path class="cls-2" d="m73,5.25c-.02-.24-.6-.27-.61,0,.1.37.8.08.83.63.03.54-1.05.52-1.1.06l.2-.03c.03.25.68.31.68,0-.07-.39-.79-.1-.82-.63-.03-.4.57-.44.85-.29.08.05.15.13.17.24l-.2.03Z"/>
    <path class="cls-2" d="m74.76,6.11c.28,0,.31-.24.31-.52s-.03-.52-.31-.52c-.29,0-.36.22-.36.53s.07.51.36.51Zm.06-1.22c.37,0,.48.27.49.68,0,.46-.16.7-.49.7-.22,0-.34-.08-.41-.24v.21h-.23v-1.82h.23v.71c.07-.16.2-.24.41-.24Z"/>
    <path class="cls-2" d="m75.75,5.88c0,.14.08.23.22.23.29-.02.44-.2.42-.52-.3.01-.64-.03-.64.29Zm.65.12c-.1.15-.22.29-.48.28-.25,0-.41-.15-.41-.4,0-.45.44-.44.87-.44.02-.24-.06-.38-.29-.38-.17,0-.29.05-.29.22l-.23-.02c.03-.26.23-.36.53-.36s.5.14.5.45v.57c0,.14.05.22.2.19v.14c-.22.06-.43-.01-.41-.24Z"/>
    <path class="cls-2" d="m76.74,6.59c.17.03.23-.04.23-.21v-1.46h.22v1.5c.01.28-.16.41-.45.34v-.17Zm.23-1.96v-.21h.22v.21h-.22Z"/>
    <path class="cls-2" d="m77.7,5.88c0,.14.08.23.22.23.29-.02.44-.2.42-.52-.3.01-.64-.03-.64.29Zm.65.12c-.1.15-.22.29-.48.28-.25,0-.41-.15-.41-.4,0-.45.44-.44.87-.44.02-.24-.06-.38-.29-.38-.17,0-.29.05-.29.22l-.23-.02c.03-.26.23-.36.53-.36s.5.14.5.45v.57c0,.14.05.22.2.19v.14c-.22.06-.43-.01-.41-.24Z"/>
    <path class="cls-2" d="m79.57,4.89c.62-.03.37.81.42,1.36h-.22v-.85c0-.22-.06-.34-.27-.34-.5.01-.31.71-.34,1.18h-.22v-1.33s.2,0,.2,0c0,.07,0,.17.01.22.08-.15.2-.24.43-.25Z"/>
    <path class="cls-2" d="m80.81,5.06c-.28,0-.32.24-.32.52s.04.52.31.52c.29,0,.36-.22.36-.53s-.06-.52-.35-.51Zm-.06-.17c.22,0,.34.09.42.23v-.7s.22,0,.22,0v1.82s-.2,0-.2,0c-.01-.07,0-.16-.02-.22-.07.16-.2.24-.41.24-.37,0-.48-.27-.49-.68,0-.46.16-.7.49-.7Z"/>
    <path class="cls-2" d="m82.24,6.11c.31,0,.37-.22.37-.52s-.06-.52-.36-.52-.37.22-.37.52.07.52.36.52Zm0-1.22c.43,0,.59.26.59.69,0,.44-.19.69-.6.69s-.58-.27-.59-.69c0-.46.2-.69.59-.69Z"/>
    <path class="cls-3" d="m74.38,11.77v6.44c0,.07-.11.07-.11.07-.11,0-.11.07-.11.07v4.46"/>
    <rect class="cls-9" x="74.26" y="11.66" width=".23" height=".11"/>
    <rect class="cls-5" x="74.26" y="11.66" width=".23" height=".11"/>
    <polygon class="cls-9" points="74.15 24.54 73.7 22.92 74.71 22.92 74.15 24.54"/>
    <polygon class="cls-3" points="74.15 24.54 73.7 22.92 74.71 22.92 74.15 24.54"/>
    <path class="cls-1" d="m64.39,25.73c.17-.66.85-.66.85-.66h24.98c.68,0,.5.66.5.66l-3.87,14.54c-.18.66-.86.66-.86.66h-24.97c-.68,0-.5-.66-.5-.66l3.88-14.53Z"/>
    <path class="cls-4" d="m64.39,25.73c.17-.66.85-.66.85-.66h24.98c.68,0,.5.66.5.66l-3.87,14.54c-.18.66-.86.66-.86.66h-24.97c-.68,0-.5-.66-.5-.66l3.88-14.53Z"/>
    <polygon class="cls-2" points="64.06 30.41 64.06 29.54 64.06 28.68 64.29 28.68 64.29 29.45 64.29 30.22 65.16 30.22 65.16 30.32 65.16 30.41 64.06 30.41"/>
    <path class="cls-2" d="m65.94,30.27c.31,0,.37-.22.37-.52s-.06-.52-.36-.52-.37.22-.37.52.07.52.36.52Zm0-1.22c.43,0,.59.26.59.69,0,.44-.19.69-.6.69s-.58-.27-.59-.69c0-.46.2-.69.59-.69Z"/>
    <path class="cls-2" d="m67.59,29.41c-.02-.24-.6-.27-.61,0,.1.37.8.08.83.63.03.54-1.05.52-1.1.06l.2-.03c.03.25.68.31.68,0-.07-.39-.79-.1-.82-.63-.03-.4.57-.44.85-.29.08.05.15.13.17.24l-.2.03Z"/>
    <path class="cls-2" d="m69.27,29.23c-.28,0-.34.23-.34.51s.06.52.34.52c.17,0,.29-.1.3-.27h.22c-.04.27-.22.44-.52.44-.41,0-.53-.29-.57-.69-.07-.65.71-.92,1.03-.45.03.05.03.1.05.15l-.22.02c-.03-.15-.11-.24-.29-.24Z"/>
    <path class="cls-2" d="m70.19,30.04c0,.14.08.23.22.23.29-.02.44-.2.42-.52-.3.01-.64-.03-.64.29Zm.65.12c-.1.15-.22.29-.48.28-.25,0-.41-.15-.41-.4,0-.45.44-.44.87-.44.02-.24-.06-.38-.29-.38-.17,0-.29.05-.29.22l-.23-.02c.03-.26.23-.36.53-.36s.5.14.5.45v.57c0,.14.05.22.2.19v.14c-.22.06-.43-.01-.41-.24Z"/>
    <path class="cls-2" d="m72.05,29.27c-.54-.11-.37.64-.4,1.14h-.22v-1.33s.2,0,.2,0c0,.08,0,.2.01.27.04-.19.16-.34.41-.29v.2Z"/>
    <path class="cls-2" d="m72.88,29.27c-.54-.11-.37.64-.4,1.14h-.22v-1.33s.2,0,.2,0c0,.08,0,.2.01.27.04-.19.16-.34.41-.29v.2Z"/>
    <path class="cls-2" d="m73.61,30.27c.31,0,.37-.22.37-.52s-.06-.52-.36-.52-.37.22-.37.52.07.52.36.52Zm0-1.22c.43,0,.59.26.59.69,0,.44-.19.69-.6.69s-.58-.27-.59-.69c0-.46.2-.69.59-.69Z"/>
    <path class="cls-2" d="m75.26,29.41c-.02-.24-.6-.27-.61,0,.1.37.8.08.83.63.03.54-1.05.52-1.1.06l.2-.03c.03.25.68.31.68,0-.07-.39-.79-.1-.82-.63-.03-.4.57-.44.85-.29.08.05.15.13.17.24l-.2.03Z"/>
    <path class="cls-2" d="m76.6,30.04c0,.14.08.23.22.23.29-.02.44-.2.42-.52-.3.01-.64-.03-.64.29Zm.65.12c-.1.15-.22.29-.48.28-.25,0-.41-.15-.41-.4,0-.45.44-.44.87-.44.02-.24-.06-.38-.29-.38-.17,0-.29.05-.29.22l-.23-.02c.03-.26.23-.36.53-.36s.5.14.5.45v.57c0,.14.05.22.2.19v.14c-.22.06-.43-.01-.41-.24Z"/>
    <path class="cls-2" d="m78.41,30.27c.28,0,.31-.24.31-.52s-.04-.51-.31-.52c-.29,0-.36.22-.36.53s.07.51.36.51Zm.06-1.22c.38,0,.49.29.49.68s-.11.68-.49.7c-.22,0-.34-.09-.42-.24v.73s-.22,0-.22,0v-1.85s.21,0,.21,0v.21c.08-.15.21-.24.43-.24Z"/>
    <path class="cls-2" d="m79.4,30.04c0,.14.08.23.22.23.29-.02.44-.2.42-.52-.3.01-.64-.03-.64.29Zm.65.12c-.1.15-.22.29-.48.28-.25,0-.41-.15-.41-.4,0-.45.44-.44.87-.44.02-.24-.06-.38-.29-.38-.17,0-.29.05-.29.22l-.23-.02c.03-.26.23-.36.53-.36s.5.14.5.45v.57c0,.14.05.22.2.19v.14c-.22.06-.43-.01-.41-.24Z"/>
    <path class="cls-2" d="m81.25,29.27c-.54-.11-.37.64-.4,1.14h-.22v-1.33s.2,0,.2,0c0,.08,0,.2.01.27.04-.19.16-.34.41-.29v.2Z"/>
    <path class="cls-2" d="m82.35,29.62c.04-.42-.53-.54-.68-.2-.02.05-.04.12-.04.2h.72Zm-.36-.57c.44,0,.6.29.59.74h-.94c0,.28.1.47.37.48.18,0,.3-.08.34-.2l.2.06c-.08.2-.26.31-.54.31-.41,0-.61-.26-.61-.7,0-.43.18-.68.59-.68Z"/>
    <path class="cls-2" d="m83.36,29.23c-.28,0-.34.23-.34.51s.06.52.34.52c.17,0,.29-.1.3-.27h.22c-.04.27-.22.44-.52.44-.41,0-.53-.29-.57-.69-.07-.65.71-.92,1.03-.45.03.05.03.1.05.15l-.22.02c-.03-.15-.11-.24-.29-.24Z"/>
    <path class="cls-2" d="m85.01,29.62c.04-.42-.53-.54-.68-.2-.02.05-.04.12-.04.2h.72Zm-.36-.57c.44,0,.6.29.59.74h-.94c0,.28.1.47.37.48.18,0,.3-.08.34-.2l.2.06c-.08.2-.26.31-.54.31-.41,0-.61-.26-.61-.7,0-.43.18-.68.59-.68Z"/>
    <path class="cls-2" d="m86.14,29.27c-.54-.11-.37.64-.4,1.14h-.22v-1.33s.2,0,.2,0c0,.08,0,.2.01.27.04-.19.16-.34.41-.29v.2Z"/>
    <path class="cls-2" d="m86.51,30.04c0,.14.08.23.22.23.29-.02.44-.2.42-.52-.3.01-.64-.03-.64.29Zm.65.12c-.1.15-.22.29-.48.28-.25,0-.41-.15-.41-.4,0-.45.44-.44.87-.44.02-.24-.06-.38-.29-.38-.17,0-.29.05-.29.22l-.23-.02c.03-.26.23-.36.53-.36s.5.14.5.45v.57c0,.14.05.22.2.19v.14c-.22.06-.43-.01-.41-.24Z"/>
    <path class="cls-2" d="m88.39,29.06c.62-.03.37.81.42,1.36h-.22v-.85c0-.22-.06-.34-.27-.34-.5.01-.31.71-.34,1.18h-.22v-1.33s.2,0,.2,0c0,.07,0,.17.01.22.08-.15.2-.24.43-.25Z"/>
    <path class="cls-2" d="m67.06,32.24c-.28,0-.32.24-.32.52s.04.52.31.52c.29,0,.36-.22.36-.53s-.06-.52-.35-.51Zm-.06-.17c.22,0,.34.09.42.23v-.7s.22,0,.22,0v1.82s-.2,0-.2,0c-.01-.07,0-.16-.02-.22-.07.16-.2.24-.41.24-.37,0-.48-.27-.49-.68,0-.46.16-.7.49-.7Z"/>
    <path class="cls-2" d="m68.14,33.06c0,.14.08.23.22.23.29-.02.44-.2.42-.52-.3.01-.64-.03-.64.29Zm.65.12c-.1.15-.22.29-.48.28-.25,0-.41-.15-.41-.4,0-.45.44-.44.87-.44.02-.24-.06-.38-.29-.38-.17,0-.29.05-.29.22l-.23-.02c.03-.26.23-.36.53-.36s.5.14.5.45v.57c0,.14.05.22.2.19v.14c-.22.06-.43-.01-.41-.24Z"/>
    <path class="cls-2" d="m69.86,32.24c-.28,0-.32.24-.32.52s.04.52.31.52c.29,0,.36-.22.36-.53s-.06-.52-.35-.51Zm-.06-.17c.22,0,.34.09.42.23v-.7s.22,0,.22,0v1.82s-.2,0-.2,0c-.01-.07,0-.16-.02-.22-.07.16-.2.24-.41.24-.37,0-.48-.27-.49-.68,0-.46.16-.7.49-.7Z"/>
    <path class="cls-2" d="m71.29,33.29c.31,0,.37-.22.37-.52s-.06-.52-.36-.52-.37.22-.37.52.07.52.36.52Zm0-1.22c.43,0,.59.26.59.69,0,.44-.19.69-.6.69s-.58-.27-.59-.69c0-.46.2-.69.59-.69Z"/>
    <path class="cls-2" d="m73.28,33.46c-.62.03-.38-.81-.43-1.36h.22v.84c0,.22.05.35.27.34.5-.01.31-.71.35-1.18h.22v1.33s-.2,0-.2,0c0-.07,0-.17-.01-.23-.08.15-.2.25-.42.26Z"/>
    <path class="cls-2" d="m74.9,32.07c.62-.03.37.81.42,1.36h-.22v-.85c0-.22-.06-.34-.27-.34-.5.01-.31.71-.34,1.18h-.22v-1.33s.2,0,.2,0c0,.07,0,.17.01.22.08-.15.2-.24.43-.25Z"/>
    <path class="cls-2" d="m77.13,32.43c-.02-.24-.6-.27-.61,0,.1.37.8.08.83.63.03.54-1.05.52-1.1.06l.2-.03c.03.25.68.31.68,0-.07-.39-.79-.1-.82-.63-.03-.4.57-.44.85-.29.08.05.15.13.17.24l-.2.03Z"/>
    <path class="cls-2" d="m77.61,33.43v-1.33h.22v1.33h-.22Zm0-1.61v-.21h.22v.21h-.22Z"/>
    <path class="cls-2" d="m78.94,32.43c-.02-.24-.6-.27-.61,0,.1.37.8.08.83.63.03.54-1.05.52-1.1.06l.2-.03c.03.25.68.31.68,0-.07-.39-.79-.1-.82-.63-.03-.4.57-.44.85-.29.08.05.15.13.17.24l-.2.03Z"/>
    <path class="cls-2" d="m79.67,33.1c-.01.17.13.2.27.15v.17c-.23.07-.49.03-.49-.27v-.89h-.15v-.16h.17l.06-.3h.15v.3h.24v.16h-.24v.84Z"/>
    <path class="cls-2" d="m81.01,32.64c.04-.42-.53-.54-.68-.2-.02.05-.04.12-.04.2h.72Zm-.36-.57c.44,0,.6.29.59.74h-.94c0,.28.1.47.37.48.18,0,.3-.08.34-.2l.2.06c-.08.2-.26.31-.54.31-.41,0-.61-.26-.61-.7,0-.43.18-.68.59-.68Z"/>
    <path class="cls-2" d="m82.82,32.25c-.47.02-.27.73-.31,1.18h-.22v-.85c0-.2-.03-.35-.24-.34-.46.03-.27.73-.31,1.18h-.22v-1.33s.2,0,.2,0c0,.07,0,.17.01.22.07-.31.69-.35.75,0,.08-.15.19-.24.41-.25.59-.01.33.83.38,1.36h-.22v-.85c0-.2-.03-.34-.24-.34Z"/>
    <path class="cls-2" d="m83.77,33.06c0,.14.08.23.22.23.29-.02.44-.2.42-.52-.3.01-.64-.03-.64.29Zm.65.12c-.1.15-.22.29-.48.28-.25,0-.41-.15-.41-.4,0-.45.44-.44.87-.44.02-.24-.06-.38-.29-.38-.17,0-.29.05-.29.22l-.23-.02c.03-.26.23-.36.53-.36s.5.14.5.45v.57c0,.14.05.22.2.19v.14c-.22.06-.43-.01-.41-.24Z"/>
    <path class="cls-2" d="m67.95,35.31c-.54-.11-.37.64-.4,1.14h-.22v-1.33s.2,0,.2,0c0,.08,0,.2.01.27.04-.19.16-.34.41-.29v.2Z"/>
    <path class="cls-2" d="m68.32,36.08c0,.14.08.23.22.23.29-.02.44-.2.42-.52-.3.01-.64-.03-.64.29Zm.65.12c-.1.15-.22.29-.48.28-.25,0-.41-.15-.41-.4,0-.45.44-.44.87-.44.02-.24-.06-.38-.29-.38-.17,0-.29.05-.29.22l-.23-.02c.03-.26.23-.36.53-.36s.5.14.5.45v.57c0,.14.05.22.2.19v.14c-.22.06-.43-.01-.41-.24Z"/>
    <path class="cls-2" d="m70.2,35.09c.62-.03.37.81.42,1.36h-.22v-.85c0-.22-.06-.34-.27-.34-.5.01-.31.71-.34,1.18h-.22v-1.33s.2,0,.2,0c0,.07,0,.17.01.22.08-.15.2-.24.43-.25Z"/>
    <path class="cls-2" d="m71.44,35.26c-.28,0-.32.24-.32.52s.04.52.31.52c.29,0,.36-.22.36-.53s-.06-.52-.35-.51Zm-.06-.17c.22,0,.34.09.42.23v-.7s.22,0,.22,0v1.82s-.2,0-.2,0c-.01-.07,0-.16-.02-.22-.07.16-.2.24-.41.24-.37,0-.48-.27-.49-.68,0-.46.16-.7.49-.7Z"/>
    <path class="cls-2" d="m72.87,36.31c.31,0,.37-.22.37-.52s-.06-.52-.36-.52-.37.22-.37.52.07.52.36.52Zm0-1.22c.43,0,.59.26.59.69,0,.44-.19.69-.6.69s-.58-.27-.59-.69c0-.46.2-.69.59-.69Z"/>
    <path class="cls-2" d="m75.04,35.27c-.47.02-.27.73-.31,1.18h-.22v-.85c0-.2-.03-.35-.24-.34-.46.03-.27.73-.31,1.18h-.22v-1.33s.2,0,.2,0c0,.07,0,.17.01.22.07-.31.69-.35.75,0,.08-.15.19-.24.41-.25.59-.01.33.83.38,1.36h-.22v-.85c0-.2-.03-.34-.24-.34Z"/>
    <path class="cls-2" d="m75.83,36.45v-1.33h.22v1.33h-.22Zm0-1.61v-.21h.22v.21h-.22Z"/>
    <polygon class="cls-2" points="76.28 36.45 76.28 36.36 76.28 36.28 77.09 35.29 76.33 35.29 76.33 35.2 76.33 35.12 77.34 35.12 77.34 35.2 77.34 35.29 76.52 36.28 77.38 36.28 77.38 36.36 77.38 36.45 76.28 36.45"/>
    <path class="cls-2" d="m77.81,36.08c0,.14.08.23.22.23.29-.02.44-.2.42-.52-.3.01-.64-.03-.64.29Zm.65.12c-.1.15-.22.29-.48.28-.25,0-.41-.15-.41-.4,0-.45.44-.44.87-.44.02-.24-.06-.38-.29-.38-.17,0-.29.05-.29.22l-.23-.02c.03-.26.23-.36.53-.36s.5.14.5.45v.57c0,.14.05.22.2.19v.14c-.22.06-.43-.01-.41-.24Z"/>
    <path class="cls-2" d="m79.53,35.26c-.28,0-.32.24-.32.52s.04.52.31.52c.29,0,.36-.22.36-.53s-.06-.52-.35-.51Zm-.06-.17c.22,0,.34.09.42.23v-.7s.22,0,.22,0v1.82s-.2,0-.2,0c-.01-.07,0-.16-.02-.22-.07.16-.2.24-.41.24-.37,0-.48-.27-.49-.68,0-.46.16-.7.49-.7Z"/>
    <path class="cls-2" d="m80.96,36.31c.31,0,.37-.22.37-.52s-.06-.52-.36-.52-.37.22-.37.52.07.52.36.52Zm0-1.22c.43,0,.59.26.59.69,0,.44-.19.69-.6.69s-.58-.27-.59-.69c0-.46.2-.69.59-.69Z"/>
    <path class="cls-2" d="m82.46,35.31c-.54-.11-.37.64-.4,1.14h-.22v-1.33s.2,0,.2,0c0,.08,0,.2.01.27.04-.19.16-.34.41-.29v.2Z"/>
    <line class="cls-3" x1="75.62" y1="41.2" x2="75.62" y2="54.68"/>
    <rect class="cls-9" x="75.51" y="41.09" width=".23" height=".11"/>
    <rect class="cls-5" x="75.51" y="41.09" width=".23" height=".11"/>
    <polygon class="cls-9" points="75.62 56.41 75.05 54.79 76.07 54.79 75.62 56.41"/>
    <polygon class="cls-3" points="75.62 56.41 75.05 54.79 76.07 54.79 75.62 56.41"/>
    <path class="cls-1" d="m60.85,57.43c.17-.66.85-.66.85-.66h31.24c.68,0,.5.66.5.66l-3.27,12.27c-.17.66-.85.66-.85.66h-31.24c-.68,0-.5-.66-.5-.66l3.28-12.27Z"/>
    <path class="cls-4" d="m60.85,57.43c.17-.66.85-.66.85-.66h31.24c.68,0,.5.66.5.66l-3.27,12.27c-.17.66-.85.66-.85.66h-31.24c-.68,0-.5-.66-.5-.66l3.28-12.27Z"/>
    <polygon class="cls-2" points="62.53 59.74 62.53 58.87 62.53 58 63.84 58 63.84 58.1 63.84 58.2 62.77 58.2 62.77 58.48 62.77 58.75 63.77 58.75 63.77 58.85 63.77 58.94 62.77 58.94 62.77 59.24 62.77 59.55 63.9 59.55 63.9 59.64 63.9 59.74 62.53 59.74"/>
    <path class="cls-2" d="m64.95,58.74c-.02-.24-.6-.27-.61,0,.1.37.8.08.83.63.03.54-1.05.52-1.1.06l.2-.03c.03.25.68.31.68,0-.07-.39-.79-.1-.82-.63-.03-.4.57-.44.85-.29.08.05.15.13.17.24l-.2.03Z"/>
    <path class="cls-2" d="m65.67,59.41c-.01.17.13.2.27.15v.17c-.23.07-.49.03-.49-.27v-.89h-.15v-.16h.17l.06-.3h.15v.3h.24v.16h-.24v.84Z"/>
    <path class="cls-2" d="m66.65,59.6c.31,0,.37-.22.37-.52s-.06-.52-.36-.52-.37.22-.37.52.07.52.36.52Zm0-1.22c.43,0,.59.26.59.69,0,.44-.19.69-.6.69s-.58-.27-.59-.69c0-.46.2-.69.59-.69Z"/>
    <path class="cls-2" d="m68.3,58.74c-.02-.24-.6-.27-.61,0,.1.37.8.08.83.63.03.54-1.05.52-1.1.06l.2-.03c.03.25.68.31.68,0-.07-.39-.79-.1-.82-.63-.03-.4.57-.44.85-.29.08.05.15.13.17.24l-.2.03Z"/>
    <path class="cls-2" d="m70,59.6c.31,0,.37-.22.37-.52s-.06-.52-.36-.52-.37.22-.37.52.07.52.36.52Zm0-1.22c.43,0,.59.26.59.69,0,.44-.19.69-.6.69s-.58-.27-.59-.69c0-.46.2-.69.59-.69Z"/>
    <path class="cls-2" d="m71.45,59.6c.28,0,.31-.24.31-.52s-.03-.52-.31-.52c-.29,0-.36.22-.36.53s.07.51.36.51Zm.06-1.22c.37,0,.48.27.49.68,0,.46-.16.7-.49.7-.22,0-.34-.08-.41-.24v.21h-.23v-1.82h.23v.71c.07-.16.2-.24.41-.24Z"/>
    <path class="cls-2" d="m73.04,58.74c-.02-.24-.6-.27-.61,0,.1.37.8.08.83.63.03.54-1.05.52-1.1.06l.2-.03c.03.25.68.31.68,0-.07-.39-.79-.1-.82-.63-.03-.4.57-.44.85-.29.08.05.15.13.17.24l-.2.03Z"/>
    <path class="cls-2" d="m73.77,59.41c-.01.17.13.2.27.15v.17c-.23.07-.49.03-.49-.27v-.89h-.15v-.16h.17l.06-.3h.15v.3h.24v.16h-.24v.84Z"/>
    <path class="cls-2" d="m74.39,59.37c0,.14.08.23.22.23.29-.02.44-.2.42-.52-.3.01-.64-.03-.64.29Zm.65.12c-.1.15-.22.29-.48.28-.25,0-.41-.15-.41-.4,0-.45.44-.44.87-.44.02-.24-.06-.38-.29-.38-.17,0-.29.05-.29.22l-.23-.02c.03-.26.23-.36.53-.36s.5.14.5.45v.57c0,.14.05.22.2.19v.14c-.22.06-.43-.01-.41-.24Z"/>
    <path class="cls-2" d="m76.12,58.56c-.28,0-.34.23-.34.51s.06.52.34.52c.17,0,.29-.1.3-.27h.22c-.04.27-.22.44-.52.44-.41,0-.53-.29-.57-.69-.07-.65.71-.92,1.03-.45.03.05.03.1.05.15l-.22.02c-.03-.15-.11-.24-.29-.24Z"/>
    <path class="cls-2" d="m77.3,59.76c-.62.03-.38-.81-.43-1.36h.22v.84c0,.22.05.35.27.34.5-.01.31-.71.35-1.18h.22v1.33s-.2,0-.2,0c0-.07,0-.17-.01-.23-.08.15-.2.25-.42.26Z"/>
    <polygon class="cls-2" points="78.27 59.74 78.27 58.83 78.27 57.91 78.5 57.91 78.5 58.83 78.5 59.74 78.27 59.74"/>
    <path class="cls-2" d="m79.35,59.6c.31,0,.37-.22.37-.52s-.06-.52-.36-.52-.37.22-.37.52.07.52.36.52Zm0-1.22c.43,0,.59.26.59.69,0,.44-.19.69-.6.69s-.58-.27-.59-.69c0-.46.2-.69.59-.69Z"/>
    <path class="cls-2" d="m81,58.74c-.02-.24-.6-.27-.61,0,.1.37.8.08.83.63.03.54-1.05.52-1.1.06l.2-.03c.03.25.68.31.68,0-.07-.39-.79-.1-.82-.63-.03-.4.57-.44.85-.29.08.05.15.13.17.24l-.2.03Z"/>
    <path class="cls-2" d="m83.48,58.56c-.47.02-.27.73-.31,1.18h-.22v-.85c0-.2-.03-.35-.24-.34-.46.03-.27.73-.31,1.18h-.22v-1.33s.2,0,.2,0c0,.07,0,.17.01.22.07-.31.69-.35.75,0,.08-.15.19-.24.41-.25.59-.01.33.83.38,1.36h-.22v-.85c0-.2-.03-.34-.24-.34Z"/>
    <path class="cls-2" d="m84.27,59.74v-1.33h.22v1.33h-.22Zm0-1.61v-.21h.22v.21h-.22Z"/>
    <path class="cls-2" d="m85.31,58.55c-.28,0-.32.24-.32.52s.04.52.31.52c.29,0,.36-.22.36-.53s-.06-.52-.35-.51Zm-.06-.17c.22,0,.34.09.42.23v-.7s.22,0,.22,0v1.82s-.2,0-.2,0c-.01-.07,0-.16-.02-.22-.07.16-.2.24-.41.24-.37,0-.48-.27-.49-.68,0-.46.16-.7.49-.7Z"/>
    <path class="cls-2" d="m87.12,58.95c.04-.42-.53-.54-.68-.2-.02.05-.04.12-.04.2h.72Zm-.36-.57c.44,0,.6.29.59.74h-.94c0,.28.1.47.37.48.18,0,.3-.08.34-.2l.2.06c-.08.2-.26.31-.54.31-.41,0-.61-.26-.61-.7,0-.43.18-.68.59-.68Z"/>
    <path class="cls-2" d="m88.27,58.38c.62-.03.37.81.42,1.36h-.22v-.85c0-.22-.06-.34-.27-.34-.5.01-.31.71-.34,1.18h-.22v-1.33s.2,0,.2,0c0,.07,0,.17.01.22.08-.15.2-.24.43-.25Z"/>
    <path class="cls-2" d="m90.26,57.98c.57-.05.65.61.3.92l-.43.38c-.08.08-.16.15-.2.26h.9v.19h-1.15c.01-.69.89-.66.89-1.27,0-.2-.11-.3-.31-.3s-.32.1-.34.29l-.22-.02c.04-.29.24-.42.57-.45Z"/>
    <path class="cls-2" d="m63.63,62.62c.28,0,.31-.24.31-.52s-.04-.51-.31-.52c-.29,0-.36.22-.36.53s.07.51.36.51Zm.06-1.22c.38,0,.49.29.49.68s-.11.68-.49.7c-.22,0-.34-.09-.42-.24v.73s-.22,0-.22,0v-1.85s.21,0,.21,0v.21c.08-.15.21-.24.43-.24Z"/>
    <path class="cls-2" d="m64.45,62.76v-1.33h.22v1.33h-.22Zm0-1.61v-.21h.22v.21h-.22Z"/>
    <polygon class="cls-2" points="65.82 62.76 65.46 62.21 65.1 62.76 64.86 62.76 65.33 62.07 64.88 61.43 65.12 61.43 65.46 61.95 65.79 61.43 66.03 61.43 65.58 62.07 66.06 62.76 65.82 62.76"/>
    <path class="cls-2" d="m67.15,61.97c.04-.42-.53-.54-.68-.2-.02.05-.04.12-.04.2h.72Zm-.36-.57c.44,0,.6.29.59.74h-.94c0,.28.1.47.37.48.18,0,.3-.08.34-.2l.2.06c-.08.2-.26.31-.54.31-.41,0-.61-.26-.61-.7,0-.43.18-.68.59-.68Z"/>
    <polygon class="cls-2" points="67.65 62.76 67.65 61.84 67.65 60.93 67.88 60.93 67.88 61.84 67.88 62.76 67.65 62.76"/>
    <path class="cls-2" d="m69.1,61.97c.04-.42-.53-.54-.68-.2-.02.05-.04.12-.04.2h.72Zm-.36-.57c.44,0,.6.29.59.74h-.94c0,.28.1.47.37.48.18,0,.3-.08.34-.2l.2.06c-.08.2-.26.31-.54.31-.41,0-.61-.26-.61-.7,0-.43.18-.68.59-.68Z"/>
    <path class="cls-2" d="m70.38,61.76c-.02-.24-.6-.27-.61,0,.1.37.8.08.83.63.03.54-1.05.52-1.1.06l.2-.03c.03.25.68.31.68,0-.07-.39-.79-.1-.82-.63-.03-.4.57-.44.85-.29.08.05.15.13.17.24l-.2.03Z"/>
    <polygon class="cls-2" points="72.14 62.76 71.88 62.76 71.39 61.43 71.63 61.43 72.01 62.58 72.4 61.43 72.64 61.43 72.14 62.76"/>
    <path class="cls-2" d="m73.71,61.97c.04-.42-.53-.54-.68-.2-.02.05-.04.12-.04.2h.72Zm-.36-.57c.44,0,.6.29.59.74h-.94c0,.28.1.47.37.48.18,0,.3-.08.34-.2l.2.06c-.08.2-.26.31-.54.31-.41,0-.61-.26-.61-.7,0-.43.18-.68.59-.68Z"/>
    <path class="cls-2" d="m74.84,61.62c-.54-.11-.37.64-.4,1.14h-.22v-1.33s.2,0,.2,0c0,.08,0,.2.01.27.04-.19.16-.34.41-.29v.2Z"/>
    <path class="cls-2" d="m75.29,62.43c-.01.17.13.2.27.15v.17c-.23.07-.49.03-.49-.27v-.89h-.15v-.16h.17l.06-.3h.15v.3h.24v.16h-.24v.84Z"/>
    <path class="cls-2" d="m75.74,62.76v-1.33h.22v1.33h-.22Zm0-1.61v-.21h.22v.21h-.22Z"/>
    <path class="cls-2" d="m76.79,61.58c-.28,0-.34.23-.34.51s.06.52.34.52c.17,0,.29-.1.3-.27h.22c-.04.27-.22.44-.52.44-.41,0-.53-.29-.57-.69-.07-.65.71-.92,1.03-.45.03.05.03.1.05.15l-.22.02c-.03-.15-.11-.24-.29-.24Z"/>
    <path class="cls-2" d="m77.72,62.39c0,.14.08.23.22.23.29-.02.44-.2.42-.52-.3.01-.64-.03-.64.29Zm.65.12c-.1.15-.22.29-.48.28-.25,0-.41-.15-.41-.4,0-.45.44-.44.87-.44.02-.24-.06-.38-.29-.38-.17,0-.29.05-.29.22l-.23-.02c.03-.26.23-.36.53-.36s.5.14.5.45v.57c0,.14.05.22.2.19v.14c-.22.06-.43-.01-.41-.24Z"/>
    <polygon class="cls-2" points="78.95 62.76 78.95 61.84 78.95 60.93 79.17 60.93 79.17 61.84 79.17 62.76 78.95 62.76"/>
    <path class="cls-2" d="m80.39,61.97c.04-.42-.53-.54-.68-.2-.02.05-.04.12-.04.2h.72Zm-.36-.57c.44,0,.6.29.59.74h-.94c0,.28.1.47.37.48.18,0,.3-.08.34-.2l.2.06c-.08.2-.26.31-.54.31-.41,0-.61-.26-.61-.7,0-.43.18-.68.59-.68Z"/>
    <path class="cls-2" d="m81.67,61.76c-.02-.24-.6-.27-.61,0,.1.37.8.08.83.63.03.54-1.05.52-1.1.06l.2-.03c.03.25.68.31.68,0-.07-.39-.79-.1-.82-.63-.03-.4.57-.44.85-.29.08.05.15.13.17.24l-.2.03Z"/>
    <path class="cls-2" d="m83.93,61.43l-.6,1.54c-.1.2-.26.36-.57.29v-.17c.27.04.37-.14.45-.35l-.52-1.32h.24l.4,1.09.38-1.09h.23Z"/>
    <polygon class="cls-2" points="85.4 62.76 85.13 62.76 84.65 61.43 84.89 61.43 85.26 62.58 85.66 61.43 85.89 61.43 85.4 62.76"/>
    <path class="cls-2" d="m86.24,62.39c0,.14.08.23.22.23.29-.02.44-.2.42-.52-.3.01-.64-.03-.64.29Zm.65.12c-.1.15-.22.29-.48.28-.25,0-.41-.15-.41-.4,0-.45.44-.44.87-.44.02-.24-.06-.38-.29-.38-.17,0-.29.05-.29.22l-.23-.02c.03-.26.23-.36.53-.36s.5.14.5.45v.57c0,.14.05.22.2.19v.14c-.22.06-.43-.01-.41-.24Z"/>
    <path class="cls-2" d="m88.11,61.4c.62-.03.37.81.42,1.36h-.22v-.85c0-.22-.06-.34-.27-.34-.5.01-.31.71-.34,1.18h-.22v-1.33s.2,0,.2,0c0,.07,0,.17.01.22.08-.15.2-.24.43-.25Z"/>
    <path class="cls-2" d="m61.77,65.63c.28,0,.31-.24.31-.52s-.03-.52-.31-.52c-.29,0-.36.22-.36.53s.07.51.36.51Zm.06-1.22c.37,0,.48.27.49.68,0,.46-.16.7-.49.7-.22,0-.34-.08-.41-.24v.21h-.23v-1.82h.23v.71c.07-.16.2-.24.41-.24Z"/>
    <path class="cls-2" d="m62.76,65.4c0,.14.08.23.22.23.29-.02.44-.2.42-.52-.3.01-.64-.03-.64.29Zm.65.12c-.1.15-.22.29-.48.28-.25,0-.41-.15-.41-.4,0-.45.44-.44.87-.44.02-.24-.06-.38-.29-.38-.17,0-.29.05-.29.22l-.23-.02c.03-.26.23-.36.53-.36s.5.14.5.45v.57c0,.14.05.22.2.19v.14c-.22.06-.43-.01-.41-.24Z"/>
    <path class="cls-2" d="m63.76,66.12c.17.03.23-.04.23-.21v-1.46h.22v1.5c.01.28-.16.41-.45.34v-.17Zm.23-1.96v-.21h.22v.21h-.22Z"/>
    <path class="cls-2" d="m64.71,65.4c0,.14.08.23.22.23.29-.02.44-.2.42-.52-.3.01-.64-.03-.64.29Zm.65.12c-.1.15-.22.29-.48.28-.25,0-.41-.15-.41-.4,0-.45.44-.44.87-.44.02-.24-.06-.38-.29-.38-.17,0-.29.05-.29.22l-.23-.02c.03-.26.23-.36.53-.36s.5.14.5.45v.57c0,.14.05.22.2.19v.14c-.22.06-.43-.01-.41-.24Z"/>
    <path class="cls-2" d="m66.59,64.42c.62-.03.37.81.42,1.36h-.22v-.85c0-.22-.06-.34-.27-.34-.5.01-.31.71-.34,1.18h-.22v-1.33s.2,0,.2,0c0,.07,0,.17.01.22.08-.15.2-.24.43-.25Z"/>
    <path class="cls-2" d="m67.82,64.59c-.28,0-.32.24-.32.52s.04.52.31.52c.29,0,.36-.22.36-.53s-.06-.52-.35-.51Zm-.06-.17c.22,0,.34.09.42.23v-.7s.22,0,.22,0v1.82s-.2,0-.2,0c-.01-.07,0-.16-.02-.22-.07.16-.2.24-.41.24-.37,0-.48-.27-.49-.68,0-.46.16-.7.49-.7Z"/>
    <path class="cls-2" d="m69.26,65.63c.31,0,.37-.22.37-.52s-.06-.52-.36-.52-.37.22-.37.52.07.52.36.52Zm0-1.22c.43,0,.59.26.59.69,0,.44-.19.69-.6.69s-.58-.27-.59-.69c0-.46.2-.69.59-.69Z"/>
    <polygon class="cls-2" points="71.42 65.77 71.15 65.77 70.67 64.45 70.91 64.45 71.28 65.6 71.68 64.45 71.91 64.45 71.42 65.77"/>
    <path class="cls-2" d="m72.98,64.98c.04-.42-.53-.54-.68-.2-.02.05-.04.12-.04.2h.72Zm-.36-.57c.44,0,.6.29.59.74h-.94c0,.28.1.47.37.48.18,0,.3-.08.34-.2l.2.06c-.08.2-.26.31-.54.31-.41,0-.61-.26-.61-.7,0-.43.18-.68.59-.68Z"/>
    <path class="cls-2" d="m74.11,64.63c-.54-.11-.37.64-.4,1.14h-.22v-1.33s.2,0,.2,0c0,.08,0,.2.01.27.04-.19.16-.34.41-.29v.2Z"/>
    <path class="cls-2" d="m74.56,65.45c-.01.17.13.2.27.15v.17c-.23.07-.49.03-.49-.27v-.89h-.15v-.16h.17l.06-.3h.15v.3h.24v.16h-.24v.84Z"/>
    <path class="cls-2" d="m75.02,65.77v-1.33h.22v1.33h-.22Zm0-1.61v-.21h.22v.21h-.22Z"/>
    <path class="cls-2" d="m76.07,64.59c-.28,0-.34.23-.34.51s.06.52.34.52c.17,0,.29-.1.3-.27h.22c-.04.27-.22.44-.52.44-.41,0-.53-.29-.57-.69-.07-.65.71-.92,1.03-.45.03.05.03.1.05.15l-.22.02c-.03-.15-.11-.24-.29-.24Z"/>
    <path class="cls-2" d="m76.99,65.4c0,.14.08.23.22.23.29-.02.44-.2.42-.52-.3.01-.64-.03-.64.29Zm.65.12c-.1.15-.22.29-.48.28-.25,0-.41-.15-.41-.4,0-.45.44-.44.87-.44.02-.24-.06-.38-.29-.38-.17,0-.29.05-.29.22l-.23-.02c.03-.26.23-.36.53-.36s.5.14.5.45v.57c0,.14.05.22.2.19v.14c-.22.06-.43-.01-.41-.24Z"/>
    <polygon class="cls-2" points="78.22 65.77 78.22 64.86 78.22 63.95 78.45 63.95 78.45 64.86 78.45 65.77 78.22 65.77"/>
    <path class="cls-2" d="m80.07,64.59c-.47.02-.27.73-.31,1.18h-.22v-.85c0-.2-.03-.35-.24-.34-.46.03-.27.73-.31,1.18h-.22v-1.33s.2,0,.2,0c0,.07,0,.17.01.22.07-.31.69-.35.75,0,.08-.15.19-.24.41-.25.59-.01.33.83.38,1.36h-.22v-.85c0-.2-.03-.34-.24-.34Z"/>
    <path class="cls-2" d="m81.76,64.98c.04-.42-.53-.54-.68-.2-.02.05-.04.12-.04.2h.72Zm-.36-.57c.44,0,.6.29.59.74h-.94c0,.28.1.47.37.48.18,0,.3-.08.34-.2l.2.06c-.08.2-.26.31-.54.31-.41,0-.61-.26-.61-.7,0-.43.18-.68.59-.68Z"/>
    <path class="cls-2" d="m82.91,64.42c.62-.03.37.81.42,1.36h-.22v-.85c0-.22-.06-.34-.27-.34-.5.01-.31.71-.34,1.18h-.22v-1.33s.2,0,.2,0c0,.07,0,.17.01.22.08-.15.2-.24.43-.25Z"/>
    <path class="cls-2" d="m83.9,65.45c-.01.17.13.2.27.15v.17c-.23.07-.49.03-.49-.27v-.89h-.15v-.16h.17l.06-.3h.15v.3h.24v.16h-.24v.84Z"/>
    <path class="cls-2" d="m85.25,64.98c.04-.42-.53-.54-.68-.2-.02.05-.04.12-.04.2h.72Zm-.36-.57c.44,0,.6.29.59.74h-.94c0,.28.1.47.37.48.18,0,.3-.08.34-.2l.2.06c-.08.2-.26.31-.54.31-.41,0-.61-.26-.61-.7,0-.43.18-.68.59-.68Z"/>
    <path class="cls-2" d="m87.35,64.98c.04-.42-.53-.54-.68-.2-.02.05-.04.12-.04.2h.72Zm-.36-.57c.44,0,.6.29.59.74h-.94c0,.28.1.47.37.48.18,0,.3-.08.34-.2l.2.06c-.08.2-.26.31-.54.31-.41,0-.61-.26-.61-.7,0-.43.18-.68.59-.68Z"/>
    <path class="cls-2" d="m88.5,64.42c.62-.03.37.81.42,1.36h-.22v-.85c0-.22-.06-.34-.27-.34-.5.01-.31.71-.34,1.18h-.22v-1.33s.2,0,.2,0c0,.07,0,.17.01.22.08-.15.2-.24.43-.25Z"/>
    <path class="cls-2" d="m64.66,68.82c-.62.03-.38-.81-.43-1.36h.22v.84c0,.22.05.35.27.34.5-.01.31-.71.35-1.18h.22v1.33s-.2,0-.2,0c0-.07,0-.17-.01-.23-.08.15-.2.25-.42.26Z"/>
    <path class="cls-2" d="m66.29,67.44c.62-.03.37.81.42,1.36h-.22v-.85c0-.22-.06-.34-.27-.34-.5.01-.31.71-.34,1.18h-.22v-1.33s.2,0,.2,0c0,.07,0,.17.01.22.08-.15.2-.24.43-.25Z"/>
    <path class="cls-2" d="m67.2,68.42c0,.14.08.23.22.23.29-.02.44-.2.42-.52-.3.01-.64-.03-.64.29Zm.65.12c-.1.15-.22.29-.48.28-.25,0-.41-.15-.41-.4,0-.45.44-.44.87-.44.02-.24-.06-.38-.29-.38-.17,0-.29.05-.29.22l-.23-.02c.03-.26.23-.36.53-.36s.5.14.5.45v.57c0,.14.05.22.2.19v.14c-.22.06-.43-.01-.41-.24Z"/>
    <path class="cls-2" d="m70.43,67.61c-.47.02-.27.73-.31,1.18h-.22v-.85c0-.2-.03-.35-.24-.34-.46.03-.27.73-.31,1.18h-.22v-1.33s.2,0,.2,0c0,.07,0,.17.01.22.07-.31.69-.35.75,0,.08-.15.19-.24.41-.25.59-.01.33.83.38,1.36h-.22v-.85c0-.2-.03-.34-.24-.34Z"/>
    <path class="cls-2" d="m71.39,68.42c0,.14.08.23.22.23.29-.02.44-.2.42-.52-.3.01-.64-.03-.64.29Zm.65.12c-.1.15-.22.29-.48.28-.25,0-.41-.15-.41-.4,0-.45.44-.44.87-.44.02-.24-.06-.38-.29-.38-.17,0-.29.05-.29.22l-.23-.02c.03-.26.23-.36.53-.36s.5.14.5.45v.57c0,.14.05.22.2.19v.14c-.22.06-.43-.01-.41-.24Z"/>
    <path class="cls-2" d="m72.86,68.46c-.01.17.13.2.27.15v.17c-.23.07-.49.03-.49-.27v-.89h-.15v-.16h.17l.06-.3h.15v.3h.24v.16h-.24v.84Z"/>
    <path class="cls-2" d="m73.94,67.65c-.54-.11-.37.64-.4,1.14h-.22v-1.33s.2,0,.2,0c0,.08,0,.2.01.27.04-.19.16-.34.41-.29v.2Z"/>
    <path class="cls-2" d="m74.15,68.79v-1.33h.22v1.33h-.22Zm0-1.61v-.21h.22v.21h-.22Z"/>
    <polygon class="cls-2" points="74.59 68.79 74.59 68.71 74.59 68.62 75.4 67.63 74.64 67.63 74.64 67.55 74.64 67.46 75.65 67.46 75.65 67.55 75.65 67.63 74.84 68.62 75.7 68.62 75.7 68.71 75.7 68.79 74.59 68.79"/>
    <path class="cls-2" d="m77.14,67.6c-.28,0-.32.24-.32.52s.04.52.31.52c.29,0,.36-.22.36-.53s-.06-.52-.35-.51Zm-.06-.17c.22,0,.34.09.42.23v-.7s.22,0,.22,0v1.82s-.2,0-.2,0c-.01-.07,0-.16-.02-.22-.07.16-.2.24-.41.24-.37,0-.48-.27-.49-.68,0-.46.16-.7.49-.7Z"/>
    <path class="cls-2" d="m78.94,68c.04-.42-.53-.54-.68-.2-.02.05-.04.12-.04.2h.72Zm-.36-.57c.44,0,.6.29.59.74h-.94c0,.28.1.47.37.48.18,0,.3-.08.34-.2l.2.06c-.08.2-.26.31-.54.31-.41,0-.61-.26-.61-.7,0-.43.18-.68.59-.68Z"/>
    <path class="cls-2" d="m80.85,67.31c-.19.32-.41.63-.61.92h.61v-.92Zm.21,1.09v.39h-.21v-.39h-.82v-.17l.8-1.17h.23v1.17h.24v.17h-.24Z"/>
    <polygon class="cls-2" points="82.74 68.79 82.22 68.04 81.69 68.79 81.43 68.79 82.09 67.89 81.48 67.06 81.74 67.06 82.22 67.74 82.69 67.06 82.95 67.06 82.36 67.88 83 68.79 82.74 68.79"/>
    <path class="cls-2" d="m83.76,68.65c.24,0,.36-.13.36-.36,0-.21-.13-.32-.37-.32-.23,0-.36.12-.36.33,0,.24.13.36.37.36Zm0-.85c.22,0,.32-.1.32-.31s-.12-.3-.33-.29c-.2,0-.32.09-.31.29,0,.2.11.31.32.31Zm.24.08c.2.06.36.17.36.43,0,.35-.24.51-.59.51s-.58-.16-.59-.51c0-.25.15-.38.34-.43-.52-.17-.31-.88.24-.85.32.02.54.13.55.44,0,.23-.12.36-.31.4Z"/>
    <line class="cls-3" x1="75.51" y1="70.64" x2="75.51" y2="80.35"/>
    <rect class="cls-9" x="75.39" y="70.52" width=".23" height=".11"/>
    <rect class="cls-5" x="75.39" y="70.52" width=".23" height=".11"/>
    <polygon class="cls-9" points="75.51 82.08 74.94 80.46 75.96 80.46 75.51 82.08"/>
    <polygon class="cls-3" points="75.51 82.08 74.94 80.46 75.96 80.46 75.51 82.08"/>
    <path class="cls-6" d="m76.82,81.97c.61-.29,1.22,0,1.22,0l20.29,9.69c.61.29-.01.58-.01.58l-20.27,9.69c-.61.28-1.23,0-1.23,0l-20.27-9.69c-.61-.29,0-.58,0-.58l20.28-9.69Z"/>
    <path class="cls-4" d="m76.82,81.97c.61-.29,1.22,0,1.22,0l20.29,9.69c.61.29-.01.58-.01.58l-20.27,9.69c-.61.28-1.23,0-1.23,0l-20.27-9.69c-.61-.29,0-.58,0-.58l20.28-9.69Z"/>
    <path class="cls-2" d="m68.72,88.48c-.07-.2-.24-.31-.51-.31-.41,0-.61.28-.61.69s.2.71.62.71c.3,0,.43-.17.54-.36l.19.1c-.13.27-.36.46-.75.46-.56,0-.82-.35-.85-.9-.04-.73.69-1.07,1.31-.78.13.06.22.18.27.32l-.22.08Z"/>
    <path class="cls-2" d="m69.64,89.76c-.62.03-.38-.81-.43-1.36h.22v.84c0,.22.05.35.27.34.5-.01.31-.71.35-1.18h.22v1.33s-.2,0-.2,0c0-.07,0-.17-.01-.23-.08.15-.2.25-.42.26Z"/>
    <path class="cls-2" d="m70.79,89.36c0,.14.08.23.22.23.29-.02.44-.2.42-.52-.3.01-.64-.03-.64.29Zm.65.12c-.1.15-.22.29-.48.28-.25,0-.41-.15-.41-.4,0-.45.44-.44.87-.44.02-.24-.06-.38-.29-.38-.17,0-.29.05-.29.22l-.23-.02c.03-.26.23-.36.53-.36s.5.14.5.45v.57c0,.14.05.22.2.19v.14c-.22.06-.43-.01-.41-.24Z"/>
    <path class="cls-2" d="m72.67,88.37c.62-.03.37.81.42,1.36h-.22v-.85c0-.22-.06-.34-.27-.34-.5.01-.31.71-.34,1.18h-.22v-1.33s.2,0,.2,0c0,.07,0,.17.01.22.08-.15.2-.24.43-.25Z"/>
    <path class="cls-2" d="m73.9,88.54c-.28,0-.32.24-.32.52s.04.52.31.52c.29,0,.36-.22.36-.53s-.06-.52-.35-.51Zm-.06-.17c.22,0,.34.09.42.23v-.7s.22,0,.22,0v1.82s-.2,0-.2,0c-.01-.07,0-.16-.02-.22-.07.16-.2.24-.41.24-.37,0-.48-.27-.49-.68,0-.46.16-.7.49-.7Z"/>
    <path class="cls-2" d="m75.33,89.59c.31,0,.37-.22.37-.52s-.06-.52-.36-.52-.37.22-.37.52.07.52.36.52Zm0-1.22c.43,0,.59.26.59.69,0,.44-.19.69-.6.69s-.58-.27-.59-.69c0-.46.2-.69.59-.69Z"/>
    <polygon class="cls-2" points="76.9 89.73 76.9 88.82 76.9 87.9 77.12 87.9 77.12 88.82 77.12 89.73 76.9 89.73"/>
    <path class="cls-2" d="m77.97,89.59c.31,0,.37-.22.37-.52s-.06-.52-.36-.52-.37.22-.37.52.07.52.36.52Zm0-1.22c.43,0,.59.26.59.69,0,.44-.19.69-.6.69s-.58-.27-.59-.69c0-.46.2-.69.59-.69Z"/>
    <path class="cls-2" d="m79.62,88.73c-.02-.24-.6-.27-.61,0,.1.37.8.08.83.63.03.54-1.05.52-1.1.06l.2-.03c.03.25.68.31.68,0-.07-.39-.79-.1-.82-.63-.03-.4.57-.44.85-.29.08.05.15.13.17.24l-.2.03Z"/>
    <path class="cls-2" d="m81.32,88.55c-.28,0-.34.23-.34.51s.06.52.34.52c.17,0,.29-.1.3-.27h.22c-.04.27-.22.44-.52.44-.41,0-.53-.29-.57-.69-.07-.65.71-.92,1.03-.45.03.05.03.1.05.15l-.22.02c-.03-.15-.11-.24-.29-.24Z"/>
    <path class="cls-2" d="m82.24,89.36c0,.14.08.23.22.23.29-.02.44-.2.42-.52-.3.01-.64-.03-.64.29Zm.65.12c-.1.15-.22.29-.48.28-.25,0-.41-.15-.41-.4,0-.45.44-.44.87-.44.02-.24-.06-.38-.29-.38-.17,0-.29.05-.29.22l-.23-.02c.03-.26.23-.36.53-.36s.5.14.5.45v.57c0,.14.05.22.2.19v.14c-.22.06-.43-.01-.41-.24Z"/>
    <path class="cls-2" d="m84.1,88.59c-.54-.11-.37.64-.4,1.14h-.22v-1.33s.2,0,.2,0c0,.08,0,.2.01.27.04-.19.16-.34.41-.29v.2Z"/>
    <path class="cls-2" d="m84.93,88.59c-.54-.11-.37.64-.4,1.14h-.22v-1.33s.2,0,.2,0c0,.08,0,.2.01.27.04-.19.16-.34.41-.29v.2Z"/>
    <path class="cls-2" d="m85.66,89.59c.31,0,.37-.22.37-.52s-.06-.52-.36-.52-.37.22-.37.52.07.52.36.52Zm0-1.22c.43,0,.59.26.59.69,0,.44-.19.69-.6.69s-.58-.27-.59-.69c0-.46.2-.69.59-.69Z"/>
    <path class="cls-2" d="m87.3,88.73c-.02-.24-.6-.27-.61,0,.1.37.8.08.83.63.03.54-1.05.52-1.1.06l.2-.03c.03.25.68.31.68,0-.07-.39-.79-.1-.82-.63-.03-.4.57-.44.85-.29.08.05.15.13.17.24l-.2.03Z"/>
    <polygon class="cls-2" points="61.42 92.75 61.42 91.83 61.42 90.92 61.65 90.92 61.65 91.83 61.65 92.75 61.42 92.75"/>
    <polygon class="cls-2" points="61.97 92.75 61.97 91.83 61.97 90.92 62.2 90.92 62.2 91.83 62.2 92.75 61.97 92.75"/>
    <path class="cls-2" d="m63.42,91.96c.04-.42-.53-.54-.68-.2-.02.05-.04.12-.04.2h.72Zm-.36-.57c.44,0,.6.29.59.74h-.94c0,.28.1.47.37.48.18,0,.3-.08.34-.2l.2.06c-.08.2-.26.31-.54.31-.41,0-.61-.26-.61-.7,0-.43.18-.68.59-.68Z"/>
    <path class="cls-2" d="m64.41,92.59c.25,0,.35-.22.35-.51s-.1-.52-.35-.52c-.27,0-.32.24-.32.52s.04.51.32.51Zm.58-1.17c-.07.87.29,2.05-.77,1.82-.16-.04-.27-.14-.31-.3l.22-.03c.1.33.7.22.62-.2v-.21c-.08.15-.2.25-.43.25-.38,0-.48-.29-.48-.67s.11-.68.5-.68c.2,0,.34.11.41.24,0-.07,0-.16.01-.22h.21Z"/>
    <path class="cls-2" d="m65.74,92.77c-.62.03-.38-.81-.43-1.36h.22v.84c0,.22.05.35.27.34.5-.01.31-.71.35-1.18h.22v1.33s-.2,0-.2,0c0-.07,0-.17-.01-.23-.08.15-.2.25-.42.26Z"/>
    <path class="cls-2" d="m67.61,91.96c.04-.42-.53-.54-.68-.2-.02.05-.04.12-.04.2h.72Zm-.36-.57c.44,0,.6.29.59.74h-.94c0,.28.1.47.37.48.18,0,.3-.08.34-.2l.2.06c-.08.2-.26.31-.54.31-.41,0-.61-.26-.61-.7,0-.43.18-.68.59-.68Z"/>
    <path class="cls-2" d="m68.77,91.39c.62-.03.37.81.42,1.36h-.22v-.85c0-.22-.06-.34-.27-.34-.5.01-.31.71-.34,1.18h-.22v-1.33s.2,0,.2,0c0,.07,0,.17.01.22.08-.15.2-.24.43-.25Z"/>
    <path class="cls-2" d="m70.38,92.38c0,.14.08.23.22.23.29-.02.44-.2.42-.52-.3.01-.64-.03-.64.29Zm.65.12c-.1.15-.22.29-.48.28-.25,0-.41-.15-.41-.4,0-.45.44-.44.87-.44.02-.24-.06-.38-.29-.38-.17,0-.29.05-.29.22l-.23-.02c.03-.26.23-.36.53-.36s.5.14.5.45v.57c0,.14.05.22.2.19v.14c-.22.06-.43-.01-.41-.24Z"/>
    <polygon class="cls-2" points="71.6 92.75 71.6 91.83 71.6 90.92 71.83 90.92 71.83 91.83 71.83 92.75 71.6 92.75"/>
    <path class="cls-2" d="m73.39,91.11c-.22-.06-.29.07-.27.31h.27v.16h-.27v1.17h-.22v-1.17h-.19v-.16h.19c-.05-.36.12-.57.48-.48v.17Z"/>
    <path class="cls-2" d="m73.55,92.75v-1.33h.22v1.33h-.22Zm0-1.61v-.21h.22v.21h-.22Z"/>
    <path class="cls-2" d="m74.76,91.39c.62-.03.37.81.42,1.36h-.22v-.85c0-.22-.06-.34-.27-.34-.5.01-.31.71-.34,1.18h-.22v-1.33s.2,0,.2,0c0,.07,0,.17.01.22.08-.15.2-.24.43-.25Z"/>
    <path class="cls-2" d="m75.67,92.38c0,.14.08.23.22.23.29-.02.44-.2.42-.52-.3.01-.64-.03-.64.29Zm.65.12c-.1.15-.22.29-.48.28-.25,0-.41-.15-.41-.4,0-.45.44-.44.87-.44.02-.24-.06-.38-.29-.38-.17,0-.29.05-.29.22l-.23-.02c.03-.26.23-.36.53-.36s.5.14.5.45v.57c0,.14.05.22.2.19v.14c-.22.06-.43-.01-.41-.24Z"/>
    <polygon class="cls-2" points="76.9 92.75 76.9 91.83 76.9 90.92 77.13 90.92 77.13 91.83 77.13 92.75 76.9 92.75"/>
    <path class="cls-2" d="m78.64,91.56c-.28,0-.32.24-.32.52s.04.52.31.52c.29,0,.36-.22.36-.53s-.06-.52-.35-.51Zm-.06-.17c.22,0,.34.09.42.23v-.7s.22,0,.22,0v1.82s-.2,0-.2,0c-.01-.07,0-.16-.02-.22-.07.16-.2.24-.41.24-.37,0-.48-.27-.49-.68,0-.46.16-.7.49-.7Z"/>
    <path class="cls-2" d="m80.45,91.96c.04-.42-.53-.54-.68-.2-.02.05-.04.12-.04.2h.72Zm-.36-.57c.44,0,.6.29.59.74h-.94c0,.28.1.47.37.48.18,0,.3-.08.34-.2l.2.06c-.08.2-.26.31-.54.31-.41,0-.61-.26-.61-.7,0-.43.18-.68.59-.68Z"/>
    <polygon class="cls-2" points="81.65 92.75 81.65 91.83 81.65 90.92 81.88 90.92 81.88 91.83 81.88 92.75 81.65 92.75"/>
    <path class="cls-2" d="m82.37,92.38c0,.14.08.23.22.23.29-.02.44-.2.42-.52-.3.01-.64-.03-.64.29Zm.65.12c-.1.15-.22.29-.48.28-.25,0-.41-.15-.41-.4,0-.45.44-.44.87-.44.02-.24-.06-.38-.29-.38-.17,0-.29.05-.29.22l-.23-.02c.03-.26.23-.36.53-.36s.5.14.5.45v.57c0,.14.05.22.2.19v.14c-.22.06-.43-.01-.41-.24Z"/>
    <path class="cls-2" d="m85.6,91.57c-.47.02-.27.73-.31,1.18h-.22v-.85c0-.2-.03-.35-.24-.34-.46.03-.27.73-.31,1.18h-.22v-1.33s.2,0,.2,0c0,.07,0,.17.01.22.07-.31.69-.35.75,0,.08-.15.19-.24.41-.25.59-.01.33.83.38,1.36h-.22v-.85c0-.2-.03-.34-.24-.34Z"/>
    <path class="cls-2" d="m86.56,92.38c0,.14.08.23.22.23.29-.02.44-.2.42-.52-.3.01-.64-.03-.64.29Zm.65.12c-.1.15-.22.29-.48.28-.25,0-.41-.15-.41-.4,0-.45.44-.44.87-.44.02-.24-.06-.38-.29-.38-.17,0-.29.05-.29.22l-.23-.02c.03-.26.23-.36.53-.36s.5.14.5.45v.57c0,.14.05.22.2.19v.14c-.22.06-.43-.01-.41-.24Z"/>
    <path class="cls-2" d="m88.03,92.42c-.01.17.13.2.27.15v.17c-.23.07-.49.03-.49-.27v-.89h-.15v-.16h.17l.06-.3h.15v.3h.24v.16h-.24v.84Z"/>
    <path class="cls-2" d="m89.11,91.61c-.54-.11-.37.64-.4,1.14h-.22v-1.33s.2,0,.2,0c0,.08,0,.2.01.27.04-.19.16-.34.41-.29v.2Z"/>
    <path class="cls-2" d="m89.32,92.75v-1.33h.22v1.33h-.22Zm0-1.61v-.21h.22v.21h-.22Z"/>
    <polygon class="cls-2" points="89.76 92.75 89.76 92.66 89.76 92.58 90.57 91.59 89.81 91.59 89.81 91.5 89.81 91.42 90.82 91.42 90.82 91.5 90.82 91.59 90.01 92.58 90.87 92.58 90.87 92.66 90.87 92.75 89.76 92.75"/>
    <path class="cls-2" d="m91.98,92.38c0,.14.08.23.22.23.29-.02.44-.2.42-.52-.3.01-.64-.03-.64.29Zm.65.12c-.1.15-.22.29-.48.28-.25,0-.41-.15-.41-.4,0-.45.44-.44.87-.44.02-.24-.06-.38-.29-.38-.17,0-.29.05-.29.22l-.23-.02c.03-.26.23-.36.53-.36s.5.14.5.45v.57c0,.14.05.22.2.19v.14c-.22.06-.43-.01-.41-.24Z"/>
    <polygon class="cls-2" points="93.21 92.75 93.21 91.83 93.21 90.92 93.44 90.92 93.44 91.83 93.44 92.75 93.21 92.75"/>
    <path class="cls-2" d="m69.1,94.4c.62-.03.37.81.42,1.36h-.22v-.85c0-.22-.06-.34-.27-.34-.5.01-.31.71-.34,1.18h-.22v-1.33s.2,0,.2,0c0,.07,0,.17.01.22.08-.15.2-.24.43-.25Z"/>
    <path class="cls-2" d="m69.85,95.76v-1.33h.22v1.33h-.22Zm0-1.61v-.21h.22v.21h-.22Z"/>
    <polygon class="cls-2" points="70.99 95.76 70.72 95.76 70.24 94.43 70.48 94.43 70.86 95.58 71.25 94.43 71.49 94.43 70.99 95.76"/>
    <path class="cls-2" d="m72.55,94.97c.04-.42-.53-.54-.68-.2-.02.05-.04.12-.04.2h.72Zm-.36-.57c.44,0,.6.29.59.74h-.94c0,.28.1.47.37.48.18,0,.3-.08.34-.2l.2.06c-.08.2-.26.31-.54.31-.41,0-.61-.26-.61-.7,0-.43.18-.68.59-.68Z"/>
    <polygon class="cls-2" points="73.06 95.76 73.06 94.84 73.06 93.93 73.28 93.93 73.28 94.84 73.28 95.76 73.06 95.76"/>
    <path class="cls-2" d="m74.81,94.57c-.28,0-.32.24-.32.52s.04.52.31.52c.29,0,.36-.22.36-.53s-.06-.52-.35-.51Zm-.06-.17c.22,0,.34.09.42.23v-.7s.22,0,.22,0v1.82s-.2,0-.2,0c-.01-.07,0-.16-.02-.22-.07.16-.2.24-.41.24-.37,0-.48-.27-.49-.68,0-.46.16-.7.49-.7Z"/>
    <path class="cls-2" d="m76.61,94.97c.04-.42-.53-.54-.68-.2-.02.05-.04.12-.04.2h.72Zm-.36-.57c.44,0,.6.29.59.74h-.94c0,.28.1.47.37.48.18,0,.3-.08.34-.2l.2.06c-.08.2-.26.31-.54.31-.41,0-.61-.26-.61-.7,0-.43.18-.68.59-.68Z"/>
    <polygon class="cls-2" points="77.11 95.76 77.11 94.84 77.11 93.93 77.33 93.93 77.33 94.84 77.33 95.76 77.11 95.76"/>
    <path class="cls-2" d="m78.13,96.1c.17.03.23-.04.23-.21v-1.46h.22v1.5c.01.28-.16.41-.45.34v-.17Zm.23-1.96v-.21h.22v.21h-.22Z"/>
    <path class="cls-2" d="m79.33,95.78c-.62.03-.38-.81-.43-1.36h.22v.84c0,.22.05.35.27.34.5-.01.31-.71.35-1.18h.22v1.33s-.2,0-.2,0c0-.07,0-.17-.01-.23-.08.15-.2.25-.42.26Z"/>
    <path class="cls-2" d="m80.8,95.6c.25,0,.35-.22.35-.51s-.1-.52-.35-.52c-.27,0-.32.24-.32.52s.04.51.32.51Zm.58-1.17c-.07.87.29,2.05-.77,1.82-.16-.04-.27-.14-.31-.3l.22-.03c.1.33.7.22.62-.2v-.21c-.08.15-.2.25-.43.25-.38,0-.48-.29-.48-.67s.11-.68.5-.68c.2,0,.34.11.41.24,0-.07,0-.16.01-.22h.21Z"/>
    <path class="cls-2" d="m81.87,95.39c0,.14.08.23.22.23.29-.02.44-.2.42-.52-.3.01-.64-.03-.64.29Zm.65.12c-.1.15-.22.29-.48.28-.25,0-.41-.15-.41-.4,0-.45.44-.44.87-.44.02-.24-.06-.38-.29-.38-.17,0-.29.05-.29.22l-.23-.02c.03-.26.23-.36.53-.36s.5.14.5.45v.57c0,.14.05.22.2.19v.14c-.22.06-.43-.01-.41-.24Z"/>
    <path class="cls-2" d="m83.59,94.57c-.28,0-.32.24-.32.52s.04.52.31.52c.29,0,.36-.22.36-.53s-.06-.52-.35-.51Zm-.06-.17c.22,0,.34.09.42.23v-.7s.22,0,.22,0v1.82s-.2,0-.2,0c-.01-.07,0-.16-.02-.22-.07.16-.2.24-.41.24-.37,0-.48-.27-.49-.68,0-.46.16-.7.49-.7Z"/>
    <path class="cls-2" d="m85.02,95.62c.31,0,.37-.22.37-.52s-.06-.52-.36-.52-.37.22-.37.52.07.52.36.52Zm0-1.22c.43,0,.59.26.59.69,0,.44-.19.69-.6.69s-.58-.27-.59-.69c0-.46.2-.69.59-.69Z"/>
    <path class="cls-2" d="m86.53,94.62c-.54-.11-.37.64-.4,1.14h-.22v-1.33s.2,0,.2,0c0,.08,0,.2.01.27.04-.19.16-.34.41-.29v.2Z"/>
    <path class="cls-1" d="m119.71,102.82c.17-.66.85-.66.85-.66h28.98c.68,0,.5.66.5.66l-3.27,12.27c-.17.66-.85.66-.85.66h-28.98c-.68,0-.5-.66-.5-.66l3.28-12.27Z"/>
    <path class="cls-4" d="m119.71,102.82c.17-.66.85-.66.85-.66h28.98c.68,0,.5.66.5.66l-3.27,12.27c-.17.66-.85.66-.85.66h-28.98c-.68,0-.5-.66-.5-.66l3.28-12.27Z"/>
    <polygon class="cls-2" points="122.16 106.3 122.16 105.43 122.16 104.56 122.39 104.56 122.39 105.34 122.39 106.11 123.26 106.11 123.26 106.2 123.26 106.3 122.16 106.3"/>
    <path class="cls-2" d="m124.04,106.16c.31,0,.37-.22.37-.52s-.06-.52-.36-.52-.37.22-.37.52.07.52.36.52Zm0-1.22c.43,0,.59.26.59.69,0,.44-.19.69-.6.69s-.58-.27-.59-.69c0-.46.2-.69.59-.69Z"/>
    <path class="cls-2" d="m125.69,105.3c-.02-.24-.6-.27-.61,0,.1.37.8.08.83.63.03.54-1.05.52-1.1.06l.2-.03c.03.25.68.31.68,0-.07-.39-.79-.1-.82-.63-.03-.4.57-.44.85-.29.08.05.15.13.17.24l-.2.03Z"/>
    <path class="cls-2" d="m127.45,106.16c.28,0,.31-.24.31-.52s-.04-.51-.31-.52c-.29,0-.36.22-.36.53s.07.51.36.51Zm.06-1.22c.38,0,.49.29.49.68s-.11.68-.49.7c-.22,0-.34-.09-.42-.24v.73s-.22,0-.22,0v-1.85s.21,0,.21,0v.21c.08-.15.21-.24.43-.24Z"/>
    <path class="cls-2" d="m128.26,106.3v-1.33h.22v1.33h-.22Zm0-1.61v-.21h.22v.21h-.22Z"/>
    <polygon class="cls-2" points="129.63 106.3 129.28 105.75 128.91 106.3 128.68 106.3 129.15 105.61 128.7 104.97 128.94 104.97 129.28 105.49 129.61 104.97 129.85 104.97 129.4 105.61 129.88 106.3 129.63 106.3"/>
    <path class="cls-2" d="m130.97,105.51c.04-.42-.53-.54-.68-.2-.02.05-.04.12-.04.2h.72Zm-.36-.57c.44,0,.6.29.59.74h-.94c0,.28.1.47.37.48.18,0,.3-.08.34-.2l.2.06c-.08.2-.26.31-.54.31-.41,0-.61-.26-.61-.7,0-.43.18-.68.59-.68Z"/>
    <polygon class="cls-2" points="131.47 106.3 131.47 105.39 131.47 104.47 131.69 104.47 131.69 105.39 131.69 106.3 131.47 106.3"/>
    <path class="cls-2" d="m132.92,105.51c.04-.42-.53-.54-.68-.2-.02.05-.04.12-.04.2h.72Zm-.36-.57c.44,0,.6.29.59.74h-.94c0,.28.1.47.37.48.18,0,.3-.08.34-.2l.2.06c-.08.2-.26.31-.54.31-.41,0-.61-.26-.61-.7,0-.43.18-.68.59-.68Z"/>
    <path class="cls-2" d="m134.2,105.3c-.02-.24-.6-.27-.61,0,.1.37.8.08.83.63.03.54-1.05.52-1.1.06l.2-.03c.03.25.68.31.68,0-.07-.39-.79-.1-.82-.63-.03-.4.57-.44.85-.29.08.05.15.13.17.24l-.2.03Z"/>
    <path class="cls-2" d="m135.87,105.11c-.28,0-.32.24-.32.52s.04.52.31.52c.29,0,.36-.22.36-.53s-.06-.52-.35-.51Zm-.06-.17c.22,0,.34.09.42.23v-.7s.22,0,.22,0v1.82s-.2,0-.2,0c-.01-.07,0-.16-.02-.22-.07.16-.2.24-.41.24-.37,0-.48-.27-.49-.68,0-.46.16-.7.49-.7Z"/>
    <path class="cls-2" d="m137.67,105.51c.04-.42-.53-.54-.68-.2-.02.05-.04.12-.04.2h.72Zm-.36-.57c.44,0,.6.29.59.74h-.94c0,.28.1.47.37.48.18,0,.3-.08.34-.2l.2.06c-.08.2-.26.31-.54.31-.41,0-.61-.26-.61-.7,0-.43.18-.68.59-.68Z"/>
    <polygon class="cls-2" points="138.17 106.3 138.17 105.39 138.17 104.47 138.39 104.47 138.39 105.39 138.39 106.3 138.17 106.3"/>
    <path class="cls-2" d="m139.92,105.12c-.28,0-.34.23-.34.51s.06.52.34.52c.17,0,.29-.1.3-.27h.22c-.04.27-.22.44-.52.44-.41,0-.53-.29-.57-.69-.07-.65.71-.92,1.03-.45.03.05.03.1.05.15l-.22.02c-.03-.15-.11-.24-.29-.24Z"/>
    <path class="cls-2" d="m140.84,105.93c0,.14.08.23.22.23.29-.02.44-.2.42-.52-.3.01-.64-.03-.64.29Zm.65.12c-.1.15-.22.29-.48.28-.25,0-.41-.15-.41-.4,0-.45.44-.44.87-.44.02-.24-.06-.38-.29-.38-.17,0-.29.05-.29.22l-.23-.02c.03-.26.23-.36.53-.36s.5.14.5.45v.57c0,.14.05.22.2.19v.14c-.22.06-.43-.01-.41-.24Z"/>
    <path class="cls-2" d="m142.7,105.16c-.54-.11-.37.64-.4,1.14h-.22v-1.33s.2,0,.2,0c0,.08,0,.2.01.27.04-.19.16-.34.41-.29v.2Z"/>
    <path class="cls-2" d="m143.53,105.16c-.54-.11-.37.64-.4,1.14h-.22v-1.33s.2,0,.2,0c0,.08,0,.2.01.27.04-.19.16-.34.41-.29v.2Z"/>
    <path class="cls-2" d="m144.26,106.16c.31,0,.37-.22.37-.52s-.06-.52-.36-.52-.37.22-.37.52.07.52.36.52Zm0-1.22c.43,0,.59.26.59.69,0,.44-.19.69-.6.69s-.58-.27-.59-.69c0-.46.2-.69.59-.69Z"/>
    <path class="cls-2" d="m145.91,105.3c-.02-.24-.6-.27-.61,0,.1.37.8.08.83.63.03.54-1.05.52-1.1.06l.2-.03c.03.25.68.31.68,0-.07-.39-.79-.1-.82-.63-.03-.4.57-.44.85-.29.08.05.15.13.17.24l-.2.03Z"/>
    <path class="cls-2" d="m120.97,108.13c-.28,0-.32.24-.32.52s.04.52.31.52c.29,0,.36-.22.36-.53s-.06-.52-.35-.51Zm-.06-.17c.22,0,.34.09.42.23v-.7s.22,0,.22,0v1.82s-.2,0-.2,0c-.01-.07,0-.16-.02-.22-.07.16-.2.24-.41.24-.37,0-.48-.27-.49-.68,0-.46.16-.7.49-.7Z"/>
    <path class="cls-2" d="m122.77,108.53c.04-.42-.53-.54-.68-.2-.02.05-.04.12-.04.2h.72Zm-.36-.57c.44,0,.6.29.59.74h-.94c0,.28.1.47.37.48.18,0,.3-.08.34-.2l.2.06c-.08.2-.26.31-.54.31-.41,0-.61-.26-.61-.7,0-.43.18-.68.59-.68Z"/>
    <path class="cls-2" d="m124.05,108.32c-.02-.24-.6-.27-.61,0,.1.37.8.08.83.63.03.54-1.05.52-1.1.06l.2-.03c.03.25.68.31.68,0-.07-.39-.79-.1-.82-.63-.03-.4.57-.44.85-.29.08.05.15.13.17.24l-.2.03Z"/>
    <path class="cls-2" d="m124.7,108.95c0,.14.08.23.22.23.29-.02.44-.2.42-.52-.3.01-.64-.03-.64.29Zm.65.12c-.1.15-.22.29-.48.28-.25,0-.41-.15-.41-.4,0-.45.44-.44.87-.44.02-.24-.06-.38-.29-.38-.17,0-.29.05-.29.22l-.23-.02c.03-.26.23-.36.53-.36s.5.14.5.45v.57c0,.14.05.22.2.19v.14c-.22.06-.43-.01-.41-.24Z"/>
    <path class="cls-2" d="m126.51,109.18c.28,0,.31-.24.31-.52s-.04-.51-.31-.52c-.29,0-.36.22-.36.53s.07.51.36.51Zm.06-1.22c.38,0,.49.29.49.68s-.11.68-.49.7c-.22,0-.34-.09-.42-.24v.73s-.22,0-.22,0v-1.85s.21,0,.21,0v.21c.08-.15.21-.24.43-.24Z"/>
    <path class="cls-2" d="m127.49,108.95c0,.14.08.23.22.23.29-.02.44-.2.42-.52-.3.01-.64-.03-.64.29Zm.65.12c-.1.15-.22.29-.48.28-.25,0-.41-.15-.41-.4,0-.45.44-.44.87-.44.02-.24-.06-.38-.29-.38-.17,0-.29.05-.29.22l-.23-.02c.03-.26.23-.36.53-.36s.5.14.5.45v.57c0,.14.05.22.2.19v.14c-.22.06-.43-.01-.41-.24Z"/>
    <path class="cls-2" d="m129.35,108.18c-.54-.11-.37.64-.4,1.14h-.22v-1.33s.2,0,.2,0c0,.08,0,.2.01.27.04-.19.16-.34.41-.29v.2Z"/>
    <path class="cls-2" d="m130.45,108.53c.04-.42-.53-.54-.68-.2-.02.05-.04.12-.04.2h.72Zm-.36-.57c.44,0,.6.29.59.74h-.94c0,.28.1.47.37.48.18,0,.3-.08.34-.2l.2.06c-.08.2-.26.31-.54.31-.41,0-.61-.26-.61-.7,0-.43.18-.68.59-.68Z"/>
    <path class="cls-2" d="m131.45,108.14c-.28,0-.34.23-.34.51s.06.52.34.52c.17,0,.29-.1.3-.27h.22c-.04.27-.22.44-.52.44-.41,0-.53-.29-.57-.69-.07-.65.71-.92,1.03-.45.03.05.03.1.05.15l-.22.02c-.03-.15-.11-.24-.29-.24Z"/>
    <path class="cls-2" d="m133.1,108.53c.04-.42-.53-.54-.68-.2-.02.05-.04.12-.04.2h.72Zm-.36-.57c.44,0,.6.29.59.74h-.94c0,.28.1.47.37.48.18,0,.3-.08.34-.2l.2.06c-.08.2-.26.31-.54.31-.41,0-.61-.26-.61-.7,0-.43.18-.68.59-.68Z"/>
    <path class="cls-2" d="m134.23,108.18c-.54-.11-.37.64-.4,1.14h-.22v-1.33s.2,0,.2,0c0,.08,0,.2.01.27.04-.19.16-.34.41-.29v.2Z"/>
    <path class="cls-2" d="m134.6,108.95c0,.14.08.23.22.23.29-.02.44-.2.42-.52-.3.01-.64-.03-.64.29Zm.65.12c-.1.15-.22.29-.48.28-.25,0-.41-.15-.41-.4,0-.45.44-.44.87-.44.02-.24-.06-.38-.29-.38-.17,0-.29.05-.29.22l-.23-.02c.03-.26.23-.36.53-.36s.5.14.5.45v.57c0,.14.05.22.2.19v.14c-.22.06-.43-.01-.41-.24Z"/>
    <path class="cls-2" d="m136.48,107.96c.62-.03.37.81.42,1.36h-.22v-.85c0-.22-.06-.34-.27-.34-.5.01-.31.71-.34,1.18h-.22v-1.33s.2,0,.2,0c0,.07,0,.17.01.22.08-.15.2-.24.43-.25Z"/>
    <path class="cls-2" d="m138.34,109.34c-.62.03-.38-.81-.43-1.36h.22v.84c0,.22.05.35.27.34.5-.01.31-.71.35-1.18h.22v1.33s-.2,0-.2,0c0-.07,0-.17-.01-.23-.08.15-.2.25-.42.26Z"/>
    <path class="cls-2" d="m139.97,107.96c.62-.03.37.81.42,1.36h-.22v-.85c0-.22-.06-.34-.27-.34-.5.01-.31.71-.34,1.18h-.22v-1.33s.2,0,.2,0c0,.07,0,.17.01.22.08-.15.2-.24.43-.25Z"/>
    <path class="cls-2" d="m141.24,109.18c.31,0,.37-.22.37-.52s-.06-.52-.36-.52-.37.22-.37.52.07.52.36.52Zm0-1.22c.43,0,.59.26.59.69,0,.44-.19.69-.6.69s-.58-.27-.59-.69c0-.46.2-.69.59-.69Z"/>
    <path class="cls-2" d="m143.39,109.18c.28,0,.31-.24.31-.52s-.04-.51-.31-.52c-.29,0-.36.22-.36.53s.07.51.36.51Zm.06-1.22c.38,0,.49.29.49.68s-.11.68-.49.7c-.22,0-.34-.09-.42-.24v.73s-.22,0-.22,0v-1.85s.21,0,.21,0v.21c.08-.15.21-.24.43-.24Z"/>
    <path class="cls-2" d="m144.74,109.18c.31,0,.37-.22.37-.52s-.06-.52-.36-.52-.37.22-.37.52.07.52.36.52Zm0-1.22c.43,0,.59.26.59.69,0,.44-.19.69-.6.69s-.58-.27-.59-.69c0-.46.2-.69.59-.69Z"/>
    <path class="cls-2" d="m146.24,108.18c-.54-.11-.37.64-.4,1.14h-.22v-1.33s.2,0,.2,0c0,.08,0,.2.01.27.04-.19.16-.34.41-.29v.2Z"/>
    <path class="cls-2" d="m130.98,112.36c-.62.03-.38-.81-.43-1.36h.22v.84c0,.22.05.35.27.34.5-.01.31-.71.35-1.18h.22v1.33s-.2,0-.2,0c0-.07,0-.17-.01-.23-.08.15-.2.25-.42.26Z"/>
    <path class="cls-2" d="m132.61,110.98c.62-.03.37.81.42,1.36h-.22v-.85c0-.22-.06-.34-.27-.34-.5.01-.31.71-.34,1.18h-.22v-1.33s.2,0,.2,0c0,.07,0,.17.01.22.08-.15.2-.24.43-.25Z"/>
    <path class="cls-2" d="m133.88,112.2c.31,0,.37-.22.37-.52s-.06-.52-.36-.52-.37.22-.37.52.07.52.36.52Zm0-1.22c.43,0,.59.26.59.69,0,.44-.19.69-.6.69s-.58-.27-.59-.69c0-.46.2-.69.59-.69Z"/>
    <path class="cls-9" d="m98.83,91.98v-.23h17.09v.23h-17.09Zm33.85-.23l.11.11h.11l.11.11h.11v.11l.11.11v.23l.11.11v7.36h-.23v-7.36h-.11v-.34h-.11l-.11-.11h-.11l-.11-.11h-6.45v-.23h6.57Z"/>
    <path class="cls-5" d="m98.83,91.98v-.23h17.09v.23h-17.09Zm33.85-.23l.11.11h.11l.11.11h.11v.11l.11.11v.23l.11.11v7.36h-.23v-7.36h-.11v-.34h-.11l-.11-.11h-.11l-.11-.11h-6.45v-.23h6.57Z"/>
    <polygon class="cls-9" points="98.83 91.98 98.71 91.98 98.71 91.86 98.71 91.75 98.83 91.75 98.83 91.98"/>
    <path class="cls-9" d="m98.71,91.75v.23h.11v-.23h-.11Zm.11.23h-.11v-.23h.11v.23Z"/>
    <path class="cls-5" d="m98.71,91.75v.23h.11v-.23h-.11Zm.11.23h-.11v-.23h.11v.23Z"/>
    <polygon class="cls-9" points="133.24 101.6 132.67 100.01 133.69 100.01 133.24 101.6"/>
    <path class="cls-9" d="m132.79,100.13l.45,1.13.34-1.13h-.79Zm.45,1.92l-.68-2.15h1.36l-.68,2.15Z"/>
    <path class="cls-5" d="m132.79,100.13l.45,1.13.34-1.13h-.79Zm.45,1.92l-.68-2.15h1.36l-.68,2.15Z"/>
    <path class="cls-2" d="m116.9,92.34l-.6-1.07c.03.32.01.72.02,1.07h-.26v-1.39h.33l.61,1.08c-.03-.32-.01-.72-.02-1.08h.26v1.39h-.34Z"/>
    <path class="cls-2" d="m117.98,92.17c.2,0,.25-.16.25-.36,0-.22-.06-.36-.24-.36s-.25.15-.25.36c0,.2.06.36.24.36Zm0-.92c.36,0,.54.2.54.55s-.2.55-.54.55-.53-.2-.53-.55.19-.55.54-.55Z"/>
    <path class="cls-2" d="m120.21,91.99c-.04.23-.21.37-.48.37-.33,0-.47-.21-.5-.55-.07-.61.86-.77.97-.2h-.27c-.01-.1-.08-.17-.2-.17-.17,0-.2.16-.21.36-.03.41.36.49.41.17l.28.02Z"/>
    <path class="cls-2" d="m120.91,91.46c-.33,0-.19.54-.22.88h-.28v-1.46h.28v.61c.06-.15.15-.23.34-.23.48,0,.32.63.35,1.08h-.28c-.04-.32.13-.88-.19-.88Z"/>
    <path class="cls-2" d="m122.1,92.17c.2,0,.25-.16.25-.36,0-.22-.06-.36-.24-.36s-.25.15-.25.36c0,.2.06.36.24.36Zm0-.92c.36,0,.54.2.54.55s-.2.55-.54.55-.53-.2-.53-.55.19-.55.54-.55Z"/>
    <path class="cls-2" d="m123.78,91.99c-.04.23-.21.37-.48.37-.33,0-.47-.21-.5-.55-.07-.61.86-.77.97-.2h-.27c-.01-.1-.08-.17-.2-.17-.17,0-.2.16-.21.36-.03.41.36.49.41.17l.28.02Z"/>
    <path class="cls-2" d="m124.31,92.17c.16,0,.24-.13.23-.32-.18,0-.37-.02-.36.17,0,.1.04.15.13.15Zm.27-.02c-.09.11-.17.22-.36.21-.21,0-.32-.11-.32-.32,0-.34.31-.35.65-.34,0-.15-.02-.26-.16-.26-.1,0-.15.05-.16.15h-.29c.04-.22.2-.34.46-.33.26,0,.41.12.42.38v.46c0,.08.07.1.15.08v.15c-.17.04-.4.03-.39-.18Z"/>
    <path class="cls-2" d="m125.71,91.26c.49,0,.32.63.35,1.08h-.28c-.04-.32.13-.88-.19-.88s-.19.54-.22.88h-.28v-1.06s.26,0,.26,0c.01.07,0,.16.02.21.07-.15.16-.23.34-.23Z"/>
    <path class="cls-1" d="m6.51,102.82c.17-.66.85-.66.85-.66h28.98c.68,0,.5.66.5.66l-3.27,12.27c-.17.66-.85.66-.85.66H3.74c-.68,0-.5-.66-.5-.66l3.28-12.27Z"/>
    <path class="cls-4" d="m6.51,102.82c.17-.66.85-.66.85-.66h28.98c.68,0,.5.66.5.66l-3.27,12.27c-.17.66-.85.66-.85.66H3.74c-.68,0-.5-.66-.5-.66l3.28-12.27Z"/>
    <polygon class="cls-2" points="8.66 109.41 8.66 108.54 8.66 107.68 9.97 107.68 9.97 107.78 9.97 107.87 8.89 107.87 8.89 108.15 8.89 108.42 9.9 108.42 9.9 108.52 9.9 108.61 8.89 108.61 8.89 108.92 8.89 109.22 10.02 109.22 10.02 109.32 10.02 109.41 8.66 109.41"/>
    <polygon class="cls-2" points="10.3 109.41 10.3 108.5 10.3 107.59 10.52 107.59 10.52 108.5 10.52 109.41 10.3 109.41"/>
    <path class="cls-2" d="m11.32,109.75c.17.03.23-.04.23-.21v-1.46h.22v1.5c.01.28-.16.41-.45.34v-.17Zm.23-1.96v-.21h.22v.21h-.22Z"/>
    <path class="cls-2" d="m12.52,109.44c-.62.03-.38-.81-.43-1.36h.22v.84c0,.22.05.35.27.34.5-.01.31-.71.35-1.18h.22v1.33s-.2,0-.2,0c0-.07,0-.17-.01-.23-.08.15-.2.25-.42.26Z"/>
    <path class="cls-2" d="m14.39,108.62c.04-.42-.53-.54-.68-.2-.02.05-.04.12-.04.2h.72Zm-.36-.57c.44,0,.6.29.59.74h-.94c0,.28.1.47.37.48.18,0,.3-.08.34-.2l.2.06c-.08.2-.26.31-.54.31-.41,0-.61-.26-.61-.7,0-.43.18-.68.59-.68Z"/>
    <path class="cls-2" d="m15.38,109.26c.25,0,.35-.22.35-.51s-.1-.52-.35-.52c-.27,0-.32.24-.32.52s.04.51.32.51Zm.58-1.17c-.07.87.29,2.05-.77,1.82-.16-.04-.27-.14-.31-.3l.22-.03c.1.33.7.22.62-.2v-.21c-.08.15-.2.25-.43.25-.38,0-.48-.29-.48-.67s.11-.68.5-.68c.2,0,.34.11.41.24,0-.07,0-.16.01-.22h.21Z"/>
    <path class="cls-2" d="m16.81,109.27c.31,0,.37-.22.37-.52s-.06-.52-.36-.52-.37.22-.37.52.07.52.36.52Zm0-1.22c.43,0,.59.26.59.69,0,.44-.19.69-.6.69s-.58-.27-.59-.69c0-.46.2-.69.59-.69Z"/>
    <path class="cls-2" d="m19.16,108.41c-.02-.24-.6-.27-.61,0,.1.37.8.08.83.63.03.54-1.05.52-1.1.06l.2-.03c.03.25.68.31.68,0-.07-.39-.79-.1-.82-.63-.03-.4.57-.44.85-.29.08.05.15.13.17.24l-.2.03Z"/>
    <path class="cls-2" d="m20.54,108.62c.04-.42-.53-.54-.68-.2-.02.05-.04.12-.04.2h.72Zm-.36-.57c.44,0,.6.29.59.74h-.94c0,.28.1.47.37.48.18,0,.3-.08.34-.2l.2.06c-.08.2-.26.31-.54.31-.41,0-.61-.26-.61-.7,0-.43.18-.68.59-.68Z"/>
    <path class="cls-2" d="m22.36,108.27c-.54-.11-.37.64-.4,1.14h-.22v-1.33s.2,0,.2,0c0,.08,0,.2.01.27.04-.19.16-.34.41-.29v.2Z"/>
    <path class="cls-2" d="m23.46,108.62c.04-.42-.53-.54-.68-.2-.02.05-.04.12-.04.2h.72Zm-.36-.57c.44,0,.6.29.59.74h-.94c0,.28.1.47.37.48.18,0,.3-.08.34-.2l.2.06c-.08.2-.26.31-.54.31-.41,0-.61-.26-.61-.7,0-.43.18-.68.59-.68Z"/>
    <path class="cls-2" d="m23.96,109.41v-1.33h.22v1.33h-.22Zm0-1.61v-.21h.22v.21h-.22Z"/>
    <path class="cls-2" d="m25.17,108.05c.62-.03.37.81.42,1.36h-.22v-.85c0-.22-.06-.34-.27-.34-.5.01-.31.71-.34,1.18h-.22v-1.33s.2,0,.2,0c0,.07,0,.17.01.22.08-.15.2-.24.43-.25Z"/>
    <path class="cls-2" d="m25.91,109.41v-1.33h.22v1.33h-.22Zm0-1.61v-.21h.22v.21h-.22Z"/>
    <path class="cls-2" d="m26.97,108.23c-.28,0-.34.23-.34.51s.06.52.34.52c.17,0,.29-.1.3-.27h.22c-.04.27-.22.44-.52.44-.41,0-.53-.29-.57-.69-.07-.65.71-.92,1.03-.45.03.05.03.1.05.15l-.22.02c-.03-.15-.11-.24-.29-.24Z"/>
    <path class="cls-2" d="m27.72,109.41v-1.33h.22v1.33h-.22Zm0-1.61v-.21h.22v.21h-.22Z"/>
    <path class="cls-2" d="m28.44,109.04c0,.14.08.23.22.23.29-.02.44-.2.42-.52-.3.01-.64-.03-.64.29Zm.65.12c-.1.15-.22.29-.48.28-.25,0-.41-.15-.41-.4,0-.45.44-.44.87-.44.02-.24-.06-.38-.29-.38-.17,0-.29.05-.29.22l-.23-.02c.03-.26.23-.36.53-.36s.5.14.5.45v.57c0,.14.05.22.2.19v.14c-.22.06-.43-.01-.41-.24Z"/>
    <path class="cls-2" d="m30.3,108.27c-.54-.11-.37.64-.4,1.14h-.22v-1.33s.2,0,.2,0c0,.08,0,.2.01.27.04-.19.16-.34.41-.29v.2Z"/>
    <path class="cls-2" d="m30.85,107.94c.06-.16.19-.24.27-.38h.25v.03l-.41.34h-.11Zm-.17,1.1c0,.14.08.23.22.23.29-.02.44-.2.42-.52-.3.01-.64-.03-.64.29Zm.65.12c-.1.15-.22.29-.48.28-.25,0-.41-.15-.41-.4,0-.45.44-.44.87-.44.02-.24-.06-.38-.29-.38-.17,0-.29.05-.29.22l-.23-.02c.03-.26.23-.36.53-.36s.5.14.5.45v.57c0,.14.05.22.2.19v.14c-.22.06-.43-.01-.41-.24Z"/>
    <path class="cls-9" d="m56.15,91.98h-19.47v-.23h19.47v.23Zm-26.83,0h-8.72l-.11.11h-.11l-.11.11-.11.11v7.58h-.23v-7.7l.11-.11.11-.11.11-.11h.11l.11-.11h8.83v.23Z"/>
    <path class="cls-5" d="m56.15,91.98h-19.47v-.23h19.47v.23Zm-26.83,0h-8.72l-.11.11h-.11l-.11.11-.11.11v7.58h-.23v-7.7l.11-.11.11-.11.11-.11h.11l.11-.11h8.83v.23Z"/>
    <polygon class="cls-9" points="56.26 91.75 56.26 91.86 56.26 91.98 56.15 91.98 56.15 91.75 56.26 91.75"/>
    <path class="cls-9" d="m56.15,91.75v.23h.11v-.23h-.11Zm.11,0v.23h-.11v-.23h.11Z"/>
    <path class="cls-5" d="m56.15,91.75v.23h.11v-.23h-.11Zm.11,0v.23h-.11v-.23h.11Z"/>
    <polygon class="cls-9" points="20.04 101.6 19.47 100.01 20.49 100.01 20.04 101.6"/>
    <path class="cls-9" d="m19.59,100.13l.45,1.13.34-1.13h-.79Zm.45,1.92l-.68-2.15h1.36l-.68,2.15Z"/>
    <path class="cls-5" d="m19.59,100.13l.45,1.13.34-1.13h-.79Zm.45,1.92l-.68-2.15h1.36l-.68,2.15Z"/>
    <path class="cls-2" d="m29.7,91.64c0,.3.12.49.41.49.21,0,.3-.12.36-.26l.25.1c-.1.23-.29.4-.61.4-.46,0-.67-.26-.7-.72-.04-.61.61-.87,1.1-.6.1.06.16.16.2.28l-.26.07c-.04-.14-.17-.23-.35-.23-.29,0-.4.19-.4.48Z"/>
    <path class="cls-2" d="m31.41,91.46c-.33,0-.19.54-.22.88h-.28v-1.46h.28v.61c.06-.15.15-.23.34-.23.48,0,.32.63.35,1.08h-.28c-.04-.32.13-.88-.19-.88Z"/>
    <path class="cls-2" d="m32.6,92.17c.2,0,.25-.16.25-.36,0-.22-.06-.36-.24-.36s-.25.15-.25.36c0,.2.06.36.24.36Zm0-.92c.36,0,.54.2.54.55s-.2.55-.54.55-.53-.2-.53-.55.19-.55.54-.55Z"/>
    <path class="cls-2" d="m34.28,91.99c-.04.23-.21.37-.48.37-.33,0-.47-.21-.5-.55-.07-.61.86-.77.97-.2h-.27c-.01-.1-.08-.17-.2-.17-.17,0-.2.16-.21.36-.03.41.36.49.41.17l.28.02Z"/>
    <path class="cls-2" d="m34.81,92.17c.16,0,.24-.13.23-.32-.18,0-.37-.02-.36.17,0,.1.04.15.13.15Zm.27-.02c-.09.11-.17.22-.36.21-.21,0-.32-.11-.32-.32,0-.34.31-.35.65-.34,0-.15-.02-.26-.16-.26-.1,0-.15.05-.16.15h-.29c.04-.22.2-.34.46-.33.26,0,.41.12.42.38v.46c0,.08.07.1.15.08v.15c-.17.04-.4.03-.39-.18Z"/>
    <path class="cls-2" d="m36.21,91.26c.49,0,.32.63.35,1.08h-.28c-.04-.32.13-.88-.19-.88s-.19.54-.22.88h-.28v-1.06s.26,0,.26,0c.01.07,0,.16.02.21.07-.15.16-.23.34-.23Z"/>
    <polygon class="cls-9" points="60.11 33.11 .8 33.11 .68 33.12 .57 33.13 .57 33.17 .46 33.22 .34 33.28 .34 33.35 .34 33.42 .23 33.51 .23 33.59 .23 33.68 .23 108.28 .23 108.39 .23 108.5 .34 108.5 .34 108.62 .34 108.73 .46 108.73 .57 108.84 .68 108.84 .8 108.84 4.53 108.84 4.53 109.07 .8 109.07 .68 109.07 .57 109.07 .46 108.96 .34 108.96 .23 108.84 .12 108.73 .12 108.62 0 108.5 0 108.39 0 108.28 0 33.68 0 33.55 0 33.43 .12 33.31 .12 33.21 .23 33.11 .34 33.03 .46 32.98 .57 32.92 .68 32.9 .8 32.88 60.11 32.88 60.11 33.11"/>
    <polygon class="cls-5" points="60.11 33.11 .8 33.11 .68 33.12 .57 33.13 .57 33.17 .46 33.22 .34 33.28 .34 33.35 .34 33.42 .23 33.51 .23 33.59 .23 33.68 .23 108.28 .23 108.39 .23 108.5 .34 108.5 .34 108.62 .34 108.73 .46 108.73 .57 108.84 .68 108.84 .8 108.84 4.53 108.84 4.53 109.07 .8 109.07 .68 109.07 .57 109.07 .46 108.96 .34 108.96 .23 108.84 .12 108.73 .12 108.62 0 108.5 0 108.39 0 108.28 0 33.68 0 33.55 0 33.43 .12 33.31 .12 33.21 .23 33.11 .34 33.03 .46 32.98 .57 32.92 .68 32.9 .8 32.88 60.11 32.88 60.11 33.11"/>
    <rect class="cls-9" x="4.53" y="108.84" width=".11" height=".23"/>
    <path class="cls-9" d="m4.53,108.84v.23h.11v-.23h-.11Zm.11.23h-.11v-.23h.11v.23Z"/>
    <path class="cls-5" d="m4.53,108.84v.23h.11v-.23h-.11Zm.11.23h-.11v-.23h.11v.23Z"/>
    <polygon class="cls-9" points="61.92 33 60.23 33.52 60.23 32.48 61.92 33"/>
    <path class="cls-9" d="m60.34,33.37l1.13-.37-1.13-.37v.75Zm1.92-.37l-2.15.68v-1.36l2.15.68Z"/>
    <path class="cls-5" d="m60.34,33.37l1.13-.37-1.13-.37v.75Zm1.92-.37l-2.15.68v-1.36l2.15.68Z"/>
    <path class="cls-7" d="m86.63,124.69c4.84,0,8.77,3.93,8.77,8.77s-3.93,8.77-8.77,8.77h-18.43c-4.84,0-8.77-3.93-8.77-8.77s3.93-8.77,8.77-8.77h18.43Z"/>
    <path class="cls-4" d="m86.63,124.69c4.84,0,8.77,3.93,8.77,8.77s-3.93,8.77-8.77,8.77h-18.43c-4.84,0-8.77-3.93-8.77-8.77s3.93-8.77,8.77-8.77h18.43Z"/>
    <polygon class="cls-2" points="65.91 132.4 65.91 131.53 65.91 130.66 67.22 130.66 67.22 130.76 67.22 130.86 66.15 130.86 66.15 131.14 66.15 131.41 67.15 131.41 67.15 131.51 67.15 131.6 66.15 131.6 66.15 131.91 66.15 132.21 67.28 132.21 67.28 132.3 67.28 132.4 65.91 132.4"/>
    <path class="cls-2" d="m68.2,131.04c.62-.03.37.81.42,1.36h-.22v-.85c0-.22-.06-.34-.27-.34-.5.01-.31.71-.34,1.18h-.22v-1.33s.2,0,.2,0c0,.07,0,.17.01.22.08-.15.2-.24.43-.25Z"/>
    <path class="cls-2" d="m69.19,132.07c-.01.17.13.2.27.15v.17c-.23.07-.49.03-.49-.27v-.89h-.15v-.16h.17l.06-.3h.15v.3h.24v.16h-.24v.84Z"/>
    <path class="cls-2" d="m70.54,131.61c.04-.42-.53-.54-.68-.2-.02.05-.04.12-.04.2h.72Zm-.36-.57c.44,0,.6.29.59.74h-.94c0,.28.1.47.37.48.18,0,.3-.08.34-.2l.2.06c-.08.2-.26.31-.54.31-.41,0-.61-.26-.61-.7,0-.43.18-.68.59-.68Z"/>
    <path class="cls-2" d="m71.69,131.04c.62-.03.37.81.42,1.36h-.22v-.85c0-.22-.06-.34-.27-.34-.5.01-.31.71-.34,1.18h-.22v-1.33s.2,0,.2,0c0,.07,0,.17.01.22.08-.15.2-.24.43-.25Z"/>
    <path class="cls-2" d="m72.93,131.21c-.28,0-.32.24-.32.52s.04.52.31.52c.29,0,.36-.22.36-.53s-.06-.52-.35-.51Zm-.06-.17c.22,0,.34.09.42.23v-.7s.22,0,.22,0v1.82s-.2,0-.2,0c-.01-.07,0-.16-.02-.22-.07.16-.2.24-.41.24-.37,0-.48-.27-.49-.68,0-.46.16-.7.49-.7Z"/>
    <path class="cls-2" d="m73.84,132.4v-1.33h.22v1.33h-.22Zm0-1.61v-.21h.22v.21h-.22Z"/>
    <path class="cls-2" d="m75.69,131.22c-.47.02-.27.73-.31,1.18h-.22v-.85c0-.2-.03-.35-.24-.34-.46.03-.27.73-.31,1.18h-.22v-1.33s.2,0,.2,0c0,.07,0,.17.01.22.07-.31.69-.35.75,0,.08-.15.19-.24.41-.25.59-.01.33.83.38,1.36h-.22v-.85c0-.2-.03-.34-.24-.34Z"/>
    <path class="cls-2" d="m76.48,132.4v-1.33h.22v1.33h-.22Zm0-1.61v-.21h.22v.21h-.22Z"/>
    <path class="cls-2" d="m77.93,131.61c.04-.42-.53-.54-.68-.2-.02.05-.04.12-.04.2h.72Zm-.36-.57c.44,0,.6.29.59.74h-.94c0,.28.1.47.37.48.18,0,.3-.08.34-.2l.2.06c-.08.2-.26.31-.54.31-.41,0-.61-.26-.61-.7,0-.43.18-.68.59-.68Z"/>
    <path class="cls-2" d="m79.08,131.04c.62-.03.37.81.42,1.36h-.22v-.85c0-.22-.06-.34-.27-.34-.5.01-.31.71-.34,1.18h-.22v-1.33s.2,0,.2,0c0,.07,0,.17.01.22.08-.15.2-.24.43-.25Z"/>
    <path class="cls-2" d="m80.07,132.07c-.01.17.13.2.27.15v.17c-.23.07-.49.03-.49-.27v-.89h-.15v-.16h.17l.06-.3h.15v.3h.24v.16h-.24v.84Z"/>
    <path class="cls-2" d="m81.05,132.26c.31,0,.37-.22.37-.52s-.06-.52-.36-.52-.37.22-.37.52.07.52.36.52Zm0-1.22c.43,0,.59.26.59.69,0,.44-.19.69-.6.69s-.58-.27-.59-.69c0-.46.2-.69.59-.69Z"/>
    <path class="cls-2" d="m83.1,131.21c-.28,0-.32.24-.32.52s.04.52.31.52c.29,0,.36-.22.36-.53s-.06-.52-.35-.51Zm-.06-.17c.22,0,.34.09.42.23v-.7s.22,0,.22,0v1.82s-.2,0-.2,0c-.01-.07,0-.16-.02-.22-.07.16-.2.24-.41.24-.37,0-.48-.27-.49-.68,0-.46.16-.7.49-.7Z"/>
    <path class="cls-2" d="m84.91,131.61c.04-.42-.53-.54-.68-.2-.02.05-.04.12-.04.2h.72Zm-.36-.57c.44,0,.6.29.59.74h-.94c0,.28.1.47.37.48.18,0,.3-.08.34-.2l.2.06c-.08.2-.26.31-.54.31-.41,0-.61-.26-.61-.7,0-.43.18-.68.59-.68Z"/>
    <polygon class="cls-2" points="86.11 132.4 86.11 131.49 86.11 130.57 86.34 130.57 86.34 131.49 86.34 132.4 86.11 132.4"/>
    <path class="cls-2" d="m87.19,132.26c.31,0,.37-.22.37-.52s-.06-.52-.36-.52-.37.22-.37.52.07.52.36.52Zm0-1.22c.43,0,.59.26.59.69,0,.44-.19.69-.6.69s-.58-.27-.59-.69c0-.46.2-.69.59-.69Z"/>
    <path class="cls-2" d="m88.84,131.4c-.02-.24-.6-.27-.61,0,.1.37.8.08.83.63.03.54-1.05.52-1.1.06l.2-.03c.03.25.68.31.68,0-.07-.39-.79-.1-.82-.63-.03-.4.57-.44.85-.29.08.05.15.13.17.24l-.2.03Z"/>
    <path class="cls-2" d="m72.11,135.28c.31,0,.37-.22.37-.52s-.06-.52-.36-.52-.37.22-.37.52.07.52.36.52Zm0-1.22c.43,0,.59.26.59.69,0,.44-.19.69-.6.69s-.58-.27-.59-.69c0-.46.2-.69.59-.69Z"/>
    <path class="cls-2" d="m73.57,135.28c.28,0,.31-.24.31-.52s-.03-.52-.31-.52c-.29,0-.36.22-.36.53s.07.51.36.51Zm.06-1.22c.37,0,.48.27.49.68,0,.46-.16.7-.49.7-.22,0-.34-.08-.41-.24v.21h-.23v-1.82h.23v.71c.07-.16.2-.24.41-.24Z"/>
    <path class="cls-2" d="m75.16,134.42c-.02-.24-.6-.27-.61,0,.1.37.8.08.83.63.03.54-1.05.52-1.1.06l.2-.03c.03.25.68.31.68,0-.07-.39-.79-.1-.82-.63-.03-.4.57-.44.85-.29.08.05.15.13.17.24l-.2.03Z"/>
    <path class="cls-2" d="m75.89,135.09c-.01.17.13.2.27.15v.17c-.23.07-.49.03-.49-.27v-.89h-.15v-.16h.17l.06-.3h.15v.3h.24v.16h-.24v.84Z"/>
    <path class="cls-2" d="m76.51,135.05c0,.14.08.23.22.23.29-.02.44-.2.42-.52-.3.01-.64-.03-.64.29Zm.65.12c-.1.15-.22.29-.48.28-.25,0-.41-.15-.41-.4,0-.45.44-.44.87-.44.02-.24-.06-.38-.29-.38-.17,0-.29.05-.29.22l-.23-.02c.03-.26.23-.36.53-.36s.5.14.5.45v.57c0,.14.05.22.2.19v.14c-.22.06-.43-.01-.41-.24Z"/>
    <path class="cls-2" d="m78.24,134.23c-.28,0-.34.23-.34.51s.06.52.34.52c.17,0,.29-.1.3-.27h.22c-.04.27-.22.44-.52.44-.41,0-.53-.29-.57-.69-.07-.65.71-.92,1.03-.45.03.05.03.1.05.15l-.22.02c-.03-.15-.11-.24-.29-.24Z"/>
    <path class="cls-2" d="m79.41,135.44c-.62.03-.38-.81-.43-1.36h.22v.84c0,.22.05.35.27.34.5-.01.31-.71.35-1.18h.22v1.33s-.2,0-.2,0c0-.07,0-.17-.01-.23-.08.15-.2.25-.42.26Z"/>
    <polygon class="cls-2" points="80.39 135.42 80.39 134.5 80.39 133.59 80.62 133.59 80.62 134.5 80.62 135.42 80.39 135.42"/>
    <path class="cls-2" d="m81.47,135.28c.31,0,.37-.22.37-.52s-.06-.52-.36-.52-.37.22-.37.52.07.52.36.52Zm0-1.22c.43,0,.59.26.59.69,0,.44-.19.69-.6.69s-.58-.27-.59-.69c0-.46.2-.69.59-.69Z"/>
    <path class="cls-2" d="m83.12,134.42c-.02-.24-.6-.27-.61,0,.1.37.8.08.83.63.03.54-1.05.52-1.1.06l.2-.03c.03.25.68.31.68,0-.07-.39-.79-.1-.82-.63-.03-.4.57-.44.85-.29.08.05.15.13.17.24l-.2.03Z"/>
    <path class="cls-3" d="m20.04,116.09v16.64c0,.68.68.68.68.68h36.45"/>
    <rect class="cls-9" x="19.93" y="115.97" width=".23" height=".11"/>
    <rect class="cls-5" x="19.93" y="115.97" width=".23" height=".11"/>
    <polygon class="cls-9" points="58.98 133.41 57.28 133.97 57.28 132.84 58.98 133.41"/>
    <polygon class="cls-3" points="58.98 133.41 57.28 133.97 57.28 132.84 58.98 133.41"/>
    <path class="cls-3" d="m133.24,116.09v16.64c0,.68-.68.68-.68.68h-34.87"/>
    <rect class="cls-9" x="133.13" y="115.97" width=".23" height=".11"/>
    <rect class="cls-5" x="133.13" y="115.97" width=".23" height=".11"/>
    <polygon class="cls-9" points="96 133.41 97.58 132.84 97.58 133.97 96 133.41"/>
    <polygon class="cls-3" points="96 133.41 97.58 132.84 97.58 133.97 96 133.41"/>
  </g>
</svg>