<?xml version="1.0" encoding="UTF-8"?>
<svg id="Layer_2" data-name="Layer 2" xmlns="http://www.w3.org/2000/svg" viewBox="0 0 291.33 243.69">
  <defs>
    <style>
      .cls-1, .cls-2 {
        stroke: #3a414a;
      }

      .cls-1, .cls-2, .cls-3, .cls-4 {
        fill: none;
      }

      .cls-1, .cls-3, .cls-4 {
        stroke-width: .26px;
      }

      .cls-5 {
        fill: #fc9432;
      }

      .cls-6 {
        fill: #fff;
      }

      .cls-6, .cls-3 {
        opacity: 0;
      }

      .cls-2 {
        stroke-width: .01px;
      }

      .cls-7 {
        fill: #e81313;
      }

      .cls-3, .cls-4 {
        stroke: #000;
      }

      .cls-8 {
        fill: #54c45e;
      }

      .cls-9 {
        fill: #3a414a;
      }

      .cls-10 {
        fill: #c3f7c8;
      }

      .cls-11 {
        fill: #fff7a1;
      }
    </style>
  </defs>
  <g id="Layer_1-2" data-name="Layer 1">
    <path class="cls-7" d="m48.78.13c3.23,0,5.85,2.62,5.85,5.85s-2.62,5.85-5.85,5.85H12.07c-3.23,0-5.85-2.62-5.85-5.85S8.84.13,12.07.13h36.71Z"/>
    <path class="cls-1" d="m48.78.13c3.23,0,5.85,2.62,5.85,5.85s-2.62,5.85-5.85,5.85H12.07c-3.23,0-5.85-2.62-5.85-5.85S8.84.13,12.07.13h36.71Z"/>
    <path d="m22.99,6.36c.62,0,.87-.4.87-.99s-.28-.97-.87-.97-.87.38-.87.97.27.98.87.99Zm0-2.23c.79,0,1.21.45,1.21,1.24s-.43,1.26-1.21,1.26-1.21-.48-1.21-1.26.41-1.24,1.21-1.24Z"/>
    <path d="m25.41,6.4c.39,0,.44-.33.44-.74s-.05-.74-.44-.73c-.41,0-.5.31-.5.74s.1.72.5.72Zm.08-1.71c.52,0,.68.38.69.96,0,.65-.23.98-.69.98-.3,0-.48-.11-.58-.33l-.02.29h-.3v-2.56h.32v.99c.1-.23.27-.33.58-.33Z"/>
    <path d="m27.65,5.19c-.03-.33-.84-.37-.85,0,.15.52,1.13.12,1.17.88.04.76-1.47.73-1.54.08l.27-.05c.04.35.95.44.96,0-.1-.55-1.11-.15-1.16-.88-.04-.56.8-.62,1.2-.41.12.07.21.19.24.34l-.28.04Z"/>
    <path d="m28.67,6.13c-.02.24.18.28.37.22v.24c-.32.1-.69.05-.69-.38v-1.24h-.22v-.23h.24l.09-.42h.21v.42h.34v.23h-.34v1.18Z"/>
    <path d="m29.54,6.07c0,.2.12.32.31.32.4-.03.62-.28.59-.73-.42.02-.9-.05-.9.4Zm.91.17c-.15.21-.3.4-.67.39-.35,0-.57-.21-.57-.56,0-.63.62-.62,1.23-.62.03-.34-.09-.53-.4-.53-.24,0-.4.07-.41.3l-.32-.03c.05-.36.32-.51.74-.51s.71.2.71.63v.8c0,.2.07.31.27.26v.2c-.3.09-.6-.02-.58-.34Z"/>
    <path d="m31.97,4.94c-.39,0-.47.32-.47.72s.09.74.47.74c.24,0,.4-.14.42-.37l.31.02c-.06.36-.3.6-.73.6-.58,0-.74-.4-.8-.97-.1-.91.99-1.28,1.44-.63.04.07.05.14.07.22l-.31.03c-.04-.21-.16-.34-.4-.34Z"/>
    <path d="m33.62,6.63c-.87.04-.53-1.14-.6-1.9h.31v1.18c0,.3.07.49.38.48.71-.02.44-.99.49-1.66h.3v1.86s-.28,0-.28,0c0-.1,0-.25-.02-.32-.11.22-.27.35-.59.36Z"/>
    <polygon points="34.99 6.59 34.99 5.31 34.99 4.04 35.3 4.04 35.3 5.31 35.3 6.59 34.99 6.59"/>
    <path d="m36.5,6.4c.43,0,.52-.3.52-.74s-.08-.74-.5-.74-.52.31-.52.74.1.73.5.74Zm0-1.71c.61,0,.83.36.83.97,0,.62-.26.97-.84.97s-.81-.38-.82-.97c0-.65.27-.97.83-.97Z"/>
    <path d="m38.81,5.19c-.03-.33-.84-.37-.85,0,.15.52,1.13.12,1.17.88.04.76-1.47.73-1.54.08l.27-.05c.04.35.95.44.96,0-.1-.55-1.11-.15-1.16-.88-.04-.56.8-.62,1.2-.41.12.07.21.19.24.34l-.28.04Z"/>
    <path class="cls-10" d="m235.98,19.27c0-1.59,1.59-1.59,1.59-1.59h45.24c1.56,0,1.56,1.59,1.56,1.59l.03,33.54c-8.1-5.88-13.13-5.88-16.17-5.88-4.84,0-11.28,5.88-16.12,5.88-2.99,0-8.07,0-16.12-5.88v-27.66Z"/>
    <path class="cls-1" d="m235.98,19.27c0-1.59,1.59-1.59,1.59-1.59h45.24c1.56,0,1.56,1.59,1.56,1.59l.03,33.54c-8.1-5.88-13.13-5.88-16.17-5.88-4.84,0-11.28,5.88-16.12,5.88-2.99,0-8.07,0-16.12-5.88v-27.66Z"/>
    <path class="cls-9" d="m245.54,28.25c.54-.02,1.22.14,1.22-.44s-.69-.41-1.22-.43v.87Zm0-1.13c.49,0,1.08.09,1.08-.41,0-.46-.62-.35-1.08-.36v.77Zm.95.11c.34.05.6.23.6.6,0,.85-1.04.67-1.87.69v-2.43c.74.03,1.73-.17,1.73.59,0,.32-.19.49-.46.56Z"/>
    <polygon class="cls-9" points="247.51 28.51 247.51 27.23 247.51 25.95 247.82 25.95 247.82 27.23 247.82 28.51 247.51 28.51"/>
    <path class="cls-9" d="m249.02,28.31c.43,0,.52-.3.52-.74s-.08-.74-.5-.74-.52.31-.52.74.1.73.5.74Zm0-1.71c.61,0,.83.36.83.97,0,.62-.26.97-.84.97s-.81-.38-.82-.97c0-.65.27-.97.83-.97Z"/>
    <path class="cls-9" d="m250.92,28.31c.4,0,.5-.32.5-.74s-.08-.72-.49-.72-.45.34-.45.74.05.73.44.73Zm.51-.1c-.11.22-.28.34-.59.34-.52,0-.68-.38-.69-.96,0-.58.17-.97.69-.98.31,0,.47.14.59.32,0-.11,0-.24.02-.31h.29v2.63h-.32v-1.04Z"/>
    <path class="cls-9" d="m252.79,28.55c-.87.04-.53-1.14-.6-1.9h.31v1.18c0,.3.07.49.38.48.71-.02.44-.99.49-1.66h.3v1.86s-.28,0-.28,0c0-.1,0-.25-.02-.32-.11.22-.27.35-.59.36Z"/>
    <path class="cls-9" d="m255.42,27.4c.06-.59-.74-.75-.95-.27-.03.07-.06.17-.06.27h1.01Zm-.51-.79c.62,0,.84.41.82,1.04h-1.32c0,.39.14.66.52.67.25,0,.42-.12.48-.28l.27.08c-.11.27-.36.44-.75.44-.57,0-.86-.36-.85-.98,0-.6.25-.96.83-.96Z"/>
    <path class="cls-9" d="m257.79,26.84c-.39,0-.45.33-.45.74s.06.73.44.73c.41,0,.5-.31.5-.74s-.09-.73-.49-.72Zm-.09-.24c.3,0,.47.13.59.32v-.98s.3,0,.3,0v2.56s-.28,0-.28,0c-.02-.1,0-.23-.03-.3-.1.23-.27.34-.58.34-.52,0-.68-.38-.69-.96,0-.65.23-.98.69-.98Z"/>
    <path class="cls-9" d="m260.32,27.4c.06-.59-.74-.75-.95-.27-.03.07-.06.17-.06.27h1.01Zm-.51-.79c.62,0,.84.41.82,1.04h-1.32c0,.39.14.66.52.67.25,0,.42-.12.48-.28l.27.08c-.11.27-.36.44-.75.44-.57,0-.86-.36-.85-.98,0-.6.25-.96.83-.96Z"/>
    <path class="cls-9" d="m262.92,26.61c.87-.04.52,1.14.59,1.9h-.31v-1.19c0-.3-.08-.48-.38-.47-.71.02-.43,1-.48,1.66h-.31v-1.86s.28,0,.28,0c0,.1,0,.24.02.31.11-.22.28-.34.6-.35Z"/>
    <path class="cls-9" d="m264.45,26.44c.08-.23.26-.34.37-.53h.35v.05l-.57.48h-.16Zm.12,2.11c-.87.04-.53-1.14-.6-1.9h.31v1.18c0,.3.07.49.38.48.71-.02.44-.99.49-1.66h.3v1.86s-.28,0-.28,0c0-.1,0-.25-.02-.32-.11.22-.27.35-.59.36Z"/>
    <path class="cls-9" d="m267.75,26.85c-.66.03-.37,1.03-.43,1.66h-.3v-1.19c0-.28-.05-.49-.34-.47-.65.04-.37,1.02-.43,1.66h-.3v-1.86s.28,0,.28,0c0,.1,0,.24.02.31.1-.43.97-.49,1.05,0,.11-.21.26-.34.57-.35.83-.02.46,1.17.54,1.9h-.3v-1.19c0-.28-.05-.48-.34-.47Z"/>
    <path class="cls-9" d="m270.11,27.4c.06-.59-.74-.75-.95-.27-.03.07-.06.17-.06.27h1.01Zm-.51-.79c.62,0,.84.41.82,1.04h-1.32c0,.39.14.66.52.67.25,0,.42-.12.48-.28l.27.08c-.11.27-.36.44-.75.44-.57,0-.86-.36-.85-.98,0-.6.25-.96.83-.96Z"/>
    <path class="cls-9" d="m271.7,26.91c-.76-.16-.52.89-.56,1.6h-.31v-1.86s.28,0,.28,0c0,.12,0,.28.02.38.06-.26.23-.48.57-.4v.28Z"/>
    <path class="cls-9" d="m272.72,28.31c.43,0,.52-.3.52-.74s-.08-.74-.5-.74-.52.31-.52.74.1.73.5.74Zm0-1.71c.61,0,.83.36.83.97,0,.62-.26.97-.84.97s-.81-.38-.82-.97c0-.65.27-.97.83-.97Z"/>
    <path class="cls-9" d="m275.03,27.11c-.03-.33-.84-.37-.85,0,.15.52,1.13.12,1.17.88.04.76-1.47.73-1.54.08l.27-.05c.04.35.95.44.96,0-.1-.55-1.11-.15-1.16-.88-.04-.56.8-.62,1.2-.41.12.07.21.19.24.34l-.28.04Z"/>
    <path class="cls-9" d="m240.88,32.55c.39,0,.44-.33.44-.74s-.06-.72-.44-.73c-.41,0-.5.31-.5.74s.1.72.5.72Zm.08-1.71c.54,0,.69.4.69.96s-.16.96-.69.98c-.3,0-.48-.13-.59-.33v1.03s-.3,0-.3,0v-2.6s.29,0,.29,0l.02.29c.1-.21.27-.33.58-.33Z"/>
    <path class="cls-9" d="m243.11,31.34c-.03-.33-.84-.37-.85,0,.15.52,1.13.12,1.17.88.04.76-1.47.73-1.54.08l.27-.05c.04.35.95.44.96,0-.1-.55-1.11-.15-1.16-.88-.04-.56.8-.62,1.2-.41.12.07.21.19.24.34l-.28.04Z"/>
    <path class="cls-9" d="m245.04,31.64c.06-.59-.74-.75-.95-.27-.03.07-.06.17-.06.27h1.01Zm-.51-.79c.62,0,.84.41.82,1.04h-1.32c0,.39.14.66.52.67.25,0,.42-.12.48-.28l.27.08c-.11.27-.36.44-.75.44-.57,0-.86-.36-.85-.98,0-.6.25-.96.83-.96Z"/>
    <path class="cls-9" d="m246.34,32.79c-.87.04-.53-1.14-.6-1.9h.31v1.18c0,.3.07.49.38.48.71-.02.44-.99.49-1.66h.3v1.86s-.28,0-.28,0c0-.1,0-.25-.02-.32-.11.22-.27.35-.59.36Z"/>
    <path class="cls-9" d="m248.39,31.08c-.39,0-.45.33-.45.74s.06.73.44.73c.41,0,.5-.31.5-.74s-.09-.73-.49-.72Zm-.09-.24c.3,0,.47.13.59.32v-.98s.3,0,.3,0v2.56s-.28,0-.28,0c-.02-.1,0-.23-.03-.3-.1.23-.27.34-.58.34-.52,0-.68-.38-.69-.96,0-.65.23-.98.69-.98Z"/>
    <path class="cls-9" d="m250.4,32.55c.43,0,.52-.3.52-.74s-.08-.74-.5-.74-.52.31-.52.74.1.73.5.74Zm0-1.71c.61,0,.83.36.83.97,0,.62-.26.97-.84.97s-.81-.38-.82-.97c0-.65.27-.97.83-.97Z"/>
    <path class="cls-9" d="m251.86,32.23c0,.2.12.32.31.32.4-.03.62-.28.59-.73-.42.02-.9-.05-.9.4Zm.91.17c-.15.21-.3.4-.67.39-.35,0-.57-.21-.57-.56,0-.63.62-.62,1.23-.62.03-.34-.09-.53-.4-.53-.24,0-.4.07-.41.3l-.32-.03c.05-.36.32-.51.74-.51s.71.2.71.63v.8c0,.2.07.31.27.26v.2c-.3.09-.6-.02-.58-.34Z"/>
    <polygon class="cls-9" points="253.59 32.75 253.59 31.47 253.59 30.19 253.9 30.19 253.9 31.47 253.9 32.75 253.59 32.75"/>
    <path class="cls-9" d="m255.62,31.64c.06-.59-.74-.75-.95-.27-.03.07-.06.17-.06.27h1.01Zm-.51-.79c.62,0,.84.41.82,1.04h-1.32c0,.39.14.66.52.67.25,0,.42-.12.48-.28l.27.08c-.11.27-.36.44-.75.44-.57,0-.86-.36-.85-.98,0-.6.25-.96.83-.96Z"/>
    <path class="cls-9" d="m256.56,32.23c0,.2.12.32.31.32.4-.03.62-.28.59-.73-.42.02-.9-.05-.9.4Zm.91.17c-.15.21-.3.4-.67.39-.35,0-.57-.21-.57-.56,0-.63.62-.62,1.23-.62.03-.34-.09-.53-.4-.53-.24,0-.4.07-.41.3l-.32-.03c.05-.36.32-.51.74-.51s.71.2.71.63v.8c0,.2.07.31.27.26v.2c-.3.09-.6-.02-.58-.34Z"/>
    <path class="cls-9" d="m258.63,32.29c-.02.24.18.28.37.22v.24c-.32.1-.69.05-.69-.38v-1.24h-.22v-.23h.24l.09-.42h.21v.42h.34v.23h-.34v1.18Z"/>
    <path class="cls-9" d="m260,32.55c.43,0,.52-.3.52-.74s-.08-.74-.5-.74-.52.31-.52.74.1.73.5.74Zm0-1.71c.61,0,.83.36.83.97,0,.62-.26.97-.84.97s-.81-.38-.82-.97c0-.65.27-.97.83-.97Z"/>
    <path class="cls-9" d="m262.11,31.15c-.76-.16-.52.89-.56,1.6h-.31v-1.86s.28,0,.28,0c0,.12,0,.28.02.38.06-.26.23-.48.57-.4v.28Z"/>
    <path class="cls-9" d="m262.39,32.75v-1.86h.31v1.86h-.31Zm0-2.26v-.29h.31v.29h-.31Z"/>
    <path class="cls-9" d="m263.9,32.55c.43,0,.52-.3.52-.74s-.08-.74-.5-.74-.52.31-.52.74.1.73.5.74Zm0-1.71c.61,0,.83.36.83.97,0,.62-.26.97-.84.97s-.81-.38-.82-.97c0-.65.27-.97.83-.97Z"/>
    <path class="cls-9" d="m266.21,31.34c-.03-.33-.84-.37-.85,0,.15.52,1.13.12,1.17.88.04.76-1.47.73-1.54.08l.27-.05c.04.35.95.44.96,0-.1-.55-1.11-.15-1.16-.88-.04-.56.8-.62,1.2-.41.12.07.21.19.24.34l-.28.04Z"/>
    <path class="cls-9" d="m268.56,32.53c.35,0,.49-.31.49-.72s-.14-.74-.49-.74c-.38,0-.45.33-.45.74s.06.72.45.72Zm.81-1.65c-.1,1.23.4,2.87-1.08,2.56-.23-.06-.37-.2-.43-.42l.31-.05c.15.46.98.31.87-.27v-.29c-.11.21-.28.35-.6.35-.53,0-.67-.4-.67-.94s.16-.95.7-.96c.28,0,.47.16.58.34,0-.1,0-.23.02-.31h.29Z"/>
    <path class="cls-9" d="m271.09,31.64c.06-.59-.74-.75-.95-.27-.03.07-.06.17-.06.27h1.01Zm-.51-.79c.62,0,.84.41.82,1.04h-1.32c0,.39.14.66.52.67.25,0,.42-.12.48-.28l.27.08c-.11.27-.36.44-.75.44-.57,0-.86-.36-.85-.98,0-.6.25-.96.83-.96Z"/>
    <path class="cls-9" d="m272.71,30.84c.87-.04.52,1.14.59,1.9h-.31v-1.19c0-.3-.08-.48-.38-.47-.71.02-.43,1-.48,1.66h-.31v-1.86s.28,0,.28,0c0,.1,0,.24.02.31.11-.22.28-.34.6-.35Z"/>
    <path class="cls-9" d="m275.01,31.64c.06-.59-.74-.75-.95-.27-.03.07-.06.17-.06.27h1.01Zm-.51-.79c.62,0,.84.41.82,1.04h-1.32c0,.39.14.66.52.67.25,0,.42-.12.48-.28l.27.08c-.11.27-.36.44-.75.44-.57,0-.86-.36-.85-.98,0-.6.25-.96.83-.96Z"/>
    <path class="cls-9" d="m276.6,31.15c-.76-.16-.52.89-.56,1.6h-.31v-1.86s.28,0,.28,0c0,.12,0,.28.02.38.06-.26.23-.48.57-.4v.28Z"/>
    <path class="cls-9" d="m277.12,32.23c0,.2.12.32.31.32.4-.03.62-.28.59-.73-.42.02-.9-.05-.9.4Zm.91.17c-.15.21-.3.4-.67.39-.35,0-.57-.21-.57-.56,0-.63.62-.62,1.23-.62.03-.34-.09-.53-.4-.53-.24,0-.4.07-.41.3l-.32-.03c.05-.36.32-.51.74-.51s.71.2.71.63v.8c0,.2.07.31.27.26v.2c-.3.09-.6-.02-.58-.34Z"/>
    <path class="cls-9" d="m279.75,30.84c.87-.04.52,1.14.59,1.9h-.31v-1.19c0-.3-.08-.48-.38-.47-.71.02-.43,1-.48,1.66h-.31v-1.86s.28,0,.28,0c0,.1,0,.24.02.31.11-.22.28-.34.6-.35Z"/>
    <path class="cls-9" d="m252.74,36.79c.43,0,.52-.3.52-.74s-.08-.74-.5-.74-.52.31-.52.74.1.73.5.74Zm0-1.71c.61,0,.83.36.83.97,0,.62-.26.97-.84.97s-.81-.38-.82-.97c0-.65.27-.97.83-.97Z"/>
    <path class="cls-9" d="m254.78,36.79c.39,0,.44-.33.44-.74s-.05-.74-.44-.73c-.41,0-.5.31-.5.74s.1.72.5.72Zm.08-1.71c.52,0,.68.38.69.96,0,.65-.23.98-.69.98-.3,0-.48-.11-.58-.33l-.02.29h-.3v-2.56h.32v.99c.1-.23.27-.33.58-.33Z"/>
    <path class="cls-9" d="m257.02,35.58c-.03-.33-.84-.37-.85,0,.15.52,1.13.12,1.17.88.04.76-1.47.73-1.54.08l.27-.05c.04.35.95.44.96,0-.1-.55-1.11-.15-1.16-.88-.04-.56.8-.62,1.2-.41.12.07.21.19.24.34l-.28.04Z"/>
    <path class="cls-9" d="m258.04,36.52c-.02.24.18.28.37.22v.24c-.32.1-.69.05-.69-.38v-1.24h-.22v-.23h.24l.09-.42h.21v.42h.34v.23h-.34v1.18Z"/>
    <path class="cls-9" d="m258.91,36.46c0,.2.12.32.31.32.4-.03.62-.28.59-.73-.42.02-.9-.05-.9.4Zm.91.17c-.15.21-.3.4-.67.39-.35,0-.57-.21-.57-.56,0-.63.62-.62,1.23-.62.03-.34-.09-.53-.4-.53-.24,0-.4.07-.41.3l-.32-.03c.05-.36.32-.51.74-.51s.71.2.71.63v.8c0,.2.07.31.27.26v.2c-.3.09-.6-.02-.58-.34Z"/>
    <path class="cls-9" d="m261.34,35.32c-.39,0-.47.32-.47.72s.09.74.47.74c.24,0,.4-.14.42-.37l.31.02c-.06.36-.3.6-.73.6-.58,0-.74-.4-.8-.97-.1-.91.99-1.28,1.44-.63.04.07.05.14.07.22l-.31.03c-.04-.21-.16-.34-.4-.34Z"/>
    <path class="cls-9" d="m262.99,37.02c-.87.04-.53-1.14-.6-1.9h.31v1.18c0,.3.07.49.38.48.71-.02.44-.99.49-1.66h.3v1.86s-.28,0-.28,0c0-.1,0-.25-.02-.32-.11.22-.27.35-.59.36Z"/>
    <polygon class="cls-9" points="264.36 36.98 264.36 35.7 264.36 34.42 264.67 34.42 264.67 35.7 264.67 36.98 264.36 36.98"/>
    <path class="cls-9" d="m265.87,36.79c.43,0,.52-.3.52-.74s-.08-.74-.5-.74-.52.31-.52.74.1.73.5.74Zm0-1.71c.61,0,.83.36.83.97,0,.62-.26.97-.84.97s-.81-.38-.82-.97c0-.65.27-.97.83-.97Z"/>
    <path class="cls-9" d="m268.18,35.58c-.03-.33-.84-.37-.85,0,.15.52,1.13.12,1.17.88.04.76-1.47.73-1.54.08l.27-.05c.04.35.95.44.96,0-.1-.55-1.11-.15-1.16-.88-.04-.56.8-.62,1.2-.41.12.07.21.19.24.34l-.28.04Z"/>
    <polyline class="cls-1" points="30.31 12.1 30.31 35.52 30.31 54.74"/>
    <rect class="cls-9" x="30.31" y="11.96" width=".26" height=".13"/>
    <rect class="cls-2" x="30.31" y="11.96" width=".26" height=".13"/>
    <polygon class="cls-9" points="30.31 58.66 29.25 54.87 31.63 54.87 30.31 58.66"/>
    <polygon class="cls-1" points="30.31 58.66 29.25 54.87 31.63 54.87 30.31 58.66"/>
    <path class="cls-5" d="m29.22,59.64c1.24-.98,2.49,0,2.49,0l27.85,21.48c1.24.97,0,1.94,0,1.94l-27.82,21.49c-1.27.95-2.54-.03-2.54-.03L1.4,83.04c-1.27-.96-.01-1.93-.01-1.93l27.83-21.46Z"/>
    <path class="cls-4" d="m29.22,59.64c1.24-.98,2.49,0,2.49,0l27.85,21.48c1.24.97,0,1.94,0,1.94l-27.82,21.49c-1.27.95-2.54-.03-2.54-.03L1.4,83.04c-1.27-.96-.01-1.93-.01-1.93l27.83-21.46Z"/>
    <path class="cls-9" d="m10.9,78.9v.34h-.33v-.34h.33Zm-.25,2.46c-.49,0-.8-.22-.82-.69-.02-.64.7-.57.76-1.13h.29c0,.63-.74.53-.74,1.12,0,.29.21.41.51.42.31,0,.52-.17.55-.45l.31.02c-.06.45-.35.71-.86.71Z"/>
    <polygon class="cls-9" points="13.67 80.76 13.67 80.2 13.67 79.64 12.36 79.64 12.36 80.2 12.36 80.76 12.03 80.76 12.03 79.55 12.03 78.33 12.36 78.33 12.36 78.85 12.36 79.36 13.67 79.36 13.67 78.85 13.67 78.33 14 78.33 14 79.55 14 80.76 13.67 80.76"/>
    <path class="cls-9" d="m14.75,80.24c0,.2.12.32.31.32.4-.03.62-.28.59-.73-.42.02-.9-.05-.9.4Zm.91.17c-.15.21-.3.4-.67.39-.35,0-.57-.21-.57-.56,0-.63.62-.62,1.23-.62.03-.34-.09-.53-.4-.53-.24,0-.4.07-.41.3l-.32-.03c.05-.36.32-.51.74-.51s.71.2.71.63v.8c0,.2.07.31.27.26v.2c-.3.09-.6-.02-.58-.34Z"/>
    <path class="cls-9" d="m17.99,78.9l-.84,2.17c-.14.27-.36.5-.79.41v-.24c.38.06.52-.2.63-.49l-.74-1.85h.33l.56,1.53.53-1.53h.32Z"/>
    <path class="cls-9" d="m20.47,79.66c.06-.59-.74-.75-.95-.27-.03.07-.06.17-.06.27h1.01Zm-.51-.79c.62,0,.84.41.82,1.04h-1.32c0,.39.14.66.52.67.25,0,.42-.12.48-.28l.27.08c-.11.27-.36.44-.75.44-.57,0-.86-.36-.85-.98,0-.6.25-.96.83-.96Z"/>
    <polygon class="cls-9" points="21.18 80.76 21.18 79.48 21.18 78.2 21.49 78.2 21.49 79.48 21.49 80.76 21.18 80.76"/>
    <path class="cls-9" d="m23.21,79.66c.06-.59-.74-.75-.95-.27-.03.07-.06.17-.06.27h1.01Zm-.51-.79c.62,0,.84.41.82,1.04h-1.32c0,.39.14.66.52.67.25,0,.42-.12.48-.28l.27.08c-.11.27-.36.44-.75.44-.57,0-.86-.36-.85-.98,0-.6.25-.96.83-.96Z"/>
    <path class="cls-9" d="m25.74,79.11c-.66.03-.37,1.03-.43,1.66h-.3v-1.19c0-.28-.05-.49-.34-.47-.65.04-.37,1.02-.43,1.66h-.3v-1.86s.28,0,.28,0c0,.1,0,.24.02.31.1-.43.97-.49,1.05,0,.11-.21.26-.34.57-.35.83-.02.46,1.17.54,1.9h-.3v-1.19c0-.28-.05-.48-.34-.47Z"/>
    <path class="cls-9" d="m28.1,79.66c.06-.59-.74-.75-.95-.27-.03.07-.06.17-.06.27h1.01Zm-.51-.79c.62,0,.84.41.82,1.04h-1.32c0,.39.14.66.52.67.25,0,.42-.12.48-.28l.27.08c-.11.27-.36.44-.75.44-.57,0-.86-.36-.85-.98,0-.6.25-.96.83-.96Z"/>
    <path class="cls-9" d="m29.72,78.86c.87-.04.52,1.14.59,1.9h-.31v-1.19c0-.3-.08-.48-.38-.47-.71.02-.43,1-.48,1.66h-.31v-1.86s.28,0,.28,0c0,.1,0,.24.02.31.11-.22.28-.34.6-.35Z"/>
    <path class="cls-9" d="m31.11,80.3c-.02.24.18.28.37.22v.24c-.32.1-.69.05-.69-.38v-1.24h-.22v-.23h.24l.09-.42h.21v.42h.34v.23h-.34v1.18Z"/>
    <path class="cls-9" d="m32.48,80.57c.43,0,.52-.3.52-.74s-.08-.74-.5-.74-.52.31-.52.74.1.73.5.74Zm0-1.71c.61,0,.83.36.83.97,0,.62-.26.97-.84.97s-.81-.38-.82-.97c0-.65.27-.97.83-.97Z"/>
    <path class="cls-9" d="m34.79,79.36c-.03-.33-.84-.37-.85,0,.15.52,1.13.12,1.17.88.04.76-1.47.73-1.54.08l.27-.05c.04.35.95.44.96,0-.1-.55-1.11-.15-1.16-.88-.04-.56.8-.62,1.2-.41.12.07.21.19.24.34l-.28.04Z"/>
    <path class="cls-9" d="m37.7,79.66c.06-.59-.74-.75-.95-.27-.03.07-.06.17-.06.27h1.01Zm-.51-.79c.62,0,.84.41.82,1.04h-1.32c0,.39.14.66.52.67.25,0,.42-.12.48-.28l.27.08c-.11.27-.36.44-.75.44-.57,0-.86-.36-.85-.98,0-.6.25-.96.83-.96Z"/>
    <path class="cls-9" d="m39.32,78.86c.87-.04.52,1.14.59,1.9h-.31v-1.19c0-.3-.08-.48-.38-.47-.71.02-.43,1-.48,1.66h-.31v-1.86s.28,0,.28,0c0,.1,0,.24.02.31.11-.22.28-.34.6-.35Z"/>
    <polygon class="cls-9" points="41.34 80.76 41.34 79.48 41.34 78.2 41.66 78.2 41.66 79.48 41.66 80.76 41.34 80.76"/>
    <path class="cls-9" d="m42.35,80.24c0,.2.12.32.31.32.4-.03.62-.28.59-.73-.42.02-.9-.05-.9.4Zm.91.17c-.15.21-.3.4-.67.39-.35,0-.57-.21-.57-.56,0-.63.62-.62,1.23-.62.03-.34-.09-.53-.4-.53-.24,0-.4.07-.41.3l-.32-.03c.05-.36.32-.51.74-.51s.71.2.71.63v.8c0,.2.07.31.27.26v.2c-.3.09-.6-.02-.58-.34Z"/>
    <path class="cls-9" d="m45.8,78.47c-.3-.09-.41.1-.37.43h.37v.23h-.37v1.64h-.3v-1.64h-.26v-.23h.26c-.07-.51.17-.8.68-.67v.24Z"/>
    <path class="cls-9" d="m46.03,80.76v-1.86h.31v1.86h-.31Zm0-2.26v-.29h.31v.29h-.31Z"/>
    <polygon class="cls-9" points="46.8 80.76 46.8 79.48 46.8 78.2 47.12 78.2 47.12 79.48 47.12 80.76 46.8 80.76"/>
    <path class="cls-9" d="m47.81,80.24c0,.2.12.32.31.32.4-.03.62-.28.59-.73-.42.02-.9-.05-.9.4Zm.91.17c-.15.21-.3.4-.67.39-.35,0-.57-.21-.57-.56,0-.63.62-.62,1.23-.62.03-.34-.09-.53-.4-.53-.24,0-.4.07-.41.3l-.32-.03c.05-.36.32-.51.74-.51s.71.2.71.63v.8c0,.2.07.31.27.26v.2c-.3.09-.6-.02-.58-.34Z"/>
    <path class="cls-9" d="m50.06,80.76v-.34h.33v.34h-.33Zm.25-2.46c.82,0,1.09.95.44,1.3-.19.1-.36.24-.38.51h-.3c0-.62.75-.54.75-1.12,0-.29-.21-.41-.51-.42-.31,0-.52.17-.55.45l-.31-.02c.07-.44.33-.71.86-.71Z"/>
    <path class="cls-9" d="m15.74,85.73c-.37-.41-.64-.9-.64-1.66s.27-1.24.64-1.64h.3c-.37.4-.63.9-.63,1.65s.25,1.24.63,1.65h-.3Z"/>
    <path class="cls-9" d="m16.68,83.73c.59-.02,1.34.13,1.34-.46s-.78-.41-1.34-.44v.9Zm1.67-.47c0,.4-.23.63-.59.69l.69,1.05h-.37l-.64-1.01h-.75v1.01h-.32v-2.43c.86.03,2.01-.21,1.99.7Z"/>
    <path class="cls-9" d="m20.09,83.89c.06-.59-.74-.75-.95-.27-.03.07-.06.17-.06.27h1.01Zm-.51-.79c.62,0,.84.41.82,1.04h-1.32c0,.39.14.66.52.67.25,0,.42-.12.48-.28l.27.08c-.11.27-.36.44-.75.44-.57,0-.86-.36-.85-.98,0-.6.25-.96.83-.96Z"/>
    <path class="cls-9" d="m21.48,84.78c.35,0,.49-.31.49-.72s-.14-.74-.49-.74c-.38,0-.45.33-.45.74s.06.72.45.72Zm.81-1.65c-.1,1.23.4,2.87-1.08,2.56-.23-.06-.37-.2-.43-.42l.31-.05c.15.46.98.31.87-.27v-.29c-.11.21-.28.35-.6.35-.53,0-.67-.4-.67-.94s.16-.95.7-.96c.28,0,.47.16.58.34,0-.1,0-.23.02-.31h.29Z"/>
    <path class="cls-9" d="m22.75,85v-1.86h.31v1.86h-.31Zm0-2.26v-.29h.31v.29h-.31Z"/>
    <path class="cls-9" d="m24.62,83.6c-.03-.33-.84-.37-.85,0,.15.52,1.13.12,1.17.88.04.76-1.47.73-1.54.08l.27-.05c.04.35.95.44.96,0-.1-.55-1.11-.15-1.16-.88-.04-.56.8-.62,1.2-.41.12.07.21.19.24.34l-.28.04Z"/>
    <path class="cls-9" d="m25.63,84.54c-.02.24.18.28.37.22v.24c-.32.1-.69.05-.69-.38v-1.24h-.22v-.23h.24l.09-.42h.21v.42h.34v.23h-.34v1.18Z"/>
    <path class="cls-9" d="m27.15,83.4c-.76-.16-.52.89-.56,1.6h-.31v-1.86s.28,0,.28,0c0,.12,0,.28.02.38.06-.26.23-.48.57-.4v.28Z"/>
    <path class="cls-9" d="m28.17,84.8c.43,0,.52-.3.52-.74s-.08-.74-.5-.74-.52.31-.52.74.1.73.5.74Zm0-1.71c.61,0,.83.36.83.97,0,.62-.26.97-.84.97s-.81-.38-.82-.97c0-.65.27-.97.83-.97Z"/>
    <polygon class="cls-9" points="29.11 85.7 29.11 85.59 29.11 85.48 31.16 85.48 31.16 85.59 31.16 85.7 29.11 85.7"/>
    <path class="cls-9" d="m32.27,83.1c.87-.04.52,1.14.59,1.9h-.31v-1.19c0-.3-.08-.48-.38-.47-.71.02-.43,1-.48,1.66h-.31v-1.86s.28,0,.28,0c0,.1,0,.24.02.31.11-.22.28-.34.6-.35Z"/>
    <polygon class="cls-9" points="34.84 84.41 34.58 84.9 34.33 84.9 34.59 84.41 34.17 84.41 34.17 84.28 34.17 84.15 34.71 84.15 35.04 83.53 34.17 83.53 34.17 83.4 34.17 83.27 35.16 83.27 35.43 82.76 35.67 82.76 35.42 83.27 35.89 83.27 35.89 83.4 35.89 83.53 35.29 83.53 34.96 84.15 35.89 84.15 35.89 84.28 35.89 84.41 34.84 84.41"/>
    <path class="cls-9" d="m37.96,84.78c.46,0,.53-.48.53-1s-.04-1-.52-1-.54.47-.54,1,.05,1,.53,1Zm0-2.24c.67,0,.83.54.83,1.24s-.2,1.25-.84,1.25-.84-.55-.84-1.25.17-1.24.85-1.24Z"/>
    <path class="cls-9" d="m39.92,84.78c.46,0,.53-.48.53-1s-.04-1-.52-1-.54.47-.54,1,.05,1,.53,1Zm0-2.24c.67,0,.83.54.83,1.24s-.2,1.25-.84,1.25-.84-.55-.84-1.25.17-1.24.85-1.24Z"/>
    <path class="cls-9" d="m41.88,84.78c.46,0,.53-.48.53-1s-.04-1-.52-1-.54.47-.54,1,.05,1,.53,1Zm0-2.24c.67,0,.83.54.83,1.24s-.2,1.25-.84,1.25-.84-.55-.84-1.25.17-1.24.85-1.24Z"/>
    <path class="cls-9" d="m43.84,84.78c.46,0,.53-.48.53-1s-.04-1-.52-1-.54.47-.54,1,.05,1,.53,1Zm0-2.24c.67,0,.83.54.83,1.24s-.2,1.25-.84,1.25-.84-.55-.84-1.25.17-1.24.85-1.24Z"/>
    <path class="cls-9" d="m45.14,82.44c.37.4.64.9.64,1.65s-.26,1.24-.64,1.65h-.3c.36-.4.63-.9.63-1.65s-.26-1.24-.63-1.65h.3Z"/>
    <line class="cls-1" x1="187.28" y1="82.08" x2="225.39" y2="82.08"/>
    <polygon class="cls-9" points="187.28 82.22 187.01 82.22 187.01 82.08 187.01 81.95 187.28 81.95 187.28 82.22"/>
    <polygon class="cls-2" points="187.28 82.22 187.01 82.22 187.01 82.08 187.01 81.95 187.28 81.95 187.28 82.22"/>
    <polygon class="cls-9" points="229.36 82.08 225.66 83.33 225.66 80.87 229.36 82.08"/>
    <polygon class="cls-1" points="229.36 82.08 225.66 83.33 225.66 80.87 229.36 82.08"/>
    <path class="cls-6" d="m84.84,71.95c0-1.59,1.59-1.59,1.59-1.59h8.92c1.59,0,1.59,1.59,1.59,1.59v8.52c0,1.6-1.59,1.6-1.59,1.6h-8.92c-1.59,0-1.59-1.59-1.59-1.59v-8.53Z"/>
    <path class="cls-3" d="m84.84,71.95c0-1.59,1.59-1.59,1.59-1.59h8.92c1.59,0,1.59,1.59,1.59,1.59v8.52c0,1.6-1.59,1.6-1.59,1.6h-8.92c-1.59,0-1.59-1.59-1.59-1.59v-8.53Z"/>
    <polygon class="cls-9" points="90.41 77.18 88.68 74.42 88.7 77.18 88.32 77.18 88.32 75.56 88.32 73.94 88.83 73.94 90.56 76.72 90.54 73.94 90.94 73.94 90.94 75.56 90.94 77.18 90.41 77.18"/>
    <path class="cls-9" d="m92.6,76.92c.58.01.69-.41.69-.98s-.1-.98-.67-.98-.69.42-.69.98.13.97.67.98Zm.01-2.27c.81-.01,1.11.48,1.11,1.29.01.82-.35,1.29-1.12,1.29s-1.08-.51-1.1-1.29c0-.86.37-1.29,1.11-1.29Z"/>
    <polyline class="cls-1" points="30.31 105.22 30.31 128.51 30.31 147.83"/>
    <rect class="cls-9" x="30.31" y="105.09" width=".26" height=".13"/>
    <rect class="cls-2" x="30.31" y="105.09" width=".26" height=".13"/>
    <polygon class="cls-9" points="30.31 151.81 29.25 148.1 31.63 148.1 30.31 151.81"/>
    <polygon class="cls-1" points="30.31 151.81 29.25 148.1 31.63 148.1 30.31 151.81"/>
    <path class="cls-6" d="m30.31,124.54c0-1.59,1.59-1.59,1.59-1.59h8.92c1.59,0,1.59,1.59,1.59,1.59v8.52c0,1.6-1.59,1.6-1.59,1.6h-8.92c-1.59,0-1.59-1.59-1.59-1.59v-8.53Z"/>
    <path class="cls-3" d="m30.31,124.54c0-1.59,1.59-1.59,1.59-1.59h8.92c1.59,0,1.59,1.59,1.59,1.59v8.52c0,1.6-1.59,1.6-1.59,1.6h-8.92c-1.59,0-1.59-1.59-1.59-1.59v-8.53Z"/>
    <path class="cls-9" d="m36.73,127.31c-.07-.63-1.61-.71-1.62.03.18.98,2.07.18,2.13,1.56.04,1.02-1.58,1.14-2.29.72-.22-.13-.37-.34-.43-.6l.43-.09c.07.73,1.84.82,1.84-.01,0-1.02-2.03-.18-2.12-1.54-.07-1.07,1.9-1.1,2.34-.44.07.09.1.21.14.33l-.43.07Z"/>
    <path class="cls-9" d="m37.76,129.78v-2.48h.42v2.48h-.42Zm0-3.02v-.39h.42v.39h-.42Z"/>
    <path class="cls-8" d="m229.89,77.82c0-1.59,1.59-1.59,1.59-1.59h57.33c1.56,0,1.56,1.59,1.56,1.59l.03,8.52c-.03,1.6-1.61,1.6-1.61,1.6h-57.31c-1.59,0-1.59-1.59-1.59-1.59v-8.53Z"/>
    <path class="cls-1" d="m229.89,77.82c0-1.59,1.59-1.59,1.59-1.59h57.33c1.56,0,1.56,1.59,1.56,1.59l.03,8.52c-.03,1.6-1.61,1.6-1.61,1.6h-57.31c-1.59,0-1.59-1.59-1.59-1.59v-8.53Z"/>
    <path class="cls-9" d="m246.22,82.97c-.8,0-1.19-.47-1.23-1.26-.05-1.05.98-1.51,1.89-1.09.17.08.28.25.36.42l-.31.09c-.13-.25-.36-.39-.74-.39-.6,0-.86.38-.86.97s.28.98.89.99c.34,0,.61-.11.77-.26v-.44h-.73v-.27h1.03v.84c-.25.25-.6.41-1.08.41Z"/>
    <path class="cls-9" d="m249.06,81.82c.06-.59-.74-.75-.95-.27-.03.07-.06.17-.06.27h1.01Zm-.51-.79c.62,0,.84.41.82,1.04h-1.32c0,.39.14.66.52.67.25,0,.42-.12.48-.28l.27.08c-.11.27-.36.44-.75.44-.57,0-.86-.36-.85-.98,0-.6.25-.96.83-.96Z"/>
    <path class="cls-9" d="m250.67,81.03c.87-.04.52,1.14.59,1.9h-.31v-1.19c0-.3-.08-.48-.38-.47-.71.02-.43,1-.48,1.66h-.31v-1.86s.28,0,.28,0c0,.1,0,.24.02.31.11-.22.28-.34.6-.35Z"/>
    <path class="cls-9" d="m252.98,81.82c.06-.59-.74-.75-.95-.27-.03.07-.06.17-.06.27h1.01Zm-.51-.79c.62,0,.84.41.82,1.04h-1.32c0,.39.14.66.52.67.25,0,.42-.12.48-.28l.27.08c-.11.27-.36.44-.75.44-.57,0-.86-.36-.85-.98,0-.6.25-.96.83-.96Z"/>
    <path class="cls-9" d="m254.56,81.33c-.76-.16-.52.89-.56,1.6h-.31v-1.86s.28,0,.28,0c0,.12,0,.28.02.38.06-.26.23-.48.57-.4v.28Z"/>
    <path class="cls-9" d="m255.08,82.41c0,.2.12.32.31.32.4-.03.62-.28.59-.73-.42.02-.9-.05-.9.4Zm.91.17c-.15.21-.3.4-.67.39-.35,0-.57-.21-.57-.56,0-.63.62-.62,1.23-.62.03-.34-.09-.53-.4-.53-.24,0-.4.07-.41.3l-.32-.03c.05-.36.32-.51.74-.51s.71.2.71.63v.8c0,.2.07.31.27.26v.2c-.3.09-.6-.02-.58-.34Z"/>
    <path class="cls-9" d="m257.69,81.33c-.76-.16-.52.89-.56,1.6h-.31v-1.86s.28,0,.28,0c0,.12,0,.28.02.38.06-.26.23-.48.57-.4v.28Z"/>
    <path class="cls-9" d="m259.69,82.73c.43,0,.52-.3.52-.74s-.08-.74-.5-.74-.52.31-.52.74.1.73.5.74Zm0-1.71c.61,0,.83.36.83.97,0,.62-.26.97-.84.97s-.81-.38-.82-.97c0-.65.27-.97.83-.97Z"/>
    <path class="cls-9" d="m261.73,82.73c.39,0,.44-.33.44-.74s-.05-.74-.44-.73c-.41,0-.5.31-.5.74s.1.72.5.72Zm.08-1.71c.52,0,.68.38.69.96,0,.65-.23.98-.69.98-.3,0-.48-.11-.58-.33l-.02.29h-.3v-2.56h.32v.99c.1-.23.27-.33.58-.33Z"/>
    <path class="cls-9" d="m263.97,81.53c-.03-.33-.84-.37-.85,0,.15.52,1.13.12,1.17.88.04.76-1.47.73-1.54.08l.27-.05c.04.35.95.44.96,0-.1-.55-1.11-.15-1.16-.88-.04-.56.8-.62,1.2-.41.12.07.21.19.24.34l-.28.04Z"/>
    <path class="cls-9" d="m264.99,82.47c-.02.24.18.28.37.22v.24c-.32.1-.69.05-.69-.38v-1.24h-.22v-.23h.24l.09-.42h.21v.42h.34v.23h-.34v1.18Z"/>
    <path class="cls-9" d="m265.86,82.41c0,.2.12.32.31.32.4-.03.62-.28.59-.73-.42.02-.9-.05-.9.4Zm.91.17c-.15.21-.3.4-.67.39-.35,0-.57-.21-.57-.56,0-.63.62-.62,1.23-.62.03-.34-.09-.53-.4-.53-.24,0-.4.07-.41.3l-.32-.03c.05-.36.32-.51.74-.51s.71.2.71.63v.8c0,.2.07.31.27.26v.2c-.3.09-.6-.02-.58-.34Z"/>
    <path class="cls-9" d="m268.29,81.27c-.39,0-.47.32-.47.72s.09.74.47.74c.24,0,.4-.14.42-.37l.31.02c-.06.36-.3.6-.73.6-.58,0-.74-.4-.8-.97-.1-.91.99-1.28,1.44-.63.04.07.05.14.07.22l-.31.03c-.04-.21-.16-.34-.4-.34Z"/>
    <path class="cls-9" d="m269.94,82.97c-.87.04-.53-1.14-.6-1.9h.31v1.18c0,.3.07.49.38.48.71-.02.44-.99.49-1.66h.3v1.86s-.28,0-.28,0c0-.1,0-.25-.02-.32-.11.22-.27.35-.59.36Z"/>
    <polygon class="cls-9" points="271.31 82.93 271.31 81.65 271.31 80.37 271.62 80.37 271.62 81.65 271.62 82.93 271.31 82.93"/>
    <path class="cls-9" d="m272.82,82.73c.43,0,.52-.3.52-.74s-.08-.74-.5-.74-.52.31-.52.74.1.73.5.74Zm0-1.71c.61,0,.83.36.83.97,0,.62-.26.97-.84.97s-.81-.38-.82-.97c0-.65.27-.97.83-.97Z"/>
    <path class="cls-9" d="m275.13,81.53c-.03-.33-.84-.37-.85,0,.15.52,1.13.12,1.17.88.04.76-1.47.73-1.54.08l.27-.05c.04.35.95.44.96,0-.1-.55-1.11-.15-1.16-.88-.04-.56.8-.62,1.2-.41.12.07.21.19.24.34l-.28.04Z"/>
    <path class="cls-1" d="m260.33,50.08v12.94h-.26.26-.26l.26,8.74"/>
    <polygon class="cls-9" points="260.33 50.08 260.07 50.08 260.07 50.03 260.33 49.9 260.33 50.08"/>
    <polygon class="cls-2" points="260.33 50.08 260.07 50.08 260.07 50.03 260.33 49.9 260.33 50.08"/>
    <polygon class="cls-9" points="260.33 75.68 259.01 71.89 261.39 71.89 260.33 75.68"/>
    <polygon class="cls-1" points="260.33 75.68 259.01 71.89 261.39 71.89 260.33 75.68"/>
    <path class="cls-11" d="m156.28,59.64c1.24-.98,2.49,0,2.49,0l27.85,21.48c1.24.97,0,1.94,0,1.94l-27.82,21.49c-1.27.95-2.54-.03-2.54-.03l-27.79-21.47c-1.27-.96-.01-1.93-.01-1.93l27.83-21.46Z"/>
    <path class="cls-4" d="m156.28,59.64c1.24-.98,2.49,0,2.49,0l27.85,21.48c1.24.97,0,1.94,0,1.94l-27.82,21.49c-1.27.95-2.54-.03-2.54-.03l-27.79-21.47c-1.27-.96-.01-1.93-.01-1.93l27.83-21.46Z"/>
    <path class="cls-9" d="m133.6,80.28v.34h-.33v-.34h.33Zm-.25,2.46c-.49,0-.8-.22-.82-.69-.02-.64.7-.57.76-1.13h.29c0,.63-.74.53-.74,1.12,0,.29.21.41.51.42.31,0,.52-.17.55-.45l.31.02c-.06.45-.35.71-.86.71Z"/>
    <polygon class="cls-9" points="134.74 82.14 134.74 80.93 134.74 79.71 136.57 79.71 136.57 79.85 136.57 79.99 135.06 79.99 135.06 80.37 135.06 80.76 136.48 80.76 136.48 80.89 136.48 81.02 135.06 81.02 135.06 81.45 135.06 81.88 136.65 81.88 136.65 82.01 136.65 82.14 134.74 82.14"/>
    <path class="cls-9" d="m138.12,80.74c-.03-.33-.84-.37-.85,0,.15.52,1.13.12,1.17.88.04.76-1.47.73-1.54.08l.27-.05c.04.35.95.44.96,0-.1-.55-1.11-.15-1.16-.88-.04-.56.8-.62,1.2-.41.12.07.21.19.24.34l-.28.04Z"/>
    <polygon class="cls-9" points="139.78 82.14 139.78 80.86 139.78 79.58 140.1 79.58 140.1 80.86 140.1 82.14 139.78 82.14"/>
    <path class="cls-9" d="m140.79,81.62c0,.2.12.32.31.32.4-.03.62-.28.59-.73-.42.02-.9-.05-.9.4Zm.91.17c-.15.21-.3.4-.67.39-.35,0-.57-.21-.57-.56,0-.63.62-.62,1.23-.62.03-.34-.09-.53-.4-.53-.24,0-.4.07-.41.3l-.32-.03c.05-.36.32-.51.74-.51s.71.2.71.63v.8c0,.2.07.31.27.26v.2c-.3.09-.6-.02-.58-.34Z"/>
    <path class="cls-9" d="m144.31,81.95c.39,0,.44-.33.44-.74s-.06-.72-.44-.73c-.41,0-.5.31-.5.74s.1.72.5.72Zm.08-1.71c.54,0,.69.4.69.96s-.16.96-.69.98c-.3,0-.48-.13-.59-.33v1.03s-.3,0-.3,0v-2.6s.29,0,.29,0l.02.29c.1-.21.27-.33.58-.33Z"/>
    <path class="cls-9" d="m146.34,80.54c-.76-.16-.52.89-.56,1.6h-.31v-1.86s.28,0,.28,0c0,.12,0,.28.02.38.06-.26.23-.48.57-.4v.28Z"/>
    <path class="cls-9" d="m146.62,82.14v-1.86h.31v1.86h-.31Zm0-2.26v-.29h.31v.29h-.31Z"/>
    <path class="cls-9" d="m149.22,80.49c-.66.03-.37,1.03-.43,1.66h-.3v-1.19c0-.28-.05-.49-.34-.47-.65.04-.37,1.02-.43,1.66h-.3v-1.86s.28,0,.28,0c0,.1,0,.24.02.31.1-.43.97-.49,1.05,0,.11-.21.26-.34.57-.35.83-.02.46,1.17.54,1.9h-.3v-1.19c0-.28-.05-.48-.34-.47Z"/>
    <path class="cls-9" d="m151.58,81.03c.06-.59-.74-.75-.95-.27-.03.07-.06.17-.06.27h1.01Zm-.51-.79c.62,0,.84.41.82,1.04h-1.32c0,.39.14.66.52.67.25,0,.42-.12.48-.28l.27.08c-.11.27-.36.44-.75.44-.57,0-.86-.36-.85-.98,0-.6.25-.96.83-.96Z"/>
    <path class="cls-9" d="m153.17,80.54c-.76-.16-.52.89-.56,1.6h-.31v-1.86s.28,0,.28,0c0,.12,0,.28.02.38.06-.26.23-.48.57-.4v.28Z"/>
    <path class="cls-9" d="m153.69,81.62c0,.2.12.32.31.32.4-.03.62-.28.59-.73-.42.02-.9-.05-.9.4Zm.91.17c-.15.21-.3.4-.67.39-.35,0-.57-.21-.57-.56,0-.63.62-.62,1.23-.62.03-.34-.09-.53-.4-.53-.24,0-.4.07-.41.3l-.32-.03c.05-.36.32-.51.74-.51s.71.2.71.63v.8c0,.2.07.31.27.26v.2c-.3.09-.6-.02-.58-.34Z"/>
    <path class="cls-9" d="m157.14,79.85c-.3-.09-.41.1-.37.43h.37v.23h-.37v1.64h-.3v-1.64h-.26v-.23h.26c-.07-.51.17-.8.68-.67v.24Z"/>
    <path class="cls-9" d="m157.36,82.14v-1.86h.31v1.86h-.31Zm0-2.26v-.29h.31v.29h-.31Z"/>
    <polygon class="cls-9" points="158.14 82.14 158.14 80.86 158.14 79.58 158.45 79.58 158.45 80.86 158.45 82.14 158.14 82.14"/>
    <path class="cls-9" d="m159.15,81.62c0,.2.12.32.31.32.4-.03.62-.28.59-.73-.42.02-.9-.05-.9.4Zm.91.17c-.15.21-.3.4-.67.39-.35,0-.57-.21-.57-.56,0-.63.62-.62,1.23-.62.03-.34-.09-.53-.4-.53-.24,0-.4.07-.41.3l-.32-.03c.05-.36.32-.51.74-.51s.71.2.71.63v.8c0,.2.07.31.27.26v.2c-.3.09-.6-.02-.58-.34Z"/>
    <path class="cls-9" d="m161.39,82.14v-.34h.33v.34h-.33Zm.25-2.46c.82,0,1.09.95.44,1.3-.19.1-.36.24-.38.51h-.3c0-.62.75-.54.75-1.12,0-.29-.21-.41-.51-.42-.31,0-.52.17-.55.45l-.31-.02c.07-.44.33-.71.86-.71Z"/>
    <path class="cls-9" d="m164.44,82.88c-.37-.41-.64-.9-.64-1.66s.27-1.24.64-1.64h.3c-.37.4-.63.9-.63,1.65s.25,1.24.63,1.65h-.3Z"/>
    <path class="cls-9" d="m165.37,80.88c.59-.02,1.34.13,1.34-.46s-.78-.41-1.34-.44v.9Zm1.67-.47c0,.4-.23.63-.59.69l.69,1.05h-.37l-.64-1.01h-.75v1.01h-.32v-2.43c.86.03,2.01-.21,1.99.7Z"/>
    <path class="cls-9" d="m168.78,81.03c.06-.59-.74-.75-.95-.27-.03.07-.06.17-.06.27h1.01Zm-.51-.79c.62,0,.84.41.82,1.04h-1.32c0,.39.14.66.52.67.25,0,.42-.12.48-.28l.27.08c-.11.27-.36.44-.75.44-.57,0-.86-.36-.85-.98,0-.6.25-.96.83-.96Z"/>
    <path class="cls-9" d="m170.17,81.93c.35,0,.49-.31.49-.72s-.14-.74-.49-.74c-.38,0-.45.33-.45.74s.06.72.45.72Zm.81-1.65c-.1,1.23.4,2.87-1.08,2.56-.23-.06-.37-.2-.43-.42l.31-.05c.15.46.98.31.87-.27v-.29c-.11.21-.28.35-.6.35-.53,0-.67-.4-.67-.94s.16-.95.7-.96c.28,0,.47.16.58.34,0-.1,0-.23.02-.31h.29Z"/>
    <path class="cls-9" d="m171.45,82.14v-1.86h.31v1.86h-.31Zm0-2.26v-.29h.31v.29h-.31Z"/>
    <path class="cls-9" d="m173.31,80.74c-.03-.33-.84-.37-.85,0,.15.52,1.13.12,1.17.88.04.76-1.47.73-1.54.08l.27-.05c.04.35.95.44.96,0-.1-.55-1.11-.15-1.16-.88-.04-.56.8-.62,1.2-.41.12.07.21.19.24.34l-.28.04Z"/>
    <path class="cls-9" d="m174.33,81.68c-.02.24.18.28.37.22v.24c-.32.1-.69.05-.69-.38v-1.24h-.22v-.23h.24l.09-.42h.21v.42h.34v.23h-.34v1.18Z"/>
    <path class="cls-9" d="m175.85,80.54c-.76-.16-.52.89-.56,1.6h-.31v-1.86s.28,0,.28,0c0,.12,0,.28.02.38.06-.26.23-.48.57-.4v.28Z"/>
    <path class="cls-9" d="m176.87,81.95c.43,0,.52-.3.52-.74s-.08-.74-.5-.74-.52.31-.52.74.1.73.5.74Zm0-1.71c.61,0,.83.36.83.97,0,.62-.26.97-.84.97s-.81-.38-.82-.97c0-.65.27-.97.83-.97Z"/>
    <polygon class="cls-9" points="177.81 82.85 177.81 82.73 177.81 82.62 179.86 82.62 179.86 82.73 179.86 82.85 177.81 82.85"/>
    <path class="cls-9" d="m180.8,81.93c.46,0,.53-.48.53-1s-.04-1-.52-1-.54.47-.54,1,.05,1,.53,1Zm0-2.24c.67,0,.83.54.83,1.24s-.2,1.25-.84,1.25-.84-.55-.84-1.25.17-1.24.85-1.24Z"/>
    <path class="cls-9" d="m182.1,79.58c.37.4.64.9.64,1.65s-.26,1.24-.64,1.65h-.3c.36-.4.63-.9.63-1.65s-.26-1.24-.63-1.65h.3Z"/>
    <polyline class="cls-1" points="60.22 82.08 93.84 82.08 123.48 82.08"/>
    <polygon class="cls-9" points="60.22 82.22 59.95 82.22 59.95 82.08 59.95 81.95 60.22 81.95 60.22 82.22"/>
    <polygon class="cls-2" points="60.22 82.22 59.95 82.22 59.95 82.08 59.95 81.95 60.22 81.95 60.22 82.22"/>
    <polygon class="cls-9" points="127.19 82.08 123.48 83.33 123.48 80.87 127.19 82.08"/>
    <polygon class="cls-1" points="127.19 82.08 123.48 83.33 123.48 80.87 127.19 82.08"/>
    <path class="cls-6" d="m199.72,71.95c0-1.59,1.59-1.59,1.59-1.59h8.92c1.59,0,1.59,1.59,1.59,1.59v8.52c0,1.6-1.59,1.6-1.59,1.6h-8.92c-1.59,0-1.59-1.59-1.59-1.59v-8.53Z"/>
    <path class="cls-3" d="m199.72,71.95c0-1.59,1.59-1.59,1.59-1.59h8.92c1.59,0,1.59,1.59,1.59,1.59v8.52c0,1.6-1.59,1.6-1.59,1.6h-8.92c-1.59,0-1.59-1.59-1.59-1.59v-8.53Z"/>
    <path class="cls-9" d="m206.14,74.71c-.07-.63-1.61-.71-1.62.03.18.98,2.07.18,2.13,1.56.04,1.02-1.58,1.14-2.29.72-.22-.13-.37-.34-.43-.6l.43-.09c.07.73,1.84.82,1.84-.01,0-1.02-2.03-.18-2.12-1.54-.07-1.07,1.9-1.1,2.34-.44.07.09.1.21.14.33l-.43.07Z"/>
    <path class="cls-9" d="m207.17,77.18v-2.48h.42v2.48h-.42Zm0-3.02v-.39h.42v.39h-.42Z"/>
    <polyline class="cls-1" points="157.36 105.22 157.36 141.75 157.36 142.01 157.36 147.83"/>
    <rect class="cls-9" x="157.36" y="105.09" width=".26" height=".13"/>
    <rect class="cls-2" x="157.36" y="105.09" width=".26" height=".13"/>
    <polygon class="cls-9" points="157.36 151.81 156.04 148.1 158.69 148.1 157.36 151.81"/>
    <polygon class="cls-1" points="157.36 151.81 156.04 148.1 158.69 148.1 157.36 151.81"/>
    <path class="cls-6" d="m157.36,124.54c0-1.59,1.59-1.59,1.59-1.59h8.92c1.59,0,1.59,1.59,1.59,1.59v8.52c0,1.6-1.59,1.6-1.59,1.6h-8.92c-1.59,0-1.59-1.59-1.59-1.59v-8.53Z"/>
    <path class="cls-3" d="m157.36,124.54c0-1.59,1.59-1.59,1.59-1.59h8.92c1.59,0,1.59,1.59,1.59,1.59v8.52c0,1.6-1.59,1.6-1.59,1.6h-8.92c-1.59,0-1.59-1.59-1.59-1.59v-8.53Z"/>
    <polygon class="cls-9" points="162.94 129.78 161.21 127.02 161.22 129.78 160.84 129.78 160.84 128.16 160.84 126.54 161.35 126.54 163.09 129.32 163.07 126.54 163.47 126.54 163.47 128.16 163.47 129.78 162.94 129.78"/>
    <path class="cls-9" d="m165.13,129.52c.58.01.69-.41.69-.98s-.1-.98-.67-.98-.69.42-.69.98.13.97.67.98Zm.01-2.27c.81-.01,1.11.48,1.11,1.29.01.82-.35,1.29-1.12,1.29s-1.08-.51-1.1-1.29c0-.86.37-1.29,1.11-1.29Z"/>
    <path class="cls-11" d="m156.28,153.31c1.24-.98,2.49,0,2.49,0l27.85,21.48c1.24.97,0,1.94,0,1.94l-27.82,21.49c-1.27.95-2.54-.03-2.54-.03l-27.79-21.47c-1.27-.96-.01-1.93-.01-1.93l27.83-21.46Z"/>
    <path class="cls-4" d="m156.28,153.31c1.24-.98,2.49,0,2.49,0l27.85,21.48c1.24.97,0,1.94,0,1.94l-27.82,21.49c-1.27.95-2.54-.03-2.54-.03l-27.79-21.47c-1.27-.96-.01-1.93-.01-1.93l27.83-21.46Z"/>
    <path class="cls-9" d="m138.93,172.58v.34h-.33v-.34h.33Zm-.25,2.46c-.49,0-.8-.22-.82-.69-.02-.64.7-.57.76-1.13h.29c0,.63-.74.53-.74,1.12,0,.29.21.41.51.42.31,0,.52-.17.55-.45l.31.02c-.06.45-.35.71-.86.71Z"/>
    <polygon class="cls-9" points="141.71 174.44 141.71 173.88 141.71 173.31 140.39 173.31 140.39 173.88 140.39 174.44 140.07 174.44 140.07 173.22 140.07 172.01 140.39 172.01 140.39 172.52 140.39 173.04 141.71 173.04 141.71 172.52 141.71 172.01 142.04 172.01 142.04 173.22 142.04 174.44 141.71 174.44"/>
    <path class="cls-9" d="m142.78,173.92c0,.2.12.32.31.32.4-.03.62-.28.59-.73-.42.02-.9-.05-.9.4Zm.91.17c-.15.21-.3.4-.67.39-.35,0-.57-.21-.57-.56,0-.63.62-.62,1.23-.62.03-.34-.09-.53-.4-.53-.24,0-.4.07-.41.3l-.32-.03c.05-.36.32-.51.74-.51s.71.2.71.63v.8c0,.2.07.31.27.26v.2c-.3.09-.6-.02-.58-.34Z"/>
    <path class="cls-9" d="m146.03,172.58l-.84,2.17c-.14.27-.36.5-.79.41v-.24c.38.06.52-.2.63-.49l-.74-1.85h.33l.56,1.53.53-1.53h.32Z"/>
    <path class="cls-9" d="m148.51,173.33c.06-.59-.74-.75-.95-.27-.03.07-.06.17-.06.27h1.01Zm-.51-.79c.62,0,.84.41.82,1.04h-1.32c0,.39.14.66.52.67.25,0,.42-.12.48-.28l.27.08c-.11.27-.36.44-.75.44-.57,0-.86-.36-.85-.98,0-.6.25-.96.83-.96Z"/>
    <polygon class="cls-9" points="149.22 174.44 149.22 173.16 149.22 171.88 149.53 171.88 149.53 173.16 149.53 174.44 149.22 174.44"/>
    <path class="cls-9" d="m151.25,173.33c.06-.59-.74-.75-.95-.27-.03.07-.06.17-.06.27h1.01Zm-.51-.79c.62,0,.84.41.82,1.04h-1.32c0,.39.14.66.52.67.25,0,.42-.12.48-.28l.27.08c-.11.27-.36.44-.75.44-.57,0-.86-.36-.85-.98,0-.6.25-.96.83-.96Z"/>
    <path class="cls-9" d="m153.78,172.78c-.66.03-.37,1.03-.43,1.66h-.3v-1.19c0-.28-.05-.49-.34-.47-.65.04-.37,1.02-.43,1.66h-.3v-1.86s.28,0,.28,0c0,.1,0,.24.02.31.1-.43.97-.49,1.05,0,.11-.21.26-.34.57-.35.83-.02.46,1.17.54,1.9h-.3v-1.19c0-.28-.05-.48-.34-.47Z"/>
    <path class="cls-9" d="m156.14,173.33c.06-.59-.74-.75-.95-.27-.03.07-.06.17-.06.27h1.01Zm-.51-.79c.62,0,.84.41.82,1.04h-1.32c0,.39.14.66.52.67.25,0,.42-.12.48-.28l.27.08c-.11.27-.36.44-.75.44-.57,0-.86-.36-.85-.98,0-.6.25-.96.83-.96Z"/>
    <path class="cls-9" d="m157.76,172.54c.87-.04.52,1.14.59,1.9h-.31v-1.19c0-.3-.08-.48-.38-.47-.71.02-.43,1-.48,1.66h-.31v-1.86s.28,0,.28,0c0,.1,0,.24.02.31.11-.22.28-.34.6-.35Z"/>
    <path class="cls-9" d="m159.15,173.98c-.02.24.18.28.37.22v.24c-.32.1-.69.05-.69-.38v-1.24h-.22v-.23h.24l.09-.42h.21v.42h.34v.23h-.34v1.18Z"/>
    <path class="cls-9" d="m160.52,174.24c.43,0,.52-.3.52-.74s-.08-.74-.5-.74-.52.31-.52.74.1.73.5.74Zm0-1.71c.61,0,.83.36.83.97,0,.62-.26.97-.84.97s-.81-.38-.82-.97c0-.65.27-.97.83-.97Z"/>
    <path class="cls-9" d="m162.83,173.04c-.03-.33-.84-.37-.85,0,.15.52,1.13.12,1.17.88.04.76-1.47.73-1.54.08l.27-.05c.04.35.95.44.96,0-.1-.55-1.11-.15-1.16-.88-.04-.56.8-.62,1.2-.41.12.07.21.19.24.34l-.28.04Z"/>
    <path class="cls-9" d="m165.74,173.33c.06-.59-.74-.75-.95-.27-.03.07-.06.17-.06.27h1.01Zm-.51-.79c.62,0,.84.41.82,1.04h-1.32c0,.39.14.66.52.67.25,0,.42-.12.48-.28l.27.08c-.11.27-.36.44-.75.44-.57,0-.86-.36-.85-.98,0-.6.25-.96.83-.96Z"/>
    <path class="cls-9" d="m167.35,172.54c.87-.04.52,1.14.59,1.9h-.31v-1.19c0-.3-.08-.48-.38-.47-.71.02-.43,1-.48,1.66h-.31v-1.86s.28,0,.28,0c0,.1,0,.24.02.31.11-.22.28-.34.6-.35Z"/>
    <polygon class="cls-9" points="169.38 174.44 169.38 173.16 169.38 171.88 169.69 171.88 169.69 173.16 169.69 174.44 169.38 174.44"/>
    <path class="cls-9" d="m170.39,173.92c0,.2.12.32.31.32.4-.03.62-.28.59-.73-.42.02-.9-.05-.9.4Zm.91.17c-.15.21-.3.4-.67.39-.35,0-.57-.21-.57-.56,0-.63.62-.62,1.23-.62.03-.34-.09-.53-.4-.53-.24,0-.4.07-.41.3l-.32-.03c.05-.36.32-.51.74-.51s.71.2.71.63v.8c0,.2.07.31.27.26v.2c-.3.09-.6-.02-.58-.34Z"/>
    <path class="cls-9" d="m173.84,172.15c-.3-.09-.41.1-.37.43h.37v.23h-.37v1.64h-.3v-1.64h-.26v-.23h.26c-.07-.51.17-.8.68-.67v.24Z"/>
    <path class="cls-9" d="m174.06,174.44v-1.86h.31v1.86h-.31Zm0-2.26v-.29h.31v.29h-.31Z"/>
    <polygon class="cls-9" points="174.84 174.44 174.84 173.16 174.84 171.88 175.15 171.88 175.15 173.16 175.15 174.44 174.84 174.44"/>
    <path class="cls-9" d="m175.85,173.92c0,.2.12.32.31.32.4-.03.62-.28.59-.73-.42.02-.9-.05-.9.4Zm.91.17c-.15.21-.3.4-.67.39-.35,0-.57-.21-.57-.56,0-.63.62-.62,1.23-.62.03-.34-.09-.53-.4-.53-.24,0-.4.07-.41.3l-.32-.03c.05-.36.32-.51.74-.51s.71.2.71.63v.8c0,.2.07.31.27.26v.2c-.3.09-.6-.02-.58-.34Z"/>
    <path class="cls-9" d="m133.42,178.16c0,.2.12.32.31.32.4-.03.62-.28.59-.73-.42.02-.9-.05-.9.4Zm.91.17c-.15.21-.3.4-.67.39-.35,0-.57-.21-.57-.56,0-.63.62-.62,1.23-.62.03-.34-.09-.53-.4-.53-.24,0-.4.07-.41.3l-.32-.03c.05-.36.32-.51.74-.51s.71.2.71.63v.8c0,.2.07.31.27.26v.2c-.3.09-.6-.02-.58-.34Z"/>
    <path class="cls-9" d="m136.06,176.77c.87-.04.52,1.14.59,1.9h-.31v-1.19c0-.3-.08-.48-.38-.47-.71.02-.43,1-.48,1.66h-.31v-1.86s.28,0,.28,0c0,.1,0,.24.02.31.11-.22.28-.34.6-.35Z"/>
    <path class="cls-9" d="m137.45,178.21c-.02.24.18.28.37.22v.24c-.32.1-.69.05-.69-.38v-1.24h-.22v-.23h.24l.09-.42h.21v.42h.34v.23h-.34v1.18Z"/>
    <path class="cls-9" d="m139.34,177.57c.06-.59-.74-.75-.95-.27-.03.07-.06.17-.06.27h1.01Zm-.51-.79c.62,0,.84.41.82,1.04h-1.32c0,.39.14.66.52.67.25,0,.42-.12.48-.28l.27.08c-.11.27-.36.44-.75.44-.57,0-.86-.36-.85-.98,0-.6.25-.96.83-.96Z"/>
    <path class="cls-9" d="m140.93,177.08c-.76-.16-.52.89-.56,1.6h-.31v-1.86s.28,0,.28,0c0,.12,0,.28.02.38.06-.26.23-.48.57-.4v.28Z"/>
    <path class="cls-9" d="m141.21,178.68v-1.86h.31v1.86h-.31Zm0-2.26v-.29h.31v.29h-.31Z"/>
    <path class="cls-9" d="m142.72,178.48c.43,0,.52-.3.52-.74s-.08-.74-.5-.74-.52.31-.52.74.1.73.5.74Zm0-1.71c.61,0,.83.36.83.97,0,.62-.26.97-.84.97s-.81-.38-.82-.97c0-.65.27-.97.83-.97Z"/>
    <path class="cls-9" d="m144.83,177.08c-.76-.16-.52.89-.56,1.6h-.31v-1.86s.28,0,.28,0c0,.12,0,.28.02.38.06-.26.23-.48.57-.4v.28Z"/>
    <path class="cls-9" d="m145.63,178.68v-.34h.33v.34h-.33Zm.25-2.46c.82,0,1.09.95.44,1.3-.19.1-.36.24-.38.51h-.3c0-.62.75-.54.75-1.12,0-.29-.21-.41-.51-.42-.31,0-.52.17-.55.45l-.31-.02c.07-.44.33-.71.86-.71Z"/>
    <path class="cls-9" d="m148.67,179.41c-.37-.41-.64-.9-.64-1.66s.27-1.24.64-1.64h.3c-.37.4-.63.9-.63,1.65s.25,1.24.63,1.65h-.3Z"/>
    <path class="cls-9" d="m149.6,177.41c.59-.02,1.34.13,1.34-.46s-.78-.41-1.34-.44v.9Zm1.67-.47c0,.4-.23.63-.59.69l.69,1.05h-.37l-.64-1.01h-.75v1.01h-.32v-2.43c.86.03,2.01-.21,1.99.7Z"/>
    <path class="cls-9" d="m153.01,177.57c.06-.59-.74-.75-.95-.27-.03.07-.06.17-.06.27h1.01Zm-.51-.79c.62,0,.84.41.82,1.04h-1.32c0,.39.14.66.52.67.25,0,.42-.12.48-.28l.27.08c-.11.27-.36.44-.75.44-.57,0-.86-.36-.85-.98,0-.6.25-.96.83-.96Z"/>
    <path class="cls-9" d="m154.41,178.46c.35,0,.49-.31.49-.72s-.14-.74-.49-.74c-.38,0-.45.33-.45.74s.06.72.45.72Zm.81-1.65c-.1,1.23.4,2.87-1.08,2.56-.23-.06-.37-.2-.43-.42l.31-.05c.15.46.98.31.87-.27v-.29c-.11.21-.28.35-.6.35-.53,0-.67-.4-.67-.94s.16-.95.7-.96c.28,0,.47.16.58.34,0-.1,0-.23.02-.31h.29Z"/>
    <path class="cls-9" d="m155.68,178.68v-1.86h.31v1.86h-.31Zm0-2.26v-.29h.31v.29h-.31Z"/>
    <path class="cls-9" d="m157.54,177.27c-.03-.33-.84-.37-.85,0,.15.52,1.13.12,1.17.88.04.76-1.47.73-1.54.08l.27-.05c.04.35.95.44.96,0-.1-.55-1.11-.15-1.16-.88-.04-.56.8-.62,1.2-.41.12.07.21.19.24.34l-.28.04Z"/>
    <path class="cls-9" d="m158.56,178.21c-.02.24.18.28.37.22v.24c-.32.1-.69.05-.69-.38v-1.24h-.22v-.23h.24l.09-.42h.21v.42h.34v.23h-.34v1.18Z"/>
    <path class="cls-9" d="m160.08,177.08c-.76-.16-.52.89-.56,1.6h-.31v-1.86s.28,0,.28,0c0,.12,0,.28.02.38.06-.26.23-.48.57-.4v.28Z"/>
    <path class="cls-9" d="m161.1,178.48c.43,0,.52-.3.52-.74s-.08-.74-.5-.74-.52.31-.52.74.1.73.5.74Zm0-1.71c.61,0,.83.36.83.97,0,.62-.26.97-.84.97s-.81-.38-.82-.97c0-.65.27-.97.83-.97Z"/>
    <polygon class="cls-9" points="162.04 179.38 162.04 179.27 162.04 179.16 164.09 179.16 164.09 179.27 164.09 179.38 162.04 179.38"/>
    <path class="cls-9" d="m165.2,176.77c.87-.04.52,1.14.59,1.9h-.31v-1.19c0-.3-.08-.48-.38-.47-.71.02-.43,1-.48,1.66h-.31v-1.86s.28,0,.28,0c0,.1,0,.24.02.31.11-.22.28-.34.6-.35Z"/>
    <polygon class="cls-9" points="166.17 177.87 166.17 177.73 166.17 177.6 167.03 177.6 167.03 177.73 167.03 177.87 166.17 177.87"/>
    <polygon class="cls-9" points="167.44 178.68 167.44 178.54 167.44 178.41 168.07 178.41 168.07 177.48 168.07 176.55 167.52 176.93 167.52 176.79 167.52 176.65 168.09 176.24 168.37 176.24 168.37 177.33 168.37 178.41 168.97 178.41 168.97 178.54 168.97 178.68 167.44 178.68"/>
    <polygon class="cls-9" points="170.9 178.09 170.63 178.58 170.39 178.58 170.64 178.09 170.23 178.09 170.23 177.96 170.23 177.83 170.77 177.83 171.09 177.2 170.23 177.2 170.23 177.08 170.23 176.95 171.22 176.95 171.49 176.44 171.73 176.44 171.48 176.95 171.95 176.95 171.95 177.08 171.95 177.2 171.35 177.2 171.01 177.83 171.95 177.83 171.95 177.96 171.95 178.09 170.9 178.09"/>
    <path class="cls-9" d="m174.01,178.46c.46,0,.53-.48.53-1s-.04-1-.52-1-.54.47-.54,1,.05,1,.53,1Zm0-2.24c.67,0,.83.54.83,1.24s-.2,1.25-.84,1.25-.84-.55-.84-1.25.17-1.24.85-1.24Z"/>
    <path class="cls-9" d="m175.97,178.46c.46,0,.53-.48.53-1s-.04-1-.52-1-.54.47-.54,1,.05,1,.53,1Zm0-2.24c.67,0,.83.54.83,1.24s-.2,1.25-.84,1.25-.84-.55-.84-1.25.17-1.24.85-1.24Z"/>
    <path class="cls-9" d="m177.94,178.46c.46,0,.53-.48.53-1s-.04-1-.52-1-.54.47-.54,1,.05,1,.53,1Zm0-2.24c.67,0,.83.54.83,1.24s-.2,1.25-.84,1.25-.84-.55-.84-1.25.17-1.24.85-1.24Z"/>
    <path class="cls-9" d="m179.9,178.46c.46,0,.53-.48.53-1s-.04-1-.52-1-.54.47-.54,1,.05,1,.53,1Zm0-2.24c.67,0,.83.54.83,1.24s-.2,1.25-.84,1.25-.84-.55-.84-1.25.17-1.24.85-1.24Z"/>
    <path class="cls-9" d="m181.19,176.12c.37.4.64.9.64,1.65s-.26,1.24-.64,1.65h-.3c.36-.4.63-.9.63-1.65s-.26-1.24-.63-1.65h.3Z"/>
    <line class="cls-1" x1="187.8" y1="175.63" x2="226.19" y2="175.63"/>
    <polygon class="cls-9" points="230.16 175.63 226.45 176.95 226.45 174.3 230.16 175.63"/>
    <polygon class="cls-1" points="230.16 175.63 226.45 176.95 226.45 174.3 230.16 175.63"/>
    <path class="cls-8" d="m230.69,169.01c0-1.59,1.59-1.59,1.59-1.59h57.33c1.56,0,1.56,1.59,1.56,1.59l.03,13.21c-.03,1.59-1.61,1.59-1.61,1.59h-57.31c-1.59,0-1.59-1.59-1.59-1.59v-13.21Z"/>
    <path class="cls-1" d="m230.69,169.01c0-1.59,1.59-1.59,1.59-1.59h57.33c1.56,0,1.56,1.59,1.56,1.59l.03,13.21c-.03,1.59-1.61,1.59-1.61,1.59h-57.31c-1.59,0-1.59-1.59-1.59-1.59v-13.21Z"/>
    <path class="cls-9" d="m241.46,173.79c.87.08,1.43-.16,1.43-.97s-.59-.99-1.43-.93v1.9Zm-.32-2.17c1.16-.07,2.12.08,2.09,1.2-.03.76-.42,1.24-1.19,1.24h-.9v-2.43Z"/>
    <path class="cls-9" d="m244.87,172.94c.06-.59-.74-.75-.95-.27-.03.07-.06.17-.06.27h1.01Zm-.51-.79c.62,0,.84.41.82,1.04h-1.32c0,.39.14.66.52.67.25,0,.42-.12.48-.28l.27.08c-.11.27-.36.44-.75.44-.57,0-.86-.36-.85-.98,0-.6.25-.96.83-.96Z"/>
    <path class="cls-9" d="m245.25,174.53c.24.04.32-.06.32-.29v-2.05h.31v2.1c.02.39-.23.57-.64.48v-.24Zm.32-2.74v-.29h.31v.29h-.31Z"/>
    <path class="cls-9" d="m246.59,173.53c0,.2.12.32.31.32.4-.03.62-.28.59-.73-.42.02-.9-.05-.9.4Zm.91.17c-.15.21-.3.4-.67.39-.35,0-.57-.21-.57-.56,0-.63.62-.62,1.23-.62.03-.34-.09-.53-.4-.53-.24,0-.4.07-.41.3l-.32-.03c.05-.36.32-.51.74-.51s.71.2.71.63v.8c0,.2.07.31.27.26v.2c-.3.09-.6-.02-.58-.34Z"/>
    <path class="cls-9" d="m249.19,172.45c-.76-.16-.52.89-.56,1.6h-.31v-1.86s.28,0,.28,0c0,.12,0,.28.02.38.06-.26.23-.48.57-.4v.28Z"/>
    <polygon class="cls-9" points="250.46 174.05 250.46 172.77 250.46 171.49 250.77 171.49 250.77 172.77 250.77 174.05 250.46 174.05"/>
    <path class="cls-9" d="m251.47,173.53c0,.2.12.32.31.32.4-.03.62-.28.59-.73-.42.02-.9-.05-.9.4Zm.91.17c-.15.21-.3.4-.67.39-.35,0-.57-.21-.57-.56,0-.63.62-.62,1.23-.62.03-.34-.09-.53-.4-.53-.24,0-.4.07-.41.3l-.32-.03c.05-.36.32-.51.74-.51s.71.2.71.63v.8c0,.2.07.31.27.26v.2c-.3.09-.6-.02-.58-.34Z"/>
    <path class="cls-9" d="m254.93,171.76c-.3-.09-.41.1-.37.43h.37v.23h-.37v1.64h-.3v-1.64h-.26v-.23h.26c-.07-.51.17-.8.68-.67v.24Z"/>
    <path class="cls-9" d="m255.16,174.05v-1.86h.31v1.86h-.31Zm0-2.26v-.29h.31v.29h-.31Z"/>
    <polygon class="cls-9" points="255.93 174.05 255.93 172.77 255.93 171.49 256.24 171.49 256.24 172.77 256.24 174.05 255.93 174.05"/>
    <path class="cls-9" d="m256.94,173.53c0,.2.12.32.31.32.4-.03.62-.28.59-.73-.42.02-.9-.05-.9.4Zm.91.17c-.15.21-.3.4-.67.39-.35,0-.57-.21-.57-.56,0-.63.62-.62,1.23-.62.03-.34-.09-.53-.4-.53-.24,0-.4.07-.41.3l-.32-.03c.05-.36.32-.51.74-.51s.71.2.71.63v.8c0,.2.07.31.27.26v.2c-.3.09-.6-.02-.58-.34Z"/>
    <path class="cls-9" d="m260.73,172.65c-.03-.33-.84-.37-.85,0,.15.52,1.13.12,1.17.88.04.76-1.47.73-1.54.08l.27-.05c.04.35.95.44.96,0-.1-.55-1.11-.15-1.16-.88-.04-.56.8-.62,1.2-.41.12.07.21.19.24.34l-.28.04Z"/>
    <path class="cls-9" d="m261.41,174.05v-1.86h.31v1.86h-.31Zm0-2.26v-.29h.31v.29h-.31Z"/>
    <path class="cls-9" d="m263.09,172.15c.87-.04.52,1.14.59,1.9h-.31v-1.19c0-.3-.08-.48-.38-.47-.71.02-.43,1-.48,1.66h-.31v-1.86s.28,0,.28,0c0,.1,0,.24.02.31.11-.22.28-.34.6-.35Z"/>
    <path class="cls-9" d="m266.38,172.94c.06-.59-.74-.75-.95-.27-.03.07-.06.17-.06.27h1.01Zm-.51-.79c.62,0,.84.41.82,1.04h-1.32c0,.39.14.66.52.67.25,0,.42-.12.48-.28l.27.08c-.11.27-.36.44-.75.44-.57,0-.86-.36-.85-.98,0-.6.25-.96.83-.96Z"/>
    <polygon class="cls-9" points="267.08 174.05 267.08 172.77 267.08 171.49 267.39 171.49 267.39 172.77 267.39 174.05 267.08 174.05"/>
    <path class="cls-9" d="m269.11,172.94c.06-.59-.74-.75-.95-.27-.03.07-.06.17-.06.27h1.01Zm-.51-.79c.62,0,.84.41.82,1.04h-1.32c0,.39.14.66.52.67.25,0,.42-.12.48-.28l.27.08c-.11.27-.36.44-.75.44-.57,0-.86-.36-.85-.98,0-.6.25-.96.83-.96Z"/>
    <path class="cls-9" d="m271.64,172.39c-.66.03-.37,1.03-.43,1.66h-.3v-1.19c0-.28-.05-.49-.34-.47-.65.04-.37,1.02-.43,1.66h-.3v-1.86s.28,0,.28,0c0,.1,0,.24.02.31.1-.43.97-.49,1.05,0,.11-.21.26-.34.57-.35.83-.02.46,1.17.54,1.9h-.3v-1.19c0-.28-.05-.48-.34-.47Z"/>
    <path class="cls-9" d="m274,172.94c.06-.59-.74-.75-.95-.27-.03.07-.06.17-.06.27h1.01Zm-.51-.79c.62,0,.84.41.82,1.04h-1.32c0,.39.14.66.52.67.25,0,.42-.12.48-.28l.27.08c-.11.27-.36.44-.75.44-.57,0-.86-.36-.85-.98,0-.6.25-.96.83-.96Z"/>
    <path class="cls-9" d="m275.62,172.15c.87-.04.52,1.14.59,1.9h-.31v-1.19c0-.3-.08-.48-.38-.47-.71.02-.43,1-.48,1.66h-.31v-1.86s.28,0,.28,0c0,.1,0,.24.02.31.11-.22.28-.34.6-.35Z"/>
    <path class="cls-9" d="m277.01,173.59c-.02.24.18.28.37.22v.24c-.32.1-.69.05-.69-.38v-1.24h-.22v-.23h.24l.09-.42h.21v.42h.34v.23h-.34v1.18Z"/>
    <path class="cls-9" d="m278.38,173.85c.43,0,.52-.3.52-.74s-.08-.74-.5-.74-.52.31-.52.74.1.73.5.74Zm0-1.71c.61,0,.83.36.83.97,0,.62-.26.97-.84.97s-.81-.38-.82-.97c0-.65.27-.97.83-.97Z"/>
    <path class="cls-9" d="m280.7,172.65c-.03-.33-.84-.37-.85,0,.15.52,1.13.12,1.17.88.04.76-1.47.73-1.54.08l.27-.05c.04.35.95.44.96,0-.1-.55-1.11-.15-1.16-.88-.04-.56.8-.62,1.2-.41.12.07.21.19.24.34l-.28.04Z"/>
    <path class="cls-9" d="m246.23,179.02c-.37-.41-.64-.9-.64-1.66s.27-1.24.64-1.64h.3c-.37.4-.63.9-.63,1.65s.25,1.24.63,1.65h-.3Z"/>
    <path class="cls-9" d="m247.16,177.02c.59-.02,1.34.13,1.34-.46s-.78-.41-1.34-.44v.9Zm1.67-.47c0,.4-.23.63-.59.69l.69,1.05h-.37l-.64-1.01h-.75v1.01h-.32v-2.43c.86.03,2.01-.21,1.99.7Z"/>
    <path class="cls-9" d="m250.57,177.18c.06-.59-.74-.75-.95-.27-.03.07-.06.17-.06.27h1.01Zm-.51-.79c.62,0,.84.41.82,1.04h-1.32c0,.39.14.66.52.67.25,0,.42-.12.48-.28l.27.08c-.11.27-.36.44-.75.44-.57,0-.86-.36-.85-.98,0-.6.25-.96.83-.96Z"/>
    <path class="cls-9" d="m251.97,178.07c.35,0,.49-.31.49-.72s-.14-.74-.49-.74c-.38,0-.45.33-.45.74s.06.72.45.72Zm.81-1.65c-.1,1.23.4,2.87-1.08,2.56-.23-.06-.37-.2-.43-.42l.31-.05c.15.46.98.31.87-.27v-.29c-.11.21-.28.35-.6.35-.53,0-.67-.4-.67-.94s.16-.95.7-.96c.28,0,.47.16.58.34,0-.1,0-.23.02-.31h.29Z"/>
    <path class="cls-9" d="m253.24,178.29v-1.86h.31v1.86h-.31Zm0-2.26v-.29h.31v.29h-.31Z"/>
    <path class="cls-9" d="m255.1,176.88c-.03-.33-.84-.37-.85,0,.15.52,1.13.12,1.17.88.04.76-1.47.73-1.54.08l.27-.05c.04.35.95.44.96,0-.1-.55-1.11-.15-1.16-.88-.04-.56.8-.62,1.2-.41.12.07.21.19.24.34l-.28.04Z"/>
    <path class="cls-9" d="m256.12,177.83c-.02.24.18.28.37.22v.24c-.32.1-.69.05-.69-.38v-1.24h-.22v-.23h.24l.09-.42h.21v.42h.34v.23h-.34v1.18Z"/>
    <path class="cls-9" d="m257.64,176.69c-.76-.16-.52.89-.56,1.6h-.31v-1.86s.28,0,.28,0c0,.12,0,.28.02.38.06-.26.23-.48.57-.4v.28Z"/>
    <path class="cls-9" d="m258.66,178.09c.43,0,.52-.3.52-.74s-.08-.74-.5-.74-.52.31-.52.74.1.73.5.74Zm0-1.71c.61,0,.83.36.83.97,0,.62-.26.97-.84.97s-.81-.38-.82-.97c0-.65.27-.97.83-.97Z"/>
    <polygon class="cls-9" points="259.6 178.99 259.6 178.88 259.6 178.77 261.65 178.77 261.65 178.88 261.65 178.99 259.6 178.99"/>
    <path class="cls-9" d="m262.76,176.38c.87-.04.52,1.14.59,1.9h-.31v-1.19c0-.3-.08-.48-.38-.47-.71.02-.43,1-.48,1.66h-.31v-1.86s.28,0,.28,0c0,.1,0,.24.02.31.11-.22.28-.34.6-.35Z"/>
    <path class="cls-9" d="m264.72,177.7v-.25h1.71v.25h-1.71Zm0-.88v-.25h1.71v.25h-1.71Z"/>
    <path class="cls-9" d="m268.57,178.07c.46,0,.53-.48.53-1s-.04-1-.52-1-.54.47-.54,1,.05,1,.53,1Zm0-2.24c.67,0,.83.54.83,1.24s-.2,1.25-.84,1.25-.84-.55-.84-1.25.17-1.24.85-1.24Z"/>
    <path class="cls-9" d="m270.53,178.07c.46,0,.53-.48.53-1s-.04-1-.52-1-.54.47-.54,1,.05,1,.53,1Zm0-2.24c.67,0,.83.54.83,1.24s-.2,1.25-.84,1.25-.84-.55-.84-1.25.17-1.24.85-1.24Z"/>
    <path class="cls-9" d="m272.49,178.07c.46,0,.53-.48.53-1s-.04-1-.52-1-.54.47-.54,1,.05,1,.53,1Zm0-2.24c.67,0,.83.54.83,1.24s-.2,1.25-.84,1.25-.84-.55-.84-1.25.17-1.24.85-1.24Z"/>
    <path class="cls-9" d="m274.45,178.07c.46,0,.53-.48.53-1s-.04-1-.52-1-.54.47-.54,1,.05,1,.53,1Zm0-2.24c.67,0,.83.54.83,1.24s-.2,1.25-.84,1.25-.84-.55-.84-1.25.17-1.24.85-1.24Z"/>
    <path class="cls-9" d="m275.74,175.73c.37.4.64.9.64,1.65s-.26,1.24-.64,1.65h-.3c.36-.4.63-.9.63-1.65s-.26-1.24-.63-1.65h.3Z"/>
    <path class="cls-6" d="m200.51,165.57c0-1.59,1.59-1.59,1.59-1.59h8.92c1.59,0,1.59,1.59,1.59,1.59v8.52c0,1.6-1.59,1.6-1.59,1.6h-8.92c-1.59,0-1.59-1.59-1.59-1.59v-8.53Z"/>
    <path class="cls-3" d="m200.51,165.57c0-1.59,1.59-1.59,1.59-1.59h8.92c1.59,0,1.59,1.59,1.59,1.59v8.52c0,1.6-1.59,1.6-1.59,1.6h-8.92c-1.59,0-1.59-1.59-1.59-1.59v-8.53Z"/>
    <polygon class="cls-9" points="206.08 170.81 204.36 168.05 204.37 170.81 203.99 170.81 203.99 169.18 203.99 167.56 204.5 167.56 206.24 170.35 206.21 167.56 206.62 167.56 206.62 169.18 206.62 170.81 206.08 170.81"/>
    <path class="cls-9" d="m208.28,170.54c.58.01.69-.41.69-.98s-.1-.98-.67-.98-.69.42-.69.98.13.97.67.98Zm.01-2.27c.81-.01,1.11.48,1.11,1.29.01.82-.35,1.29-1.12,1.29s-1.08-.51-1.1-1.29c0-.86.37-1.29,1.11-1.29Z"/>
    <path class="cls-1" d="m157.36,198.92v32.56c0,1.59-1.59,1.59-1.59,1.59h-36.26"/>
    <polygon class="cls-9" points="115.54 233.07 119.25 231.74 119.25 234.13 115.54 233.07"/>
    <polygon class="cls-1" points="115.54 233.07 119.25 231.74 119.25 234.13 115.54 233.07"/>
    <path class="cls-6" d="m157.36,218.51c0-1.59,1.59-1.59,1.59-1.59h8.92c1.59,0,1.59,1.59,1.59,1.59v8.52c0,1.6-1.59,1.6-1.59,1.6h-8.92c-1.59,0-1.59-1.59-1.59-1.59v-8.53Z"/>
    <path class="cls-3" d="m157.36,218.51c0-1.59,1.59-1.59,1.59-1.59h8.92c1.59,0,1.59,1.59,1.59,1.59v8.52c0,1.6-1.59,1.6-1.59,1.6h-8.92c-1.59,0-1.59-1.59-1.59-1.59v-8.53Z"/>
    <path class="cls-9" d="m163.78,221.28c-.07-.63-1.61-.71-1.62.03.18.98,2.07.18,2.13,1.56.04,1.02-1.58,1.14-2.29.72-.22-.13-.37-.34-.43-.6l.43-.09c.07.73,1.84.82,1.84-.01,0-1.02-2.03-.18-2.12-1.54-.07-1.07,1.9-1.1,2.34-.44.07.09.1.21.14.33l-.43.07Z"/>
    <path class="cls-9" d="m164.82,223.75v-2.48h.42v2.48h-.42Zm0-3.02v-.39h.42v.39h-.42Z"/>
    <path class="cls-8" d="m54.4,224.07c0-1.59,1.59-1.59,1.59-1.59h57.33c1.56,0,1.56,1.59,1.56,1.59l.03,17.89c-.03,1.59-1.61,1.59-1.61,1.59h-57.31c-1.59,0-1.59-1.59-1.59-1.59v-17.9Z"/>
    <path class="cls-1" d="m54.4,224.07c0-1.59,1.59-1.59,1.59-1.59h57.33c1.56,0,1.56,1.59,1.56,1.59l.03,17.89c-.03,1.59-1.61,1.59-1.61,1.59h-57.31c-1.59,0-1.59-1.59-1.59-1.59v-17.9Z"/>
    <path class="cls-9" d="m63.2,227.65c-.1-.27-.34-.44-.72-.44-.58,0-.85.39-.85.97s.28.99.87.99c.42,0,.61-.24.76-.51l.26.14c-.18.37-.5.65-1.05.65-.78,0-1.15-.49-1.19-1.26-.06-1.02.97-1.5,1.83-1.09.19.09.3.25.38.45l-.31.11Z"/>
    <path class="cls-9" d="m64.63,229.21c.43,0,.52-.3.52-.74s-.08-.74-.5-.74-.52.31-.52.74.1.73.5.74Zm0-1.71c.61,0,.83.36.83.97,0,.62-.26.97-.84.97s-.81-.38-.82-.97c0-.65.27-.97.83-.97Z"/>
    <path class="cls-9" d="m66.67,229.21c.39,0,.44-.33.44-.74s-.06-.72-.44-.73c-.41,0-.5.31-.5.74s.1.72.5.72Zm.08-1.71c.54,0,.69.4.69.96s-.16.96-.69.98c-.3,0-.48-.13-.59-.33v1.03s-.3,0-.3,0v-2.6s.29,0,.29,0l.02.29c.1-.21.27-.33.58-.33Z"/>
    <path class="cls-9" d="m67.81,229.4v-1.86h.31v1.86h-.31Zm0-2.26v-.29h.31v.29h-.31Z"/>
    <path class="cls-9" d="m68.82,228.89c0,.2.12.32.31.32.4-.03.62-.28.59-.73-.42.02-.9-.05-.9.4Zm.91.17c-.15.21-.3.4-.67.39-.35,0-.57-.21-.57-.56,0-.63.62-.62,1.23-.62.03-.34-.09-.53-.4-.53-.24,0-.4.07-.41.3l-.32-.03c.05-.36.32-.51.74-.51s.71.2.71.63v.8c0,.2.07.31.27.26v.2c-.3.09-.6-.02-.58-.34Z"/>
    <path class="cls-9" d="m71.43,227.81c-.76-.16-.52.89-.56,1.6h-.31v-1.86s.28,0,.28,0c0,.12,0,.28.02.38.06-.26.23-.48.57-.4v.28Z"/>
    <polygon class="cls-9" points="72.7 229.4 72.7 228.13 72.7 226.85 73.01 226.85 73.01 228.13 73.01 229.4 72.7 229.4"/>
    <path class="cls-9" d="m74.21,229.21c.43,0,.52-.3.52-.74s-.08-.74-.5-.74-.52.31-.52.74.1.73.5.74Zm0-1.71c.61,0,.83.36.83.97,0,.62-.26.97-.84.97s-.81-.38-.82-.97c0-.65.27-.97.83-.97Z"/>
    <path class="cls-9" d="m76.52,228c-.03-.33-.84-.37-.85,0,.15.52,1.13.12,1.17.88.04.76-1.47.73-1.54.08l.27-.05c.04.35.95.44.96,0-.1-.55-1.11-.15-1.16-.88-.04-.56.8-.62,1.2-.41.12.07.21.19.24.34l-.28.04Z"/>
    <path class="cls-9" d="m79.43,228.3c.06-.59-.74-.75-.95-.27-.03.07-.06.17-.06.27h1.01Zm-.51-.79c.62,0,.84.41.82,1.04h-1.32c0,.39.14.66.52.67.25,0,.42-.12.48-.28l.27.08c-.11.27-.36.44-.75.44-.57,0-.86-.36-.85-.98,0-.6.25-.96.83-.96Z"/>
    <polygon class="cls-9" points="80.14 229.4 80.14 228.13 80.14 226.85 80.45 226.85 80.45 228.13 80.45 229.4 80.14 229.4"/>
    <path class="cls-9" d="m82.17,228.3c.06-.59-.74-.75-.95-.27-.03.07-.06.17-.06.27h1.01Zm-.51-.79c.62,0,.84.41.82,1.04h-1.32c0,.39.14.66.52.67.25,0,.42-.12.48-.28l.27.08c-.11.27-.36.44-.75.44-.57,0-.86-.36-.85-.98,0-.6.25-.96.83-.96Z"/>
    <path class="cls-9" d="m84.7,227.75c-.66.03-.37,1.03-.43,1.66h-.3v-1.19c0-.28-.05-.49-.34-.47-.65.04-.37,1.02-.43,1.66h-.3v-1.86s.28,0,.28,0c0,.1,0,.24.02.31.1-.43.97-.49,1.05,0,.11-.21.26-.34.57-.35.83-.02.46,1.17.54,1.9h-.3v-1.19c0-.28-.05-.48-.34-.47Z"/>
    <path class="cls-9" d="m87.06,228.3c.06-.59-.74-.75-.95-.27-.03.07-.06.17-.06.27h1.01Zm-.51-.79c.62,0,.84.41.82,1.04h-1.32c0,.39.14.66.52.67.25,0,.42-.12.48-.28l.27.08c-.11.27-.36.44-.75.44-.57,0-.86-.36-.85-.98,0-.6.25-.96.83-.96Z"/>
    <path class="cls-9" d="m88.68,227.5c.87-.04.52,1.14.59,1.9h-.31v-1.19c0-.3-.08-.48-.38-.47-.71.02-.43,1-.48,1.66h-.31v-1.86s.28,0,.28,0c0,.1,0,.24.02.31.11-.22.28-.34.6-.35Z"/>
    <path class="cls-9" d="m90.07,228.94c-.02.24.18.28.37.22v.24c-.32.1-.69.05-.69-.38v-1.24h-.22v-.23h.24l.09-.42h.21v.42h.34v.23h-.34v1.18Z"/>
    <path class="cls-9" d="m91.44,229.21c.43,0,.52-.3.52-.74s-.08-.74-.5-.74-.52.31-.52.74.1.73.5.74Zm0-1.71c.61,0,.83.36.83.97,0,.62-.26.97-.84.97s-.81-.38-.82-.97c0-.65.27-.97.83-.97Z"/>
    <path class="cls-9" d="m93.75,228c-.03-.33-.84-.37-.85,0,.15.52,1.13.12,1.17.88.04.76-1.47.73-1.54.08l.27-.05c.04.35.95.44.96,0-.1-.55-1.11-.15-1.16-.88-.04-.56.8-.62,1.2-.41.12.07.21.19.24.34l-.28.04Z"/>
    <path class="cls-9" d="m96.08,227.74c-.39,0-.45.33-.45.74s.06.73.44.73c.41,0,.5-.31.5-.74s-.09-.73-.49-.72Zm-.09-.24c.3,0,.47.13.59.32v-.98s.3,0,.3,0v2.56s-.28,0-.28,0c-.02-.1,0-.23-.03-.3-.1.23-.27.34-.58.34-.52,0-.68-.38-.69-.96,0-.65.23-.98.69-.98Z"/>
    <path class="cls-9" d="m98.61,228.3c.06-.59-.74-.75-.95-.27-.03.07-.06.17-.06.27h1.01Zm-.51-.79c.62,0,.84.41.82,1.04h-1.32c0,.39.14.66.52.67.25,0,.42-.12.48-.28l.27.08c-.11.27-.36.44-.75.44-.57,0-.86-.36-.85-.98,0-.6.25-.96.83-.96Z"/>
    <polygon class="cls-9" points="100.29 229.4 100.29 228.13 100.29 226.85 100.61 226.85 100.61 228.13 100.61 229.4 100.29 229.4"/>
    <path class="cls-9" d="m101.3,228.89c0,.2.12.32.31.32.4-.03.62-.28.59-.73-.42.02-.9-.05-.9.4Zm.91.17c-.15.21-.3.4-.67.39-.35,0-.57-.21-.57-.56,0-.63.62-.62,1.23-.62.03-.34-.09-.53-.4-.53-.24,0-.4.07-.41.3l-.32-.03c.05-.36.32-.51.74-.51s.71.2.71.63v.8c0,.2.07.31.27.26v.2c-.3.09-.6-.02-.58-.34Z"/>
    <path class="cls-9" d="m104.78,227.11c-.3-.09-.41.1-.37.43h.37v.23h-.37v1.64h-.3v-1.64h-.26v-.23h.26c-.07-.51.17-.8.68-.67v.24Z"/>
    <path class="cls-9" d="m105,229.4v-1.86h.31v1.86h-.31Zm0-2.26v-.29h.31v.29h-.31Z"/>
    <polygon class="cls-9" points="105.78 229.4 105.78 228.13 105.78 226.85 106.09 226.85 106.09 228.13 106.09 229.4 105.78 229.4"/>
    <path class="cls-9" d="m106.79,228.89c0,.2.12.32.31.32.4-.03.62-.28.59-.73-.42.02-.9-.05-.9.4Zm.91.17c-.15.21-.3.4-.67.39-.35,0-.57-.21-.57-.56,0-.63.62-.62,1.23-.62.03-.34-.09-.53-.4-.53-.24,0-.4.07-.41.3l-.32-.03c.05-.36.32-.51.74-.51s.71.2.71.63v.8c0,.2.07.31.27.26v.2c-.3.09-.6-.02-.58-.34Z"/>
    <path class="cls-9" d="m62.22,233.12c0,.2.12.32.31.32.4-.03.62-.28.59-.73-.42.02-.9-.05-.9.4Zm.91.17c-.15.21-.3.4-.67.39-.35,0-.57-.21-.57-.56,0-.63.62-.62,1.23-.62.03-.34-.09-.53-.4-.53-.24,0-.4.07-.41.3l-.32-.03c.05-.36.32-.51.74-.51s.71.2.71.63v.8c0,.2.07.31.27.26v.2c-.3.09-.6-.02-.58-.34Z"/>
    <path class="cls-9" d="m64.85,231.74c.87-.04.52,1.14.59,1.9h-.31v-1.19c0-.3-.08-.48-.38-.47-.71.02-.43,1-.48,1.66h-.31v-1.86s.28,0,.28,0c0,.1,0,.24.02.31.11-.22.28-.34.6-.35Z"/>
    <path class="cls-9" d="m66.25,233.18c-.02.24.18.28.37.22v.24c-.32.1-.69.05-.69-.38v-1.24h-.22v-.23h.24l.09-.42h.21v.42h.34v.23h-.34v1.18Z"/>
    <path class="cls-9" d="m68.14,232.53c.06-.59-.74-.75-.95-.27-.03.07-.06.17-.06.27h1.01Zm-.51-.79c.62,0,.84.41.82,1.04h-1.32c0,.39.14.66.52.67.25,0,.42-.12.48-.28l.27.08c-.11.27-.36.44-.75.44-.57,0-.86-.36-.85-.98,0-.6.25-.96.83-.96Z"/>
    <path class="cls-9" d="m69.73,232.04c-.76-.16-.52.89-.56,1.6h-.31v-1.86s.28,0,.28,0c0,.12,0,.28.02.38.06-.26.23-.48.57-.4v.28Z"/>
    <path class="cls-9" d="m70.01,233.64v-1.86h.31v1.86h-.31Zm0-2.26v-.29h.31v.29h-.31Z"/>
    <path class="cls-9" d="m71.52,233.44c.43,0,.52-.3.52-.74s-.08-.74-.5-.74-.52.31-.52.74.1.73.5.74Zm0-1.71c.61,0,.83.36.83.97,0,.62-.26.97-.84.97s-.81-.38-.82-.97c0-.65.27-.97.83-.97Z"/>
    <path class="cls-9" d="m73.63,232.04c-.76-.16-.52.89-.56,1.6h-.31v-1.86s.28,0,.28,0c0,.12,0,.28.02.38.06-.26.23-.48.57-.4v.28Z"/>
    <path class="cls-9" d="m87.28,234.38c-.37-.41-.64-.9-.64-1.66s.27-1.24.64-1.64h.3c-.37.4-.63.9-.63,1.65s.25,1.24.63,1.65h-.3Z"/>
    <path class="cls-9" d="m88.21,232.38c.59-.02,1.34.13,1.34-.46s-.78-.41-1.34-.44v.9Zm1.67-.47c0,.4-.23.63-.59.69l.69,1.05h-.37l-.64-1.01h-.75v1.01h-.32v-2.43c.86.03,2.01-.21,1.99.7Z"/>
    <path class="cls-9" d="m91.62,232.53c.06-.59-.74-.75-.95-.27-.03.07-.06.17-.06.27h1.01Zm-.51-.79c.62,0,.84.41.82,1.04h-1.32c0,.39.14.66.52.67.25,0,.42-.12.48-.28l.27.08c-.11.27-.36.44-.75.44-.57,0-.86-.36-.85-.98,0-.6.25-.96.83-.96Z"/>
    <path class="cls-9" d="m93.01,233.42c.35,0,.49-.31.49-.72s-.14-.74-.49-.74c-.38,0-.45.33-.45.74s.06.72.45.72Zm.81-1.65c-.1,1.23.4,2.87-1.08,2.56-.23-.06-.37-.2-.43-.42l.31-.05c.15.46.98.31.87-.27v-.29c-.11.21-.28.35-.6.35-.53,0-.67-.4-.67-.94s.16-.95.7-.96c.28,0,.47.16.58.34,0-.1,0-.23.02-.31h.29Z"/>
    <path class="cls-9" d="m94.29,233.64v-1.86h.31v1.86h-.31Zm0-2.26v-.29h.31v.29h-.31Z"/>
    <path class="cls-9" d="m96.15,232.24c-.03-.33-.84-.37-.85,0,.15.52,1.13.12,1.17.88.04.76-1.47.73-1.54.08l.27-.05c.04.35.95.44.96,0-.1-.55-1.11-.15-1.16-.88-.04-.56.8-.62,1.2-.41.12.07.21.19.24.34l-.28.04Z"/>
    <path class="cls-9" d="m97.17,233.18c-.02.24.18.28.37.22v.24c-.32.1-.69.05-.69-.38v-1.24h-.22v-.23h.24l.09-.42h.21v.42h.34v.23h-.34v1.18Z"/>
    <path class="cls-9" d="m98.69,232.04c-.76-.16-.52.89-.56,1.6h-.31v-1.86s.28,0,.28,0c0,.12,0,.28.02.38.06-.26.23-.48.57-.4v.28Z"/>
    <path class="cls-9" d="m99.71,233.44c.43,0,.52-.3.52-.74s-.08-.74-.5-.74-.52.31-.52.74.1.73.5.74Zm0-1.71c.61,0,.83.36.83.97,0,.62-.26.97-.84.97s-.81-.38-.82-.97c0-.65.27-.97.83-.97Z"/>
    <polygon class="cls-9" points="100.65 234.35 100.65 234.23 100.65 234.12 102.7 234.12 102.7 234.23 102.7 234.35 100.65 234.35"/>
    <path class="cls-9" d="m103.8,231.74c.87-.04.52,1.14.59,1.9h-.31v-1.19c0-.3-.08-.48-.38-.47-.71.02-.43,1-.48,1.66h-.31v-1.86s.28,0,.28,0c0,.1,0,.24.02.31.11-.22.28-.34.6-.35Z"/>
    <path class="cls-9" d="m105.77,233.05v-.25h1.71v.25h-1.71Zm0-.88v-.25h1.71v.25h-1.71Z"/>
    <path class="cls-9" d="m74.66,236.61c.59-.02,1.34.13,1.34-.46s-.78-.41-1.34-.44v.9Zm1.67-.47c0,.4-.23.63-.59.69l.69,1.05h-.37l-.64-1.01h-.75v1.01h-.32v-2.43c.86.03,2.01-.21,1.99.7Z"/>
    <path class="cls-9" d="m78.07,236.77c.06-.59-.74-.75-.95-.27-.03.07-.06.17-.06.27h1.01Zm-.51-.79c.62,0,.84.41.82,1.04h-1.32c0,.39.14.66.52.67.25,0,.42-.12.48-.28l.27.08c-.11.27-.36.44-.75.44-.57,0-.86-.36-.85-.98,0-.6.25-.96.83-.96Z"/>
    <path class="cls-9" d="m79.46,237.66c.35,0,.49-.31.49-.72s-.14-.74-.49-.74c-.38,0-.45.33-.45.74s.06.72.45.72Zm.81-1.65c-.1,1.23.4,2.87-1.08,2.56-.23-.06-.37-.2-.43-.42l.31-.05c.15.46.98.31.87-.27v-.29c-.11.21-.28.35-.6.35-.53,0-.67-.4-.67-.94s.16-.95.7-.96c.28,0,.47.16.58.34,0-.1,0-.23.02-.31h.29Z"/>
    <path class="cls-9" d="m80.74,237.88v-1.86h.31v1.86h-.31Zm0-2.26v-.29h.31v.29h-.31Z"/>
    <path class="cls-9" d="m82.6,236.47c-.03-.33-.84-.37-.85,0,.15.52,1.13.12,1.17.88.04.76-1.47.73-1.54.08l.27-.05c.04.35.95.44.96,0-.1-.55-1.11-.15-1.16-.88-.04-.56.8-.62,1.2-.41.12.07.21.19.24.34l-.28.04Z"/>
    <path class="cls-9" d="m83.62,237.41c-.02.24.18.28.37.22v.24c-.32.1-.69.05-.69-.38v-1.24h-.22v-.23h.24l.09-.42h.21v.42h.34v.23h-.34v1.18Z"/>
    <path class="cls-9" d="m85.14,236.28c-.76-.16-.52.89-.56,1.6h-.31v-1.86s.28,0,.28,0c0,.12,0,.28.02.38.06-.26.23-.48.57-.4v.28Z"/>
    <path class="cls-9" d="m86.16,237.68c.43,0,.52-.3.52-.74s-.08-.74-.5-.74-.52.31-.52.74.1.73.5.74Zm0-1.71c.61,0,.83.36.83.97,0,.62-.26.97-.84.97s-.81-.38-.82-.97c0-.65.27-.97.83-.97Z"/>
    <polygon class="cls-9" points="87.1 238.58 87.1 238.47 87.1 238.36 89.15 238.36 89.15 238.47 89.15 238.58 87.1 238.58"/>
    <path class="cls-9" d="m90.25,235.97c.87-.04.52,1.14.59,1.9h-.31v-1.19c0-.3-.08-.48-.38-.47-.71.02-.43,1-.48,1.66h-.31v-1.86s.28,0,.28,0c0,.1,0,.24.02.31.11-.22.28-.34.6-.35Z"/>
    <polygon class="cls-9" points="91.22 237.07 91.22 236.93 91.22 236.8 92.09 236.8 92.09 236.93 92.09 237.07 91.22 237.07"/>
    <polygon class="cls-9" points="92.5 237.88 92.5 237.74 92.5 237.61 93.13 237.61 93.13 236.68 93.13 235.75 92.58 236.13 92.58 235.99 92.58 235.85 93.15 235.44 93.43 235.44 93.43 236.53 93.43 237.61 94.03 237.61 94.03 237.74 94.03 237.88 92.5 237.88"/>
    <path class="cls-9" d="m94.52,235.32c.37.4.64.9.64,1.65s-.26,1.24-.64,1.65h-.3c.36-.4.63-.9.63-1.65s-.26-1.24-.63-1.65h.3Z"/>
    <path class="cls-8" d="m.13,153.92c0-1.59,1.59-1.59,1.59-1.59h57.33c1.56,0,1.56,1.59,1.56,1.59l.03,17.89c-.03,1.59-1.61,1.59-1.61,1.59H1.72c-1.59,0-1.59-1.59-1.59-1.59v-17.9Z"/>
    <path class="cls-1" d="m.13,153.92c0-1.59,1.59-1.59,1.59-1.59h57.33c1.56,0,1.56,1.59,1.56,1.59l.03,17.89c-.03,1.59-1.61,1.59-1.61,1.59H1.72c-1.59,0-1.59-1.59-1.59-1.59v-17.9Z"/>
    <path class="cls-9" d="m6.95,159.26l.02-2.14c-.23.74-.53,1.42-.78,2.14h-.23l-.79-2.14v2.14s-.27,0-.27,0v-2.43h.43l.75,2.07c.21-.74.5-1.37.74-2.07h.42v2.43h-.29Z"/>
    <path class="cls-9" d="m8,158.74c0,.2.12.32.31.32.4-.03.62-.28.59-.73-.42.02-.9-.05-.9.4Zm.91.17c-.15.21-.3.4-.67.39-.35,0-.57-.21-.57-.56,0-.63.62-.62,1.23-.62.03-.34-.09-.53-.4-.53-.24,0-.4.07-.41.3l-.32-.03c.05-.36.32-.51.74-.51s.71.2.71.63v.8c0,.2.07.31.27.26v.2c-.3.09-.6-.02-.58-.34Z"/>
    <path class="cls-9" d="m10.64,157.36c.87-.04.52,1.14.59,1.9h-.31v-1.19c0-.3-.08-.48-.38-.47-.71.02-.43,1-.48,1.66h-.31v-1.86s.28,0,.28,0c0,.1,0,.24.02.31.11-.22.28-.34.6-.35Z"/>
    <path class="cls-9" d="m12.37,157.59c-.39,0-.45.33-.45.74s.06.73.44.73c.41,0,.5-.31.5-.74s-.09-.73-.49-.72Zm-.09-.24c.3,0,.47.13.59.32v-.98s.3,0,.3,0v2.56s-.28,0-.28,0c-.02-.1,0-.23-.03-.3-.1.23-.27.34-.58.34-.52,0-.68-.38-.69-.96,0-.65.23-.98.69-.98Z"/>
    <path class="cls-9" d="m13.88,158.74c0,.2.12.32.31.32.4-.03.62-.28.59-.73-.42.02-.9-.05-.9.4Zm.91.17c-.15.21-.3.4-.67.39-.35,0-.57-.21-.57-.56,0-.63.62-.62,1.23-.62.03-.34-.09-.53-.4-.53-.24,0-.4.07-.41.3l-.32-.03c.05-.36.32-.51.74-.51s.71.2.71.63v.8c0,.2.07.31.27.26v.2c-.3.09-.6-.02-.58-.34Z"/>
    <path class="cls-9" d="m16.49,157.66c-.76-.16-.52.89-.56,1.6h-.31v-1.86s.28,0,.28,0c0,.12,0,.28.02.38.06-.26.23-.48.57-.4v.28Z"/>
    <polygon class="cls-9" points="17.75 159.26 17.75 157.98 17.75 156.7 18.07 156.7 18.07 157.98 18.07 159.26 17.75 159.26"/>
    <path class="cls-9" d="m19.26,159.06c.43,0,.52-.3.52-.74s-.08-.74-.5-.74-.52.31-.52.74.1.73.5.74Zm0-1.71c.61,0,.83.36.83.97,0,.62-.26.97-.84.97s-.81-.38-.82-.97c0-.65.27-.97.83-.97Z"/>
    <path class="cls-9" d="m21.58,157.86c-.03-.33-.84-.37-.85,0,.15.52,1.13.12,1.17.88.04.76-1.47.73-1.54.08l.27-.05c.04.35.95.44.96,0-.1-.55-1.11-.15-1.16-.88-.04-.56.8-.62,1.2-.41.12.07.21.19.24.34l-.28.04Z"/>
    <path class="cls-9" d="m24.49,158.15c.06-.59-.74-.75-.95-.27-.03.07-.06.17-.06.27h1.01Zm-.51-.79c.62,0,.84.41.82,1.04h-1.32c0,.39.14.66.52.67.25,0,.42-.12.48-.28l.27.08c-.11.27-.36.44-.75.44-.57,0-.86-.36-.85-.98,0-.6.25-.96.83-.96Z"/>
    <polygon class="cls-9" points="25.19 159.26 25.19 157.98 25.19 156.7 25.51 156.7 25.51 157.98 25.51 159.26 25.19 159.26"/>
    <path class="cls-9" d="m27.22,158.15c.06-.59-.74-.75-.95-.27-.03.07-.06.17-.06.27h1.01Zm-.51-.79c.62,0,.84.41.82,1.04h-1.32c0,.39.14.66.52.67.25,0,.42-.12.48-.28l.27.08c-.11.27-.36.44-.75.44-.57,0-.86-.36-.85-.98,0-.6.25-.96.83-.96Z"/>
    <path class="cls-9" d="m29.75,157.6c-.66.03-.37,1.03-.43,1.66h-.3v-1.19c0-.28-.05-.49-.34-.47-.65.04-.37,1.02-.43,1.66h-.3v-1.86s.28,0,.28,0c0,.1,0,.24.02.31.1-.43.97-.49,1.05,0,.11-.21.26-.34.57-.35.83-.02.46,1.17.54,1.9h-.3v-1.19c0-.28-.05-.48-.34-.47Z"/>
    <path class="cls-9" d="m32.11,158.15c.06-.59-.74-.75-.95-.27-.03.07-.06.17-.06.27h1.01Zm-.51-.79c.62,0,.84.41.82,1.04h-1.32c0,.39.14.66.52.67.25,0,.42-.12.48-.28l.27.08c-.11.27-.36.44-.75.44-.57,0-.86-.36-.85-.98,0-.6.25-.96.83-.96Z"/>
    <path class="cls-9" d="m33.73,157.36c.87-.04.52,1.14.59,1.9h-.31v-1.19c0-.3-.08-.48-.38-.47-.71.02-.43,1-.48,1.66h-.31v-1.86s.28,0,.28,0c0,.1,0,.24.02.31.11-.22.28-.34.6-.35Z"/>
    <path class="cls-9" d="m35.12,158.8c-.02.24.18.28.37.22v.24c-.32.1-.69.05-.69-.38v-1.24h-.22v-.23h.24l.09-.42h.21v.42h.34v.23h-.34v1.18Z"/>
    <path class="cls-9" d="m36.49,159.06c.43,0,.52-.3.52-.74s-.08-.74-.5-.74-.52.31-.52.74.1.73.5.74Zm0-1.71c.61,0,.83.36.83.97,0,.62-.26.97-.84.97s-.81-.38-.82-.97c0-.65.27-.97.83-.97Z"/>
    <path class="cls-9" d="m38.81,157.86c-.03-.33-.84-.37-.85,0,.15.52,1.13.12,1.17.88.04.76-1.47.73-1.54.08l.27-.05c.04.35.95.44.96,0-.1-.55-1.11-.15-1.16-.88-.04-.56.8-.62,1.2-.41.12.07.21.19.24.34l-.28.04Z"/>
    <path class="cls-9" d="m40.7,158.74c0,.2.12.32.31.32.4-.03.62-.28.59-.73-.42.02-.9-.05-.9.4Zm.91.17c-.15.21-.3.4-.67.39-.35,0-.57-.21-.57-.56,0-.63.62-.62,1.23-.62.03-.34-.09-.53-.4-.53-.24,0-.4.07-.41.3l-.32-.03c.05-.36.32-.51.74-.51s.71.2.71.63v.8c0,.2.07.31.27.26v.2c-.3.09-.6-.02-.58-.34Z"/>
    <polygon class="cls-9" points="43.41 159.26 43.41 157.98 43.41 156.7 43.72 156.7 43.72 157.98 43.72 159.26 43.41 159.26"/>
    <path class="cls-9" d="m44.42,158.74c0,.2.12.32.31.32.4-.03.62-.28.59-.73-.42.02-.9-.05-.9.4Zm.91.17c-.15.21-.3.4-.67.39-.35,0-.57-.21-.57-.56,0-.63.62-.62,1.23-.62.03-.34-.09-.53-.4-.53-.24,0-.4.07-.41.3l-.32-.03c.05-.36.32-.51.74-.51s.71.2.71.63v.8c0,.2.07.31.27.26v.2c-.3.09-.6-.02-.58-.34Z"/>
    <path class="cls-9" d="m47.87,156.97c-.3-.09-.41.1-.37.43h.37v.23h-.37v1.64h-.3v-1.64h-.26v-.23h.26c-.07-.51.17-.8.68-.67v.24Z"/>
    <path class="cls-9" d="m48.09,159.26v-1.86h.31v1.86h-.31Zm0-2.26v-.29h.31v.29h-.31Z"/>
    <polygon class="cls-9" points="48.87 159.26 48.87 157.98 48.87 156.7 49.18 156.7 49.18 157.98 49.18 159.26 48.87 159.26"/>
    <path class="cls-9" d="m49.88,158.74c0,.2.12.32.31.32.4-.03.62-.28.59-.73-.42.02-.9-.05-.9.4Zm.91.17c-.15.21-.3.4-.67.39-.35,0-.57-.21-.57-.56,0-.63.62-.62,1.23-.62.03-.34-.09-.53-.4-.53-.24,0-.4.07-.41.3l-.32-.03c.05-.36.32-.51.74-.51s.71.2.71.63v.8c0,.2.07.31.27.26v.2c-.3.09-.6-.02-.58-.34Z"/>
    <path class="cls-9" d="m53.28,157.59c-.39,0-.45.33-.45.74s.06.73.44.73c.41,0,.5-.31.5-.74s-.09-.73-.49-.72Zm-.09-.24c.3,0,.47.13.59.32v-.98s.3,0,.3,0v2.56s-.28,0-.28,0c-.02-.1,0-.23-.03-.3-.1.23-.27.34-.58.34-.52,0-.68-.38-.69-.96,0-.65.23-.98.69-.98Z"/>
    <path class="cls-9" d="m55.81,158.15c.06-.59-.74-.75-.95-.27-.03.07-.06.17-.06.27h1.01Zm-.51-.79c.62,0,.84.41.82,1.04h-1.32c0,.39.14.66.52.67.25,0,.42-.12.48-.28l.27.08c-.11.27-.36.44-.75.44-.57,0-.86-.36-.85-.98,0-.6.25-.96.83-.96Z"/>
    <path class="cls-9" d="m10.59,162.98c0,.2.12.32.31.32.4-.03.62-.28.59-.73-.42.02-.9-.05-.9.4Zm.91.17c-.15.21-.3.4-.67.39-.35,0-.57-.21-.57-.56,0-.63.62-.62,1.23-.62.03-.34-.09-.53-.4-.53-.24,0-.4.07-.41.3l-.32-.03c.05-.36.32-.51.74-.51s.71.2.71.63v.8c0,.2.07.31.27.26v.2c-.3.09-.6-.02-.58-.34Z"/>
    <path class="cls-9" d="m13.13,163.3c.39,0,.44-.33.44-.74s-.05-.74-.44-.73c-.41,0-.5.31-.5.74s.1.72.5.72Zm.08-1.71c.52,0,.68.38.69.96,0,.65-.23.98-.69.98-.3,0-.48-.11-.58-.33l-.02.29h-.3v-2.56h.32v.99c.1-.23.27-.33.58-.33Z"/>
    <path class="cls-9" d="m14.51,162.98c0,.2.12.32.31.32.4-.03.62-.28.59-.73-.42.02-.9-.05-.9.4Zm.91.17c-.15.21-.3.4-.67.39-.35,0-.57-.21-.57-.56,0-.63.62-.62,1.23-.62.03-.34-.09-.53-.4-.53-.24,0-.4.07-.41.3l-.32-.03c.05-.36.32-.51.74-.51s.71.2.71.63v.8c0,.2.07.31.27.26v.2c-.3.09-.6-.02-.58-.34Z"/>
    <path class="cls-9" d="m15.92,163.97c.24.04.32-.06.32-.29v-2.05h.31v2.1c.02.39-.23.57-.64.48v-.24Zm.32-2.74v-.29h.31v.29h-.31Z"/>
    <path class="cls-9" d="m17.75,163.3c.43,0,.52-.3.52-.74s-.08-.74-.5-.74-.52.31-.52.74.1.73.5.74Zm0-1.71c.61,0,.83.36.83.97,0,.62-.26.97-.84.97s-.81-.38-.82-.97c0-.65.27-.97.83-.97Z"/>
    <path class="cls-9" d="m30.37,164.23c-.37-.41-.64-.9-.64-1.66s.27-1.24.64-1.64h.3c-.37.4-.63.9-.63,1.65s.25,1.24.63,1.65h-.3Z"/>
    <path class="cls-9" d="m31.31,162.23c.59-.02,1.34.13,1.34-.46s-.78-.41-1.34-.44v.9Zm1.67-.47c0,.4-.23.63-.59.69l.69,1.05h-.37l-.64-1.01h-.75v1.01h-.32v-2.43c.86.03,2.01-.21,1.99.7Z"/>
    <path class="cls-9" d="m34.72,162.39c.06-.59-.74-.75-.95-.27-.03.07-.06.17-.06.27h1.01Zm-.51-.79c.62,0,.84.41.82,1.04h-1.32c0,.39.14.66.52.67.25,0,.42-.12.48-.28l.27.08c-.11.27-.36.44-.75.44-.57,0-.86-.36-.85-.98,0-.6.25-.96.83-.96Z"/>
    <path class="cls-9" d="m36.11,163.28c.35,0,.49-.31.49-.72s-.14-.74-.49-.74c-.38,0-.45.33-.45.74s.06.72.45.72Zm.81-1.65c-.1,1.23.4,2.87-1.08,2.56-.23-.06-.37-.2-.43-.42l.31-.05c.15.46.98.31.87-.27v-.29c-.11.21-.28.35-.6.35-.53,0-.67-.4-.67-.94s.16-.95.7-.96c.28,0,.47.16.58.34,0-.1,0-.23.02-.31h.29Z"/>
    <path class="cls-9" d="m37.38,163.49v-1.86h.31v1.86h-.31Zm0-2.26v-.29h.31v.29h-.31Z"/>
    <path class="cls-9" d="m39.25,162.09c-.03-.33-.84-.37-.85,0,.15.52,1.13.12,1.17.88.04.76-1.47.73-1.54.08l.27-.05c.04.35.95.44.96,0-.1-.55-1.11-.15-1.16-.88-.04-.56.8-.62,1.2-.41.12.07.21.19.24.34l-.28.04Z"/>
    <path class="cls-9" d="m40.26,163.03c-.02.24.18.28.37.22v.24c-.32.1-.69.05-.69-.38v-1.24h-.22v-.23h.24l.09-.42h.21v.42h.34v.23h-.34v1.18Z"/>
    <path class="cls-9" d="m41.78,161.9c-.76-.16-.52.89-.56,1.6h-.31v-1.86s.28,0,.28,0c0,.12,0,.28.02.38.06-.26.23-.48.57-.4v.28Z"/>
    <path class="cls-9" d="m42.8,163.3c.43,0,.52-.3.52-.74s-.08-.74-.5-.74-.52.31-.52.74.1.73.5.74Zm0-1.71c.61,0,.83.36.83.97,0,.62-.26.97-.84.97s-.81-.38-.82-.97c0-.65.27-.97.83-.97Z"/>
    <polygon class="cls-9" points="43.74 164.2 43.74 164.09 43.74 163.97 45.79 163.97 45.79 164.09 45.79 164.2 43.74 164.2"/>
    <path class="cls-9" d="m46.9,161.59c.87-.04.52,1.14.59,1.9h-.31v-1.19c0-.3-.08-.48-.38-.47-.71.02-.43,1-.48,1.66h-.31v-1.86s.28,0,.28,0c0,.1,0,.24.02.31.11-.22.28-.34.6-.35Z"/>
    <path class="cls-9" d="m48.85,162.91v-.25h1.71v.25h-1.71Zm0-.88v-.25h1.71v.25h-1.71Z"/>
    <path class="cls-9" d="m19.95,166.47c.59-.02,1.34.13,1.34-.46s-.78-.41-1.34-.44v.9Zm1.67-.47c0,.4-.23.63-.59.69l.69,1.05h-.37l-.64-1.01h-.75v1.01h-.32v-2.43c.86.03,2.01-.21,1.99.7Z"/>
    <path class="cls-9" d="m23.36,166.62c.06-.59-.74-.75-.95-.27-.03.07-.06.17-.06.27h1.01Zm-.51-.79c.62,0,.84.41.82,1.04h-1.32c0,.39.14.66.52.67.25,0,.42-.12.48-.28l.27.08c-.11.27-.36.44-.75.44-.57,0-.86-.36-.85-.98,0-.6.25-.96.83-.96Z"/>
    <path class="cls-9" d="m24.75,167.51c.35,0,.49-.31.49-.72s-.14-.74-.49-.74c-.38,0-.45.33-.45.74s.06.72.45.72Zm.81-1.65c-.1,1.23.4,2.87-1.08,2.56-.23-.06-.37-.2-.43-.42l.31-.05c.15.46.98.31.87-.27v-.29c-.11.21-.28.35-.6.35-.53,0-.67-.4-.67-.94s.16-.95.7-.96c.28,0,.47.16.58.34,0-.1,0-.23.02-.31h.29Z"/>
    <path class="cls-9" d="m26.03,167.73v-1.86h.31v1.86h-.31Zm0-2.26v-.29h.31v.29h-.31Z"/>
    <path class="cls-9" d="m27.89,166.33c-.03-.33-.84-.37-.85,0,.15.52,1.13.12,1.17.88.04.76-1.47.73-1.54.08l.27-.05c.04.35.95.44.96,0-.1-.55-1.11-.15-1.16-.88-.04-.56.8-.62,1.2-.41.12.07.21.19.24.34l-.28.04Z"/>
    <path class="cls-9" d="m28.91,167.27c-.02.24.18.28.37.22v.24c-.32.1-.69.05-.69-.38v-1.24h-.22v-.23h.24l.09-.42h.21v.42h.34v.23h-.34v1.18Z"/>
    <path class="cls-9" d="m30.43,166.13c-.76-.16-.52.89-.56,1.6h-.31v-1.86s.28,0,.28,0c0,.12,0,.28.02.38.06-.26.23-.48.57-.4v.28Z"/>
    <path class="cls-9" d="m31.45,167.53c.43,0,.52-.3.52-.74s-.08-.74-.5-.74-.52.31-.52.74.1.73.5.74Zm0-1.71c.61,0,.83.36.83.97,0,.62-.26.97-.84.97s-.81-.38-.82-.97c0-.65.27-.97.83-.97Z"/>
    <polygon class="cls-9" points="32.39 168.44 32.39 168.32 32.39 168.21 34.44 168.21 34.44 168.32 34.44 168.44 32.39 168.44"/>
    <path class="cls-9" d="m35.54,165.83c.87-.04.52,1.14.59,1.9h-.31v-1.19c0-.3-.08-.48-.38-.47-.71.02-.43,1-.48,1.66h-.31v-1.86s.28,0,.28,0c0,.1,0,.24.02.31.11-.22.28-.34.6-.35Z"/>
    <polygon class="cls-9" points="37.51 166.68 37.51 167.05 37.51 167.42 37.26 167.42 37.26 167.05 37.26 166.68 36.53 166.68 36.53 166.55 36.53 166.43 37.26 166.43 37.26 166.06 37.26 165.69 37.51 165.69 37.51 166.06 37.51 166.43 38.24 166.43 38.24 166.55 38.24 166.68 37.51 166.68"/>
    <polygon class="cls-9" points="38.68 167.73 38.68 167.6 38.68 167.47 39.31 167.47 39.31 166.53 39.31 165.6 38.76 165.99 38.76 165.84 38.76 165.7 39.33 165.3 39.61 165.3 39.61 166.38 39.61 167.47 40.21 167.47 40.21 167.6 40.21 167.73 38.68 167.73"/>
    <path class="cls-9" d="m40.7,165.17c.37.4.64.9.64,1.65s-.26,1.24-.64,1.65h-.3c.36-.4.63-.9.63-1.65s-.26-1.24-.63-1.65h.3Z"/>
    <path class="cls-1" d="m30.57,173.51v57.97c-.26,1.59,1.32,1.59,1.32,1.59h18"/>
    <path class="cls-2" d="m30.57,173.51h-.26.26Z"/>
    <polygon class="cls-9" points="53.87 233.07 50.16 234.13 50.16 231.74 53.87 233.07"/>
    <polygon class="cls-1" points="53.87 233.07 50.16 234.13 50.16 231.74 53.87 233.07"/>
  </g>
</svg>